<svg width="90" height="42" viewBox="0 0 90 42" fill="none" xmlns="http://www.w3.org/2000/svg">
<path d="M41 2V5" stroke="#7E7E7E" stroke-width="1.5" stroke-miterlimit="10" stroke-linecap="round" stroke-linejoin="round"/>
<path d="M49 2V5" stroke="#7E7E7E" stroke-width="1.5" stroke-miterlimit="10" stroke-linecap="round" stroke-linejoin="round"/>
<path d="M36.5 9.08984H53.5" stroke="#7E7E7E" stroke-width="1.5" stroke-miterlimit="10" stroke-linecap="round" stroke-linejoin="round"/>
<path d="M55 19C55 19.75 54.79 20.46 54.42 21.06C53.73 22.22 52.46 23 51 23C49.99 23 49.07 22.63 48.37 22C48.06 21.74 47.79 21.42 47.58 21.06C47.21 20.46 47 19.75 47 19C47 16.79 48.79 15 51 15C52.2 15 53.27 15.53 54 16.36C54.62 17.07 55 17.99 55 19Z" stroke="#7E7E7E" stroke-width="1.5" stroke-miterlimit="10" stroke-linecap="round" stroke-linejoin="round"/>
<path d="M49.4399 18.9995L50.4299 19.9895L52.5599 18.0195" stroke="#7E7E7E" stroke-width="1.5" stroke-linecap="round" stroke-linejoin="round"/>
<path d="M54 8.5V16.36C53.27 15.53 52.2 15 51 15C48.79 15 47 16.79 47 19C47 19.75 47.21 20.46 47.58 21.06C47.79 21.42 48.06 21.74 48.37 22H41C37.5 22 36 20 36 17V8.5C36 5.5 37.5 3.5 41 3.5H49C52.5 3.5 54 5.5 54 8.5Z" stroke="#7E7E7E" stroke-width="1.5" stroke-miterlimit="10" stroke-linecap="round" stroke-linejoin="round"/>
<path d="M44.9955 13.6992H45.0045" stroke="#7E7E7E" stroke-width="2" stroke-linecap="round" stroke-linejoin="round"/>
<path d="M41.2943 13.6992H41.3033" stroke="#7E7E7E" stroke-width="2" stroke-linecap="round" stroke-linejoin="round"/>
<path d="M41.2943 16.6992H41.3033" stroke="#7E7E7E" stroke-width="2" stroke-linecap="round" stroke-linejoin="round"/>
<path d="M20.888 38V29.6H23.84C24.432 29.6 24.92 29.696 25.304 29.888C25.696 30.072 25.988 30.328 26.18 30.656C26.372 30.976 26.468 31.336 26.468 31.736C26.468 32.28 26.32 32.708 26.024 33.02C25.736 33.332 25.388 33.548 24.98 33.668C25.292 33.724 25.576 33.848 25.832 34.04C26.088 34.232 26.288 34.472 26.432 34.76C26.584 35.048 26.66 35.364 26.66 35.708C26.66 36.132 26.556 36.52 26.348 36.872C26.14 37.216 25.832 37.492 25.424 37.7C25.016 37.9 24.52 38 23.936 38H20.888ZM21.896 33.272H23.768C24.304 33.272 24.716 33.148 25.004 32.9C25.292 32.644 25.436 32.292 25.436 31.844C25.436 31.42 25.292 31.08 25.004 30.824C24.724 30.568 24.3 30.44 23.732 30.44H21.896V33.272ZM21.896 37.16H23.828C24.404 37.16 24.848 37.028 25.16 36.764C25.472 36.492 25.628 36.116 25.628 35.636C25.628 35.164 25.464 34.788 25.136 34.508C24.808 34.22 24.364 34.076 23.804 34.076H21.896V37.16ZM30.7588 38.144C30.1988 38.144 29.6948 38.016 29.2468 37.76C28.7988 37.504 28.4428 37.144 28.1788 36.68C27.9228 36.208 27.7948 35.656 27.7948 35.024C27.7948 34.392 27.9268 33.844 28.1908 33.38C28.4548 32.908 28.8108 32.544 29.2588 32.288C29.7148 32.032 30.2228 31.904 30.7828 31.904C31.3428 31.904 31.8468 32.032 32.2948 32.288C32.7428 32.544 33.0948 32.908 33.3508 33.38C33.6148 33.844 33.7468 34.392 33.7468 35.024C33.7468 35.656 33.6148 36.208 33.3508 36.68C33.0868 37.144 32.7268 37.504 32.2708 37.76C31.8228 38.016 31.3188 38.144 30.7588 38.144ZM30.7588 37.28C31.1028 37.28 31.4228 37.196 31.7188 37.028C32.0148 36.86 32.2548 36.608 32.4388 36.272C32.6228 35.936 32.7148 35.52 32.7148 35.024C32.7148 34.528 32.6228 34.112 32.4388 33.776C32.2628 33.44 32.0268 33.188 31.7308 33.02C31.4348 32.852 31.1188 32.768 30.7828 32.768C30.4388 32.768 30.1188 32.852 29.8228 33.02C29.5268 33.188 29.2868 33.44 29.1028 33.776C28.9188 34.112 28.8268 34.528 28.8268 35.024C28.8268 35.52 28.9188 35.936 29.1028 36.272C29.2868 36.608 29.5228 36.86 29.8108 37.028C30.1068 37.196 30.4228 37.28 30.7588 37.28ZM37.8603 38.144C37.3003 38.144 36.7963 38.016 36.3483 37.76C35.9003 37.504 35.5443 37.144 35.2803 36.68C35.0243 36.208 34.8963 35.656 34.8963 35.024C34.8963 34.392 35.0283 33.844 35.2923 33.38C35.5563 32.908 35.9123 32.544 36.3603 32.288C36.8163 32.032 37.3243 31.904 37.8843 31.904C38.4443 31.904 38.9483 32.032 39.3963 32.288C39.8443 32.544 40.1963 32.908 40.4523 33.38C40.7163 33.844 40.8483 34.392 40.8483 35.024C40.8483 35.656 40.7163 36.208 40.4523 36.68C40.1883 37.144 39.8283 37.504 39.3723 37.76C38.9243 38.016 38.4203 38.144 37.8603 38.144ZM37.8603 37.28C38.2043 37.28 38.5243 37.196 38.8203 37.028C39.1163 36.86 39.3563 36.608 39.5403 36.272C39.7243 35.936 39.8163 35.52 39.8163 35.024C39.8163 34.528 39.7243 34.112 39.5403 33.776C39.3643 33.44 39.1283 33.188 38.8323 33.02C38.5363 32.852 38.2203 32.768 37.8843 32.768C37.5403 32.768 37.2203 32.852 36.9243 33.02C36.6283 33.188 36.3883 33.44 36.2043 33.776C36.0203 34.112 35.9283 34.528 35.9283 35.024C35.9283 35.52 36.0203 35.936 36.2043 36.272C36.3883 36.608 36.6243 36.86 36.9123 37.028C37.2083 37.196 37.5243 37.28 37.8603 37.28ZM42.2499 38V29.36H43.2579V34.556L45.6939 32.048H46.9299L44.2899 34.736L47.2659 38H45.9819L43.2579 34.916V38H42.2499ZM48.9088 30.728C48.7088 30.728 48.5408 30.664 48.4048 30.536C48.2768 30.4 48.2128 30.232 48.2128 30.032C48.2128 29.84 48.2768 29.68 48.4048 29.552C48.5408 29.424 48.7088 29.36 48.9088 29.36C49.1008 29.36 49.2648 29.424 49.4008 29.552C49.5368 29.68 49.6048 29.84 49.6048 30.032C49.6048 30.232 49.5368 30.4 49.4008 30.536C49.2648 30.664 49.1008 30.728 48.9088 30.728ZM48.4048 38V32.048H49.4128V38H48.4048ZM51.1678 38V32.048H52.0798L52.1398 33.116C52.3318 32.74 52.6078 32.444 52.9678 32.228C53.3278 32.012 53.7358 31.904 54.1918 31.904C54.8958 31.904 55.4558 32.12 55.8718 32.552C56.2958 32.976 56.5078 33.632 56.5078 34.52V38H55.4998V34.628C55.4998 33.388 54.9878 32.768 53.9638 32.768C53.4518 32.768 53.0238 32.956 52.6798 33.332C52.3438 33.7 52.1758 34.228 52.1758 34.916V38H51.1678ZM60.387 36.128C60.051 36.128 59.743 36.084 59.463 35.996L58.863 36.56C58.951 36.624 59.059 36.68 59.187 36.728C59.323 36.768 59.515 36.808 59.763 36.848C60.011 36.88 60.359 36.916 60.807 36.956C61.607 37.012 62.179 37.196 62.523 37.508C62.867 37.82 63.039 38.228 63.039 38.732C63.039 39.076 62.943 39.404 62.751 39.716C62.567 40.028 62.279 40.284 61.887 40.484C61.503 40.684 61.007 40.784 60.399 40.784C59.863 40.784 59.387 40.712 58.971 40.568C58.555 40.432 58.231 40.22 57.999 39.932C57.767 39.652 57.651 39.296 57.651 38.864C57.651 38.64 57.711 38.396 57.831 38.132C57.951 37.876 58.175 37.632 58.503 37.4C58.327 37.328 58.175 37.252 58.047 37.172C57.927 37.084 57.815 36.988 57.711 36.884V36.608L58.731 35.6C58.259 35.2 58.023 34.672 58.023 34.016C58.023 33.624 58.115 33.268 58.299 32.948C58.483 32.628 58.751 32.376 59.103 32.192C59.455 32 59.883 31.904 60.387 31.904C60.731 31.904 61.043 31.952 61.323 32.048H63.519V32.804L62.403 32.852C62.635 33.188 62.751 33.576 62.751 34.016C62.751 34.408 62.655 34.764 62.463 35.084C62.279 35.404 62.011 35.66 61.659 35.852C61.315 36.036 60.891 36.128 60.387 36.128ZM60.387 35.3C60.811 35.3 61.147 35.192 61.395 34.976C61.651 34.752 61.779 34.432 61.779 34.016C61.779 33.608 61.651 33.296 61.395 33.08C61.147 32.856 60.811 32.744 60.387 32.744C59.955 32.744 59.611 32.856 59.355 33.08C59.107 33.296 58.983 33.608 58.983 34.016C58.983 34.432 59.107 34.752 59.355 34.976C59.611 35.192 59.955 35.3 60.387 35.3ZM58.635 38.768C58.635 39.168 58.803 39.464 59.139 39.656C59.475 39.856 59.895 39.956 60.399 39.956C60.895 39.956 61.291 39.848 61.587 39.632C61.891 39.416 62.043 39.128 62.043 38.768C62.043 38.512 61.939 38.288 61.731 38.096C61.523 37.912 61.139 37.804 60.579 37.772C60.139 37.74 59.759 37.7 59.439 37.652C59.111 37.828 58.895 38.016 58.791 38.216C58.687 38.424 58.635 38.608 58.635 38.768ZM66.9361 38.144C66.2241 38.144 65.6321 37.964 65.1601 37.604C64.6881 37.244 64.4121 36.756 64.3321 36.14H65.3641C65.4281 36.452 65.5921 36.724 65.8561 36.956C66.1281 37.18 66.4921 37.292 66.9481 37.292C67.3721 37.292 67.6841 37.204 67.8841 37.028C68.0841 36.844 68.1841 36.628 68.1841 36.38C68.1841 36.02 68.0521 35.78 67.7881 35.66C67.5321 35.54 67.1681 35.432 66.6961 35.336C66.3761 35.272 66.0561 35.18 65.7361 35.06C65.4161 34.94 65.1481 34.772 64.9321 34.556C64.7161 34.332 64.6081 34.04 64.6081 33.68C64.6081 33.16 64.8001 32.736 65.1841 32.408C65.5761 32.072 66.1041 31.904 66.7681 31.904C67.4001 31.904 67.9161 32.064 68.3161 32.384C68.7241 32.696 68.9601 33.144 69.0241 33.728H68.0281C67.9881 33.424 67.8561 33.188 67.6321 33.02C67.4161 32.844 67.1241 32.756 66.7561 32.756C66.3961 32.756 66.1161 32.832 65.9161 32.984C65.7241 33.136 65.6281 33.336 65.6281 33.584C65.6281 33.824 65.7521 34.012 66.0001 34.148C66.2561 34.284 66.6001 34.4 67.0321 34.496C67.4001 34.576 67.7481 34.676 68.0761 34.796C68.4121 34.908 68.6841 35.08 68.8921 35.312C69.1081 35.536 69.2161 35.864 69.2161 36.296C69.2241 36.832 69.0201 37.276 68.6041 37.628C68.1961 37.972 67.6401 38.144 66.9361 38.144Z" fill="#7D7D7D"/>
</svg>
