<svg width="20" height="20" viewBox="0 0 20 20" fill="none" xmlns="http://www.w3.org/2000/svg">
<path d="M18.3087 15.2763C18.3087 15.5763 18.242 15.8846 18.1003 16.1846C17.9587 16.4846 17.7753 16.768 17.5337 17.0346C17.1253 17.4846 16.6753 17.8096 16.167 18.018C15.667 18.2263 15.1253 18.3346 14.542 18.3346C13.692 18.3346 12.7837 18.1346 11.8253 17.7263C10.867 17.318 9.90866 16.768 8.95866 16.0763C8.00033 15.3763 7.09199 14.6013 6.22533 13.743C5.36699 12.8763 4.59199 11.968 3.90033 11.018C3.21699 10.068 2.66699 9.11797 2.26699 8.1763C1.86699 7.2263 1.66699 6.31797 1.66699 5.4513C1.66699 4.88464 1.76699 4.34297 1.96699 3.84297C2.16699 3.33464 2.48366 2.86797 2.92533 2.4513C3.45866 1.9263 4.04199 1.66797 4.65866 1.66797C4.89199 1.66797 5.12533 1.71797 5.33366 1.81797C5.55033 1.91797 5.74199 2.06797 5.89199 2.28464L7.82533 5.00964C7.97533 5.21797 8.08366 5.40964 8.15866 5.59297C8.23366 5.76797 8.27533 5.94297 8.27533 6.1013C8.27533 6.3013 8.21699 6.5013 8.10033 6.69297C7.99199 6.88464 7.83366 7.08464 7.63366 7.28464L7.00033 7.94297C6.90866 8.03464 6.86699 8.14297 6.86699 8.2763C6.86699 8.34297 6.87533 8.4013 6.89199 8.46797C6.91699 8.53464 6.94199 8.58463 6.95866 8.63463C7.10866 8.90963 7.36699 9.26797 7.73366 9.7013C8.10866 10.1346 8.50866 10.5763 8.94199 11.018C9.39199 11.4596 9.82533 11.868 10.267 12.243C10.7003 12.6096 11.0587 12.8596 11.342 13.0096C11.3837 13.0263 11.4337 13.0513 11.492 13.0763C11.5587 13.1013 11.6253 13.1096 11.7003 13.1096C11.842 13.1096 11.9503 13.0596 12.042 12.968L12.6753 12.343C12.8837 12.1346 13.0837 11.9763 13.2753 11.8763C13.467 11.7596 13.6587 11.7013 13.867 11.7013C14.0253 11.7013 14.192 11.7346 14.3753 11.8096C14.5587 11.8846 14.7503 11.993 14.9587 12.1346L17.717 14.093C17.9337 14.243 18.0837 14.418 18.1753 14.6263C18.2587 14.8346 18.3087 15.043 18.3087 15.2763Z" stroke="#DBC4A1" stroke-width="1.5" stroke-miterlimit="10"/>
</svg>
