<svg width="354" height="281" viewBox="0 0 354 281" fill="none" xmlns="http://www.w3.org/2000/svg">
<circle cx="180" cy="87" r="62" fill="#EDE2D0"/>
<circle cx="259.5" cy="35" r="9" fill="#EDE2D0"/>
<circle cx="131.5" cy="175" r="9" fill="#EDE2D0"/>
<circle cx="242" cy="153.5" r="4.5" fill="#EDE2D0"/>
<circle cx="98" cy="94.5" r="4.5" fill="#EDE2D0"/>
<circle cx="94.5" cy="9" r="9" fill="#EDE2D0"/>
<path d="M172.332 67.834V73.584" stroke="#F9FAFA" stroke-width="2" stroke-miterlimit="10" stroke-linecap="round" stroke-linejoin="round"/>
<path d="M187.668 67.834V73.584" stroke="#F9FAFA" stroke-width="2" stroke-miterlimit="10" stroke-linecap="round" stroke-linejoin="round"/>
<path opacity="0.4" d="M163.707 81.4219H196.29" stroke="#F9FAFA" stroke-width="2" stroke-miterlimit="10" stroke-linecap="round" stroke-linejoin="round"/>
<path d="M191.499 108.083C195.733 108.083 199.165 104.651 199.165 100.417C199.165 96.1825 195.733 92.75 191.499 92.75C187.265 92.75 183.832 96.1825 183.832 100.417C183.832 104.651 187.265 108.083 191.499 108.083Z" stroke="#F9FAFA" stroke-width="2" stroke-miterlimit="10" stroke-linecap="round" stroke-linejoin="round"/>
<path d="M193.55 102.544L189.486 98.5" stroke="#F9FAFA" stroke-width="2" stroke-miterlimit="10" stroke-linecap="round" stroke-linejoin="round"/>
<path d="M193.513 98.5371L189.449 102.6" stroke="#F9FAFA" stroke-width="2" stroke-miterlimit="10" stroke-linecap="round" stroke-linejoin="round"/>
<path d="M197.25 80.2923V95.3573C195.851 93.7665 193.8 92.7507 191.5 92.7507C187.264 92.7507 183.833 96.1815 183.833 100.417C183.833 101.855 184.236 103.216 184.945 104.366C185.348 105.056 185.865 105.669 186.459 106.167H172.333C165.625 106.167 162.75 102.334 162.75 96.584V80.2923C162.75 74.5423 165.625 70.709 172.333 70.709H187.667C194.375 70.709 197.25 74.5423 197.25 80.2923Z" fill="#F5F5F5" fill-opacity="0.22" stroke="#F9FAFA" stroke-width="2" stroke-miterlimit="10" stroke-linecap="round" stroke-linejoin="round"/>
<path opacity="0.4" d="M179.991 90.2572H180.008" stroke="#F9FAFA" stroke-width="2" stroke-linecap="round" stroke-linejoin="round"/>
<path opacity="0.4" d="M172.897 90.2572H172.914" stroke="#F9FAFA" stroke-width="2" stroke-linecap="round" stroke-linejoin="round"/>
<path opacity="0.4" d="M172.898 96.0078H172.916" stroke="#F9FAFA" stroke-width="2" stroke-linecap="round" stroke-linejoin="round"/>
<path d="M98.4186 224.288C96.7546 224.288 95.3146 223.928 94.0986 223.208C92.8986 222.472 91.9706 221.456 91.3146 220.16C90.6586 218.848 90.3306 217.336 90.3306 215.624C90.3306 213.896 90.6586 212.384 91.3146 211.088C91.9706 209.776 92.8986 208.752 94.0986 208.016C95.3146 207.28 96.7546 206.912 98.4186 206.912C100.387 206.912 101.995 207.392 103.243 208.352C104.491 209.312 105.283 210.656 105.619 212.384H102.787C102.563 211.408 102.083 210.632 101.347 210.056C100.611 209.48 99.6266 209.192 98.3946 209.192C96.7146 209.192 95.3866 209.768 94.4106 210.92C93.4346 212.056 92.9466 213.624 92.9466 215.624C92.9466 217.608 93.4346 219.168 94.4106 220.304C95.3866 221.44 96.7146 222.008 98.3946 222.008C99.6266 222.008 100.611 221.736 101.347 221.192C102.083 220.648 102.563 219.904 102.787 218.96H105.619C105.283 220.624 104.491 221.928 103.243 222.872C101.995 223.816 100.387 224.288 98.4186 224.288ZM112.351 224.288C111.343 224.288 110.511 224.12 109.855 223.784C109.199 223.448 108.711 223.008 108.391 222.464C108.071 221.904 107.911 221.296 107.911 220.64C107.911 219.488 108.359 218.576 109.255 217.904C110.151 217.232 111.431 216.896 113.095 216.896H116.215V216.68C116.215 215.752 115.959 215.056 115.447 214.592C114.951 214.128 114.303 213.896 113.503 213.896C112.799 213.896 112.183 214.072 111.655 214.424C111.143 214.76 110.831 215.264 110.719 215.936H108.175C108.255 215.072 108.543 214.336 109.039 213.728C109.551 213.104 110.191 212.632 110.959 212.312C111.743 211.976 112.599 211.808 113.527 211.808C115.191 211.808 116.479 212.248 117.391 213.128C118.303 213.992 118.759 215.176 118.759 216.68V224H116.551L116.335 221.96C115.999 222.616 115.511 223.168 114.871 223.616C114.231 224.064 113.391 224.288 112.351 224.288ZM112.855 222.224C113.543 222.224 114.119 222.064 114.583 221.744C115.063 221.408 115.431 220.968 115.687 220.424C115.959 219.88 116.127 219.28 116.191 218.624H113.359C112.351 218.624 111.631 218.8 111.199 219.152C110.783 219.504 110.575 219.944 110.575 220.472C110.575 221.016 110.775 221.448 111.175 221.768C111.591 222.072 112.151 222.224 112.855 222.224ZM121.725 224V212.096H123.981L124.173 214.184C124.541 213.448 125.077 212.872 125.781 212.456C126.501 212.024 127.325 211.808 128.253 211.808C129.693 211.808 130.821 212.256 131.637 213.152C132.469 214.048 132.885 215.384 132.885 217.16V224H130.365V217.424C130.365 215.12 129.421 213.968 127.533 213.968C126.589 213.968 125.805 214.304 125.181 214.976C124.573 215.648 124.269 216.608 124.269 217.856V224H121.725ZM141.521 224.288C140.353 224.288 139.305 224.024 138.377 223.496C137.465 222.968 136.745 222.24 136.217 221.312C135.705 220.368 135.449 219.28 135.449 218.048C135.449 216.816 135.705 215.736 136.217 214.808C136.745 213.864 137.465 213.128 138.377 212.6C139.305 212.072 140.353 211.808 141.521 211.808C142.993 211.808 144.225 212.192 145.217 212.96C146.225 213.728 146.873 214.768 147.161 216.08H144.497C144.337 215.424 143.985 214.912 143.441 214.544C142.897 214.176 142.257 213.992 141.521 213.992C140.897 213.992 140.321 214.152 139.793 214.472C139.265 214.776 138.841 215.232 138.521 215.84C138.201 216.432 138.041 217.168 138.041 218.048C138.041 218.928 138.201 219.672 138.521 220.28C138.841 220.872 139.265 221.328 139.793 221.648C140.321 221.968 140.897 222.128 141.521 222.128C142.257 222.128 142.897 221.944 143.441 221.576C143.985 221.208 144.337 220.688 144.497 220.016H147.161C146.889 221.296 146.249 222.328 145.241 223.112C144.233 223.896 142.993 224.288 141.521 224.288ZM155.489 224.288C154.321 224.288 153.281 224.032 152.369 223.52C151.473 222.992 150.769 222.264 150.257 221.336C149.745 220.408 149.489 219.328 149.489 218.096C149.489 216.848 149.737 215.752 150.233 214.808C150.745 213.864 151.449 213.128 152.345 212.6C153.257 212.072 154.313 211.808 155.513 211.808C156.681 211.808 157.697 212.072 158.561 212.6C159.425 213.112 160.097 213.8 160.577 214.664C161.057 215.528 161.297 216.48 161.297 217.52C161.297 217.68 161.289 217.856 161.273 218.048C161.273 218.224 161.265 218.424 161.249 218.648H151.985C152.065 219.8 152.441 220.68 153.113 221.288C153.801 221.88 154.593 222.176 155.489 222.176C156.209 222.176 156.809 222.016 157.289 221.696C157.785 221.36 158.153 220.912 158.393 220.352H160.937C160.617 221.472 159.977 222.408 159.017 223.16C158.073 223.912 156.897 224.288 155.489 224.288ZM155.489 213.896C154.641 213.896 153.889 214.152 153.233 214.664C152.577 215.16 152.177 215.912 152.033 216.92H158.753C158.705 215.992 158.377 215.256 157.769 214.712C157.161 214.168 156.401 213.896 155.489 213.896ZM163.936 224V206.72H166.48V224H163.936ZM182.445 224.288C181.517 224.288 180.693 224.104 179.973 223.736C179.269 223.368 178.709 222.848 178.293 222.176L178.029 224H175.749V206.72H178.293V213.944C178.677 213.384 179.205 212.888 179.877 212.456C180.549 212.024 181.413 211.808 182.469 211.808C183.621 211.808 184.637 212.08 185.517 212.624C186.397 213.168 187.085 213.912 187.581 214.856C188.093 215.8 188.349 216.872 188.349 218.072C188.349 219.272 188.093 220.344 187.581 221.288C187.085 222.216 186.397 222.952 185.517 223.496C184.637 224.024 183.613 224.288 182.445 224.288ZM182.013 222.08C183.101 222.08 183.997 221.712 184.701 220.976C185.405 220.224 185.757 219.248 185.757 218.048C185.757 217.264 185.597 216.568 185.277 215.96C184.957 215.352 184.517 214.88 183.957 214.544C183.397 214.192 182.749 214.016 182.013 214.016C180.925 214.016 180.029 214.392 179.325 215.144C178.637 215.896 178.293 216.864 178.293 218.048C178.293 219.248 178.637 220.224 179.325 220.976C180.029 221.712 180.925 222.08 182.013 222.08ZM196.668 224.288C195.532 224.288 194.508 224.032 193.596 223.52C192.7 222.992 191.988 222.264 191.46 221.336C190.932 220.392 190.668 219.296 190.668 218.048C190.668 216.8 190.932 215.712 191.46 214.784C192.004 213.84 192.732 213.112 193.644 212.6C194.556 212.072 195.572 211.808 196.692 211.808C197.828 211.808 198.844 212.072 199.74 212.6C200.652 213.112 201.372 213.84 201.9 214.784C202.444 215.712 202.716 216.8 202.716 218.048C202.716 219.296 202.444 220.392 201.9 221.336C201.372 222.264 200.652 222.992 199.74 223.52C198.828 224.032 197.804 224.288 196.668 224.288ZM196.668 222.104C197.276 222.104 197.836 221.952 198.348 221.648C198.876 221.344 199.3 220.896 199.62 220.304C199.94 219.696 200.1 218.944 200.1 218.048C200.1 217.152 199.94 216.408 199.62 215.816C199.316 215.208 198.9 214.752 198.372 214.448C197.86 214.144 197.3 213.992 196.692 213.992C196.084 213.992 195.516 214.144 194.988 214.448C194.476 214.752 194.06 215.208 193.74 215.816C193.42 216.408 193.26 217.152 193.26 218.048C193.26 218.944 193.42 219.696 193.74 220.304C194.06 220.896 194.476 221.344 194.988 221.648C195.5 221.952 196.06 222.104 196.668 222.104ZM211.035 224.288C209.899 224.288 208.875 224.032 207.963 223.52C207.067 222.992 206.355 222.264 205.827 221.336C205.299 220.392 205.035 219.296 205.035 218.048C205.035 216.8 205.299 215.712 205.827 214.784C206.371 213.84 207.099 213.112 208.011 212.6C208.923 212.072 209.939 211.808 211.059 211.808C212.195 211.808 213.211 212.072 214.107 212.6C215.019 213.112 215.739 213.84 216.267 214.784C216.811 215.712 217.083 216.8 217.083 218.048C217.083 219.296 216.811 220.392 216.267 221.336C215.739 222.264 215.019 222.992 214.107 223.52C213.195 224.032 212.171 224.288 211.035 224.288ZM211.035 222.104C211.643 222.104 212.203 221.952 212.715 221.648C213.243 221.344 213.667 220.896 213.987 220.304C214.307 219.696 214.467 218.944 214.467 218.048C214.467 217.152 214.307 216.408 213.987 215.816C213.683 215.208 213.267 214.752 212.739 214.448C212.227 214.144 211.667 213.992 211.059 213.992C210.451 213.992 209.883 214.144 209.355 214.448C208.843 214.752 208.427 215.208 208.107 215.816C207.787 216.408 207.627 217.152 207.627 218.048C207.627 218.944 207.787 219.696 208.107 220.304C208.427 220.896 208.843 221.344 209.355 221.648C209.867 221.952 210.427 222.104 211.035 222.104ZM219.835 224V206.72H222.379V217.016L226.939 212.096H229.987L224.923 217.496L230.731 224H227.515L222.379 217.904V224H219.835ZM234.142 209.84C233.662 209.84 233.262 209.696 232.942 209.408C232.638 209.104 232.486 208.728 232.486 208.28C232.486 207.832 232.638 207.464 232.942 207.176C233.262 206.872 233.662 206.72 234.142 206.72C234.622 206.72 235.014 206.872 235.318 207.176C235.638 207.464 235.798 207.832 235.798 208.28C235.798 208.728 235.638 209.104 235.318 209.408C235.014 209.696 234.622 209.84 234.142 209.84ZM232.87 224V212.096H235.414V224H232.87ZM238.772 224V212.096H241.028L241.22 214.184C241.588 213.448 242.124 212.872 242.828 212.456C243.548 212.024 244.372 211.808 245.3 211.808C246.74 211.808 247.868 212.256 248.684 213.152C249.516 214.048 249.932 215.384 249.932 217.16V224H247.412V217.424C247.412 215.12 246.468 213.968 244.58 213.968C243.636 213.968 242.852 214.304 242.228 214.976C241.62 215.648 241.316 216.608 241.316 217.856V224H238.772ZM257.8 220.352C257.176 220.352 256.6 220.28 256.072 220.136L255.04 221.144C255.216 221.256 255.432 221.352 255.688 221.432C255.944 221.512 256.304 221.584 256.768 221.648C257.232 221.712 257.864 221.776 258.664 221.84C260.248 221.984 261.392 222.368 262.096 222.992C262.8 223.6 263.152 224.416 263.152 225.44C263.152 226.144 262.96 226.808 262.576 227.432C262.208 228.072 261.624 228.584 260.824 228.968C260.04 229.368 259.032 229.568 257.8 229.568C256.136 229.568 254.784 229.248 253.744 228.608C252.72 227.984 252.208 227.032 252.208 225.752C252.208 225.256 252.336 224.76 252.592 224.264C252.864 223.784 253.288 223.328 253.864 222.896C253.528 222.752 253.232 222.6 252.976 222.44C252.736 222.264 252.52 222.088 252.328 221.912V221.336L254.392 219.224C253.464 218.424 253 217.376 253 216.08C253 215.296 253.184 214.584 253.552 213.944C253.936 213.288 254.488 212.768 255.208 212.384C255.928 212 256.792 211.808 257.8 211.808C258.472 211.808 259.096 211.904 259.672 212.096H264.112V213.776L262 213.896C262.384 214.552 262.576 215.28 262.576 216.08C262.576 216.88 262.384 217.6 262 218.24C261.632 218.88 261.088 219.392 260.368 219.776C259.664 220.16 258.808 220.352 257.8 220.352ZM257.8 218.36C258.536 218.36 259.128 218.168 259.576 217.784C260.04 217.384 260.272 216.824 260.272 216.104C260.272 215.368 260.04 214.808 259.576 214.424C259.128 214.04 258.536 213.848 257.8 213.848C257.048 213.848 256.44 214.04 255.976 214.424C255.528 214.808 255.304 215.368 255.304 216.104C255.304 216.824 255.528 217.384 255.976 217.784C256.44 218.168 257.048 218.36 257.8 218.36ZM254.608 225.512C254.608 226.2 254.912 226.712 255.52 227.048C256.128 227.4 256.888 227.576 257.8 227.576C258.68 227.576 259.392 227.384 259.936 227C260.48 226.632 260.752 226.136 260.752 225.512C260.752 225.048 260.568 224.648 260.2 224.312C259.832 223.992 259.136 223.792 258.112 223.712C257.344 223.664 256.664 223.592 256.072 223.496C255.512 223.8 255.128 224.128 254.92 224.48C254.712 224.832 254.608 225.176 254.608 225.512Z" fill="#4A423B"/>
<path d="M27.4054 259L31.0174 249.2H32.2634L35.8614 259H34.6154L33.7194 256.48H29.5474L28.6374 259H27.4054ZM29.8974 255.528H33.3694L31.6334 250.684L29.8974 255.528ZM37.2482 259V252.056H38.3122L38.4102 253.386C38.6249 252.929 38.9516 252.565 39.3902 252.294C39.8289 252.023 40.3702 251.888 41.0142 251.888V253.12H40.6922C40.2816 253.12 39.9036 253.195 39.5582 253.344C39.2129 253.484 38.9376 253.727 38.7322 254.072C38.5269 254.417 38.4242 254.893 38.4242 255.5V259H37.2482ZM45.1964 259.168C44.5337 259.168 43.9457 259.019 43.4324 258.72C42.9191 258.412 42.5131 257.987 42.2144 257.446C41.9251 256.905 41.7804 256.265 41.7804 255.528C41.7804 254.8 41.9251 254.165 42.2144 253.624C42.5037 253.073 42.9051 252.649 43.4184 252.35C43.9411 252.042 44.5431 251.888 45.2244 251.888C45.8964 251.888 46.4751 252.042 46.9604 252.35C47.4551 252.649 47.8331 253.045 48.0944 253.54C48.3557 254.035 48.4864 254.567 48.4864 255.136C48.4864 255.239 48.4817 255.341 48.4724 255.444C48.4724 255.547 48.4724 255.663 48.4724 255.794H42.9424C42.9704 256.326 43.0917 256.769 43.3064 257.124C43.5304 257.469 43.8057 257.731 44.1324 257.908C44.4684 258.085 44.8231 258.174 45.1964 258.174C45.6817 258.174 46.0877 258.062 46.4144 257.838C46.7411 257.614 46.9791 257.311 47.1284 256.928H48.2904C48.1037 257.572 47.7444 258.109 47.2124 258.538C46.6897 258.958 46.0177 259.168 45.1964 259.168ZM45.1964 252.882C44.6364 252.882 44.1371 253.055 43.6984 253.4C43.2691 253.736 43.0217 254.231 42.9564 254.884H47.3244C47.2964 254.259 47.0817 253.769 46.6804 253.414C46.2791 253.059 45.7844 252.882 45.1964 252.882ZM54.5062 262.08L56.2282 258.328H55.8222L53.0642 252.056H54.3382L56.6342 257.46L59.0702 252.056H60.2882L55.7382 262.08H54.5062ZM64.0372 259.168C63.3839 259.168 62.7959 259.019 62.2732 258.72C61.7506 258.421 61.3352 258.001 61.0272 257.46C60.7286 256.909 60.5792 256.265 60.5792 255.528C60.5792 254.791 60.7332 254.151 61.0412 253.61C61.3492 253.059 61.7646 252.635 62.2872 252.336C62.8192 252.037 63.4119 251.888 64.0652 251.888C64.7186 251.888 65.3066 252.037 65.8292 252.336C66.3519 252.635 66.7626 253.059 67.0612 253.61C67.3692 254.151 67.5232 254.791 67.5232 255.528C67.5232 256.265 67.3692 256.909 67.0612 257.46C66.7532 258.001 66.3332 258.421 65.8012 258.72C65.2786 259.019 64.6906 259.168 64.0372 259.168ZM64.0372 258.16C64.4386 258.16 64.8119 258.062 65.1572 257.866C65.5026 257.67 65.7826 257.376 65.9972 256.984C66.2119 256.592 66.3192 256.107 66.3192 255.528C66.3192 254.949 66.2119 254.464 65.9972 254.072C65.7919 253.68 65.5166 253.386 65.1712 253.19C64.8259 252.994 64.4572 252.896 64.0652 252.896C63.6639 252.896 63.2906 252.994 62.9452 253.19C62.5999 253.386 62.3199 253.68 62.1052 254.072C61.8906 254.464 61.7832 254.949 61.7832 255.528C61.7832 256.107 61.8906 256.592 62.1052 256.984C62.3199 257.376 62.5952 257.67 62.9312 257.866C63.2766 258.062 63.6452 258.16 64.0372 258.16ZM71.6924 259.168C70.871 259.168 70.2177 258.921 69.7324 258.426C69.247 257.922 69.0044 257.152 69.0044 256.116V252.056H70.1804V255.99C70.1804 257.437 70.773 258.16 71.9584 258.16C72.565 258.16 73.0644 257.945 73.4564 257.516C73.8577 257.077 74.0584 256.457 74.0584 255.654V252.056H75.2344V259H74.1704L74.0864 257.754C73.8717 258.193 73.5497 258.538 73.1204 258.79C72.7004 259.042 72.2244 259.168 71.6924 259.168ZM83.5352 259.168C82.7045 259.168 82.0138 258.958 81.4632 258.538C80.9125 258.118 80.5905 257.549 80.4972 256.83H81.7012C81.7758 257.194 81.9672 257.511 82.2752 257.782C82.5925 258.043 83.0172 258.174 83.5492 258.174C84.0438 258.174 84.4078 258.071 84.6412 257.866C84.8745 257.651 84.9912 257.399 84.9912 257.11C84.9912 256.69 84.8372 256.41 84.5292 256.27C84.2305 256.13 83.8058 256.004 83.2552 255.892C82.8818 255.817 82.5085 255.71 82.1352 255.57C81.7618 255.43 81.4492 255.234 81.1972 254.982C80.9452 254.721 80.8192 254.38 80.8192 253.96C80.8192 253.353 81.0432 252.859 81.4912 252.476C81.9485 252.084 82.5645 251.888 83.3392 251.888C84.0765 251.888 84.6785 252.075 85.1452 252.448C85.6212 252.812 85.8965 253.335 85.9712 254.016H84.8092C84.7625 253.661 84.6085 253.386 84.3472 253.19C84.0952 252.985 83.7545 252.882 83.3252 252.882C82.9052 252.882 82.5785 252.971 82.3452 253.148C82.1212 253.325 82.0092 253.559 82.0092 253.848C82.0092 254.128 82.1538 254.347 82.4432 254.506C82.7418 254.665 83.1432 254.8 83.6472 254.912C84.0765 255.005 84.4825 255.122 84.8652 255.262C85.2572 255.393 85.5745 255.593 85.8172 255.864C86.0692 256.125 86.1952 256.508 86.1952 257.012C86.2045 257.637 85.9665 258.155 85.4812 258.566C85.0052 258.967 84.3565 259.168 83.5352 259.168ZM90.4092 259.168C89.5878 259.168 88.9345 258.921 88.4492 258.426C87.9638 257.922 87.7212 257.152 87.7212 256.116V252.056H88.8972V255.99C88.8972 257.437 89.4898 258.16 90.6752 258.16C91.2818 258.16 91.7812 257.945 92.1732 257.516C92.5745 257.077 92.7752 256.457 92.7752 255.654V252.056H93.9512V259H92.8872L92.8032 257.754C92.5885 258.193 92.2665 258.538 91.8372 258.79C91.4172 259.042 90.9412 259.168 90.4092 259.168ZM95.8869 259V252.056H96.9509L97.0489 253.386C97.2636 252.929 97.5902 252.565 98.0289 252.294C98.4676 252.023 99.0089 251.888 99.6529 251.888V253.12H99.3309C98.9202 253.12 98.5422 253.195 98.1969 253.344C97.8516 253.484 97.5762 253.727 97.3709 254.072C97.1656 254.417 97.0629 254.893 97.0629 255.5V259H95.8869ZM103.835 259.168C103.172 259.168 102.584 259.019 102.071 258.72C101.558 258.412 101.152 257.987 100.853 257.446C100.564 256.905 100.419 256.265 100.419 255.528C100.419 254.8 100.564 254.165 100.853 253.624C101.142 253.073 101.544 252.649 102.057 252.35C102.58 252.042 103.182 251.888 103.863 251.888C104.535 251.888 105.114 252.042 105.599 252.35C106.094 252.649 106.472 253.045 106.733 253.54C106.994 254.035 107.125 254.567 107.125 255.136C107.125 255.239 107.12 255.341 107.111 255.444C107.111 255.547 107.111 255.663 107.111 255.794H101.581C101.609 256.326 101.73 256.769 101.945 257.124C102.169 257.469 102.444 257.731 102.771 257.908C103.107 258.085 103.462 258.174 103.835 258.174C104.32 258.174 104.726 258.062 105.053 257.838C105.38 257.614 105.618 257.311 105.767 256.928H106.929C106.742 257.572 106.383 258.109 105.851 258.538C105.328 258.958 104.656 259.168 103.835 259.168ZM103.835 252.882C103.275 252.882 102.776 253.055 102.337 253.4C101.908 253.736 101.66 254.231 101.595 254.884H105.963C105.935 254.259 105.72 253.769 105.319 253.414C104.918 253.059 104.423 252.882 103.835 252.882ZM113.145 262.08L114.867 258.328H114.461L111.703 252.056H112.977L115.273 257.46L117.709 252.056H118.927L114.377 262.08H113.145ZM122.676 259.168C122.023 259.168 121.435 259.019 120.912 258.72C120.389 258.421 119.974 258.001 119.666 257.46C119.367 256.909 119.218 256.265 119.218 255.528C119.218 254.791 119.372 254.151 119.68 253.61C119.988 253.059 120.403 252.635 120.926 252.336C121.458 252.037 122.051 251.888 122.704 251.888C123.357 251.888 123.945 252.037 124.468 252.336C124.991 252.635 125.401 253.059 125.7 253.61C126.008 254.151 126.162 254.791 126.162 255.528C126.162 256.265 126.008 256.909 125.7 257.46C125.392 258.001 124.972 258.421 124.44 258.72C123.917 259.019 123.329 259.168 122.676 259.168ZM122.676 258.16C123.077 258.16 123.451 258.062 123.796 257.866C124.141 257.67 124.421 257.376 124.636 256.984C124.851 256.592 124.958 256.107 124.958 255.528C124.958 254.949 124.851 254.464 124.636 254.072C124.431 253.68 124.155 253.386 123.81 253.19C123.465 252.994 123.096 252.896 122.704 252.896C122.303 252.896 121.929 252.994 121.584 253.19C121.239 253.386 120.959 253.68 120.744 254.072C120.529 254.464 120.422 254.949 120.422 255.528C120.422 256.107 120.529 256.592 120.744 256.984C120.959 257.376 121.234 257.67 121.57 257.866C121.915 258.062 122.284 258.16 122.676 258.16ZM130.331 259.168C129.51 259.168 128.856 258.921 128.371 258.426C127.886 257.922 127.643 257.152 127.643 256.116V252.056H128.819V255.99C128.819 257.437 129.412 258.16 130.597 258.16C131.204 258.16 131.703 257.945 132.095 257.516C132.496 257.077 132.697 256.457 132.697 255.654V252.056H133.873V259H132.809L132.725 257.754C132.51 258.193 132.188 258.538 131.759 258.79C131.339 259.042 130.863 259.168 130.331 259.168ZM140.914 259L138.884 252.056H140.06L141.53 257.502L143.154 252.056H144.484L146.122 257.502L147.578 252.056H148.768L146.738 259H145.534L143.826 253.274L142.118 259H140.914ZM152.132 259.168C151.554 259.168 151.073 259.07 150.69 258.874C150.308 258.678 150.023 258.417 149.836 258.09C149.65 257.763 149.556 257.409 149.556 257.026C149.556 256.317 149.827 255.771 150.368 255.388C150.91 255.005 151.647 254.814 152.58 254.814H154.456V254.73C154.456 254.123 154.298 253.666 153.98 253.358C153.663 253.041 153.238 252.882 152.706 252.882C152.249 252.882 151.852 252.999 151.516 253.232C151.19 253.456 150.984 253.787 150.9 254.226H149.696C149.743 253.722 149.911 253.297 150.2 252.952C150.499 252.607 150.868 252.345 151.306 252.168C151.745 251.981 152.212 251.888 152.706 251.888C153.677 251.888 154.405 252.149 154.89 252.672C155.385 253.185 155.632 253.871 155.632 254.73V259H154.582L154.512 257.754C154.316 258.146 154.027 258.482 153.644 258.762C153.271 259.033 152.767 259.168 152.132 259.168ZM152.314 258.174C152.762 258.174 153.145 258.057 153.462 257.824C153.789 257.591 154.036 257.287 154.204 256.914C154.372 256.541 154.456 256.149 154.456 255.738V255.724H152.678C151.988 255.724 151.498 255.845 151.208 256.088C150.928 256.321 150.788 256.615 150.788 256.97C150.788 257.334 150.919 257.628 151.18 257.852C151.451 258.067 151.829 258.174 152.314 258.174ZM157.397 259V252.056H158.461L158.531 253.302C158.755 252.863 159.077 252.518 159.497 252.266C159.917 252.014 160.393 251.888 160.925 251.888C161.746 251.888 162.399 252.14 162.885 252.644C163.379 253.139 163.627 253.904 163.627 254.94V259H162.451V255.066C162.451 253.619 161.853 252.896 160.659 252.896C160.061 252.896 159.562 253.115 159.161 253.554C158.769 253.983 158.573 254.599 158.573 255.402V259H157.397ZM168.152 259C167.518 259 167.018 258.846 166.654 258.538C166.29 258.23 166.108 257.675 166.108 256.872V253.05H164.904V252.056H166.108L166.262 250.39H167.284V252.056H169.328V253.05H167.284V256.872C167.284 257.311 167.373 257.609 167.55 257.768C167.728 257.917 168.04 257.992 168.488 257.992H169.216V259H168.152ZM177.272 259C176.637 259 176.138 258.846 175.774 258.538C175.41 258.23 175.228 257.675 175.228 256.872V253.05H174.024V252.056H175.228L175.382 250.39H176.404V252.056H178.448V253.05H176.404V256.872C176.404 257.311 176.492 257.609 176.67 257.768C176.847 257.917 177.16 257.992 177.608 257.992H178.336V259H177.272ZM182.914 259.168C182.261 259.168 181.673 259.019 181.15 258.72C180.628 258.421 180.212 258.001 179.904 257.46C179.606 256.909 179.456 256.265 179.456 255.528C179.456 254.791 179.61 254.151 179.918 253.61C180.226 253.059 180.642 252.635 181.164 252.336C181.696 252.037 182.289 251.888 182.942 251.888C183.596 251.888 184.184 252.037 184.706 252.336C185.229 252.635 185.64 253.059 185.938 253.61C186.246 254.151 186.4 254.791 186.4 255.528C186.4 256.265 186.246 256.909 185.938 257.46C185.63 258.001 185.21 258.421 184.678 258.72C184.156 259.019 183.568 259.168 182.914 259.168ZM182.914 258.16C183.316 258.16 183.689 258.062 184.034 257.866C184.38 257.67 184.66 257.376 184.874 256.984C185.089 256.592 185.196 256.107 185.196 255.528C185.196 254.949 185.089 254.464 184.874 254.072C184.669 253.68 184.394 253.386 184.048 253.19C183.703 252.994 183.334 252.896 182.942 252.896C182.541 252.896 182.168 252.994 181.822 253.19C181.477 253.386 181.197 253.68 180.982 254.072C180.768 254.464 180.66 254.949 180.66 255.528C180.66 256.107 180.768 256.592 180.982 256.984C181.197 257.376 181.472 257.67 181.808 257.866C182.154 258.062 182.522 258.16 182.914 258.16ZM194.932 259.168C194.27 259.168 193.672 259.019 193.14 258.72C192.618 258.412 192.202 257.987 191.894 257.446C191.596 256.895 191.446 256.256 191.446 255.528C191.446 254.8 191.596 254.165 191.894 253.624C192.202 253.073 192.618 252.649 193.14 252.35C193.672 252.042 194.27 251.888 194.932 251.888C195.754 251.888 196.444 252.103 197.004 252.532C197.574 252.961 197.933 253.535 198.082 254.254H196.878C196.785 253.825 196.556 253.493 196.192 253.26C195.828 253.017 195.404 252.896 194.918 252.896C194.526 252.896 194.158 252.994 193.812 253.19C193.467 253.386 193.187 253.68 192.972 254.072C192.758 254.464 192.65 254.949 192.65 255.528C192.65 256.107 192.758 256.592 192.972 256.984C193.187 257.376 193.467 257.675 193.812 257.88C194.158 258.076 194.526 258.174 194.918 258.174C195.404 258.174 195.828 258.057 196.192 257.824C196.556 257.581 196.785 257.241 196.878 256.802H198.082C197.942 257.502 197.588 258.071 197.018 258.51C196.449 258.949 195.754 259.168 194.932 259.168ZM202.035 259.168C201.456 259.168 200.975 259.07 200.593 258.874C200.21 258.678 199.925 258.417 199.739 258.09C199.552 257.763 199.459 257.409 199.459 257.026C199.459 256.317 199.729 255.771 200.271 255.388C200.812 255.005 201.549 254.814 202.483 254.814H204.359V254.73C204.359 254.123 204.2 253.666 203.883 253.358C203.565 253.041 203.141 252.882 202.609 252.882C202.151 252.882 201.755 252.999 201.419 253.232C201.092 253.456 200.887 253.787 200.803 254.226H199.599C199.645 253.722 199.813 253.297 200.103 252.952C200.401 252.607 200.77 252.345 201.209 252.168C201.647 251.981 202.114 251.888 202.609 251.888C203.579 251.888 204.307 252.149 204.793 252.672C205.287 253.185 205.535 253.871 205.535 254.73V259H204.485L204.415 257.754C204.219 258.146 203.929 258.482 203.547 258.762C203.173 259.033 202.669 259.168 202.035 259.168ZM202.217 258.174C202.665 258.174 203.047 258.057 203.365 257.824C203.691 257.591 203.939 257.287 204.107 256.914C204.275 256.541 204.359 256.149 204.359 255.738V255.724H202.581C201.89 255.724 201.4 255.845 201.111 256.088C200.831 256.321 200.691 256.615 200.691 256.97C200.691 257.334 200.821 257.628 201.083 257.852C201.353 258.067 201.731 258.174 202.217 258.174ZM207.299 259V252.056H208.363L208.433 253.302C208.657 252.863 208.979 252.518 209.399 252.266C209.819 252.014 210.295 251.888 210.827 251.888C211.648 251.888 212.302 252.14 212.787 252.644C213.282 253.139 213.529 253.904 213.529 254.94V259H212.353V255.066C212.353 253.619 211.756 252.896 210.561 252.896C209.964 252.896 209.464 253.115 209.063 253.554C208.671 253.983 208.475 254.599 208.475 255.402V259H207.299ZM218.503 259.168C217.84 259.168 217.243 259.019 216.711 258.72C216.188 258.412 215.773 257.987 215.465 257.446C215.166 256.895 215.017 256.256 215.017 255.528C215.017 254.8 215.166 254.165 215.465 253.624C215.773 253.073 216.188 252.649 216.711 252.35C217.243 252.042 217.84 251.888 218.503 251.888C219.324 251.888 220.015 252.103 220.575 252.532C221.144 252.961 221.503 253.535 221.653 254.254H220.449C220.355 253.825 220.127 253.493 219.763 253.26C219.399 253.017 218.974 252.896 218.489 252.896C218.097 252.896 217.728 252.994 217.383 253.19C217.037 253.386 216.757 253.68 216.543 254.072C216.328 254.464 216.221 254.949 216.221 255.528C216.221 256.107 216.328 256.592 216.543 256.984C216.757 257.376 217.037 257.675 217.383 257.88C217.728 258.076 218.097 258.174 218.489 258.174C218.974 258.174 219.399 258.057 219.763 257.824C220.127 257.581 220.355 257.241 220.449 256.802H221.653C221.513 257.502 221.158 258.071 220.589 258.51C220.019 258.949 219.324 259.168 218.503 259.168ZM226.417 259.168C225.754 259.168 225.166 259.019 224.653 258.72C224.14 258.412 223.734 257.987 223.435 257.446C223.146 256.905 223.001 256.265 223.001 255.528C223.001 254.8 223.146 254.165 223.435 253.624C223.724 253.073 224.126 252.649 224.639 252.35C225.162 252.042 225.764 251.888 226.445 251.888C227.117 251.888 227.696 252.042 228.181 252.35C228.676 252.649 229.054 253.045 229.315 253.54C229.576 254.035 229.707 254.567 229.707 255.136C229.707 255.239 229.702 255.341 229.693 255.444C229.693 255.547 229.693 255.663 229.693 255.794H224.163C224.191 256.326 224.312 256.769 224.527 257.124C224.751 257.469 225.026 257.731 225.353 257.908C225.689 258.085 226.044 258.174 226.417 258.174C226.902 258.174 227.308 258.062 227.635 257.838C227.962 257.614 228.2 257.311 228.349 256.928H229.511C229.324 257.572 228.965 258.109 228.433 258.538C227.91 258.958 227.238 259.168 226.417 259.168ZM226.417 252.882C225.857 252.882 225.358 253.055 224.919 253.4C224.49 253.736 224.242 254.231 224.177 254.884H228.545C228.517 254.259 228.302 253.769 227.901 253.414C227.5 253.059 227.005 252.882 226.417 252.882ZM231.266 259V248.92H232.442V259H231.266ZM240.818 259C240.184 259 239.684 258.846 239.32 258.538C238.956 258.23 238.774 257.675 238.774 256.872V253.05H237.57V252.056H238.774L238.928 250.39H239.95V252.056H241.994V253.05H239.95V256.872C239.95 257.311 240.039 257.609 240.216 257.768C240.394 257.917 240.706 257.992 241.154 257.992H241.882V259H240.818ZM243.488 259V248.92H244.664V253.246C244.898 252.817 245.229 252.485 245.658 252.252C246.088 252.009 246.554 251.888 247.058 251.888C247.861 251.888 248.505 252.14 248.99 252.644C249.476 253.139 249.718 253.904 249.718 254.94V259H248.556V255.066C248.556 253.619 247.973 252.896 246.806 252.896C246.2 252.896 245.691 253.115 245.28 253.554C244.87 253.983 244.664 254.599 244.664 255.402V259H243.488ZM252.214 250.516C251.981 250.516 251.785 250.441 251.626 250.292C251.477 250.133 251.402 249.937 251.402 249.704C251.402 249.48 251.477 249.293 251.626 249.144C251.785 248.995 251.981 248.92 252.214 248.92C252.438 248.92 252.63 248.995 252.788 249.144C252.947 249.293 253.026 249.48 253.026 249.704C253.026 249.937 252.947 250.133 252.788 250.292C252.63 250.441 252.438 250.516 252.214 250.516ZM251.626 259V252.056H252.802V259H251.626ZM257.51 259.168C256.679 259.168 255.988 258.958 255.438 258.538C254.887 258.118 254.565 257.549 254.472 256.83H255.676C255.75 257.194 255.942 257.511 256.25 257.782C256.567 258.043 256.992 258.174 257.524 258.174C258.018 258.174 258.382 258.071 258.616 257.866C258.849 257.651 258.966 257.399 258.966 257.11C258.966 256.69 258.812 256.41 258.504 256.27C258.205 256.13 257.78 256.004 257.23 255.892C256.856 255.817 256.483 255.71 256.11 255.57C255.736 255.43 255.424 255.234 255.172 254.982C254.92 254.721 254.794 254.38 254.794 253.96C254.794 253.353 255.018 252.859 255.466 252.476C255.923 252.084 256.539 251.888 257.314 251.888C258.051 251.888 258.653 252.075 259.12 252.448C259.596 252.812 259.871 253.335 259.946 254.016H258.784C258.737 253.661 258.583 253.386 258.322 253.19C258.07 252.985 257.729 252.882 257.3 252.882C256.88 252.882 256.553 252.971 256.32 253.148C256.096 253.325 255.984 253.559 255.984 253.848C255.984 254.128 256.128 254.347 256.418 254.506C256.716 254.665 257.118 254.8 257.622 254.912C258.051 255.005 258.457 255.122 258.84 255.262C259.232 255.393 259.549 255.593 259.792 255.864C260.044 256.125 260.17 256.508 260.17 257.012C260.179 257.637 259.941 258.155 259.456 258.566C258.98 258.967 258.331 259.168 257.51 259.168ZM269.265 259.168C268.696 259.168 268.187 259.051 267.739 258.818C267.3 258.585 266.964 258.258 266.731 257.838L266.619 259H265.555V248.92H266.731V253.204C266.955 252.868 267.272 252.565 267.683 252.294C268.103 252.023 268.635 251.888 269.279 251.888C269.97 251.888 270.572 252.047 271.085 252.364C271.598 252.681 271.995 253.115 272.275 253.666C272.564 254.217 272.709 254.842 272.709 255.542C272.709 256.242 272.564 256.867 272.275 257.418C271.995 257.959 271.594 258.389 271.071 258.706C270.558 259.014 269.956 259.168 269.265 259.168ZM269.139 258.146C269.606 258.146 270.016 258.039 270.371 257.824C270.726 257.6 271.006 257.292 271.211 256.9C271.416 256.508 271.519 256.051 271.519 255.528C271.519 255.005 271.416 254.548 271.211 254.156C271.006 253.764 270.726 253.461 270.371 253.246C270.016 253.022 269.606 252.91 269.139 252.91C268.672 252.91 268.262 253.022 267.907 253.246C267.552 253.461 267.272 253.764 267.067 254.156C266.862 254.548 266.759 255.005 266.759 255.528C266.759 256.051 266.862 256.508 267.067 256.9C267.272 257.292 267.552 257.6 267.907 257.824C268.262 258.039 268.672 258.146 269.139 258.146ZM277.51 259.168C276.857 259.168 276.269 259.019 275.746 258.72C275.223 258.421 274.808 258.001 274.5 257.46C274.201 256.909 274.052 256.265 274.052 255.528C274.052 254.791 274.206 254.151 274.514 253.61C274.822 253.059 275.237 252.635 275.76 252.336C276.292 252.037 276.885 251.888 277.538 251.888C278.191 251.888 278.779 252.037 279.302 252.336C279.825 252.635 280.235 253.059 280.534 253.61C280.842 254.151 280.996 254.791 280.996 255.528C280.996 256.265 280.842 256.909 280.534 257.46C280.226 258.001 279.806 258.421 279.274 258.72C278.751 259.019 278.163 259.168 277.51 259.168ZM277.51 258.16C277.911 258.16 278.285 258.062 278.63 257.866C278.975 257.67 279.255 257.376 279.47 256.984C279.685 256.592 279.792 256.107 279.792 255.528C279.792 254.949 279.685 254.464 279.47 254.072C279.265 253.68 278.989 253.386 278.644 253.19C278.299 252.994 277.93 252.896 277.538 252.896C277.137 252.896 276.763 252.994 276.418 253.19C276.073 253.386 275.793 253.68 275.578 254.072C275.363 254.464 275.256 254.949 275.256 255.528C275.256 256.107 275.363 256.592 275.578 256.984C275.793 257.376 276.068 257.67 276.404 257.866C276.749 258.062 277.118 258.16 277.51 258.16ZM285.795 259.168C285.142 259.168 284.554 259.019 284.031 258.72C283.508 258.421 283.093 258.001 282.785 257.46C282.486 256.909 282.337 256.265 282.337 255.528C282.337 254.791 282.491 254.151 282.799 253.61C283.107 253.059 283.522 252.635 284.045 252.336C284.577 252.037 285.17 251.888 285.823 251.888C286.476 251.888 287.064 252.037 287.587 252.336C288.11 252.635 288.52 253.059 288.819 253.61C289.127 254.151 289.281 254.791 289.281 255.528C289.281 256.265 289.127 256.909 288.819 257.46C288.511 258.001 288.091 258.421 287.559 258.72C287.036 259.019 286.448 259.168 285.795 259.168ZM285.795 258.16C286.196 258.16 286.57 258.062 286.915 257.866C287.26 257.67 287.54 257.376 287.755 256.984C287.97 256.592 288.077 256.107 288.077 255.528C288.077 254.949 287.97 254.464 287.755 254.072C287.55 253.68 287.274 253.386 286.929 253.19C286.584 252.994 286.215 252.896 285.823 252.896C285.422 252.896 285.048 252.994 284.703 253.19C284.358 253.386 284.078 253.68 283.863 254.072C283.648 254.464 283.541 254.949 283.541 255.528C283.541 256.107 283.648 256.592 283.863 256.984C284.078 257.376 284.353 257.67 284.689 257.866C285.034 258.062 285.403 258.16 285.795 258.16ZM290.916 259V248.92H292.092V254.982L294.934 252.056H296.376L293.296 255.192L296.768 259H295.27L292.092 255.402V259H290.916ZM298.685 250.516C298.452 250.516 298.256 250.441 298.097 250.292C297.948 250.133 297.873 249.937 297.873 249.704C297.873 249.48 297.948 249.293 298.097 249.144C298.256 248.995 298.452 248.92 298.685 248.92C298.909 248.92 299.1 248.995 299.259 249.144C299.418 249.293 299.497 249.48 299.497 249.704C299.497 249.937 299.418 250.133 299.259 250.292C299.1 250.441 298.909 250.516 298.685 250.516ZM298.097 259V252.056H299.273V259H298.097ZM301.32 259V252.056H302.384L302.454 253.302C302.678 252.863 303 252.518 303.42 252.266C303.84 252.014 304.316 251.888 304.848 251.888C305.67 251.888 306.323 252.14 306.808 252.644C307.303 253.139 307.55 253.904 307.55 254.94V259H306.374V255.066C306.374 253.619 305.777 252.896 304.582 252.896C303.985 252.896 303.486 253.115 303.084 253.554C302.692 253.983 302.496 254.599 302.496 255.402V259H301.32ZM312.076 256.816C311.684 256.816 311.325 256.765 310.998 256.662L310.298 257.32C310.401 257.395 310.527 257.46 310.676 257.516C310.835 257.563 311.059 257.609 311.348 257.656C311.638 257.693 312.044 257.735 312.566 257.782C313.5 257.847 314.167 258.062 314.568 258.426C314.97 258.79 315.17 259.266 315.17 259.854C315.17 260.255 315.058 260.638 314.834 261.002C314.62 261.366 314.284 261.665 313.826 261.898C313.378 262.131 312.8 262.248 312.09 262.248C311.465 262.248 310.91 262.164 310.424 261.996C309.939 261.837 309.561 261.59 309.29 261.254C309.02 260.927 308.884 260.512 308.884 260.008C308.884 259.747 308.954 259.462 309.094 259.154C309.234 258.855 309.496 258.571 309.878 258.3C309.673 258.216 309.496 258.127 309.346 258.034C309.206 257.931 309.076 257.819 308.954 257.698V257.376L310.144 256.2C309.594 255.733 309.318 255.117 309.318 254.352C309.318 253.895 309.426 253.479 309.64 253.106C309.855 252.733 310.168 252.439 310.578 252.224C310.989 252 311.488 251.888 312.076 251.888C312.478 251.888 312.842 251.944 313.168 252.056H315.73V252.938L314.428 252.994C314.699 253.386 314.834 253.839 314.834 254.352C314.834 254.809 314.722 255.225 314.498 255.598C314.284 255.971 313.971 256.27 313.56 256.494C313.159 256.709 312.664 256.816 312.076 256.816ZM312.076 255.85C312.571 255.85 312.963 255.724 313.252 255.472C313.551 255.211 313.7 254.837 313.7 254.352C313.7 253.876 313.551 253.512 313.252 253.26C312.963 252.999 312.571 252.868 312.076 252.868C311.572 252.868 311.171 252.999 310.872 253.26C310.583 253.512 310.438 253.876 310.438 254.352C310.438 254.837 310.583 255.211 310.872 255.472C311.171 255.724 311.572 255.85 312.076 255.85ZM310.032 259.896C310.032 260.363 310.228 260.708 310.62 260.932C311.012 261.165 311.502 261.282 312.09 261.282C312.669 261.282 313.131 261.156 313.476 260.904C313.831 260.652 314.008 260.316 314.008 259.896C314.008 259.597 313.887 259.336 313.644 259.112C313.402 258.897 312.954 258.771 312.3 258.734C311.787 258.697 311.344 258.65 310.97 258.594C310.588 258.799 310.336 259.019 310.214 259.252C310.093 259.495 310.032 259.709 310.032 259.896ZM318.205 256.256L318.149 254.002H318.583C319.105 254.002 319.591 253.951 320.039 253.848C320.496 253.745 320.865 253.545 321.145 253.246C321.425 252.947 321.565 252.499 321.565 251.902C321.565 251.323 321.383 250.866 321.019 250.53C320.664 250.194 320.193 250.026 319.605 250.026C319.007 250.026 318.536 250.189 318.191 250.516C317.845 250.843 317.673 251.281 317.673 251.832H316.553C316.553 251.272 316.679 250.782 316.931 250.362C317.192 249.942 317.551 249.615 318.009 249.382C318.466 249.149 318.998 249.032 319.605 249.032C320.211 249.032 320.748 249.149 321.215 249.382C321.681 249.615 322.045 249.947 322.307 250.376C322.568 250.805 322.699 251.314 322.699 251.902C322.699 252.593 322.549 253.153 322.251 253.582C321.961 254.011 321.555 254.324 321.033 254.52C320.519 254.716 319.931 254.814 319.269 254.814L319.227 256.256H318.205ZM318.709 259.07C318.475 259.07 318.279 258.995 318.121 258.846C317.971 258.687 317.897 258.496 317.897 258.272C317.897 258.048 317.971 257.861 318.121 257.712C318.279 257.553 318.475 257.474 318.709 257.474C318.942 257.474 319.133 257.553 319.283 257.712C319.432 257.861 319.507 258.048 319.507 258.272C319.507 258.496 319.432 258.687 319.283 258.846C319.133 258.995 318.942 259.07 318.709 259.07ZM8.70983 277V267.2H11.9298C12.6952 267.2 13.3252 267.326 13.8198 267.578C14.3145 267.83 14.6785 268.171 14.9118 268.6C15.1545 269.029 15.2758 269.515 15.2758 270.056C15.2758 270.588 15.1592 271.069 14.9258 271.498C14.6925 271.927 14.3285 272.273 13.8338 272.534C13.3392 272.786 12.7045 272.912 11.9298 272.912H9.88583V277H8.70983ZM9.88583 271.918H11.9018C12.6858 271.918 13.2412 271.755 13.5678 271.428C13.9038 271.092 14.0718 270.635 14.0718 270.056C14.0718 269.468 13.9038 269.011 13.5678 268.684C13.2412 268.348 12.6858 268.18 11.9018 268.18H9.88583V271.918ZM16.7473 277V266.92H17.9233V277H16.7473ZM22.9728 277.168C22.3101 277.168 21.7221 277.019 21.2088 276.72C20.6954 276.412 20.2894 275.987 19.9908 275.446C19.7014 274.905 19.5568 274.265 19.5568 273.528C19.5568 272.8 19.7014 272.165 19.9908 271.624C20.2801 271.073 20.6814 270.649 21.1948 270.35C21.7174 270.042 22.3194 269.888 23.0008 269.888C23.6728 269.888 24.2514 270.042 24.7368 270.35C25.2314 270.649 25.6094 271.045 25.8708 271.54C26.1321 272.035 26.2628 272.567 26.2628 273.136C26.2628 273.239 26.2581 273.341 26.2488 273.444C26.2488 273.547 26.2488 273.663 26.2488 273.794H20.7188C20.7468 274.326 20.8681 274.769 21.0828 275.124C21.3068 275.469 21.5821 275.731 21.9088 275.908C22.2448 276.085 22.5994 276.174 22.9728 276.174C23.4581 276.174 23.8641 276.062 24.1908 275.838C24.5174 275.614 24.7554 275.311 24.9048 274.928H26.0668C25.8801 275.572 25.5208 276.109 24.9888 276.538C24.4661 276.958 23.7941 277.168 22.9728 277.168ZM22.9728 270.882C22.4128 270.882 21.9134 271.055 21.4748 271.4C21.0454 271.736 20.7981 272.231 20.7328 272.884H25.1008C25.0728 272.259 24.8581 271.769 24.4568 271.414C24.0554 271.059 23.5608 270.882 22.9728 270.882ZM30.1315 277.168C29.5528 277.168 29.0721 277.07 28.6895 276.874C28.3068 276.678 28.0221 276.417 27.8355 276.09C27.6488 275.763 27.5555 275.409 27.5555 275.026C27.5555 274.317 27.8261 273.771 28.3675 273.388C28.9088 273.005 29.6461 272.814 30.5795 272.814H32.4555V272.73C32.4555 272.123 32.2968 271.666 31.9795 271.358C31.6621 271.041 31.2375 270.882 30.7055 270.882C30.2481 270.882 29.8515 270.999 29.5155 271.232C29.1888 271.456 28.9835 271.787 28.8995 272.226H27.6955C27.7421 271.722 27.9101 271.297 28.1995 270.952C28.4981 270.607 28.8668 270.345 29.3055 270.168C29.7441 269.981 30.2108 269.888 30.7055 269.888C31.6761 269.888 32.4041 270.149 32.8895 270.672C33.3841 271.185 33.6315 271.871 33.6315 272.73V277H32.5815L32.5115 275.754C32.3155 276.146 32.0261 276.482 31.6435 276.762C31.2701 277.033 30.7661 277.168 30.1315 277.168ZM30.3135 276.174C30.7615 276.174 31.1441 276.057 31.4615 275.824C31.7881 275.591 32.0355 275.287 32.2035 274.914C32.3715 274.541 32.4555 274.149 32.4555 273.738V273.724H30.6775C29.9868 273.724 29.4968 273.845 29.2075 274.088C28.9275 274.321 28.7875 274.615 28.7875 274.97C28.7875 275.334 28.9181 275.628 29.1795 275.852C29.4501 276.067 29.8281 276.174 30.3135 276.174ZM38.0557 277.168C37.225 277.168 36.5344 276.958 35.9837 276.538C35.433 276.118 35.111 275.549 35.0177 274.83H36.2217C36.2964 275.194 36.4877 275.511 36.7957 275.782C37.113 276.043 37.5377 276.174 38.0697 276.174C38.5644 276.174 38.9284 276.071 39.1617 275.866C39.395 275.651 39.5117 275.399 39.5117 275.11C39.5117 274.69 39.3577 274.41 39.0497 274.27C38.751 274.13 38.3264 274.004 37.7757 273.892C37.4024 273.817 37.029 273.71 36.6557 273.57C36.2824 273.43 35.9697 273.234 35.7177 272.982C35.4657 272.721 35.3397 272.38 35.3397 271.96C35.3397 271.353 35.5637 270.859 36.0117 270.476C36.469 270.084 37.085 269.888 37.8597 269.888C38.597 269.888 39.199 270.075 39.6657 270.448C40.1417 270.812 40.417 271.335 40.4917 272.016H39.3297C39.283 271.661 39.129 271.386 38.8677 271.19C38.6157 270.985 38.275 270.882 37.8457 270.882C37.4257 270.882 37.099 270.971 36.8657 271.148C36.6417 271.325 36.5297 271.559 36.5297 271.848C36.5297 272.128 36.6744 272.347 36.9637 272.506C37.2624 272.665 37.6637 272.8 38.1677 272.912C38.597 273.005 39.003 273.122 39.3857 273.262C39.7777 273.393 40.095 273.593 40.3377 273.864C40.5897 274.125 40.7157 274.508 40.7157 275.012C40.725 275.637 40.487 276.155 40.0017 276.566C39.5257 276.967 38.877 277.168 38.0557 277.168ZM45.5177 277.168C44.855 277.168 44.267 277.019 43.7537 276.72C43.2404 276.412 42.8344 275.987 42.5357 275.446C42.2464 274.905 42.1017 274.265 42.1017 273.528C42.1017 272.8 42.2464 272.165 42.5357 271.624C42.825 271.073 43.2264 270.649 43.7397 270.35C44.2624 270.042 44.8644 269.888 45.5457 269.888C46.2177 269.888 46.7964 270.042 47.2817 270.35C47.7764 270.649 48.1544 271.045 48.4157 271.54C48.677 272.035 48.8077 272.567 48.8077 273.136C48.8077 273.239 48.803 273.341 48.7937 273.444C48.7937 273.547 48.7937 273.663 48.7937 273.794H43.2637C43.2917 274.326 43.413 274.769 43.6277 275.124C43.8517 275.469 44.127 275.731 44.4537 275.908C44.7897 276.085 45.1444 276.174 45.5177 276.174C46.003 276.174 46.409 276.062 46.7357 275.838C47.0624 275.614 47.3004 275.311 47.4497 274.928H48.6117C48.425 275.572 48.0657 276.109 47.5337 276.538C47.011 276.958 46.339 277.168 45.5177 277.168ZM45.5177 270.882C44.9577 270.882 44.4584 271.055 44.0197 271.4C43.5904 271.736 43.343 272.231 43.2777 272.884H47.6457C47.6177 272.259 47.403 271.769 47.0017 271.414C46.6004 271.059 46.1057 270.882 45.5177 270.882ZM54.0715 277V270.056H55.1355L55.2055 271.302C55.4295 270.863 55.7515 270.518 56.1715 270.266C56.5915 270.014 57.0675 269.888 57.5995 269.888C58.4208 269.888 59.0741 270.14 59.5595 270.644C60.0541 271.139 60.3015 271.904 60.3015 272.94V277H59.1255V273.066C59.1255 271.619 58.5281 270.896 57.3335 270.896C56.7361 270.896 56.2368 271.115 55.8355 271.554C55.4435 271.983 55.2475 272.599 55.2475 273.402V277H54.0715ZM65.2472 277.168C64.5939 277.168 64.0059 277.019 63.4832 276.72C62.9605 276.421 62.5452 276.001 62.2372 275.46C61.9385 274.909 61.7892 274.265 61.7892 273.528C61.7892 272.791 61.9432 272.151 62.2512 271.61C62.5592 271.059 62.9745 270.635 63.4972 270.336C64.0292 270.037 64.6219 269.888 65.2752 269.888C65.9285 269.888 66.5165 270.037 67.0392 270.336C67.5619 270.635 67.9725 271.059 68.2712 271.61C68.5792 272.151 68.7332 272.791 68.7332 273.528C68.7332 274.265 68.5792 274.909 68.2712 275.46C67.9632 276.001 67.5432 276.421 67.0112 276.72C66.4885 277.019 65.9005 277.168 65.2472 277.168ZM65.2472 276.16C65.6485 276.16 66.0219 276.062 66.3672 275.866C66.7125 275.67 66.9925 275.376 67.2072 274.984C67.4219 274.592 67.5292 274.107 67.5292 273.528C67.5292 272.949 67.4219 272.464 67.2072 272.072C67.0019 271.68 66.7265 271.386 66.3812 271.19C66.0359 270.994 65.6672 270.896 65.2752 270.896C64.8739 270.896 64.5005 270.994 64.1552 271.19C63.8099 271.386 63.5299 271.68 63.3152 272.072C63.1005 272.464 62.9932 272.949 62.9932 273.528C62.9932 274.107 63.1005 274.592 63.3152 274.984C63.5299 275.376 63.8052 275.67 64.1412 275.866C64.4865 276.062 64.8552 276.16 65.2472 276.16ZM72.8389 277C72.2042 277 71.7049 276.846 71.3409 276.538C70.9769 276.23 70.7949 275.675 70.7949 274.872V271.05H69.5909V270.056H70.7949L70.9489 268.39H71.9709V270.056H74.0149V271.05H71.9709V274.872C71.9709 275.311 72.0596 275.609 72.2369 275.768C72.4142 275.917 72.7269 275.992 73.1749 275.992H73.9029V277H72.8389ZM78.4396 277.168C77.7769 277.168 77.1889 277.019 76.6756 276.72C76.1622 276.412 75.7562 275.987 75.4576 275.446C75.1682 274.905 75.0236 274.265 75.0236 273.528C75.0236 272.8 75.1682 272.165 75.4576 271.624C75.7469 271.073 76.1482 270.649 76.6616 270.35C77.1842 270.042 77.7862 269.888 78.4676 269.888C79.1396 269.888 79.7182 270.042 80.2036 270.35C80.6982 270.649 81.0762 271.045 81.3376 271.54C81.5989 272.035 81.7296 272.567 81.7296 273.136C81.7296 273.239 81.7249 273.341 81.7156 273.444C81.7156 273.547 81.7156 273.663 81.7156 273.794H76.1856C76.2136 274.326 76.3349 274.769 76.5496 275.124C76.7736 275.469 77.0489 275.731 77.3756 275.908C77.7116 276.085 78.0662 276.174 78.4396 276.174C78.9249 276.174 79.3309 276.062 79.6576 275.838C79.9842 275.614 80.2222 275.311 80.3716 274.928H81.5336C81.3469 275.572 80.9876 276.109 80.4556 276.538C79.9329 276.958 79.2609 277.168 78.4396 277.168ZM78.4396 270.882C77.8796 270.882 77.3802 271.055 76.9416 271.4C76.5122 271.736 76.2649 272.231 76.1996 272.884H80.5676C80.5396 272.259 80.3249 271.769 79.9236 271.414C79.5222 271.059 79.0276 270.882 78.4396 270.882ZM89.7373 277C89.1027 277 88.6033 276.846 88.2393 276.538C87.8753 276.23 87.6933 275.675 87.6933 274.872V271.05H86.4893V270.056H87.6933L87.8473 268.39H88.8693V270.056H90.9133V271.05H88.8693V274.872C88.8693 275.311 88.958 275.609 89.1353 275.768C89.3127 275.917 89.6253 275.992 90.0733 275.992H90.8013V277H89.7373ZM92.4074 277V266.92H93.5834V271.246C93.8167 270.817 94.1481 270.485 94.5774 270.252C95.0067 270.009 95.4734 269.888 95.9774 269.888C96.7801 269.888 97.4241 270.14 97.9094 270.644C98.3947 271.139 98.6374 271.904 98.6374 272.94V277H97.4754V273.066C97.4754 271.619 96.8921 270.896 95.7254 270.896C95.1187 270.896 94.6101 271.115 94.1994 271.554C93.7887 271.983 93.5834 272.599 93.5834 273.402V277H92.4074ZM102.729 277.168C102.15 277.168 101.67 277.07 101.287 276.874C100.904 276.678 100.62 276.417 100.433 276.09C100.246 275.763 100.153 275.409 100.153 275.026C100.153 274.317 100.424 273.771 100.965 273.388C101.506 273.005 102.244 272.814 103.177 272.814H105.053V272.73C105.053 272.123 104.894 271.666 104.577 271.358C104.26 271.041 103.835 270.882 103.303 270.882C102.846 270.882 102.449 270.999 102.113 271.232C101.786 271.456 101.581 271.787 101.497 272.226H100.293C100.34 271.722 100.508 271.297 100.797 270.952C101.096 270.607 101.464 270.345 101.903 270.168C102.342 269.981 102.808 269.888 103.303 269.888C104.274 269.888 105.002 270.149 105.487 270.672C105.982 271.185 106.229 271.871 106.229 272.73V277H105.179L105.109 275.754C104.913 276.146 104.624 276.482 104.241 276.762C103.868 277.033 103.364 277.168 102.729 277.168ZM102.911 276.174C103.359 276.174 103.742 276.057 104.059 275.824C104.386 275.591 104.633 275.287 104.801 274.914C104.969 274.541 105.053 274.149 105.053 273.738V273.724H103.275C102.584 273.724 102.094 273.845 101.805 274.088C101.525 274.321 101.385 274.615 101.385 274.97C101.385 275.334 101.516 275.628 101.777 275.852C102.048 276.067 102.426 276.174 102.911 276.174ZM110.546 277C109.911 277 109.412 276.846 109.048 276.538C108.684 276.23 108.502 275.675 108.502 274.872V271.05H107.298V270.056H108.502L108.656 268.39H109.678V270.056H111.722V271.05H109.678V274.872C109.678 275.311 109.767 275.609 109.944 275.768C110.121 275.917 110.434 275.992 110.882 275.992H111.61V277H110.546ZM119.665 277C119.03 277 118.531 276.846 118.167 276.538C117.803 276.23 117.621 275.675 117.621 274.872V271.05H116.417V270.056H117.621L117.775 268.39H118.797V270.056H120.841V271.05H118.797V274.872C118.797 275.311 118.886 275.609 119.063 275.768C119.24 275.917 119.553 275.992 120.001 275.992H120.729V277H119.665ZM122.335 277V266.92H123.511V271.246C123.744 270.817 124.076 270.485 124.505 270.252C124.934 270.009 125.401 269.888 125.905 269.888C126.708 269.888 127.352 270.14 127.837 270.644C128.322 271.139 128.565 271.904 128.565 272.94V277H127.403V273.066C127.403 271.619 126.82 270.896 125.653 270.896C125.046 270.896 124.538 271.115 124.127 271.554C123.716 271.983 123.511 272.599 123.511 273.402V277H122.335ZM133.469 277.168C132.806 277.168 132.218 277.019 131.705 276.72C131.192 276.412 130.786 275.987 130.487 275.446C130.198 274.905 130.053 274.265 130.053 273.528C130.053 272.8 130.198 272.165 130.487 271.624C130.776 271.073 131.178 270.649 131.691 270.35C132.214 270.042 132.816 269.888 133.497 269.888C134.169 269.888 134.748 270.042 135.233 270.35C135.728 270.649 136.106 271.045 136.367 271.54C136.628 272.035 136.759 272.567 136.759 273.136C136.759 273.239 136.754 273.341 136.745 273.444C136.745 273.547 136.745 273.663 136.745 273.794H131.215C131.243 274.326 131.364 274.769 131.579 275.124C131.803 275.469 132.078 275.731 132.405 275.908C132.741 276.085 133.096 276.174 133.469 276.174C133.954 276.174 134.36 276.062 134.687 275.838C135.014 275.614 135.252 275.311 135.401 274.928H136.563C136.376 275.572 136.017 276.109 135.485 276.538C134.962 276.958 134.29 277.168 133.469 277.168ZM133.469 270.882C132.909 270.882 132.41 271.055 131.971 271.4C131.542 271.736 131.294 272.231 131.229 272.884H135.597C135.569 272.259 135.354 271.769 134.953 271.414C134.552 271.059 134.057 270.882 133.469 270.882ZM145.733 277.168C145.163 277.168 144.655 277.051 144.207 276.818C143.768 276.585 143.432 276.258 143.199 275.838L143.087 277H142.023V266.92H143.199V271.204C143.423 270.868 143.74 270.565 144.151 270.294C144.571 270.023 145.103 269.888 145.747 269.888C146.437 269.888 147.039 270.047 147.553 270.364C148.066 270.681 148.463 271.115 148.743 271.666C149.032 272.217 149.177 272.842 149.177 273.542C149.177 274.242 149.032 274.867 148.743 275.418C148.463 275.959 148.061 276.389 147.539 276.706C147.025 277.014 146.423 277.168 145.733 277.168ZM145.607 276.146C146.073 276.146 146.484 276.039 146.839 275.824C147.193 275.6 147.473 275.292 147.679 274.9C147.884 274.508 147.987 274.051 147.987 273.528C147.987 273.005 147.884 272.548 147.679 272.156C147.473 271.764 147.193 271.461 146.839 271.246C146.484 271.022 146.073 270.91 145.607 270.91C145.14 270.91 144.729 271.022 144.375 271.246C144.02 271.461 143.74 271.764 143.535 272.156C143.329 272.548 143.227 273.005 143.227 273.528C143.227 274.051 143.329 274.508 143.535 274.9C143.74 275.292 144.02 275.6 144.375 275.824C144.729 276.039 145.14 276.146 145.607 276.146ZM153.978 277.168C153.324 277.168 152.736 277.019 152.214 276.72C151.691 276.421 151.276 276.001 150.968 275.46C150.669 274.909 150.52 274.265 150.52 273.528C150.52 272.791 150.674 272.151 150.982 271.61C151.29 271.059 151.705 270.635 152.228 270.336C152.76 270.037 153.352 269.888 154.006 269.888C154.659 269.888 155.247 270.037 155.77 270.336C156.292 270.635 156.703 271.059 157.002 271.61C157.31 272.151 157.464 272.791 157.464 273.528C157.464 274.265 157.31 274.909 157.002 275.46C156.694 276.001 156.274 276.421 155.742 276.72C155.219 277.019 154.631 277.168 153.978 277.168ZM153.978 276.16C154.379 276.16 154.752 276.062 155.098 275.866C155.443 275.67 155.723 275.376 155.938 274.984C156.152 274.592 156.26 274.107 156.26 273.528C156.26 272.949 156.152 272.464 155.938 272.072C155.732 271.68 155.457 271.386 155.112 271.19C154.766 270.994 154.398 270.896 154.006 270.896C153.604 270.896 153.231 270.994 152.886 271.19C152.54 271.386 152.26 271.68 152.046 272.072C151.831 272.464 151.724 272.949 151.724 273.528C151.724 274.107 151.831 274.592 152.046 274.984C152.26 275.376 152.536 275.67 152.872 275.866C153.217 276.062 153.586 276.16 153.978 276.16ZM162.263 277.168C161.609 277.168 161.021 277.019 160.499 276.72C159.976 276.421 159.561 276.001 159.253 275.46C158.954 274.909 158.805 274.265 158.805 273.528C158.805 272.791 158.959 272.151 159.267 271.61C159.575 271.059 159.99 270.635 160.513 270.336C161.045 270.037 161.637 269.888 162.291 269.888C162.944 269.888 163.532 270.037 164.055 270.336C164.577 270.635 164.988 271.059 165.287 271.61C165.595 272.151 165.749 272.791 165.749 273.528C165.749 274.265 165.595 274.909 165.287 275.46C164.979 276.001 164.559 276.421 164.027 276.72C163.504 277.019 162.916 277.168 162.263 277.168ZM162.263 276.16C162.664 276.16 163.037 276.062 163.383 275.866C163.728 275.67 164.008 275.376 164.223 274.984C164.437 274.592 164.545 274.107 164.545 273.528C164.545 272.949 164.437 272.464 164.223 272.072C164.017 271.68 163.742 271.386 163.397 271.19C163.051 270.994 162.683 270.896 162.291 270.896C161.889 270.896 161.516 270.994 161.171 271.19C160.825 271.386 160.545 271.68 160.331 272.072C160.116 272.464 160.009 272.949 160.009 273.528C160.009 274.107 160.116 274.592 160.331 274.984C160.545 275.376 160.821 275.67 161.157 275.866C161.502 276.062 161.871 276.16 162.263 276.16ZM167.384 277V266.92H168.56V272.982L171.402 270.056H172.844L169.764 273.192L173.236 277H171.738L168.56 273.402V277H167.384ZM175.153 268.516C174.919 268.516 174.723 268.441 174.565 268.292C174.415 268.133 174.341 267.937 174.341 267.704C174.341 267.48 174.415 267.293 174.565 267.144C174.723 266.995 174.919 266.92 175.153 266.92C175.377 266.92 175.568 266.995 175.727 267.144C175.885 267.293 175.965 267.48 175.965 267.704C175.965 267.937 175.885 268.133 175.727 268.292C175.568 268.441 175.377 268.516 175.153 268.516ZM174.565 277V270.056H175.741V277H174.565ZM177.788 277V270.056H178.852L178.922 271.302C179.146 270.863 179.468 270.518 179.888 270.266C180.308 270.014 180.784 269.888 181.316 269.888C182.138 269.888 182.791 270.14 183.276 270.644C183.771 271.139 184.018 271.904 184.018 272.94V277H182.842V273.066C182.842 271.619 182.245 270.896 181.05 270.896C180.453 270.896 179.954 271.115 179.552 271.554C179.16 271.983 178.964 272.599 178.964 273.402V277H177.788ZM188.544 274.816C188.152 274.816 187.793 274.765 187.466 274.662L186.766 275.32C186.869 275.395 186.995 275.46 187.144 275.516C187.303 275.563 187.527 275.609 187.816 275.656C188.105 275.693 188.511 275.735 189.034 275.782C189.967 275.847 190.635 276.062 191.036 276.426C191.437 276.79 191.638 277.266 191.638 277.854C191.638 278.255 191.526 278.638 191.302 279.002C191.087 279.366 190.751 279.665 190.294 279.898C189.846 280.131 189.267 280.248 188.558 280.248C187.933 280.248 187.377 280.164 186.892 279.996C186.407 279.837 186.029 279.59 185.758 279.254C185.487 278.927 185.352 278.512 185.352 278.008C185.352 277.747 185.422 277.462 185.562 277.154C185.702 276.855 185.963 276.571 186.346 276.3C186.141 276.216 185.963 276.127 185.814 276.034C185.674 275.931 185.543 275.819 185.422 275.698V275.376L186.612 274.2C186.061 273.733 185.786 273.117 185.786 272.352C185.786 271.895 185.893 271.479 186.108 271.106C186.323 270.733 186.635 270.439 187.046 270.224C187.457 270 187.956 269.888 188.544 269.888C188.945 269.888 189.309 269.944 189.636 270.056H192.198V270.938L190.896 270.994C191.167 271.386 191.302 271.839 191.302 272.352C191.302 272.809 191.19 273.225 190.966 273.598C190.751 273.971 190.439 274.27 190.028 274.494C189.627 274.709 189.132 274.816 188.544 274.816ZM188.544 273.85C189.039 273.85 189.431 273.724 189.72 273.472C190.019 273.211 190.168 272.837 190.168 272.352C190.168 271.876 190.019 271.512 189.72 271.26C189.431 270.999 189.039 270.868 188.544 270.868C188.04 270.868 187.639 270.999 187.34 271.26C187.051 271.512 186.906 271.876 186.906 272.352C186.906 272.837 187.051 273.211 187.34 273.472C187.639 273.724 188.04 273.85 188.544 273.85ZM186.5 277.896C186.5 278.363 186.696 278.708 187.088 278.932C187.48 279.165 187.97 279.282 188.558 279.282C189.137 279.282 189.599 279.156 189.944 278.904C190.299 278.652 190.476 278.316 190.476 277.896C190.476 277.597 190.355 277.336 190.112 277.112C189.869 276.897 189.421 276.771 188.768 276.734C188.255 276.697 187.811 276.65 187.438 276.594C187.055 276.799 186.803 277.019 186.682 277.252C186.561 277.495 186.5 277.709 186.5 277.896ZM200.422 277.168C199.759 277.168 199.162 277.019 198.63 276.72C198.107 276.412 197.692 275.987 197.384 275.446C197.085 274.895 196.936 274.256 196.936 273.528C196.936 272.8 197.085 272.165 197.384 271.624C197.692 271.073 198.107 270.649 198.63 270.35C199.162 270.042 199.759 269.888 200.422 269.888C201.243 269.888 201.934 270.103 202.494 270.532C203.063 270.961 203.422 271.535 203.572 272.254H202.368C202.274 271.825 202.046 271.493 201.682 271.26C201.318 271.017 200.893 270.896 200.408 270.896C200.016 270.896 199.647 270.994 199.302 271.19C198.956 271.386 198.676 271.68 198.462 272.072C198.247 272.464 198.14 272.949 198.14 273.528C198.14 274.107 198.247 274.592 198.462 274.984C198.676 275.376 198.956 275.675 199.302 275.88C199.647 276.076 200.016 276.174 200.408 276.174C200.893 276.174 201.318 276.057 201.682 275.824C202.046 275.581 202.274 275.241 202.368 274.802H203.572C203.432 275.502 203.077 276.071 202.508 276.51C201.938 276.949 201.243 277.168 200.422 277.168ZM208.378 277.168C207.725 277.168 207.137 277.019 206.614 276.72C206.091 276.421 205.676 276.001 205.368 275.46C205.069 274.909 204.92 274.265 204.92 273.528C204.92 272.791 205.074 272.151 205.382 271.61C205.69 271.059 206.105 270.635 206.628 270.336C207.16 270.037 207.753 269.888 208.406 269.888C209.059 269.888 209.647 270.037 210.17 270.336C210.693 270.635 211.103 271.059 211.402 271.61C211.71 272.151 211.864 272.791 211.864 273.528C211.864 274.265 211.71 274.909 211.402 275.46C211.094 276.001 210.674 276.421 210.142 276.72C209.619 277.019 209.031 277.168 208.378 277.168ZM208.378 276.16C208.779 276.16 209.153 276.062 209.498 275.866C209.843 275.67 210.123 275.376 210.338 274.984C210.553 274.592 210.66 274.107 210.66 273.528C210.66 272.949 210.553 272.464 210.338 272.072C210.133 271.68 209.857 271.386 209.512 271.19C209.167 270.994 208.798 270.896 208.406 270.896C208.005 270.896 207.631 270.994 207.286 271.19C206.941 271.386 206.661 271.68 206.446 272.072C206.231 272.464 206.124 272.949 206.124 273.528C206.124 274.107 206.231 274.592 206.446 274.984C206.661 275.376 206.936 275.67 207.272 275.866C207.617 276.062 207.986 276.16 208.378 276.16ZM216.159 277.168C215.329 277.168 214.638 276.958 214.087 276.538C213.537 276.118 213.215 275.549 213.121 274.83H214.325C214.4 275.194 214.591 275.511 214.899 275.782C215.217 276.043 215.641 276.174 216.173 276.174C216.668 276.174 217.032 276.071 217.265 275.866C217.499 275.651 217.615 275.399 217.615 275.11C217.615 274.69 217.461 274.41 217.153 274.27C216.855 274.13 216.43 274.004 215.879 273.892C215.506 273.817 215.133 273.71 214.759 273.57C214.386 273.43 214.073 273.234 213.821 272.982C213.569 272.721 213.443 272.38 213.443 271.96C213.443 271.353 213.667 270.859 214.115 270.476C214.573 270.084 215.189 269.888 215.963 269.888C216.701 269.888 217.303 270.075 217.769 270.448C218.245 270.812 218.521 271.335 218.595 272.016H217.433C217.387 271.661 217.233 271.386 216.971 271.19C216.719 270.985 216.379 270.882 215.949 270.882C215.529 270.882 215.203 270.971 214.969 271.148C214.745 271.325 214.633 271.559 214.633 271.848C214.633 272.128 214.778 272.347 215.067 272.506C215.366 272.665 215.767 272.8 216.271 272.912C216.701 273.005 217.107 273.122 217.489 273.262C217.881 273.393 218.199 273.593 218.441 273.864C218.693 274.125 218.819 274.508 218.819 275.012C218.829 275.637 218.591 276.155 218.105 276.566C217.629 276.967 216.981 277.168 216.159 277.168ZM222.929 277C222.294 277 221.795 276.846 221.431 276.538C221.067 276.23 220.885 275.675 220.885 274.872V271.05H219.681V270.056H220.885L221.039 268.39H222.061V270.056H224.105V271.05H222.061V274.872C222.061 275.311 222.149 275.609 222.327 275.768C222.504 275.917 222.817 275.992 223.265 275.992H223.993V277H222.929ZM230.018 268.516C229.785 268.516 229.589 268.441 229.43 268.292C229.281 268.133 229.206 267.937 229.206 267.704C229.206 267.48 229.281 267.293 229.43 267.144C229.589 266.995 229.785 266.92 230.018 266.92C230.242 266.92 230.433 266.995 230.592 267.144C230.751 267.293 230.83 267.48 230.83 267.704C230.83 267.937 230.751 268.133 230.592 268.292C230.433 268.441 230.242 268.516 230.018 268.516ZM229.43 277V270.056H230.606V277H229.43ZM235.314 277.168C234.483 277.168 233.792 276.958 233.242 276.538C232.691 276.118 232.369 275.549 232.276 274.83H233.48C233.554 275.194 233.746 275.511 234.054 275.782C234.371 276.043 234.796 276.174 235.328 276.174C235.822 276.174 236.186 276.071 236.42 275.866C236.653 275.651 236.77 275.399 236.77 275.11C236.77 274.69 236.616 274.41 236.308 274.27C236.009 274.13 235.584 274.004 235.034 273.892C234.66 273.817 234.287 273.71 233.914 273.57C233.54 273.43 233.228 273.234 232.976 272.982C232.724 272.721 232.598 272.38 232.598 271.96C232.598 271.353 232.822 270.859 233.27 270.476C233.727 270.084 234.343 269.888 235.118 269.888C235.855 269.888 236.457 270.075 236.924 270.448C237.4 270.812 237.675 271.335 237.75 272.016H236.588C236.541 271.661 236.387 271.386 236.126 271.19C235.874 270.985 235.533 270.882 235.104 270.882C234.684 270.882 234.357 270.971 234.124 271.148C233.9 271.325 233.788 271.559 233.788 271.848C233.788 272.128 233.932 272.347 234.222 272.506C234.52 272.665 234.922 272.8 235.426 272.912C235.855 273.005 236.261 273.122 236.644 273.262C237.036 273.393 237.353 273.593 237.596 273.864C237.848 274.125 237.974 274.508 237.974 275.012C237.983 275.637 237.745 276.155 237.26 276.566C236.784 276.967 236.135 277.168 235.314 277.168ZM243.359 277V270.056H244.423L244.493 271.302C244.717 270.863 245.039 270.518 245.459 270.266C245.879 270.014 246.355 269.888 246.887 269.888C247.708 269.888 248.361 270.14 248.847 270.644C249.341 271.139 249.589 271.904 249.589 272.94V277H248.413V273.066C248.413 271.619 247.815 270.896 246.621 270.896C246.023 270.896 245.524 271.115 245.123 271.554C244.731 271.983 244.535 272.599 244.535 273.402V277H243.359ZM254.534 277.168C253.881 277.168 253.293 277.019 252.77 276.72C252.248 276.421 251.832 276.001 251.524 275.46C251.226 274.909 251.076 274.265 251.076 273.528C251.076 272.791 251.23 272.151 251.538 271.61C251.846 271.059 252.262 270.635 252.784 270.336C253.316 270.037 253.909 269.888 254.562 269.888C255.216 269.888 255.804 270.037 256.326 270.336C256.849 270.635 257.26 271.059 257.558 271.61C257.866 272.151 258.02 272.791 258.02 273.528C258.02 274.265 257.866 274.909 257.558 275.46C257.25 276.001 256.83 276.421 256.298 276.72C255.776 277.019 255.188 277.168 254.534 277.168ZM254.534 276.16C254.936 276.16 255.309 276.062 255.654 275.866C256 275.67 256.28 275.376 256.494 274.984C256.709 274.592 256.816 274.107 256.816 273.528C256.816 272.949 256.709 272.464 256.494 272.072C256.289 271.68 256.014 271.386 255.668 271.19C255.323 270.994 254.954 270.896 254.562 270.896C254.161 270.896 253.788 270.994 253.442 271.19C253.097 271.386 252.817 271.68 252.602 272.072C252.388 272.464 252.28 272.949 252.28 273.528C252.28 274.107 252.388 274.592 252.602 274.984C252.817 275.376 253.092 275.67 253.428 275.866C253.774 276.062 254.142 276.16 254.534 276.16ZM259.655 277V270.056H260.719L260.789 271.302C261.013 270.863 261.335 270.518 261.755 270.266C262.175 270.014 262.651 269.888 263.183 269.888C264.005 269.888 264.658 270.14 265.143 270.644C265.638 271.139 265.885 271.904 265.885 272.94V277H264.709V273.066C264.709 271.619 264.112 270.896 262.917 270.896C262.32 270.896 261.821 271.115 261.419 271.554C261.027 271.983 260.831 272.599 260.831 273.402V277H259.655ZM267.527 273.43V272.436H273.071V273.43H267.527ZM274.845 277V270.056H275.909L276.007 271.386C276.222 270.929 276.548 270.565 276.987 270.294C277.426 270.023 277.967 269.888 278.611 269.888V271.12H278.289C277.878 271.12 277.5 271.195 277.155 271.344C276.81 271.484 276.534 271.727 276.329 272.072C276.124 272.417 276.021 272.893 276.021 273.5V277H274.845ZM282.793 277.168C282.13 277.168 281.542 277.019 281.029 276.72C280.516 276.412 280.11 275.987 279.811 275.446C279.522 274.905 279.377 274.265 279.377 273.528C279.377 272.8 279.522 272.165 279.811 271.624C280.1 271.073 280.502 270.649 281.015 270.35C281.538 270.042 282.14 269.888 282.821 269.888C283.493 269.888 284.072 270.042 284.557 270.35C285.052 270.649 285.43 271.045 285.691 271.54C285.952 272.035 286.083 272.567 286.083 273.136C286.083 273.239 286.078 273.341 286.069 273.444C286.069 273.547 286.069 273.663 286.069 273.794H280.539C280.567 274.326 280.688 274.769 280.903 275.124C281.127 275.469 281.402 275.731 281.729 275.908C282.065 276.085 282.42 276.174 282.793 276.174C283.278 276.174 283.684 276.062 284.011 275.838C284.338 275.614 284.576 275.311 284.725 274.928H285.887C285.7 275.572 285.341 276.109 284.809 276.538C284.286 276.958 283.614 277.168 282.793 277.168ZM282.793 270.882C282.233 270.882 281.734 271.055 281.295 271.4C280.866 271.736 280.618 272.231 280.553 272.884H284.921C284.893 272.259 284.678 271.769 284.277 271.414C283.876 271.059 283.381 270.882 282.793 270.882ZM288.02 277V271.05H286.97V270.056H288.02V268.852C288.02 268.18 288.188 267.69 288.524 267.382C288.86 267.074 289.35 266.92 289.994 266.92H290.694V267.928H290.176C289.821 267.928 289.569 268.003 289.42 268.152C289.27 268.292 289.196 268.535 289.196 268.88V270.056H290.904V271.05H289.196V277H288.02ZM294.838 277.168C294.017 277.168 293.363 276.921 292.878 276.426C292.393 275.922 292.15 275.152 292.15 274.116V270.056H293.326V273.99C293.326 275.437 293.919 276.16 295.104 276.16C295.711 276.16 296.21 275.945 296.602 275.516C297.003 275.077 297.204 274.457 297.204 273.654V270.056H298.38V277H297.316L297.232 275.754C297.017 276.193 296.695 276.538 296.266 276.79C295.846 277.042 295.37 277.168 294.838 277.168ZM300.316 277V270.056H301.38L301.45 271.302C301.674 270.863 301.996 270.518 302.416 270.266C302.836 270.014 303.312 269.888 303.844 269.888C304.665 269.888 305.318 270.14 305.804 270.644C306.298 271.139 306.546 271.904 306.546 272.94V277H305.37V273.066C305.37 271.619 304.772 270.896 303.578 270.896C302.98 270.896 302.481 271.115 302.08 271.554C301.688 271.983 301.492 272.599 301.492 273.402V277H300.316ZM311.477 277.168C310.787 277.168 310.18 277.009 309.657 276.692C309.144 276.375 308.743 275.941 308.453 275.39C308.173 274.839 308.033 274.214 308.033 273.514C308.033 272.814 308.178 272.193 308.467 271.652C308.757 271.101 309.158 270.672 309.671 270.364C310.185 270.047 310.791 269.888 311.491 269.888C312.061 269.888 312.565 270.005 313.003 270.238C313.442 270.471 313.783 270.798 314.025 271.218V266.92H315.201V277H314.137L314.025 275.852C313.801 276.188 313.479 276.491 313.059 276.762C312.639 277.033 312.112 277.168 311.477 277.168ZM311.603 276.146C312.07 276.146 312.481 276.039 312.835 275.824C313.199 275.6 313.479 275.292 313.675 274.9C313.881 274.508 313.983 274.051 313.983 273.528C313.983 273.005 313.881 272.548 313.675 272.156C313.479 271.764 313.199 271.461 312.835 271.246C312.481 271.022 312.07 270.91 311.603 270.91C311.146 270.91 310.735 271.022 310.371 271.246C310.017 271.461 309.737 271.764 309.531 272.156C309.335 272.548 309.237 273.005 309.237 273.528C309.237 274.051 309.335 274.508 309.531 274.9C309.737 275.292 310.017 275.6 310.371 275.824C310.735 276.039 311.146 276.146 311.603 276.146ZM319.428 277.168C318.85 277.168 318.369 277.07 317.986 276.874C317.604 276.678 317.319 276.417 317.132 276.09C316.946 275.763 316.852 275.409 316.852 275.026C316.852 274.317 317.123 273.771 317.664 273.388C318.206 273.005 318.943 272.814 319.876 272.814H321.752V272.73C321.752 272.123 321.594 271.666 321.276 271.358C320.959 271.041 320.534 270.882 320.002 270.882C319.545 270.882 319.148 270.999 318.812 271.232C318.486 271.456 318.28 271.787 318.196 272.226H316.992C317.039 271.722 317.207 271.297 317.496 270.952C317.795 270.607 318.164 270.345 318.602 270.168C319.041 269.981 319.508 269.888 320.002 269.888C320.973 269.888 321.701 270.149 322.186 270.672C322.681 271.185 322.928 271.871 322.928 272.73V277H321.878L321.808 275.754C321.612 276.146 321.323 276.482 320.94 276.762C320.567 277.033 320.063 277.168 319.428 277.168ZM319.61 276.174C320.058 276.174 320.441 276.057 320.758 275.824C321.085 275.591 321.332 275.287 321.5 274.914C321.668 274.541 321.752 274.149 321.752 273.738V273.724H319.974C319.284 273.724 318.794 273.845 318.504 274.088C318.224 274.321 318.084 274.615 318.084 274.97C318.084 275.334 318.215 275.628 318.476 275.852C318.747 276.067 319.125 276.174 319.61 276.174ZM328.403 277.168C327.833 277.168 327.325 277.051 326.877 276.818C326.438 276.585 326.102 276.258 325.869 275.838L325.757 277H324.693V266.92H325.869V271.204C326.093 270.868 326.41 270.565 326.821 270.294C327.241 270.023 327.773 269.888 328.417 269.888C329.107 269.888 329.709 270.047 330.223 270.364C330.736 270.681 331.133 271.115 331.413 271.666C331.702 272.217 331.847 272.842 331.847 273.542C331.847 274.242 331.702 274.867 331.413 275.418C331.133 275.959 330.731 276.389 330.209 276.706C329.695 277.014 329.093 277.168 328.403 277.168ZM328.277 276.146C328.743 276.146 329.154 276.039 329.509 275.824C329.863 275.6 330.143 275.292 330.349 274.9C330.554 274.508 330.657 274.051 330.657 273.528C330.657 273.005 330.554 272.548 330.349 272.156C330.143 271.764 329.863 271.461 329.509 271.246C329.154 271.022 328.743 270.91 328.277 270.91C327.81 270.91 327.399 271.022 327.045 271.246C326.69 271.461 326.41 271.764 326.205 272.156C325.999 272.548 325.897 273.005 325.897 273.528C325.897 274.051 325.999 274.508 326.205 274.9C326.41 275.292 326.69 275.6 327.045 275.824C327.399 276.039 327.81 276.146 328.277 276.146ZM333.484 277V266.92H334.66V277H333.484ZM339.709 277.168C339.046 277.168 338.458 277.019 337.945 276.72C337.432 276.412 337.026 275.987 336.727 275.446C336.438 274.905 336.293 274.265 336.293 273.528C336.293 272.8 336.438 272.165 336.727 271.624C337.016 271.073 337.418 270.649 337.931 270.35C338.454 270.042 339.056 269.888 339.737 269.888C340.409 269.888 340.988 270.042 341.473 270.35C341.968 270.649 342.346 271.045 342.607 271.54C342.868 272.035 342.999 272.567 342.999 273.136C342.999 273.239 342.994 273.341 342.985 273.444C342.985 273.547 342.985 273.663 342.985 273.794H337.455C337.483 274.326 337.604 274.769 337.819 275.124C338.043 275.469 338.318 275.731 338.645 275.908C338.981 276.085 339.336 276.174 339.709 276.174C340.194 276.174 340.6 276.062 340.927 275.838C341.254 275.614 341.492 275.311 341.641 274.928H342.803C342.616 275.572 342.257 276.109 341.725 276.538C341.202 276.958 340.53 277.168 339.709 277.168ZM339.709 270.882C339.149 270.882 338.65 271.055 338.211 271.4C337.782 271.736 337.534 272.231 337.469 272.884H341.837C341.809 272.259 341.594 271.769 341.193 271.414C340.792 271.059 340.297 270.882 339.709 270.882ZM344.964 277.07C344.73 277.07 344.534 276.995 344.376 276.846C344.226 276.687 344.152 276.496 344.152 276.272C344.152 276.048 344.226 275.861 344.376 275.712C344.534 275.553 344.73 275.474 344.964 275.474C345.188 275.474 345.374 275.553 345.524 275.712C345.682 275.861 345.762 276.048 345.762 276.272C345.762 276.496 345.682 276.687 345.524 276.846C345.374 276.995 345.188 277.07 344.964 277.07Z" fill="#4A423B"/>
</svg>
