<svg width="90" height="42" viewBox="0 0 90 42" fill="none" xmlns="http://www.w3.org/2000/svg">
<path d="M35 8.5H47.5" stroke="#7E7E7E" stroke-width="1.5" stroke-miterlimit="10" stroke-linecap="round" stroke-linejoin="round"/>
<path d="M39 16.5H41" stroke="#7E7E7E" stroke-width="1.5" stroke-miterlimit="10" stroke-linecap="round" stroke-linejoin="round"/>
<path d="M43.5 16.5H47.5" stroke="#7E7E7E" stroke-width="1.5" stroke-miterlimit="10" stroke-linecap="round" stroke-linejoin="round"/>
<path d="M55 14.03V16.11C55 19.62 54.11 20.5 50.56 20.5H39.44C35.89 20.5 35 19.62 35 16.11V7.89C35 4.38 35.89 3.5 39.44 3.5H47.5" stroke="#7E7E7E" stroke-width="1.5" stroke-linecap="round" stroke-linejoin="round"/>
<path d="M53 3.5V9.5L55 7.5" stroke="#7E7E7E" stroke-width="1.5" stroke-linecap="round" stroke-linejoin="round"/>
<path d="M53 9.5L51 7.5" stroke="#7E7E7E" stroke-width="1.5" stroke-linecap="round" stroke-linejoin="round"/>
<path d="M29.072 38.144C28.248 38.144 27.536 37.964 26.936 37.604C26.344 37.236 25.884 36.728 25.556 36.08C25.228 35.424 25.064 34.664 25.064 33.8C25.064 32.944 25.228 32.192 25.556 31.544C25.884 30.888 26.344 30.376 26.936 30.008C27.536 29.64 28.248 29.456 29.072 29.456C30.032 29.456 30.812 29.688 31.412 30.152C32.02 30.608 32.408 31.248 32.576 32.072H31.46C31.332 31.552 31.068 31.136 30.668 30.824C30.276 30.504 29.744 30.344 29.072 30.344C28.472 30.344 27.948 30.484 27.5 30.764C27.052 31.036 26.704 31.432 26.456 31.952C26.216 32.464 26.096 33.08 26.096 33.8C26.096 34.52 26.216 35.14 26.456 35.66C26.704 36.172 27.052 36.568 27.5 36.848C27.948 37.12 28.472 37.256 29.072 37.256C29.744 37.256 30.276 37.104 30.668 36.8C31.068 36.488 31.332 36.076 31.46 35.564H32.576C32.408 36.372 32.02 37.004 31.412 37.46C30.812 37.916 30.032 38.144 29.072 38.144ZM33.9647 38V32.048H34.8767L34.9607 33.188C35.1447 32.796 35.4247 32.484 35.8007 32.252C36.1767 32.02 36.6407 31.904 37.1927 31.904V32.96H36.9167C36.5647 32.96 36.2407 33.024 35.9447 33.152C35.6487 33.272 35.4127 33.48 35.2367 33.776C35.0607 34.072 34.9727 34.48 34.9727 35V38H33.9647ZM40.7774 38.144C40.2094 38.144 39.7054 38.016 39.2654 37.76C38.8254 37.496 38.4774 37.132 38.2214 36.668C37.9734 36.204 37.8494 35.656 37.8494 35.024C37.8494 34.4 37.9734 33.856 38.2214 33.392C38.4694 32.92 38.8134 32.556 39.2534 32.3C39.7014 32.036 40.2174 31.904 40.8014 31.904C41.3774 31.904 41.8734 32.036 42.2894 32.3C42.7134 32.556 43.0374 32.896 43.2614 33.32C43.4854 33.744 43.5974 34.2 43.5974 34.688C43.5974 34.776 43.5934 34.864 43.5854 34.952C43.5854 35.04 43.5854 35.14 43.5854 35.252H38.8454C38.8694 35.708 38.9734 36.088 39.1574 36.392C39.3494 36.688 39.5854 36.912 39.8654 37.064C40.1534 37.216 40.4574 37.292 40.7774 37.292C41.1934 37.292 41.5414 37.196 41.8214 37.004C42.1014 36.812 42.3054 36.552 42.4334 36.224H43.4294C43.2694 36.776 42.9614 37.236 42.5054 37.604C42.0574 37.964 41.4814 38.144 40.7774 38.144ZM40.7774 32.756C40.2974 32.756 39.8694 32.904 39.4934 33.2C39.1254 33.488 38.9134 33.912 38.8574 34.472H42.6014C42.5774 33.936 42.3934 33.516 42.0494 33.212C41.7054 32.908 41.2814 32.756 40.7774 32.756ZM47.6335 38.144C47.0415 38.144 46.5215 38.008 46.0735 37.736C45.6335 37.464 45.2895 37.092 45.0415 36.62C44.8015 36.148 44.6815 35.612 44.6815 35.012C44.6815 34.412 44.8055 33.88 45.0535 33.416C45.3015 32.944 45.6455 32.576 46.0855 32.312C46.5255 32.04 47.0455 31.904 47.6455 31.904C48.1335 31.904 48.5655 32.004 48.9415 32.204C49.3175 32.404 49.6095 32.684 49.8175 33.044V29.36H50.8255V38H49.9135L49.8175 37.016C49.6255 37.304 49.3495 37.564 48.9895 37.796C48.6295 38.028 48.1775 38.144 47.6335 38.144ZM47.7415 37.268C48.1415 37.268 48.4935 37.176 48.7975 36.992C49.1095 36.8 49.3495 36.536 49.5175 36.2C49.6935 35.864 49.7815 35.472 49.7815 35.024C49.7815 34.576 49.6935 34.184 49.5175 33.848C49.3495 33.512 49.1095 33.252 48.7975 33.068C48.4935 32.876 48.1415 32.78 47.7415 32.78C47.3495 32.78 46.9975 32.876 46.6855 33.068C46.3815 33.252 46.1415 33.512 45.9655 33.848C45.7975 34.184 45.7135 34.576 45.7135 35.024C45.7135 35.472 45.7975 35.864 45.9655 36.2C46.1415 36.536 46.3815 36.8 46.6855 36.992C46.9975 37.176 47.3495 37.268 47.7415 37.268ZM53.0806 30.728C52.8806 30.728 52.7126 30.664 52.5766 30.536C52.4486 30.4 52.3846 30.232 52.3846 30.032C52.3846 29.84 52.4486 29.68 52.5766 29.552C52.7126 29.424 52.8806 29.36 53.0806 29.36C53.2726 29.36 53.4366 29.424 53.5726 29.552C53.7086 29.68 53.7766 29.84 53.7766 30.032C53.7766 30.232 53.7086 30.4 53.5726 30.536C53.4366 30.664 53.2726 30.728 53.0806 30.728ZM52.5766 38V32.048H53.5846V38H52.5766ZM57.6917 38C57.1477 38 56.7197 37.868 56.4077 37.604C56.0957 37.34 55.9397 36.864 55.9397 36.176V32.9H54.9077V32.048H55.9397L56.0717 30.62H56.9477V32.048H58.6997V32.9H56.9477V36.176C56.9477 36.552 57.0237 36.808 57.1757 36.944C57.3277 37.072 57.5957 37.136 57.9797 37.136H58.6037V38H57.6917ZM62.2603 38.144C61.5483 38.144 60.9563 37.964 60.4843 37.604C60.0123 37.244 59.7363 36.756 59.6563 36.14H60.6883C60.7523 36.452 60.9163 36.724 61.1803 36.956C61.4523 37.18 61.8163 37.292 62.2723 37.292C62.6963 37.292 63.0083 37.204 63.2083 37.028C63.4083 36.844 63.5083 36.628 63.5083 36.38C63.5083 36.02 63.3763 35.78 63.1123 35.66C62.8563 35.54 62.4923 35.432 62.0203 35.336C61.7003 35.272 61.3803 35.18 61.0603 35.06C60.7403 34.94 60.4723 34.772 60.2563 34.556C60.0403 34.332 59.9323 34.04 59.9323 33.68C59.9323 33.16 60.1243 32.736 60.5083 32.408C60.9003 32.072 61.4283 31.904 62.0923 31.904C62.7243 31.904 63.2403 32.064 63.6403 32.384C64.0483 32.696 64.2843 33.144 64.3483 33.728H63.3523C63.3123 33.424 63.1803 33.188 62.9563 33.02C62.7403 32.844 62.4483 32.756 62.0803 32.756C61.7203 32.756 61.4403 32.832 61.2403 32.984C61.0483 33.136 60.9523 33.336 60.9523 33.584C60.9523 33.824 61.0763 34.012 61.3243 34.148C61.5803 34.284 61.9243 34.4 62.3563 34.496C62.7243 34.576 63.0723 34.676 63.4003 34.796C63.7363 34.908 64.0083 35.08 64.2163 35.312C64.4323 35.536 64.5403 35.864 64.5403 36.296C64.5483 36.832 64.3443 37.276 63.9283 37.628C63.5203 37.972 62.9643 38.144 62.2603 38.144Z" fill="#7D7D7D"/>
</svg>
