<svg width="74" height="74" viewBox="0 0 74 74" fill="none" xmlns="http://www.w3.org/2000/svg">
<circle cx="37" cy="37" r="37" fill="white"/>
<path d="M36.9987 53.5736C27.8566 53.5736 20.4258 46.1427 20.4258 37.0006C20.4258 27.8586 27.8566 20.4277 36.9987 20.4277C37.6308 20.4277 38.1549 20.9519 38.1549 21.584C38.1549 22.2161 37.6308 22.7402 36.9987 22.7402C29.1362 22.7402 22.7383 29.1381 22.7383 37.0006C22.7383 44.8631 29.1362 51.2611 36.9987 51.2611C44.8612 51.2611 51.2591 44.8631 51.2591 37.0006C51.2591 36.3686 51.7833 35.8444 52.4154 35.8444C53.0474 35.8444 53.5716 36.3686 53.5716 37.0006C53.5716 46.1427 46.1408 53.5736 36.9987 53.5736Z" fill="#C39D63"/>
<path d="M46.9661 19.9115H53.1328C53.7649 19.9115 54.2891 20.4356 54.2891 21.0677V27.2344C54.2891 27.8665 53.7649 28.3906 53.1328 28.3906C52.5007 28.3906 51.9766 27.8665 51.9766 27.2344V22.224H46.9661C46.3341 22.224 45.8099 21.6998 45.8099 21.0677C45.8099 20.4356 46.3341 19.9115 46.9661 19.9115Z" fill="#C39D63"/>
<path d="M52.4179 20.4303C52.7108 20.4303 53.0038 20.5382 53.235 20.7695C53.6821 21.2165 53.6821 21.9565 53.235 22.4036L45.5267 30.112C45.0796 30.559 44.3396 30.559 43.8925 30.112C43.4454 29.6649 43.4454 28.9249 43.8925 28.4778L51.6008 20.7695C51.8321 20.5382 52.125 20.4303 52.4179 20.4303Z" fill="#C39D63"/>
<path d="M36.6285 46.2306C32.9593 46.2306 29.9531 43.5635 29.9531 40.2798V37.1348C29.9531 36.5027 30.4773 35.9785 31.1094 35.9785C31.7415 35.9785 32.2656 36.5027 32.2656 37.1348C32.2656 39.0618 34.131 40.511 36.6285 40.511C39.126 40.511 40.9914 39.0618 40.9914 37.1348C40.9914 36.5027 41.5156 35.9785 42.1476 35.9785C42.7797 35.9785 43.3039 36.5027 43.3039 37.1348V40.2798C43.3039 43.5635 40.3131 46.2306 36.6285 46.2306ZM32.6664 41.7906C33.3447 43.0548 34.871 43.9181 36.6285 43.9181C38.386 43.9181 39.9122 43.0393 40.5906 41.7906C39.496 42.4535 38.1393 42.8389 36.6285 42.8389C35.1176 42.8389 33.761 42.4535 32.6664 41.7906Z" fill="#C39D63"/>
<path d="M36.6285 38.5972C34.1001 38.5972 31.8339 37.441 30.7085 35.6064C30.2152 34.8047 29.9531 33.8643 29.9531 32.9085C29.9531 31.2897 30.6623 29.7789 31.9573 28.6535C34.4548 26.4644 38.756 26.4644 41.2689 28.6382C42.5639 29.7791 43.2885 31.2897 43.2885 32.9085C43.2885 33.8643 43.0264 34.8047 42.5331 35.6064C41.4231 37.441 39.1568 38.5972 36.6285 38.5972ZM36.6285 29.2703C35.426 29.2703 34.316 29.671 33.4835 30.3956C32.6973 31.0739 32.2656 31.9681 32.2656 32.9085C32.2656 33.4481 32.4043 33.9416 32.6818 34.4041C33.391 35.5757 34.9018 36.3003 36.6285 36.3003C38.3551 36.3003 39.866 35.5757 40.5597 34.4195C40.8372 33.9724 40.976 33.4636 40.976 32.9241C40.976 31.9836 40.5444 31.0893 39.7581 30.3956C38.941 29.671 37.831 29.2703 36.6285 29.2703Z" fill="#C39D63"/>
<path d="M36.6285 42.8381C32.8206 42.8381 29.9531 40.3869 29.9531 37.1494V32.9098C29.9531 29.6261 32.9439 26.959 36.6285 26.959C38.3706 26.959 40.0356 27.5602 41.2843 28.6394C42.5793 29.7802 43.3039 31.2911 43.3039 32.9098V37.1494C43.3039 40.3869 40.4364 42.8381 36.6285 42.8381ZM36.6285 29.2715C34.2235 29.2715 32.2656 30.9057 32.2656 32.9098V37.1494C32.2656 39.0765 34.131 40.5256 36.6285 40.5256C39.126 40.5256 40.9914 39.0765 40.9914 37.1494V32.9098C40.9914 31.9694 40.5598 31.0752 39.7735 30.3815C38.941 29.6723 37.831 29.2715 36.6285 29.2715Z" fill="#C39D63"/>
</svg>
