<svg width="120" height="44" viewBox="0 0 120 44" fill="none" xmlns="http://www.w3.org/2000/svg">
<path d="M69.9994 17.2043C69.9994 18.1043 69.7494 18.9543 69.2994 19.6743C68.4694 21.0643 66.9494 22.0043 65.1994 22.0043C63.4494 22.0043 61.9194 21.0643 61.0994 19.6743C60.6594 18.9543 60.3994 18.1043 60.3994 17.2043C60.3994 14.5543 62.5494 12.4043 65.1994 12.4043C67.8494 12.4043 69.9994 14.5543 69.9994 17.2043Z" stroke="#7E7E7E" stroke-width="1.5" stroke-miterlimit="10" stroke-linecap="round" stroke-linejoin="round"/>
<path d="M63.3291 17.2073L64.5091 18.3873L67.0691 16.0273" stroke="#7E7E7E" stroke-width="1.5" stroke-linecap="round" stroke-linejoin="round"/>
<path d="M69.999 8.6955C69.999 10.6655 69.489 12.4055 68.689 13.9155C67.809 12.9855 66.569 12.4055 65.199 12.4055C62.549 12.4055 60.399 14.5555 60.399 17.2055C60.399 18.4355 60.869 19.5555 61.629 20.4055C61.259 20.5755 60.919 20.7155 60.619 20.8155C60.279 20.9355 59.719 20.9355 59.379 20.8155C56.479 19.8255 49.999 15.6955 49.999 8.6955C49.999 5.6055 52.489 3.10547 55.559 3.10547C57.369 3.10547 58.989 3.98551 59.999 5.33551C61.009 3.98551 62.629 3.10547 64.439 3.10547C67.509 3.10547 69.999 5.6055 69.999 8.6955Z" stroke="#7E7E7E" stroke-width="1.5" stroke-linecap="round" stroke-linejoin="round"/>
<path d="M16.388 40V31.6H21.5V32.428H17.396V35.38H20.888V36.196H17.396V40H16.388ZM24.308 40.144C23.812 40.144 23.4 40.06 23.072 39.892C22.744 39.724 22.5 39.5 22.34 39.22C22.18 38.94 22.1 38.636 22.1 38.308C22.1 37.7 22.332 37.232 22.796 36.904C23.26 36.576 23.892 36.412 24.692 36.412H26.3V36.34C26.3 35.82 26.164 35.428 25.892 35.164C25.62 34.892 25.256 34.756 24.8 34.756C24.408 34.756 24.068 34.856 23.78 35.056C23.5 35.248 23.324 35.532 23.252 35.908H22.22C22.26 35.476 22.404 35.112 22.652 34.816C22.908 34.52 23.224 34.296 23.6 34.144C23.976 33.984 24.376 33.904 24.8 33.904C25.632 33.904 26.256 34.128 26.672 34.576C27.096 35.016 27.308 35.604 27.308 36.34V40H26.408L26.348 38.932C26.18 39.268 25.932 39.556 25.604 39.796C25.284 40.028 24.852 40.144 24.308 40.144ZM24.464 39.292C24.848 39.292 25.176 39.192 25.448 38.992C25.728 38.792 25.94 38.532 26.084 38.212C26.228 37.892 26.3 37.556 26.3 37.204V37.192H24.776C24.184 37.192 23.764 37.296 23.516 37.504C23.276 37.704 23.156 37.956 23.156 38.26C23.156 38.572 23.268 38.824 23.492 39.016C23.724 39.2 24.048 39.292 24.464 39.292ZM30.3135 40L28.0575 34.048H29.1135L30.9015 39.028L32.7015 34.048H33.7335L31.4775 40H30.3135ZM37.2627 40.144C36.7027 40.144 36.1987 40.016 35.7507 39.76C35.3027 39.504 34.9467 39.144 34.6827 38.68C34.4267 38.208 34.2987 37.656 34.2987 37.024C34.2987 36.392 34.4307 35.844 34.6947 35.38C34.9587 34.908 35.3147 34.544 35.7627 34.288C36.2187 34.032 36.7267 33.904 37.2867 33.904C37.8467 33.904 38.3507 34.032 38.7987 34.288C39.2467 34.544 39.5987 34.908 39.8547 35.38C40.1187 35.844 40.2507 36.392 40.2507 37.024C40.2507 37.656 40.1187 38.208 39.8547 38.68C39.5907 39.144 39.2307 39.504 38.7747 39.76C38.3267 40.016 37.8227 40.144 37.2627 40.144ZM37.2627 39.28C37.6067 39.28 37.9267 39.196 38.2227 39.028C38.5187 38.86 38.7587 38.608 38.9427 38.272C39.1267 37.936 39.2187 37.52 39.2187 37.024C39.2187 36.528 39.1267 36.112 38.9427 35.776C38.7667 35.44 38.5307 35.188 38.2347 35.02C37.9387 34.852 37.6227 34.768 37.2867 34.768C36.9427 34.768 36.6227 34.852 36.3267 35.02C36.0307 35.188 35.7907 35.44 35.6067 35.776C35.4227 36.112 35.3307 36.528 35.3307 37.024C35.3307 37.52 35.4227 37.936 35.6067 38.272C35.7907 38.608 36.0267 38.86 36.3147 39.028C36.6107 39.196 36.9267 39.28 37.2627 39.28ZM43.8242 40.144C43.1202 40.144 42.5602 39.932 42.1442 39.508C41.7282 39.076 41.5202 38.416 41.5202 37.528V34.048H42.5282V37.42C42.5282 38.66 43.0362 39.28 44.0522 39.28C44.5722 39.28 45.0002 39.096 45.3362 38.728C45.6802 38.352 45.8522 37.82 45.8522 37.132V34.048H46.8602V40H45.9482L45.8762 38.932C45.6922 39.308 45.4162 39.604 45.0482 39.82C44.6882 40.036 44.2802 40.144 43.8242 40.144ZM48.5194 40V34.048H49.4314L49.5154 35.188C49.6994 34.796 49.9794 34.484 50.3554 34.252C50.7314 34.02 51.1954 33.904 51.7474 33.904V34.96H51.4714C51.1194 34.96 50.7954 35.024 50.4994 35.152C50.2034 35.272 49.9674 35.48 49.7914 35.776C49.6154 36.072 49.5274 36.48 49.5274 37V40H48.5194ZM53.4908 32.728C53.2908 32.728 53.1228 32.664 52.9868 32.536C52.8588 32.4 52.7948 32.232 52.7948 32.032C52.7948 31.84 52.8588 31.68 52.9868 31.552C53.1228 31.424 53.2908 31.36 53.4908 31.36C53.6828 31.36 53.8468 31.424 53.9828 31.552C54.1188 31.68 54.1868 31.84 54.1868 32.032C54.1868 32.232 54.1188 32.4 53.9828 32.536C53.8468 32.664 53.6828 32.728 53.4908 32.728ZM52.9868 40V34.048H53.9948V40H52.9868ZM58.1019 40C57.5579 40 57.1299 39.868 56.8179 39.604C56.5059 39.34 56.3499 38.864 56.3499 38.176V34.9H55.3179V34.048H56.3499L56.4819 32.62H57.3579V34.048H59.1099V34.9H57.3579V38.176C57.3579 38.552 57.4339 38.808 57.5859 38.944C57.7379 39.072 58.0059 39.136 58.3899 39.136H59.0139V40H58.1019ZM62.9024 40.144C62.3344 40.144 61.8304 40.016 61.3904 39.76C60.9504 39.496 60.6024 39.132 60.3464 38.668C60.0984 38.204 59.9744 37.656 59.9744 37.024C59.9744 36.4 60.0984 35.856 60.3464 35.392C60.5944 34.92 60.9384 34.556 61.3784 34.3C61.8264 34.036 62.3424 33.904 62.9264 33.904C63.5024 33.904 63.9984 34.036 64.4144 34.3C64.8384 34.556 65.1624 34.896 65.3864 35.32C65.6104 35.744 65.7224 36.2 65.7224 36.688C65.7224 36.776 65.7184 36.864 65.7104 36.952C65.7104 37.04 65.7104 37.14 65.7104 37.252H60.9704C60.9944 37.708 61.0984 38.088 61.2824 38.392C61.4744 38.688 61.7104 38.912 61.9904 39.064C62.2784 39.216 62.5824 39.292 62.9024 39.292C63.3184 39.292 63.6664 39.196 63.9464 39.004C64.2264 38.812 64.4304 38.552 64.5584 38.224H65.5544C65.3944 38.776 65.0864 39.236 64.6304 39.604C64.1824 39.964 63.6064 40.144 62.9024 40.144ZM62.9024 34.756C62.4224 34.756 61.9944 34.904 61.6184 35.2C61.2504 35.488 61.0384 35.912 60.9824 36.472H64.7264C64.7024 35.936 64.5184 35.516 64.1744 35.212C63.8304 34.908 63.4064 34.756 62.9024 34.756ZM74.1103 40.144C73.2863 40.144 72.5623 39.964 71.9383 39.604C71.3223 39.236 70.8383 38.724 70.4863 38.068C70.1423 37.412 69.9703 36.656 69.9703 35.8C69.9703 34.944 70.1423 34.192 70.4863 33.544C70.8383 32.888 71.3223 32.376 71.9383 32.008C72.5623 31.64 73.2863 31.456 74.1103 31.456C74.9423 31.456 75.6663 31.64 76.2823 32.008C76.9063 32.376 77.3903 32.888 77.7343 33.544C78.0783 34.192 78.2503 34.944 78.2503 35.8C78.2503 36.656 78.0783 37.412 77.7343 38.068C77.3903 38.724 76.9063 39.236 76.2823 39.604C75.6663 39.964 74.9423 40.144 74.1103 40.144ZM74.1103 39.256C74.7263 39.256 75.2663 39.12 75.7303 38.848C76.2023 38.568 76.5663 38.172 76.8223 37.66C77.0863 37.14 77.2183 36.52 77.2183 35.8C77.2183 35.08 77.0863 34.464 76.8223 33.952C76.5663 33.44 76.2023 33.048 75.7303 32.776C75.2663 32.496 74.7263 32.356 74.1103 32.356C73.4943 32.356 72.9503 32.496 72.4783 32.776C72.0143 33.048 71.6503 33.44 71.3863 33.952C71.1303 34.464 71.0023 35.08 71.0023 35.8C71.0023 36.52 71.1303 37.14 71.3863 37.66C71.6503 38.172 72.0143 38.568 72.4783 38.848C72.9503 39.12 73.4943 39.256 74.1103 39.256ZM79.9684 40V34.9H79.0684V34.048H79.9684V33.016C79.9684 32.44 80.1124 32.02 80.4004 31.756C80.6884 31.492 81.1084 31.36 81.6604 31.36H82.2604V32.224H81.8164C81.5124 32.224 81.2964 32.288 81.1684 32.416C81.0404 32.536 80.9764 32.744 80.9764 33.04V34.048H82.4404V34.9H80.9764V40H79.9684ZM83.9645 40V34.9H83.0645V34.048H83.9645V33.016C83.9645 32.44 84.1085 32.02 84.3965 31.756C84.6845 31.492 85.1045 31.36 85.6565 31.36H86.2565V32.224H85.8125C85.5085 32.224 85.2925 32.288 85.1645 32.416C85.0365 32.536 84.9725 32.744 84.9725 33.04V34.048H86.4365V34.9H84.9725V40H83.9645ZM90.0782 40.144C89.5102 40.144 89.0062 40.016 88.5662 39.76C88.1262 39.496 87.7782 39.132 87.5222 38.668C87.2742 38.204 87.1502 37.656 87.1502 37.024C87.1502 36.4 87.2742 35.856 87.5222 35.392C87.7702 34.92 88.1142 34.556 88.5542 34.3C89.0022 34.036 89.5182 33.904 90.1022 33.904C90.6782 33.904 91.1742 34.036 91.5902 34.3C92.0142 34.556 92.3382 34.896 92.5622 35.32C92.7862 35.744 92.8982 36.2 92.8982 36.688C92.8982 36.776 92.8942 36.864 92.8862 36.952C92.8862 37.04 92.8862 37.14 92.8862 37.252H88.1462C88.1702 37.708 88.2742 38.088 88.4582 38.392C88.6502 38.688 88.8862 38.912 89.1662 39.064C89.4542 39.216 89.7582 39.292 90.0782 39.292C90.4942 39.292 90.8422 39.196 91.1222 39.004C91.4022 38.812 91.6062 38.552 91.7342 38.224H92.7302C92.5702 38.776 92.2622 39.236 91.8062 39.604C91.3582 39.964 90.7822 40.144 90.0782 40.144ZM90.0782 34.756C89.5982 34.756 89.1702 34.904 88.7942 35.2C88.4262 35.488 88.2142 35.912 88.1582 36.472H91.9022C91.8782 35.936 91.6942 35.516 91.3502 35.212C91.0062 34.908 90.5822 34.756 90.0782 34.756ZM94.2343 40V34.048H95.1463L95.2303 35.188C95.4143 34.796 95.6943 34.484 96.0703 34.252C96.4463 34.02 96.9103 33.904 97.4623 33.904V34.96H97.1863C96.8343 34.96 96.5103 35.024 96.2143 35.152C95.9183 35.272 95.6823 35.48 95.5063 35.776C95.3303 36.072 95.2423 36.48 95.2423 37V40H94.2343ZM100.874 40.144C100.162 40.144 99.5696 39.964 99.0976 39.604C98.6256 39.244 98.3496 38.756 98.2696 38.14H99.3016C99.3656 38.452 99.5296 38.724 99.7936 38.956C100.066 39.18 100.43 39.292 100.886 39.292C101.31 39.292 101.622 39.204 101.822 39.028C102.022 38.844 102.122 38.628 102.122 38.38C102.122 38.02 101.99 37.78 101.726 37.66C101.47 37.54 101.106 37.432 100.634 37.336C100.314 37.272 99.9936 37.18 99.6736 37.06C99.3536 36.94 99.0856 36.772 98.8696 36.556C98.6536 36.332 98.5456 36.04 98.5456 35.68C98.5456 35.16 98.7376 34.736 99.1216 34.408C99.5136 34.072 100.042 33.904 100.706 33.904C101.338 33.904 101.854 34.064 102.254 34.384C102.662 34.696 102.898 35.144 102.962 35.728H101.966C101.926 35.424 101.794 35.188 101.57 35.02C101.354 34.844 101.062 34.756 100.694 34.756C100.334 34.756 100.054 34.832 99.8536 34.984C99.6616 35.136 99.5656 35.336 99.5656 35.584C99.5656 35.824 99.6896 36.012 99.9376 36.148C100.194 36.284 100.538 36.4 100.97 36.496C101.338 36.576 101.686 36.676 102.014 36.796C102.35 36.908 102.622 37.08 102.83 37.312C103.046 37.536 103.154 37.864 103.154 38.296C103.162 38.832 102.958 39.276 102.542 39.628C102.134 39.972 101.578 40.144 100.874 40.144Z" fill="#7E7E7E"/>
</svg>
