<svg width="26" height="25" viewBox="0 0 26 25" fill="none" xmlns="http://www.w3.org/2000/svg">
<g clip-path="url(#clip0_2165_14183)">
<path d="M24.1936 10.2192L13.9381 10.2188C13.4852 10.2188 13.1182 10.5799 13.1182 11.0256V14.2495C13.1182 14.695 13.4852 15.0563 13.9381 15.0563H19.7134C19.0809 16.6713 17.9006 18.0239 16.3947 18.8833L18.8573 23.0782C22.8075 20.8301 25.143 16.8854 25.143 12.4697C25.143 11.8409 25.0959 11.3915 25.0017 10.8854C24.9301 10.5009 24.5909 10.2192 24.1936 10.2192Z" fill="#167EE6"/>
<path d="M12.572 19.9011C9.74572 19.9011 7.27838 18.3815 5.95322 16.1328L1.69043 18.5507C3.85974 22.2504 7.92355 24.7419 12.572 24.7419C14.8524 24.7419 17.0041 24.1377 18.8577 23.0847V23.079L16.3952 18.884C15.2688 19.5269 13.9653 19.9011 12.572 19.9011Z" fill="#12B347"/>
<path d="M18.857 23.0855V23.0798L16.3944 18.8848C15.268 19.5276 13.9646 19.9018 12.5713 19.9018V24.7426C14.8517 24.7426 17.0035 24.1384 18.857 23.0855Z" fill="#0F993E"/>
<path d="M4.91926 12.3711C4.91926 11.0002 5.29945 9.71765 5.95262 8.60925L1.68983 6.19141C0.613937 8.00969 0 10.1213 0 12.3711C0 14.6209 0.613937 16.7325 1.68983 18.5508L5.95262 16.133C5.29945 15.0246 4.91926 13.742 4.91926 12.3711Z" fill="#FFD500"/>
<path d="M12.572 4.8408C14.4151 4.8408 16.108 5.48525 17.4303 6.55722C17.7565 6.82165 18.2306 6.80256 18.5295 6.50851L20.8508 4.22424C21.1898 3.89061 21.1656 3.3445 20.8035 3.03532C18.588 1.14397 15.7054 0 12.572 0C7.92355 0 3.85974 2.49144 1.69043 6.19121L5.95322 8.60905C7.27838 6.3604 9.74572 4.8408 12.572 4.8408Z" fill="#FF4B26"/>
<path d="M17.4296 6.55722C17.7558 6.82165 18.23 6.80256 18.5287 6.50851L20.85 4.22424C21.189 3.89061 21.1648 3.3445 20.8027 3.03532C18.5873 1.14392 15.7047 0 12.5713 0V4.8408C14.4143 4.8408 16.1073 5.48525 17.4296 6.55722Z" fill="#D93F21"/>
</g>
<defs>
<clipPath id="clip0_2165_14183">
<rect width="25.1429" height="24.7419" fill="white"/>
</clipPath>
</defs>
</svg>
