<svg width="90" height="42" viewBox="0 0 90 42" fill="none" xmlns="http://www.w3.org/2000/svg">
<path d="M43.199 3.34523L43.1996 3.34477C44.191 2.54855 45.8013 2.5512 46.812 3.35611C46.8122 3.35626 46.8124 3.35641 46.8126 3.35656L53.3585 8.59329C53.6944 8.86808 53.9982 9.31037 54.1969 9.83023C54.3953 10.3495 54.4644 10.8823 54.3993 11.3116L53.141 18.8417C53.1409 18.8424 53.1408 18.8432 53.1406 18.8439C52.9112 20.1582 51.6198 21.25 50.3 21.25H39.7C38.3582 21.25 37.0987 20.1864 36.8694 18.8547C36.8693 18.8542 36.8692 18.8537 36.8692 18.8532L35.6097 11.3164L35.6094 11.3147C35.5362 10.8827 35.6005 10.3494 35.7982 9.831C35.9959 9.31265 36.3032 8.87113 36.6477 8.59628L36.649 8.59523L43.199 3.34523ZM45 19.5C45.8242 19.5 46.5 18.8242 46.5 18V15C46.5 14.1758 45.8242 13.5 45 13.5C44.1757 13.5 43.5 14.1758 43.5 15V18C43.5 18.8242 44.1757 19.5 45 19.5Z" stroke="#7E7E7E" stroke-width="1.5"/>
<path d="M28.852 38V29.6H30.124V33.2H34.192V29.6H35.464V38H34.192V34.244H30.124V38H28.852ZM39.9083 38.144C39.3403 38.144 38.8283 38.016 38.3723 37.76C37.9243 37.496 37.5683 37.132 37.3043 36.668C37.0403 36.196 36.9083 35.648 36.9083 35.024C36.9083 34.4 37.0403 33.856 37.3043 33.392C37.5763 32.92 37.9403 32.556 38.3963 32.3C38.8523 32.036 39.3603 31.904 39.9203 31.904C40.4883 31.904 40.9963 32.036 41.4443 32.3C41.9003 32.556 42.2603 32.92 42.5243 33.392C42.7963 33.856 42.9323 34.4 42.9323 35.024C42.9323 35.648 42.7963 36.196 42.5243 36.668C42.2603 37.132 41.9003 37.496 41.4443 37.76C40.9883 38.016 40.4763 38.144 39.9083 38.144ZM39.9083 37.052C40.2123 37.052 40.4923 36.976 40.7483 36.824C41.0123 36.672 41.2243 36.448 41.3843 36.152C41.5443 35.848 41.6243 35.472 41.6243 35.024C41.6243 34.576 41.5443 34.204 41.3843 33.908C41.2323 33.604 41.0243 33.376 40.7603 33.224C40.5043 33.072 40.2243 32.996 39.9203 32.996C39.6163 32.996 39.3323 33.072 39.0683 33.224C38.8123 33.376 38.6043 33.604 38.4443 33.908C38.2843 34.204 38.2043 34.576 38.2043 35.024C38.2043 35.472 38.2843 35.848 38.4443 36.152C38.6043 36.448 38.8123 36.672 39.0683 36.824C39.3243 36.976 39.6043 37.052 39.9083 37.052ZM44.3079 38V32.048H45.4359L45.5439 32.888C45.7359 32.584 45.9879 32.344 46.2999 32.168C46.6199 31.992 46.9879 31.904 47.4039 31.904C48.3479 31.904 49.0039 32.276 49.3719 33.02C49.5879 32.676 49.8759 32.404 50.2359 32.204C50.6039 32.004 50.9999 31.904 51.4239 31.904C52.1679 31.904 52.7519 32.128 53.1759 32.576C53.5999 33.024 53.8119 33.692 53.8119 34.58V38H52.5399V34.712C52.5399 33.56 52.0999 32.984 51.2199 32.984C50.7719 32.984 50.4039 33.152 50.1159 33.488C49.8359 33.824 49.6959 34.304 49.6959 34.928V38H48.4239V34.712C48.4239 33.56 47.9799 32.984 47.0919 32.984C46.6519 32.984 46.2879 33.152 45.9999 33.488C45.7199 33.824 45.5799 34.304 45.5799 34.928V38H44.3079ZM58.0841 38.144C57.5001 38.144 56.9801 38.016 56.5241 37.76C56.0761 37.496 55.7241 37.132 55.4681 36.668C55.2121 36.204 55.0841 35.664 55.0841 35.048C55.0841 34.424 55.2081 33.876 55.4561 33.404C55.7121 32.932 56.0641 32.564 56.5121 32.3C56.9681 32.036 57.4961 31.904 58.0961 31.904C58.6801 31.904 59.1881 32.036 59.6201 32.3C60.0521 32.556 60.3881 32.9 60.6281 33.332C60.8681 33.764 60.9881 34.24 60.9881 34.76C60.9881 34.84 60.9841 34.928 60.9761 35.024C60.9761 35.112 60.9721 35.212 60.9641 35.324H56.3321C56.3721 35.9 56.5601 36.34 56.8961 36.644C57.2401 36.94 57.6361 37.088 58.0841 37.088C58.4441 37.088 58.7441 37.008 58.9841 36.848C59.2321 36.68 59.4161 36.456 59.5361 36.176H60.8081C60.6481 36.736 60.3281 37.204 59.8481 37.58C59.3761 37.956 58.7881 38.144 58.0841 38.144ZM58.0841 32.948C57.6601 32.948 57.2841 33.076 56.9561 33.332C56.6281 33.58 56.4281 33.956 56.3561 34.46H59.7161C59.6921 33.996 59.5281 33.628 59.2241 33.356C58.9201 33.084 58.5401 32.948 58.0841 32.948Z" fill="#7D7D7D"/>
</svg>
