<svg width="120" height="44" viewBox="0 0 120 44" fill="none" xmlns="http://www.w3.org/2000/svg">
<path d="M65 10H67C69 10 70 9 70 7V5C70 3 69 2 67 2H65C63 2 62 3 62 5V7C62 9 63 10 65 10Z" stroke="#7E7E7E" stroke-width="1.5" stroke-miterlimit="10" stroke-linecap="round" stroke-linejoin="round"/>
<path d="M53 22H55C57 22 58 21 58 19V17C58 15 57 14 55 14H53C51 14 50 15 50 17V19C50 21 51 22 53 22Z" stroke="#7E7E7E" stroke-width="1.5" stroke-miterlimit="10" stroke-linecap="round" stroke-linejoin="round"/>
<path d="M54 10C56.2091 10 58 8.20914 58 6C58 3.79086 56.2091 2 54 2C51.7909 2 50 3.79086 50 6C50 8.20914 51.7909 10 54 10Z" stroke="#7E7E7E" stroke-width="1.5" stroke-miterlimit="10" stroke-linecap="round" stroke-linejoin="round"/>
<path d="M66 22C68.2091 22 70 20.2091 70 18C70 15.7909 68.2091 14 66 14C63.7909 14 62 15.7909 62 18C62 20.2091 63.7909 22 66 22Z" stroke="#7E7E7E" stroke-width="1.5" stroke-miterlimit="10" stroke-linecap="round" stroke-linejoin="round"/>
<path d="M13.888 40V31.6H15.064L18.088 37.456L21.088 31.6H22.276V40H21.268V33.4L18.46 38.8H17.704L14.896 33.412V40H13.888ZM25.9682 40.144C25.4722 40.144 25.0602 40.06 24.7322 39.892C24.4042 39.724 24.1602 39.5 24.0002 39.22C23.8402 38.94 23.7602 38.636 23.7602 38.308C23.7602 37.7 23.9922 37.232 24.4562 36.904C24.9202 36.576 25.5522 36.412 26.3522 36.412H27.9602V36.34C27.9602 35.82 27.8242 35.428 27.5522 35.164C27.2802 34.892 26.9162 34.756 26.4602 34.756C26.0682 34.756 25.7282 34.856 25.4402 35.056C25.1602 35.248 24.9842 35.532 24.9122 35.908H23.8802C23.9202 35.476 24.0642 35.112 24.3122 34.816C24.5682 34.52 24.8842 34.296 25.2602 34.144C25.6362 33.984 26.0362 33.904 26.4602 33.904C27.2922 33.904 27.9162 34.128 28.3322 34.576C28.7562 35.016 28.9682 35.604 28.9682 36.34V40H28.0682L28.0082 38.932C27.8402 39.268 27.5922 39.556 27.2642 39.796C26.9442 40.028 26.5122 40.144 25.9682 40.144ZM26.1242 39.292C26.5082 39.292 26.8362 39.192 27.1082 38.992C27.3882 38.792 27.6002 38.532 27.7442 38.212C27.8882 37.892 27.9602 37.556 27.9602 37.204V37.192H26.4362C25.8442 37.192 25.4242 37.296 25.1762 37.504C24.9362 37.704 24.8162 37.956 24.8162 38.26C24.8162 38.572 24.9282 38.824 25.1522 39.016C25.3842 39.2 25.7082 39.292 26.1242 39.292ZM30.4803 40V34.048H31.3923L31.4523 35.116C31.6443 34.74 31.9203 34.444 32.2803 34.228C32.6403 34.012 33.0483 33.904 33.5043 33.904C34.2083 33.904 34.7683 34.12 35.1843 34.552C35.6083 34.976 35.8203 35.632 35.8203 36.52V40H34.8123V36.628C34.8123 35.388 34.3003 34.768 33.2763 34.768C32.7643 34.768 32.3363 34.956 31.9923 35.332C31.6563 35.7 31.4883 36.228 31.4883 36.916V40H30.4803ZM39.3275 40.144C38.8315 40.144 38.4195 40.06 38.0915 39.892C37.7635 39.724 37.5195 39.5 37.3595 39.22C37.1995 38.94 37.1195 38.636 37.1195 38.308C37.1195 37.7 37.3515 37.232 37.8155 36.904C38.2795 36.576 38.9115 36.412 39.7115 36.412H41.3195V36.34C41.3195 35.82 41.1835 35.428 40.9115 35.164C40.6395 34.892 40.2755 34.756 39.8195 34.756C39.4275 34.756 39.0875 34.856 38.7995 35.056C38.5195 35.248 38.3435 35.532 38.2715 35.908H37.2395C37.2795 35.476 37.4235 35.112 37.6715 34.816C37.9275 34.52 38.2435 34.296 38.6195 34.144C38.9955 33.984 39.3955 33.904 39.8195 33.904C40.6515 33.904 41.2755 34.128 41.6915 34.576C42.1155 35.016 42.3275 35.604 42.3275 36.34V40H41.4275L41.3675 38.932C41.1995 39.268 40.9515 39.556 40.6235 39.796C40.3035 40.028 39.8715 40.144 39.3275 40.144ZM39.4835 39.292C39.8675 39.292 40.1955 39.192 40.4675 38.992C40.7475 38.792 40.9595 38.532 41.1035 38.212C41.2475 37.892 41.3195 37.556 41.3195 37.204V37.192H39.7955C39.2035 37.192 38.7835 37.296 38.5355 37.504C38.2955 37.704 38.1755 37.956 38.1755 38.26C38.1755 38.572 38.2875 38.824 38.5115 39.016C38.7435 39.2 39.0675 39.292 39.4835 39.292ZM46.1917 38.128C45.8557 38.128 45.5477 38.084 45.2677 37.996L44.6677 38.56C44.7557 38.624 44.8637 38.68 44.9917 38.728C45.1277 38.768 45.3197 38.808 45.5677 38.848C45.8157 38.88 46.1637 38.916 46.6117 38.956C47.4117 39.012 47.9837 39.196 48.3277 39.508C48.6717 39.82 48.8437 40.228 48.8437 40.732C48.8437 41.076 48.7477 41.404 48.5557 41.716C48.3717 42.028 48.0837 42.284 47.6917 42.484C47.3077 42.684 46.8117 42.784 46.2037 42.784C45.6677 42.784 45.1917 42.712 44.7757 42.568C44.3597 42.432 44.0357 42.22 43.8037 41.932C43.5717 41.652 43.4557 41.296 43.4557 40.864C43.4557 40.64 43.5157 40.396 43.6357 40.132C43.7557 39.876 43.9797 39.632 44.3077 39.4C44.1317 39.328 43.9797 39.252 43.8517 39.172C43.7317 39.084 43.6197 38.988 43.5157 38.884V38.608L44.5357 37.6C44.0637 37.2 43.8277 36.672 43.8277 36.016C43.8277 35.624 43.9197 35.268 44.1037 34.948C44.2877 34.628 44.5557 34.376 44.9077 34.192C45.2597 34 45.6877 33.904 46.1917 33.904C46.5357 33.904 46.8477 33.952 47.1277 34.048H49.3237V34.804L48.2077 34.852C48.4397 35.188 48.5557 35.576 48.5557 36.016C48.5557 36.408 48.4597 36.764 48.2677 37.084C48.0837 37.404 47.8157 37.66 47.4637 37.852C47.1197 38.036 46.6957 38.128 46.1917 38.128ZM46.1917 37.3C46.6157 37.3 46.9517 37.192 47.1997 36.976C47.4557 36.752 47.5837 36.432 47.5837 36.016C47.5837 35.608 47.4557 35.296 47.1997 35.08C46.9517 34.856 46.6157 34.744 46.1917 34.744C45.7597 34.744 45.4157 34.856 45.1597 35.08C44.9117 35.296 44.7877 35.608 44.7877 36.016C44.7877 36.432 44.9117 36.752 45.1597 36.976C45.4157 37.192 45.7597 37.3 46.1917 37.3ZM44.4397 40.768C44.4397 41.168 44.6077 41.464 44.9437 41.656C45.2797 41.856 45.6997 41.956 46.2037 41.956C46.6997 41.956 47.0957 41.848 47.3917 41.632C47.6957 41.416 47.8477 41.128 47.8477 40.768C47.8477 40.512 47.7437 40.288 47.5357 40.096C47.3277 39.912 46.9437 39.804 46.3837 39.772C45.9437 39.74 45.5637 39.7 45.2437 39.652C44.9157 39.828 44.6997 40.016 44.5957 40.216C44.4917 40.424 44.4397 40.608 44.4397 40.768ZM52.9024 40.144C52.3344 40.144 51.8304 40.016 51.3904 39.76C50.9504 39.496 50.6024 39.132 50.3464 38.668C50.0984 38.204 49.9744 37.656 49.9744 37.024C49.9744 36.4 50.0984 35.856 50.3464 35.392C50.5944 34.92 50.9384 34.556 51.3784 34.3C51.8264 34.036 52.3424 33.904 52.9264 33.904C53.5024 33.904 53.9984 34.036 54.4144 34.3C54.8384 34.556 55.1624 34.896 55.3864 35.32C55.6104 35.744 55.7224 36.2 55.7224 36.688C55.7224 36.776 55.7184 36.864 55.7104 36.952C55.7104 37.04 55.7104 37.14 55.7104 37.252H50.9704C50.9944 37.708 51.0984 38.088 51.2824 38.392C51.4744 38.688 51.7104 38.912 51.9904 39.064C52.2784 39.216 52.5824 39.292 52.9024 39.292C53.3184 39.292 53.6664 39.196 53.9464 39.004C54.2264 38.812 54.4304 38.552 54.5584 38.224H55.5544C55.3944 38.776 55.0864 39.236 54.6304 39.604C54.1824 39.964 53.6064 40.144 52.9024 40.144ZM52.9024 34.756C52.4224 34.756 51.9944 34.904 51.6184 35.2C51.2504 35.488 51.0384 35.912 50.9824 36.472H54.7264C54.7024 35.936 54.5184 35.516 54.1744 35.212C53.8304 34.908 53.4064 34.756 52.9024 34.756ZM59.7663 40L62.8623 31.6H63.9303L67.0143 40H65.9463L65.1783 37.84H61.6023L60.8223 40H59.7663ZM61.9023 37.024H64.8783L63.3903 32.872L61.9023 37.024ZM70.6109 40.144C70.0429 40.144 69.5309 40.016 69.0749 39.76C68.6269 39.496 68.2709 39.132 68.0069 38.668C67.7509 38.196 67.6229 37.648 67.6229 37.024C67.6229 36.4 67.7509 35.856 68.0069 35.392C68.2709 34.92 68.6269 34.556 69.0749 34.3C69.5309 34.036 70.0429 33.904 70.6109 33.904C71.3149 33.904 71.9069 34.088 72.3869 34.456C72.8749 34.824 73.1829 35.316 73.3109 35.932H72.2789C72.1989 35.564 72.0029 35.28 71.6909 35.08C71.3789 34.872 71.0149 34.768 70.5989 34.768C70.2629 34.768 69.9469 34.852 69.6509 35.02C69.3549 35.188 69.1149 35.44 68.9309 35.776C68.7469 36.112 68.6549 36.528 68.6549 37.024C68.6549 37.52 68.7469 37.936 68.9309 38.272C69.1149 38.608 69.3549 38.864 69.6509 39.04C69.9469 39.208 70.2629 39.292 70.5989 39.292C71.0149 39.292 71.3789 39.192 71.6909 38.992C72.0029 38.784 72.1989 38.492 72.2789 38.116H73.3109C73.1909 38.716 72.8869 39.204 72.3989 39.58C71.9109 39.956 71.3149 40.144 70.6109 40.144ZM77.4546 40.144C76.8866 40.144 76.3746 40.016 75.9186 39.76C75.4706 39.496 75.1146 39.132 74.8506 38.668C74.5946 38.196 74.4666 37.648 74.4666 37.024C74.4666 36.4 74.5946 35.856 74.8506 35.392C75.1146 34.92 75.4706 34.556 75.9186 34.3C76.3746 34.036 76.8866 33.904 77.4546 33.904C78.1586 33.904 78.7506 34.088 79.2306 34.456C79.7186 34.824 80.0266 35.316 80.1546 35.932H79.1226C79.0426 35.564 78.8466 35.28 78.5346 35.08C78.2226 34.872 77.8586 34.768 77.4426 34.768C77.1066 34.768 76.7906 34.852 76.4946 35.02C76.1986 35.188 75.9586 35.44 75.7746 35.776C75.5906 36.112 75.4986 36.528 75.4986 37.024C75.4986 37.52 75.5906 37.936 75.7746 38.272C75.9586 38.608 76.1986 38.864 76.4946 39.04C76.7906 39.208 77.1066 39.292 77.4426 39.292C77.8586 39.292 78.2226 39.192 78.5346 38.992C78.8466 38.784 79.0426 38.492 79.1226 38.116H80.1546C80.0346 38.716 79.7306 39.204 79.2426 39.58C78.7546 39.956 78.1586 40.144 77.4546 40.144ZM84.2744 40.144C83.7144 40.144 83.2104 40.016 82.7624 39.76C82.3144 39.504 81.9584 39.144 81.6944 38.68C81.4384 38.208 81.3104 37.656 81.3104 37.024C81.3104 36.392 81.4424 35.844 81.7064 35.38C81.9704 34.908 82.3264 34.544 82.7744 34.288C83.2304 34.032 83.7384 33.904 84.2984 33.904C84.8584 33.904 85.3624 34.032 85.8104 34.288C86.2584 34.544 86.6104 34.908 86.8664 35.38C87.1304 35.844 87.2624 36.392 87.2624 37.024C87.2624 37.656 87.1304 38.208 86.8664 38.68C86.6024 39.144 86.2424 39.504 85.7864 39.76C85.3384 40.016 84.8344 40.144 84.2744 40.144ZM84.2744 39.28C84.6184 39.28 84.9384 39.196 85.2344 39.028C85.5304 38.86 85.7704 38.608 85.9544 38.272C86.1384 37.936 86.2304 37.52 86.2304 37.024C86.2304 36.528 86.1384 36.112 85.9544 35.776C85.7784 35.44 85.5424 35.188 85.2464 35.02C84.9504 34.852 84.6344 34.768 84.2984 34.768C83.9544 34.768 83.6344 34.852 83.3384 35.02C83.0424 35.188 82.8024 35.44 82.6184 35.776C82.4344 36.112 82.3424 36.528 82.3424 37.024C82.3424 37.52 82.4344 37.936 82.6184 38.272C82.8024 38.608 83.0384 38.86 83.3264 39.028C83.6224 39.196 83.9384 39.28 84.2744 39.28ZM90.8359 40.144C90.1319 40.144 89.5719 39.932 89.1559 39.508C88.7399 39.076 88.5319 38.416 88.5319 37.528V34.048H89.5399V37.42C89.5399 38.66 90.0479 39.28 91.0639 39.28C91.5839 39.28 92.0119 39.096 92.3479 38.728C92.6919 38.352 92.8639 37.82 92.8639 37.132V34.048H93.8719V40H92.9599L92.8879 38.932C92.7039 39.308 92.4279 39.604 92.0599 39.82C91.6999 40.036 91.2919 40.144 90.8359 40.144ZM95.5311 40V34.048H96.4431L96.5031 35.116C96.6951 34.74 96.9711 34.444 97.3311 34.228C97.6911 34.012 98.0991 33.904 98.5551 33.904C99.2591 33.904 99.8191 34.12 100.235 34.552C100.659 34.976 100.871 35.632 100.871 36.52V40H99.8631V36.628C99.8631 35.388 99.3511 34.768 98.3271 34.768C97.8151 34.768 97.3871 34.956 97.0431 35.332C96.7071 35.7 96.5391 36.228 96.5391 36.916V40H95.5311ZM104.75 40C104.206 40 103.778 39.868 103.466 39.604C103.154 39.34 102.998 38.864 102.998 38.176V34.9H101.966V34.048H102.998L103.13 32.62H104.006V34.048H105.758V34.9H104.006V38.176C104.006 38.552 104.082 38.808 104.234 38.944C104.386 39.072 104.654 39.136 105.038 39.136H105.662V40H104.75Z" fill="#7E7E7E"/>
</svg>
