<svg width="90" height="44" viewBox="0 0 90 44" fill="none" xmlns="http://www.w3.org/2000/svg">
<path d="M44.9998 2.16602C39.0307 2.16602 34.1665 7.03018 34.1665 12.9993C34.1665 18.9685 39.0307 23.8327 44.9998 23.8327C50.969 23.8327 55.8332 18.9685 55.8332 12.9993C55.8332 7.03018 50.969 2.16602 44.9998 2.16602ZM40.6665 14.0827C40.0598 14.0827 39.5832 13.5952 39.5832 12.9993C39.5832 12.4035 40.0707 11.916 40.6665 11.916C41.2623 11.916 41.7498 12.4035 41.7498 12.9993C41.7498 13.5952 41.2732 14.0827 40.6665 14.0827ZM44.9998 14.0827C44.3932 14.0827 43.9165 13.5952 43.9165 12.9993C43.9165 12.4035 44.404 11.916 44.9998 11.916C45.5957 11.916 46.0832 12.4035 46.0832 12.9993C46.0832 13.5952 45.6065 14.0827 44.9998 14.0827ZM49.3332 14.0827C48.7265 14.0827 48.2498 13.5952 48.2498 12.9993C48.2498 12.4035 48.7373 11.916 49.3332 11.916C49.929 11.916 50.4165 12.4035 50.4165 12.9993C50.4165 13.5952 49.9398 14.0827 49.3332 14.0827Z" fill="#C39D63"/>
<path d="M31.388 40V31.6H32.564L35.588 37.456L38.588 31.6H39.776V40H38.768V33.4L35.96 38.8H35.204L32.396 33.412V40H31.388ZM44.2002 40.144C43.6402 40.144 43.1362 40.016 42.6882 39.76C42.2402 39.504 41.8842 39.144 41.6202 38.68C41.3642 38.208 41.2362 37.656 41.2362 37.024C41.2362 36.392 41.3682 35.844 41.6322 35.38C41.8962 34.908 42.2522 34.544 42.7002 34.288C43.1562 34.032 43.6642 33.904 44.2242 33.904C44.7842 33.904 45.2882 34.032 45.7362 34.288C46.1842 34.544 46.5362 34.908 46.7922 35.38C47.0562 35.844 47.1882 36.392 47.1882 37.024C47.1882 37.656 47.0562 38.208 46.7922 38.68C46.5282 39.144 46.1682 39.504 45.7122 39.76C45.2642 40.016 44.7602 40.144 44.2002 40.144ZM44.2002 39.28C44.5442 39.28 44.8642 39.196 45.1602 39.028C45.4562 38.86 45.6962 38.608 45.8802 38.272C46.0642 37.936 46.1562 37.52 46.1562 37.024C46.1562 36.528 46.0642 36.112 45.8802 35.776C45.7042 35.44 45.4682 35.188 45.1722 35.02C44.8762 34.852 44.5602 34.768 44.2242 34.768C43.8802 34.768 43.5602 34.852 43.2642 35.02C42.9682 35.188 42.7282 35.44 42.5442 35.776C42.3602 36.112 42.2682 36.528 42.2682 37.024C42.2682 37.52 42.3602 37.936 42.5442 38.272C42.7282 38.608 42.9642 38.86 43.2522 39.028C43.5482 39.196 43.8642 39.28 44.2002 39.28ZM48.5897 40V34.048H49.5017L49.5857 35.188C49.7697 34.796 50.0497 34.484 50.4257 34.252C50.8017 34.02 51.2657 33.904 51.8177 33.904V34.96H51.5417C51.1897 34.96 50.8657 35.024 50.5697 35.152C50.2737 35.272 50.0377 35.48 49.8617 35.776C49.6857 36.072 49.5977 36.48 49.5977 37V40H48.5897ZM55.4024 40.144C54.8344 40.144 54.3304 40.016 53.8904 39.76C53.4504 39.496 53.1024 39.132 52.8464 38.668C52.5984 38.204 52.4744 37.656 52.4744 37.024C52.4744 36.4 52.5984 35.856 52.8464 35.392C53.0944 34.92 53.4384 34.556 53.8784 34.3C54.3264 34.036 54.8424 33.904 55.4264 33.904C56.0024 33.904 56.4984 34.036 56.9144 34.3C57.3384 34.556 57.6624 34.896 57.8864 35.32C58.1104 35.744 58.2224 36.2 58.2224 36.688C58.2224 36.776 58.2184 36.864 58.2104 36.952C58.2104 37.04 58.2104 37.14 58.2104 37.252H53.4704C53.4944 37.708 53.5984 38.088 53.7824 38.392C53.9744 38.688 54.2104 38.912 54.4904 39.064C54.7784 39.216 55.0824 39.292 55.4024 39.292C55.8184 39.292 56.1664 39.196 56.4464 39.004C56.7264 38.812 56.9304 38.552 57.0584 38.224H58.0544C57.8944 38.776 57.5864 39.236 57.1304 39.604C56.6824 39.964 56.1064 40.144 55.4024 40.144ZM55.4024 34.756C54.9224 34.756 54.4944 34.904 54.1184 35.2C53.7504 35.488 53.5384 35.912 53.4824 36.472H57.2264C57.2024 35.936 57.0184 35.516 56.6744 35.212C56.3304 34.908 55.9064 34.756 55.4024 34.756Z" fill="#7D7D7D"/>
</svg>
