<svg width="573" height="208" viewBox="0 0 573 208" fill="none" xmlns="http://www.w3.org/2000/svg">
<path d="M341.755 17.0775L337.523 21.3086L338.868 22.6532L343.099 18.4221L341.755 17.0775Z" fill="#E0E1E1"/>
<path d="M334.214 12.8594H332.312V18.8431H334.214V12.8594Z" fill="#E0E1E1"/>
<path d="M347.478 25.5996H341.494V27.5012H347.478V25.5996Z" fill="#E0E1E1"/>
<path d="M340.23 94.9941V105.941C340.23 107.54 339.915 109.124 339.303 110.601C338.691 112.078 337.794 113.421 336.663 114.551C335.533 115.682 334.19 116.579 332.713 117.191C331.236 117.803 329.652 118.118 328.053 118.118H253.301C256.521 118.088 259.6 116.795 261.877 114.518C264.154 112.241 265.445 109.161 265.474 105.941V94.9973L340.23 94.9941Z" fill="url(#paint0_linear_258_5888)"/>
<path style="mix-blend-mode:multiply" d="M340.229 94.9931V105.94C340.229 107.539 339.914 109.123 339.302 110.6C338.69 112.077 337.793 113.42 336.662 114.55C335.532 115.681 334.189 116.578 332.712 117.19C331.235 117.802 329.651 118.117 328.052 118.117H310.031C310.348 117.378 309.363 119.153 323.314 94.9805L340.229 94.9931Z" fill="url(#paint1_linear_258_5888)"/>
<path d="M265.477 94.9961V105.94C265.503 107.555 265.207 109.16 264.607 110.66C264.007 112.16 263.114 113.525 261.981 114.677C260.848 115.828 259.497 116.743 258.007 117.367C256.517 117.991 254.917 118.313 253.302 118.313C251.686 118.313 250.087 117.991 248.597 117.367C247.106 116.743 245.755 115.828 244.622 114.677C243.489 113.525 242.596 112.16 241.996 110.66C241.396 109.16 241.101 107.555 241.127 105.94V94.9961H265.477Z" fill="url(#paint2_linear_258_5888)"/>
<path d="M216.777 24.2822H241.127V13.3321C241.153 11.7167 240.857 10.1123 240.257 8.61229C239.657 7.1123 238.765 5.74675 237.631 4.59518C236.498 3.4436 235.147 2.52904 233.657 1.90476C232.167 1.28049 230.568 0.958984 228.952 0.958984C227.336 0.958984 225.737 1.28049 224.247 1.90476C222.757 2.52904 221.406 3.4436 220.273 4.59518C219.14 5.74675 218.247 7.1123 217.647 8.61229C217.047 10.1123 216.751 11.7167 216.777 13.3321V24.2822Z" fill="url(#paint3_linear_258_5888)"/>
<path d="M314.17 21.2525L313.051 22.3839L323.339 31.4483V95.4375H265.53V106.372C265.556 107.987 265.26 109.592 264.66 111.091C264.06 112.591 263.167 113.957 262.034 115.109C260.901 116.26 259.55 117.175 258.06 117.799C256.57 118.423 254.97 118.745 253.355 118.745C251.739 118.745 250.14 118.423 248.65 117.799C247.16 117.175 245.809 116.26 244.676 115.109C243.542 113.957 242.65 112.591 242.05 111.091C241.449 109.592 241.154 107.987 241.18 106.372V84.1863L252.342 73.6577L251.813 73.1221H241.18V13.7601C241.178 10.5312 239.894 7.43522 237.61 5.15294C235.326 2.87065 232.229 1.589 229 1.58984H311.159C314.388 1.589 317.485 2.87065 319.769 5.15294C322.053 7.43522 323.337 10.5312 323.339 13.7601V21.2525H314.17Z" fill="#F9FAFA"/>
<path d="M253.301 119.073C246.185 119.073 240.176 113.052 240.176 105.946V83.3391L250.461 73.6377H240.176V13.3281C240.172 10.3522 238.987 7.49946 236.882 5.39603C234.777 3.2926 231.923 2.11032 228.947 2.10864V0.207031H311.106C314.586 0.209546 317.923 1.59245 320.385 4.05232C322.847 6.51218 324.232 9.8481 324.237 13.3281V21.7713H314.513L314.387 21.8981L324.237 30.5757V95.9467H266.428V105.94C266.428 113.061 260.416 119.073 253.301 119.073ZM242.078 84.1599V105.94C242.078 112.025 247.219 117.166 253.301 117.166C259.383 117.166 264.526 112.025 264.526 105.94V94.0451H322.335V31.4346L311.61 21.9836L313.724 19.8697H322.335V13.3281C322.331 10.3522 321.146 7.49946 319.041 5.39603C316.936 3.2926 314.082 2.11032 311.106 2.10864H235.749C237.681 3.27575 239.279 4.9215 240.39 6.88687C241.5 8.85224 242.085 11.0708 242.087 13.3281V71.7361H252.163L253.662 73.2415L242.078 84.1599Z" fill="#E0E1E1"/>
<path d="M306.787 29.4976H294.759L289.682 24.4172L291.025 23.0734L295.548 27.596H305.997L313.724 19.8691H323.286V21.7708H314.513L306.787 29.4976Z" fill="#E0E1E1"/>
<path d="M333.636 34.4521L324.471 25.7871H333.636V34.4521Z" fill="#F5F5F5"/>
<path d="M242.078 25.2323H215.826V13.3314C215.799 11.5905 216.118 9.86167 216.766 8.24546C217.413 6.62926 218.376 5.158 219.597 3.91734C220.819 2.67667 222.275 1.6914 223.881 1.01887C225.487 0.346345 227.211 0 228.952 0C230.693 0 232.416 0.346345 234.022 1.01887C235.628 1.6914 237.084 2.67667 238.306 3.91734C239.528 5.158 240.49 6.62926 241.138 8.24546C241.785 9.86167 242.105 11.5905 242.078 13.3314V25.2323ZM217.727 23.3307H240.176V13.3314C240.201 11.8416 239.929 10.3616 239.376 8.97789C238.823 7.59417 238.001 6.33436 236.956 5.2719C235.911 4.20945 234.665 3.36562 233.291 2.78961C231.917 2.21361 230.442 1.91696 228.952 1.91696C227.462 1.91696 225.986 2.21361 224.612 2.78961C223.238 3.36562 221.992 4.20945 220.947 5.2719C219.903 6.33436 219.08 7.59417 218.527 8.97789C217.974 10.3616 217.702 11.8416 217.727 13.3314V23.3307ZM253.3 119.074V117.172C259.385 117.172 264.526 112.031 264.526 105.946V94.0452H341.18V105.94C341.175 109.271 339.906 112.476 337.63 114.907C335.353 117.339 332.238 118.815 328.915 119.039C328.911 119.096 332.629 119.074 253.3 119.074ZM259.997 117.172H328.052C331.03 117.169 333.884 115.984 335.989 113.878C338.094 111.772 339.277 108.917 339.278 105.94V95.9469H266.428V105.94C266.404 108.205 265.801 110.427 264.675 112.394C263.55 114.36 261.939 116.005 259.997 117.172Z" fill="#E0E1E1"/>
<path d="M279.333 88.3805L273.315 82.3588H260.086L251.364 73.6399H241.127V71.7383H252.153L260.872 80.4572H274.101L280.677 87.0336L279.333 88.3805Z" fill="#E0E1E1"/>
<path d="M232.703 85.18L240.069 77.8145H232.703V85.18Z" fill="#F5F5F5"/>
<path d="M334.588 36.6576L322.078 24.8359H334.588V36.6576ZM326.861 26.7375L332.686 32.2459V26.7375H326.861ZM231.752 87.475V76.864H242.363L231.752 87.475ZM233.654 78.7656V82.8857L237.774 78.7656H233.654Z" fill="#E0E1E1"/>
<path d="M335.945 84.6665H334.043V82.7649H335.945V84.6665ZM335.945 79.5956H334.043V77.694H335.945V79.5956ZM335.945 74.5246H334.043V72.623H335.945V74.5246ZM335.945 69.4537H334.043V67.5521H335.945V69.4537ZM335.945 64.3827H334.043V62.4811H335.945V64.3827ZM335.945 59.3118H334.043V57.4101H335.945V59.3118ZM335.945 54.2408H334.043V52.3392H335.945V54.2408ZM335.945 49.1698H334.043V47.2682H335.945V49.1698ZM335.945 44.0989H334.043V42.1973H335.945V44.0989ZM234.757 126.122H232.855V124.22H234.757V126.122ZM234.757 121.051H232.855V119.149H234.757V121.051ZM234.757 115.98H232.855V114.078H234.757V115.98ZM234.757 110.909H232.855V109.007H234.757V110.909ZM234.757 105.838H232.855V103.936H234.757V105.838ZM234.757 100.767H232.855V98.8652H234.757V100.767ZM234.757 95.6959H232.855V93.7943H234.757V95.6959ZM310.951 126.248H309.05V124.347H310.951V126.248ZM305.88 126.248H303.979V124.347H305.88V126.248ZM300.809 126.248H298.908V124.347H300.809V126.248ZM295.739 126.248H293.837V124.347H295.739V126.248ZM290.668 126.248H288.766V124.347H290.668V126.248ZM285.597 126.248H283.695V124.347H285.597V126.248ZM280.526 126.248H278.624V124.347H280.526V126.248ZM275.455 126.248H273.553V124.347H275.455V126.248ZM270.384 126.248H268.482V124.347H270.384V126.248ZM265.313 126.248H263.411V124.347H265.313V126.248ZM260.242 126.248H258.34V124.347H260.242V126.248ZM255.171 126.248H253.269V124.347H255.171V126.248ZM250.1 126.248H248.198V124.347H250.1V126.248ZM245.029 126.248H243.127V124.347H245.029V126.248ZM239.958 126.248H238.056V124.347H239.958V126.248Z" fill="#C39D63" fill-opacity="0.05"/>
<path d="M339.237 91.4233L355.566 119.703C355.996 120.448 356.222 121.293 356.222 122.153C356.222 123.013 355.996 123.858 355.566 124.603C355.135 125.348 354.517 125.967 353.772 126.397C353.027 126.827 352.182 127.053 351.322 127.053H318.678C317.817 127.053 316.972 126.827 316.228 126.397C315.483 125.967 314.864 125.348 314.434 124.603C314.004 123.858 313.777 123.013 313.777 122.153C313.777 121.293 314.004 120.448 314.434 119.703L330.762 91.4233C331.192 90.6804 331.81 90.0636 332.554 89.6349C333.298 89.2061 334.141 88.9805 335 88.9805C335.858 88.9805 336.702 89.2061 337.445 89.6349C338.189 90.0636 338.807 90.6804 339.237 91.4233Z" fill="#F5F5F5"/>
<path d="M351.323 128.005H318.679C317.652 128.006 316.642 127.736 315.752 127.223C314.862 126.71 314.123 125.971 313.609 125.082C313.095 124.192 312.824 123.183 312.824 122.156C312.824 121.129 313.094 120.119 313.608 119.23L329.924 90.9494C330.436 90.0572 331.175 89.316 332.065 88.8006C332.955 88.2851 333.966 88.0137 334.995 88.0137C336.024 88.0137 337.034 88.2851 337.925 88.8006C338.815 89.316 339.554 90.0572 340.066 90.9494L356.391 119.23C356.906 120.119 357.177 121.128 357.177 122.156C357.178 123.183 356.907 124.192 356.394 125.082C355.88 125.972 355.141 126.711 354.251 127.224C353.36 127.737 352.351 128.007 351.323 128.005ZM331.575 91.9002L315.25 120.18C314.902 120.78 314.719 121.462 314.718 122.155C314.718 122.849 314.9 123.53 315.247 124.131C315.594 124.731 316.093 125.23 316.694 125.576C317.294 125.923 317.976 126.105 318.67 126.104H351.314C352.007 126.104 352.688 125.921 353.288 125.575C353.889 125.228 354.387 124.73 354.734 124.129C355.08 123.529 355.263 122.848 355.263 122.155C355.263 121.462 355.08 120.781 354.734 120.18L338.415 91.9002C338.069 91.2992 337.57 90.8 336.97 90.4528C336.37 90.1057 335.688 89.9229 334.995 89.9229C334.301 89.9229 333.62 90.1057 333.02 90.4528C332.419 90.8 331.921 91.2992 331.575 91.9002Z" fill="#E0E1E1"/>
<path d="M331.787 99.0693V107.956L332.789 113.509H334.991V113.512L337.194 113.509L338.199 107.953L338.202 99.0566L331.787 99.0693Z" fill="#D93F21" fill-opacity="0.46"/>
<path d="M337.396 117.469H332.582V122.283H337.396V117.469Z" fill="#D93F21" fill-opacity="0.46"/>
<path d="M230.985 51.6805C230.394 51.6811 229.815 51.5063 229.323 51.1782C228.831 50.85 228.448 50.3833 228.221 49.837C227.995 49.2908 227.935 48.6896 228.05 48.1095C228.166 47.5295 228.45 46.9967 228.868 46.5785C229.287 46.1603 229.819 45.8756 230.4 45.7604C230.98 45.6452 231.581 45.7046 232.127 45.9312C232.673 46.1578 233.14 46.5414 233.468 47.0334C233.796 47.5253 233.971 48.1036 233.971 48.695C233.97 49.4865 233.655 50.2454 233.095 50.8052C232.535 51.3649 231.777 51.6797 230.985 51.6805ZM230.985 47.6079C230.77 47.6073 230.559 47.6705 230.38 47.7896C230.201 47.9086 230.061 48.0782 229.978 48.2768C229.896 48.4754 229.874 48.694 229.915 48.9051C229.957 49.1162 230.06 49.3102 230.212 49.4626C230.364 49.6149 230.558 49.7188 230.769 49.761C230.98 49.8032 231.198 49.7818 231.397 49.6996C231.596 49.6174 231.766 49.4781 231.885 49.2993C232.005 49.1204 232.069 48.9101 232.069 48.695C232.064 48.4102 231.948 48.1387 231.745 47.9385C231.543 47.7383 231.27 47.6254 230.985 47.6238V47.6079ZM221.531 66.6652C220.721 66.6665 219.928 66.4273 219.254 65.978C218.58 65.5287 218.054 64.8894 217.743 64.1411C217.432 63.3928 217.35 62.5691 217.508 61.7743C217.665 60.9795 218.055 60.2492 218.628 59.6761C219.201 59.1029 219.931 58.7125 220.725 58.5544C221.52 58.3962 222.344 58.4774 223.092 58.7876C223.841 59.0978 224.48 59.6232 224.93 60.2971C225.38 60.971 225.62 61.7633 225.619 62.5736C225.618 63.6579 225.188 64.6977 224.421 65.4647C223.655 66.2318 222.615 66.6635 221.531 66.6652ZM221.531 60.3804C221.097 60.3804 220.673 60.509 220.312 60.75C219.952 60.991 219.671 61.3335 219.505 61.7343C219.339 62.135 219.295 62.576 219.38 63.0014C219.464 63.4269 219.673 63.8177 219.98 64.1244C220.287 64.4311 220.678 64.64 221.103 64.7246C221.528 64.8092 221.969 64.7658 222.37 64.5998C222.771 64.4338 223.113 64.1527 223.354 63.792C223.595 63.4314 223.724 63.0073 223.724 62.5736C223.724 61.9919 223.493 61.4341 223.082 61.0228C222.67 60.6115 222.112 60.3804 221.531 60.3804Z" fill="#E0E1E1"/>
<path d="M271.666 40.2559H279.666" stroke="#E0E1E1" stroke-width="1.5" stroke-linecap="round" stroke-linejoin="round"/>
<path d="M271.666 44.2559H275.666" stroke="#E0E1E1" stroke-width="1.5" stroke-linecap="round" stroke-linejoin="round"/>
<path d="M280.999 48.9225C280.999 55.9225 275.333 61.5892 268.333 61.5892C261.333 61.5892 255.666 55.9225 255.666 48.9225C255.666 41.9225 261.333 36.2559 268.333 36.2559" stroke="#E0E1E1" stroke-width="1.5" stroke-linecap="round" stroke-linejoin="round"/>
<path d="M282.333 62.9225L279.666 60.2559" stroke="#E0E1E1" stroke-width="1.5" stroke-linecap="round" stroke-linejoin="round"/>
<path d="M112.768 177.006L116.896 165.806H118.752L122.848 177.006H121.056L120.096 174.27H115.52L114.56 177.006H112.768ZM116 172.926H119.616L117.808 167.822L116 172.926ZM126.939 177.006C126.16 177.006 125.542 176.819 125.083 176.446C124.624 176.062 124.395 175.385 124.395 174.414V170.494H123.035V169.07H124.395L124.603 167.054H126.091V169.07H128.331V170.494H126.091V174.414C126.091 174.851 126.182 175.155 126.363 175.326C126.555 175.486 126.88 175.566 127.339 175.566H128.251V177.006H126.939ZM137.439 177.006C136.66 177.006 136.042 176.819 135.583 176.446C135.124 176.062 134.895 175.385 134.895 174.414V170.494H133.535V169.07H134.895L135.103 167.054H136.591V169.07H138.831V170.494H136.591V174.414C136.591 174.851 136.682 175.155 136.863 175.326C137.055 175.486 137.38 175.566 137.839 175.566H138.751V177.006H137.439ZM140.58 177.006V165.486H142.276V170.35C142.542 169.891 142.91 169.534 143.38 169.278C143.86 169.011 144.388 168.878 144.964 168.878C145.913 168.878 146.66 169.177 147.204 169.774C147.748 170.371 148.02 171.262 148.02 172.446V177.006H146.34V172.622C146.34 171.086 145.726 170.318 144.5 170.318C143.86 170.318 143.326 170.542 142.9 170.99C142.484 171.438 142.276 172.078 142.276 172.91V177.006H140.58ZM150.977 167.566C150.657 167.566 150.391 167.47 150.177 167.278C149.975 167.075 149.873 166.825 149.873 166.526C149.873 166.227 149.975 165.982 150.177 165.79C150.391 165.587 150.657 165.486 150.977 165.486C151.297 165.486 151.559 165.587 151.761 165.79C151.975 165.982 152.081 166.227 152.081 166.526C152.081 166.825 151.975 167.075 151.761 167.278C151.559 167.47 151.297 167.566 150.977 167.566ZM150.129 177.006V169.07H151.825V177.006H150.129ZM157.232 177.198C156.23 177.198 155.403 176.953 154.752 176.462C154.102 175.971 153.728 175.321 153.632 174.51H155.344C155.43 174.873 155.632 175.187 155.952 175.454C156.272 175.71 156.694 175.838 157.216 175.838C157.728 175.838 158.102 175.731 158.336 175.518C158.571 175.305 158.688 175.059 158.688 174.782C158.688 174.377 158.523 174.105 158.192 173.966C157.872 173.817 157.424 173.683 156.848 173.566C156.4 173.47 155.952 173.342 155.504 173.182C155.067 173.022 154.699 172.798 154.4 172.51C154.112 172.211 153.968 171.811 153.968 171.31C153.968 170.617 154.235 170.041 154.768 169.582C155.302 169.113 156.048 168.878 157.008 168.878C157.894 168.878 158.608 169.091 159.152 169.518C159.707 169.945 160.032 170.547 160.128 171.326H158.496C158.443 170.985 158.283 170.718 158.016 170.526C157.76 170.334 157.414 170.238 156.976 170.238C156.55 170.238 156.219 170.329 155.984 170.51C155.75 170.681 155.632 170.905 155.632 171.182C155.632 171.459 155.792 171.678 156.112 171.838C156.443 171.998 156.875 172.142 157.408 172.27C157.942 172.387 158.432 172.526 158.88 172.686C159.339 172.835 159.707 173.059 159.984 173.358C160.262 173.657 160.4 174.094 160.4 174.67C160.411 175.395 160.128 175.998 159.552 176.478C158.987 176.958 158.214 177.198 157.232 177.198ZM169.611 177.006C168.832 177.006 168.214 176.819 167.755 176.446C167.296 176.062 167.067 175.385 167.067 174.414V170.494H165.707V169.07H167.067L167.275 167.054H168.763V169.07H171.003V170.494H168.763V174.414C168.763 174.851 168.854 175.155 169.035 175.326C169.227 175.486 169.552 175.566 170.011 175.566H170.923V177.006H169.611ZM173.712 167.566C173.392 167.566 173.125 167.47 172.912 167.278C172.709 167.075 172.608 166.825 172.608 166.526C172.608 166.227 172.709 165.982 172.912 165.79C173.125 165.587 173.392 165.486 173.712 165.486C174.032 165.486 174.293 165.587 174.496 165.79C174.709 165.982 174.816 166.227 174.816 166.526C174.816 166.825 174.709 167.075 174.496 167.278C174.293 167.47 174.032 167.566 173.712 167.566ZM172.864 177.006V169.07H174.56V177.006H172.864ZM176.799 177.006V169.07H178.303L178.447 170.19C178.703 169.785 179.039 169.465 179.455 169.23C179.881 168.995 180.372 168.878 180.927 168.878C182.185 168.878 183.06 169.374 183.551 170.366C183.839 169.907 184.223 169.545 184.703 169.278C185.193 169.011 185.721 168.878 186.287 168.878C187.279 168.878 188.057 169.177 188.623 169.774C189.188 170.371 189.471 171.262 189.471 172.446V177.006H187.775V172.622C187.775 171.086 187.188 170.318 186.015 170.318C185.417 170.318 184.927 170.542 184.543 170.99C184.169 171.438 183.983 172.078 183.983 172.91V177.006H182.287V172.622C182.287 171.086 181.695 170.318 180.511 170.318C179.924 170.318 179.439 170.542 179.055 170.99C178.681 171.438 178.495 172.078 178.495 172.91V177.006H176.799ZM195.167 177.198C194.388 177.198 193.695 177.027 193.087 176.686C192.489 176.334 192.02 175.849 191.679 175.23C191.337 174.611 191.167 173.891 191.167 173.07C191.167 172.238 191.332 171.507 191.663 170.878C192.004 170.249 192.473 169.758 193.071 169.406C193.679 169.054 194.383 168.878 195.183 168.878C195.961 168.878 196.639 169.054 197.215 169.406C197.791 169.747 198.239 170.206 198.559 170.782C198.879 171.358 199.039 171.993 199.039 172.686C199.039 172.793 199.033 172.91 199.023 173.038C199.023 173.155 199.017 173.289 199.007 173.438H192.831C192.884 174.206 193.135 174.793 193.583 175.198C194.041 175.593 194.569 175.79 195.167 175.79C195.647 175.79 196.047 175.683 196.367 175.47C196.697 175.246 196.943 174.947 197.103 174.574H198.799C198.585 175.321 198.159 175.945 197.519 176.446C196.889 176.947 196.105 177.198 195.167 177.198ZM195.167 170.27C194.601 170.27 194.1 170.441 193.663 170.782C193.225 171.113 192.959 171.614 192.863 172.286H197.343C197.311 171.667 197.092 171.177 196.687 170.814C196.281 170.451 195.775 170.27 195.167 170.27ZM200.383 178.606V177.886C200.895 177.886 201.151 177.582 201.151 176.974V176.622H200.319V175.134H201.903C201.977 175.422 202.031 175.699 202.063 175.966C202.105 176.222 202.127 176.462 202.127 176.686C202.127 177.966 201.545 178.606 200.383 178.606ZM208.805 180.526L210.709 176.35H210.245L207.109 169.07H208.949L211.381 174.942L213.925 169.07H215.717L210.597 180.526H208.805ZM220.104 177.198C219.347 177.198 218.664 177.027 218.056 176.686C217.459 176.334 216.984 175.849 216.632 175.23C216.28 174.601 216.104 173.87 216.104 173.038C216.104 172.206 216.28 171.481 216.632 170.862C216.995 170.233 217.48 169.747 218.088 169.406C218.696 169.054 219.374 168.878 220.12 168.878C220.878 168.878 221.555 169.054 222.152 169.406C222.76 169.747 223.24 170.233 223.592 170.862C223.955 171.481 224.136 172.206 224.136 173.038C224.136 173.87 223.955 174.601 223.592 175.23C223.24 175.849 222.76 176.334 222.152 176.686C221.544 177.027 220.862 177.198 220.104 177.198ZM220.104 175.742C220.51 175.742 220.883 175.641 221.224 175.438C221.576 175.235 221.859 174.937 222.072 174.542C222.286 174.137 222.392 173.635 222.392 173.038C222.392 172.441 222.286 171.945 222.072 171.55C221.87 171.145 221.592 170.841 221.24 170.638C220.899 170.435 220.526 170.334 220.12 170.334C219.715 170.334 219.336 170.435 218.984 170.638C218.643 170.841 218.366 171.145 218.152 171.55C217.939 171.945 217.832 172.441 217.832 173.038C217.832 173.635 217.939 174.137 218.152 174.542C218.366 174.937 218.643 175.235 218.984 175.438C219.326 175.641 219.699 175.742 220.104 175.742ZM228.898 177.198C227.938 177.198 227.181 176.899 226.626 176.302C226.082 175.705 225.81 174.814 225.81 173.63V169.07H227.506V173.454C227.506 174.99 228.136 175.758 229.394 175.758C230.024 175.758 230.541 175.534 230.946 175.086C231.352 174.638 231.554 173.998 231.554 173.166V169.07H233.25V177.006H231.746L231.618 175.614C231.373 176.105 231.01 176.494 230.53 176.782C230.061 177.059 229.517 177.198 228.898 177.198ZM239.439 177.006V165.486H241.135V170.35C241.402 169.891 241.77 169.534 242.239 169.278C242.719 169.011 243.247 168.878 243.823 168.878C244.773 168.878 245.519 169.177 246.063 169.774C246.607 170.371 246.879 171.262 246.879 172.446V177.006H245.199V172.622C245.199 171.086 244.586 170.318 243.359 170.318C242.719 170.318 242.186 170.542 241.759 170.99C241.343 171.438 241.135 172.078 241.135 172.91V177.006H239.439ZM251.565 177.198C250.893 177.198 250.338 177.086 249.901 176.862C249.463 176.638 249.138 176.345 248.925 175.982C248.711 175.609 248.605 175.203 248.605 174.766C248.605 173.998 248.903 173.39 249.501 172.942C250.098 172.494 250.951 172.27 252.061 172.27H254.141V172.126C254.141 171.507 253.97 171.043 253.629 170.734C253.298 170.425 252.866 170.27 252.333 170.27C251.863 170.27 251.453 170.387 251.101 170.622C250.759 170.846 250.551 171.182 250.477 171.63H248.781C248.834 171.054 249.026 170.563 249.357 170.158C249.698 169.742 250.125 169.427 250.637 169.214C251.159 168.99 251.73 168.878 252.349 168.878C253.458 168.878 254.317 169.171 254.925 169.758C255.533 170.334 255.837 171.123 255.837 172.126V177.006H254.365L254.221 175.646C253.997 176.083 253.671 176.451 253.245 176.75C252.818 177.049 252.258 177.198 251.565 177.198ZM251.901 175.822C252.359 175.822 252.743 175.715 253.053 175.502C253.373 175.278 253.618 174.985 253.789 174.622C253.97 174.259 254.082 173.859 254.125 173.422H252.237C251.565 173.422 251.085 173.539 250.797 173.774C250.519 174.009 250.381 174.302 250.381 174.654C250.381 175.017 250.514 175.305 250.781 175.518C251.058 175.721 251.431 175.822 251.901 175.822ZM259.773 177.006L256.797 169.07H258.573L260.781 175.39L262.989 169.07H264.749L261.789 177.006H259.773ZM269.448 177.198C268.669 177.198 267.976 177.027 267.368 176.686C266.771 176.334 266.301 175.849 265.96 175.23C265.619 174.611 265.448 173.891 265.448 173.07C265.448 172.238 265.613 171.507 265.944 170.878C266.285 170.249 266.755 169.758 267.352 169.406C267.96 169.054 268.664 168.878 269.464 168.878C270.243 168.878 270.92 169.054 271.496 169.406C272.072 169.747 272.52 170.206 272.84 170.782C273.16 171.358 273.32 171.993 273.32 172.686C273.32 172.793 273.315 172.91 273.304 173.038C273.304 173.155 273.299 173.289 273.288 173.438H267.112C267.165 174.206 267.416 174.793 267.864 175.198C268.323 175.593 268.851 175.79 269.448 175.79C269.928 175.79 270.328 175.683 270.648 175.47C270.979 175.246 271.224 174.947 271.384 174.574H273.08C272.867 175.321 272.44 175.945 271.8 176.446C271.171 176.947 270.387 177.198 269.448 177.198ZM269.448 170.27C268.883 170.27 268.381 170.441 267.944 170.782C267.507 171.113 267.24 171.614 267.144 172.286H271.624C271.592 171.667 271.373 171.177 270.968 170.814C270.563 170.451 270.056 170.27 269.448 170.27ZM279.111 177.006V169.07H280.615L280.743 170.462C280.988 169.971 281.346 169.587 281.815 169.31C282.295 169.022 282.844 168.878 283.463 168.878C284.423 168.878 285.175 169.177 285.719 169.774C286.274 170.371 286.551 171.262 286.551 172.446V177.006H284.871V172.622C284.871 171.086 284.242 170.318 282.983 170.318C282.354 170.318 281.831 170.542 281.415 170.99C281.01 171.438 280.807 172.078 280.807 172.91V177.006H279.111ZM292.261 177.198C291.503 177.198 290.821 177.027 290.213 176.686C289.615 176.334 289.141 175.849 288.789 175.23C288.437 174.601 288.261 173.87 288.261 173.038C288.261 172.206 288.437 171.481 288.789 170.862C289.151 170.233 289.637 169.747 290.245 169.406C290.853 169.054 291.53 168.878 292.277 168.878C293.034 168.878 293.711 169.054 294.309 169.406C294.917 169.747 295.397 170.233 295.749 170.862C296.111 171.481 296.293 172.206 296.293 173.038C296.293 173.87 296.111 174.601 295.749 175.23C295.397 175.849 294.917 176.334 294.309 176.686C293.701 177.027 293.018 177.198 292.261 177.198ZM292.261 175.742C292.666 175.742 293.039 175.641 293.381 175.438C293.733 175.235 294.015 174.937 294.229 174.542C294.442 174.137 294.549 173.635 294.549 173.038C294.549 172.441 294.442 171.945 294.229 171.55C294.026 171.145 293.749 170.841 293.397 170.638C293.055 170.435 292.682 170.334 292.277 170.334C291.871 170.334 291.493 170.435 291.141 170.638C290.799 170.841 290.522 171.145 290.309 171.55C290.095 171.945 289.989 172.441 289.989 173.038C289.989 173.635 290.095 174.137 290.309 174.542C290.522 174.937 290.799 175.235 291.141 175.438C291.482 175.641 291.855 175.742 292.261 175.742ZM306.622 177.198C306.003 177.198 305.454 177.075 304.974 176.83C304.505 176.585 304.131 176.238 303.854 175.79L303.678 177.006H302.158V165.486H303.854V170.302C304.11 169.929 304.462 169.598 304.91 169.31C305.358 169.022 305.934 168.878 306.638 168.878C307.406 168.878 308.083 169.059 308.67 169.422C309.257 169.785 309.715 170.281 310.046 170.91C310.387 171.539 310.558 172.254 310.558 173.054C310.558 173.854 310.387 174.569 310.046 175.198C309.715 175.817 309.257 176.307 308.67 176.67C308.083 177.022 307.401 177.198 306.622 177.198ZM306.334 175.726C307.059 175.726 307.657 175.481 308.126 174.99C308.595 174.489 308.83 173.838 308.83 173.038C308.83 172.515 308.723 172.051 308.51 171.646C308.297 171.241 308.003 170.926 307.63 170.702C307.257 170.467 306.825 170.35 306.334 170.35C305.609 170.35 305.011 170.601 304.542 171.102C304.083 171.603 303.854 172.249 303.854 173.038C303.854 173.838 304.083 174.489 304.542 174.99C305.011 175.481 305.609 175.726 306.334 175.726ZM316.104 177.198C315.347 177.198 314.664 177.027 314.056 176.686C313.459 176.334 312.984 175.849 312.632 175.23C312.28 174.601 312.104 173.87 312.104 173.038C312.104 172.206 312.28 171.481 312.632 170.862C312.995 170.233 313.48 169.747 314.088 169.406C314.696 169.054 315.374 168.878 316.12 168.878C316.878 168.878 317.555 169.054 318.152 169.406C318.76 169.747 319.24 170.233 319.592 170.862C319.955 171.481 320.136 172.206 320.136 173.038C320.136 173.87 319.955 174.601 319.592 175.23C319.24 175.849 318.76 176.334 318.152 176.686C317.544 177.027 316.862 177.198 316.104 177.198ZM316.104 175.742C316.51 175.742 316.883 175.641 317.224 175.438C317.576 175.235 317.859 174.937 318.072 174.542C318.286 174.137 318.392 173.635 318.392 173.038C318.392 172.441 318.286 171.945 318.072 171.55C317.87 171.145 317.592 170.841 317.24 170.638C316.899 170.435 316.526 170.334 316.12 170.334C315.715 170.334 315.336 170.435 314.984 170.638C314.643 170.841 314.366 171.145 314.152 171.55C313.939 171.945 313.832 172.441 313.832 173.038C313.832 173.635 313.939 174.137 314.152 174.542C314.366 174.937 314.643 175.235 314.984 175.438C315.326 175.641 315.699 175.742 316.104 175.742ZM325.682 177.198C324.925 177.198 324.242 177.027 323.634 176.686C323.037 176.334 322.562 175.849 322.21 175.23C321.858 174.601 321.682 173.87 321.682 173.038C321.682 172.206 321.858 171.481 322.21 170.862C322.573 170.233 323.058 169.747 323.666 169.406C324.274 169.054 324.952 168.878 325.698 168.878C326.456 168.878 327.133 169.054 327.73 169.406C328.338 169.747 328.818 170.233 329.17 170.862C329.533 171.481 329.714 172.206 329.714 173.038C329.714 173.87 329.533 174.601 329.17 175.23C328.818 175.849 328.338 176.334 327.73 176.686C327.122 177.027 326.44 177.198 325.682 177.198ZM325.682 175.742C326.088 175.742 326.461 175.641 326.802 175.438C327.154 175.235 327.437 174.937 327.65 174.542C327.864 174.137 327.97 173.635 327.97 173.038C327.97 172.441 327.864 171.945 327.65 171.55C327.448 171.145 327.17 170.841 326.818 170.638C326.477 170.435 326.104 170.334 325.698 170.334C325.293 170.334 324.914 170.435 324.562 170.638C324.221 170.841 323.944 171.145 323.73 171.55C323.517 171.945 323.41 172.441 323.41 173.038C323.41 173.635 323.517 174.137 323.73 174.542C323.944 174.937 324.221 175.235 324.562 175.438C324.904 175.641 325.277 175.742 325.682 175.742ZM331.549 177.006V165.486H333.245V172.35L336.285 169.07H338.317L334.941 172.67L338.813 177.006H336.669L333.245 172.942V177.006H331.549ZM341.087 167.566C340.767 167.566 340.5 167.47 340.287 167.278C340.084 167.075 339.983 166.825 339.983 166.526C339.983 166.227 340.084 165.982 340.287 165.79C340.5 165.587 340.767 165.486 341.087 165.486C341.407 165.486 341.668 165.587 341.871 165.79C342.084 165.982 342.191 166.227 342.191 166.526C342.191 166.825 342.084 167.075 341.871 167.278C341.668 167.47 341.407 167.566 341.087 167.566ZM340.239 177.006V169.07H341.935V177.006H340.239ZM344.174 177.006V169.07H345.678L345.806 170.462C346.051 169.971 346.408 169.587 346.878 169.31C347.358 169.022 347.907 168.878 348.526 168.878C349.486 168.878 350.238 169.177 350.782 169.774C351.336 170.371 351.614 171.262 351.614 172.446V177.006H349.934V172.622C349.934 171.086 349.304 170.318 348.046 170.318C347.416 170.318 346.894 170.542 346.478 170.99C346.072 171.438 345.87 172.078 345.87 172.91V177.006H344.174ZM356.859 174.574C356.443 174.574 356.059 174.526 355.707 174.43L355.019 175.102C355.136 175.177 355.28 175.241 355.451 175.294C355.622 175.347 355.862 175.395 356.171 175.438C356.48 175.481 356.902 175.523 357.435 175.566C358.491 175.662 359.254 175.918 359.723 176.334C360.192 176.739 360.427 177.283 360.427 177.966C360.427 178.435 360.299 178.878 360.043 179.294C359.798 179.721 359.408 180.062 358.875 180.318C358.352 180.585 357.68 180.718 356.859 180.718C355.75 180.718 354.848 180.505 354.155 180.078C353.472 179.662 353.131 179.027 353.131 178.174C353.131 177.843 353.216 177.513 353.387 177.182C353.568 176.862 353.851 176.558 354.235 176.27C354.011 176.174 353.814 176.073 353.643 175.966C353.483 175.849 353.339 175.731 353.211 175.614V175.23L354.587 173.822C353.968 173.289 353.659 172.59 353.659 171.726C353.659 171.203 353.782 170.729 354.027 170.302C354.283 169.865 354.651 169.518 355.131 169.262C355.611 169.006 356.187 168.878 356.859 168.878C357.307 168.878 357.723 168.942 358.107 169.07H361.067V170.19L359.659 170.27C359.915 170.707 360.043 171.193 360.043 171.726C360.043 172.259 359.915 172.739 359.659 173.166C359.414 173.593 359.051 173.934 358.571 174.19C358.102 174.446 357.531 174.574 356.859 174.574ZM356.859 173.246C357.35 173.246 357.744 173.118 358.043 172.862C358.352 172.595 358.507 172.222 358.507 171.742C358.507 171.251 358.352 170.878 358.043 170.622C357.744 170.366 357.35 170.238 356.859 170.238C356.358 170.238 355.952 170.366 355.643 170.622C355.344 170.878 355.195 171.251 355.195 171.742C355.195 172.222 355.344 172.595 355.643 172.862C355.952 173.118 356.358 173.246 356.859 173.246ZM354.731 178.014C354.731 178.473 354.934 178.814 355.339 179.038C355.744 179.273 356.251 179.39 356.859 179.39C357.446 179.39 357.92 179.262 358.283 179.006C358.646 178.761 358.827 178.43 358.827 178.014C358.827 177.705 358.704 177.438 358.459 177.214C358.214 177.001 357.75 176.867 357.067 176.814C356.555 176.782 356.102 176.734 355.707 176.67C355.334 176.873 355.078 177.091 354.939 177.326C354.8 177.561 354.731 177.79 354.731 178.014ZM365.748 177.198C364.745 177.198 363.918 176.953 363.268 176.462C362.617 175.971 362.244 175.321 362.148 174.51H363.86C363.945 174.873 364.148 175.187 364.468 175.454C364.788 175.71 365.209 175.838 365.732 175.838C366.244 175.838 366.617 175.731 366.852 175.518C367.086 175.305 367.204 175.059 367.204 174.782C367.204 174.377 367.038 174.105 366.708 173.966C366.388 173.817 365.94 173.683 365.364 173.566C364.916 173.47 364.468 173.342 364.02 173.182C363.582 173.022 363.214 172.798 362.916 172.51C362.628 172.211 362.484 171.811 362.484 171.31C362.484 170.617 362.75 170.041 363.284 169.582C363.817 169.113 364.564 168.878 365.524 168.878C366.409 168.878 367.124 169.091 367.668 169.518C368.222 169.945 368.548 170.547 368.644 171.326H367.012C366.958 170.985 366.798 170.718 366.532 170.526C366.276 170.334 365.929 170.238 365.492 170.238C365.065 170.238 364.734 170.329 364.5 170.51C364.265 170.681 364.148 170.905 364.148 171.182C364.148 171.459 364.308 171.678 364.628 171.838C364.958 171.998 365.39 172.142 365.924 172.27C366.457 172.387 366.948 172.526 367.396 172.686C367.854 172.835 368.222 173.059 368.5 173.358C368.777 173.657 368.916 174.094 368.916 174.67C368.926 175.395 368.644 175.998 368.068 176.478C367.502 176.958 366.729 177.198 365.748 177.198ZM377.967 177.198C376.964 177.198 376.137 176.953 375.487 176.462C374.836 175.971 374.463 175.321 374.367 174.51H376.079C376.164 174.873 376.367 175.187 376.687 175.454C377.007 175.71 377.428 175.838 377.951 175.838C378.463 175.838 378.836 175.731 379.071 175.518C379.305 175.305 379.423 175.059 379.423 174.782C379.423 174.377 379.257 174.105 378.927 173.966C378.607 173.817 378.159 173.683 377.583 173.566C377.135 173.47 376.687 173.342 376.239 173.182C375.801 173.022 375.433 172.798 375.135 172.51C374.847 172.211 374.703 171.811 374.703 171.31C374.703 170.617 374.969 170.041 375.503 169.582C376.036 169.113 376.783 168.878 377.743 168.878C378.628 168.878 379.343 169.091 379.887 169.518C380.441 169.945 380.767 170.547 380.863 171.326H379.231C379.177 170.985 379.017 170.718 378.751 170.526C378.495 170.334 378.148 170.238 377.711 170.238C377.284 170.238 376.953 170.329 376.719 170.51C376.484 170.681 376.367 170.905 376.367 171.182C376.367 171.459 376.527 171.678 376.847 171.838C377.177 171.998 377.609 172.142 378.143 172.27C378.676 172.387 379.167 172.526 379.615 172.686C380.073 172.835 380.441 173.059 380.719 173.358C380.996 173.657 381.135 174.094 381.135 174.67C381.145 175.395 380.863 175.998 380.287 176.478C379.721 176.958 378.948 177.198 377.967 177.198ZM386.746 177.198C385.967 177.198 385.269 177.022 384.65 176.67C384.042 176.318 383.562 175.833 383.21 175.214C382.869 174.585 382.698 173.859 382.698 173.038C382.698 172.217 382.869 171.497 383.21 170.878C383.562 170.249 384.042 169.758 384.65 169.406C385.269 169.054 385.967 168.878 386.746 168.878C387.727 168.878 388.549 169.134 389.21 169.646C389.882 170.158 390.314 170.851 390.506 171.726H388.73C388.623 171.289 388.389 170.947 388.026 170.702C387.663 170.457 387.237 170.334 386.746 170.334C386.33 170.334 385.946 170.441 385.594 170.654C385.242 170.857 384.959 171.161 384.746 171.566C384.533 171.961 384.426 172.451 384.426 173.038C384.426 173.625 384.533 174.121 384.746 174.526C384.959 174.921 385.242 175.225 385.594 175.438C385.946 175.651 386.33 175.758 386.746 175.758C387.237 175.758 387.663 175.635 388.026 175.39C388.389 175.145 388.623 174.798 388.73 174.35H390.506C390.325 175.203 389.898 175.891 389.226 176.414C388.554 176.937 387.727 177.198 386.746 177.198ZM392.345 177.006V165.486H394.041V170.35C394.308 169.891 394.676 169.534 395.145 169.278C395.625 169.011 396.153 168.878 396.729 168.878C397.679 168.878 398.425 169.177 398.969 169.774C399.513 170.371 399.785 171.262 399.785 172.446V177.006H398.105V172.622C398.105 171.086 397.492 170.318 396.265 170.318C395.625 170.318 395.092 170.542 394.665 170.99C394.249 171.438 394.041 172.078 394.041 172.91V177.006H392.345ZM405.495 177.198C404.716 177.198 404.023 177.027 403.415 176.686C402.818 176.334 402.348 175.849 402.007 175.23C401.666 174.611 401.495 173.891 401.495 173.07C401.495 172.238 401.66 171.507 401.991 170.878C402.332 170.249 402.802 169.758 403.399 169.406C404.007 169.054 404.711 168.878 405.511 168.878C406.29 168.878 406.967 169.054 407.543 169.406C408.119 169.747 408.567 170.206 408.887 170.782C409.207 171.358 409.367 171.993 409.367 172.686C409.367 172.793 409.362 172.91 409.351 173.038C409.351 173.155 409.346 173.289 409.335 173.438H403.159C403.212 174.206 403.463 174.793 403.911 175.198C404.37 175.593 404.898 175.79 405.495 175.79C405.975 175.79 406.375 175.683 406.695 175.47C407.026 175.246 407.271 174.947 407.431 174.574H409.127C408.914 175.321 408.487 175.945 407.847 176.446C407.218 176.947 406.434 177.198 405.495 177.198ZM405.495 170.27C404.93 170.27 404.428 170.441 403.991 170.782C403.554 171.113 403.287 171.614 403.191 172.286H407.671C407.639 171.667 407.42 171.177 407.015 170.814C406.61 170.451 406.103 170.27 405.495 170.27ZM414.743 177.198C413.975 177.198 413.297 177.017 412.711 176.654C412.124 176.291 411.665 175.795 411.335 175.166C411.004 174.537 410.839 173.822 410.839 173.022C410.839 172.222 411.004 171.513 411.335 170.894C411.665 170.265 412.124 169.774 412.711 169.422C413.308 169.059 413.991 168.878 414.759 168.878C415.388 168.878 415.937 169.001 416.407 169.246C416.887 169.491 417.26 169.838 417.527 170.286V165.486H419.223V177.006H417.703L417.527 175.774C417.271 176.147 416.919 176.478 416.471 176.766C416.023 177.054 415.447 177.198 414.743 177.198ZM415.047 175.726C415.772 175.726 416.364 175.475 416.823 174.974C417.292 174.473 417.527 173.827 417.527 173.038C417.527 172.238 417.292 171.593 416.823 171.102C416.364 170.601 415.772 170.35 415.047 170.35C414.321 170.35 413.724 170.601 413.255 171.102C412.785 171.593 412.551 172.238 412.551 173.038C412.551 173.561 412.657 174.025 412.871 174.43C413.084 174.835 413.377 175.155 413.751 175.39C414.135 175.614 414.567 175.726 415.047 175.726ZM424.289 177.198C423.329 177.198 422.572 176.899 422.017 176.302C421.473 175.705 421.201 174.814 421.201 173.63V169.07H422.897V173.454C422.897 174.99 423.526 175.758 424.785 175.758C425.414 175.758 425.932 175.534 426.337 175.086C426.742 174.638 426.945 173.998 426.945 173.166V169.07H428.641V177.006H427.137L427.009 175.614C426.764 176.105 426.401 176.494 425.921 176.782C425.452 177.059 424.908 177.198 424.289 177.198ZM430.799 177.006V165.486H432.495V177.006H430.799ZM438.354 177.198C437.576 177.198 436.882 177.027 436.274 176.686C435.677 176.334 435.208 175.849 434.866 175.23C434.525 174.611 434.354 173.891 434.354 173.07C434.354 172.238 434.52 171.507 434.85 170.878C435.192 170.249 435.661 169.758 436.258 169.406C436.866 169.054 437.57 168.878 438.37 168.878C439.149 168.878 439.826 169.054 440.402 169.406C440.978 169.747 441.426 170.206 441.746 170.782C442.066 171.358 442.226 171.993 442.226 172.686C442.226 172.793 442.221 172.91 442.21 173.038C442.21 173.155 442.205 173.289 442.194 173.438H436.018C436.072 174.206 436.322 174.793 436.77 175.198C437.229 175.593 437.757 175.79 438.354 175.79C438.834 175.79 439.234 175.683 439.554 175.47C439.885 175.246 440.13 174.947 440.29 174.574H441.986C441.773 175.321 441.346 175.945 440.706 176.446C440.077 176.947 439.293 177.198 438.354 177.198ZM438.354 170.27C437.789 170.27 437.288 170.441 436.85 170.782C436.413 171.113 436.146 171.614 436.05 172.286H440.53C440.498 171.667 440.28 171.177 439.874 170.814C439.469 170.451 438.962 170.27 438.354 170.27ZM447.602 177.198C446.834 177.198 446.157 177.017 445.57 176.654C444.983 176.291 444.525 175.795 444.194 175.166C443.863 174.537 443.698 173.822 443.698 173.022C443.698 172.222 443.863 171.513 444.194 170.894C444.525 170.265 444.983 169.774 445.57 169.422C446.167 169.059 446.85 168.878 447.618 168.878C448.247 168.878 448.797 169.001 449.266 169.246C449.746 169.491 450.119 169.838 450.386 170.286V165.486H452.082V177.006H450.562L450.386 175.774C450.13 176.147 449.778 176.478 449.33 176.766C448.882 177.054 448.306 177.198 447.602 177.198ZM447.906 175.726C448.631 175.726 449.223 175.475 449.682 174.974C450.151 174.473 450.386 173.827 450.386 173.038C450.386 172.238 450.151 171.593 449.682 171.102C449.223 170.601 448.631 170.35 447.906 170.35C447.181 170.35 446.583 170.601 446.114 171.102C445.645 171.593 445.41 172.238 445.41 173.038C445.41 173.561 445.517 174.025 445.73 174.43C445.943 174.835 446.237 175.155 446.61 175.39C446.994 175.614 447.426 175.726 447.906 175.726ZM454.892 177.102C454.572 177.102 454.306 177.001 454.092 176.798C453.89 176.585 453.788 176.334 453.788 176.046C453.788 175.747 453.89 175.497 454.092 175.294C454.306 175.081 454.572 174.974 454.892 174.974C455.212 174.974 455.474 175.081 455.676 175.294C455.879 175.497 455.98 175.747 455.98 176.046C455.98 176.334 455.879 176.585 455.676 176.798C455.474 177.001 455.212 177.102 454.892 177.102ZM69.9876 201.006V189.806H73.6196C74.9316 189.806 76.0089 190.035 76.8516 190.494C77.7049 190.953 78.3342 191.603 78.7396 192.446C79.1556 193.278 79.3636 194.27 79.3636 195.422C79.3636 196.563 79.1556 197.555 78.7396 198.398C78.3342 199.23 77.7049 199.875 76.8516 200.334C76.0089 200.782 74.9316 201.006 73.6196 201.006H69.9876ZM71.6836 199.566H73.5556C74.5689 199.566 75.3689 199.401 75.9556 199.07C76.5529 198.739 76.9796 198.265 77.2356 197.646C77.5022 197.027 77.6356 196.286 77.6356 195.422C77.6356 194.558 77.5022 193.811 77.2356 193.182C76.9796 192.553 76.5529 192.073 75.9556 191.742C75.3689 191.401 74.5689 191.23 73.5556 191.23H71.6836V199.566ZM82.1336 191.566C81.8136 191.566 81.5469 191.47 81.3336 191.278C81.1309 191.075 81.0296 190.825 81.0296 190.526C81.0296 190.227 81.1309 189.982 81.3336 189.79C81.5469 189.587 81.8136 189.486 82.1336 189.486C82.4536 189.486 82.7149 189.587 82.9176 189.79C83.1309 189.982 83.2376 190.227 83.2376 190.526C83.2376 190.825 83.1309 191.075 82.9176 191.278C82.7149 191.47 82.4536 191.566 82.1336 191.566ZM81.2856 201.006V193.07H82.9816V201.006H81.2856ZM88.3884 201.198C87.3858 201.198 86.5591 200.953 85.9084 200.462C85.2578 199.971 84.8844 199.321 84.7884 198.51H86.5004C86.5858 198.873 86.7884 199.187 87.1084 199.454C87.4284 199.71 87.8498 199.838 88.3724 199.838C88.8844 199.838 89.2578 199.731 89.4924 199.518C89.7271 199.305 89.8444 199.059 89.8444 198.782C89.8444 198.377 89.6791 198.105 89.3484 197.966C89.0284 197.817 88.5804 197.683 88.0044 197.566C87.5564 197.47 87.1084 197.342 86.6604 197.182C86.2231 197.022 85.8551 196.798 85.5564 196.51C85.2684 196.211 85.1244 195.811 85.1244 195.31C85.1244 194.617 85.3911 194.041 85.9244 193.582C86.4578 193.113 87.2044 192.878 88.1644 192.878C89.0498 192.878 89.7644 193.091 90.3084 193.518C90.8631 193.945 91.1884 194.547 91.2844 195.326H89.6524C89.5991 194.985 89.4391 194.718 89.1724 194.526C88.9164 194.334 88.5698 194.238 88.1324 194.238C87.7058 194.238 87.3751 194.329 87.1404 194.51C86.9058 194.681 86.7884 194.905 86.7884 195.182C86.7884 195.459 86.9484 195.678 87.2684 195.838C87.5991 195.998 88.0311 196.142 88.5644 196.27C89.0978 196.387 89.5884 196.526 90.0364 196.686C90.4951 196.835 90.8631 197.059 91.1404 197.358C91.4178 197.657 91.5564 198.094 91.5564 198.67C91.5671 199.395 91.2844 199.998 90.7084 200.478C90.1431 200.958 89.3698 201.198 88.3884 201.198ZM97.1679 201.198C96.3893 201.198 95.6906 201.022 95.0719 200.67C94.4639 200.318 93.9839 199.833 93.6319 199.214C93.2906 198.585 93.1199 197.859 93.1199 197.038C93.1199 196.217 93.2906 195.497 93.6319 194.878C93.9839 194.249 94.4639 193.758 95.0719 193.406C95.6906 193.054 96.3893 192.878 97.1679 192.878C98.1493 192.878 98.9706 193.134 99.6319 193.646C100.304 194.158 100.736 194.851 100.928 195.726H99.1519C99.0453 195.289 98.8106 194.947 98.4479 194.702C98.0853 194.457 97.6586 194.334 97.1679 194.334C96.7519 194.334 96.3679 194.441 96.0159 194.654C95.6639 194.857 95.3813 195.161 95.1679 195.566C94.9546 195.961 94.8479 196.451 94.8479 197.038C94.8479 197.625 94.9546 198.121 95.1679 198.526C95.3813 198.921 95.6639 199.225 96.0159 199.438C96.3679 199.651 96.7519 199.758 97.1679 199.758C97.6586 199.758 98.0853 199.635 98.4479 199.39C98.8106 199.145 99.0453 198.798 99.1519 198.35H100.928C100.747 199.203 100.32 199.891 99.6479 200.414C98.9759 200.937 98.1493 201.198 97.1679 201.198ZM106.479 201.198C105.722 201.198 105.039 201.027 104.431 200.686C103.834 200.334 103.359 199.849 103.007 199.23C102.655 198.601 102.479 197.87 102.479 197.038C102.479 196.206 102.655 195.481 103.007 194.862C103.37 194.233 103.855 193.747 104.463 193.406C105.071 193.054 105.749 192.878 106.495 192.878C107.253 192.878 107.93 193.054 108.527 193.406C109.135 193.747 109.615 194.233 109.967 194.862C110.33 195.481 110.511 196.206 110.511 197.038C110.511 197.87 110.33 198.601 109.967 199.23C109.615 199.849 109.135 200.334 108.527 200.686C107.919 201.027 107.237 201.198 106.479 201.198ZM106.479 199.742C106.885 199.742 107.258 199.641 107.599 199.438C107.951 199.235 108.234 198.937 108.447 198.542C108.661 198.137 108.767 197.635 108.767 197.038C108.767 196.441 108.661 195.945 108.447 195.55C108.245 195.145 107.967 194.841 107.615 194.638C107.274 194.435 106.901 194.334 106.495 194.334C106.09 194.334 105.711 194.435 105.359 194.638C105.018 194.841 104.741 195.145 104.527 195.55C104.314 195.945 104.207 196.441 104.207 197.038C104.207 197.635 104.314 198.137 104.527 198.542C104.741 198.937 105.018 199.235 105.359 199.438C105.701 199.641 106.074 199.742 106.479 199.742ZM114.163 201.006L111.187 193.07H112.963L115.171 199.39L117.379 193.07H119.139L116.179 201.006H114.163ZM123.839 201.198C123.06 201.198 122.367 201.027 121.759 200.686C121.161 200.334 120.692 199.849 120.351 199.23C120.009 198.611 119.839 197.891 119.839 197.07C119.839 196.238 120.004 195.507 120.335 194.878C120.676 194.249 121.145 193.758 121.743 193.406C122.351 193.054 123.055 192.878 123.855 192.878C124.633 192.878 125.311 193.054 125.887 193.406C126.463 193.747 126.911 194.206 127.231 194.782C127.551 195.358 127.711 195.993 127.711 196.686C127.711 196.793 127.705 196.91 127.695 197.038C127.695 197.155 127.689 197.289 127.679 197.438H121.503C121.556 198.206 121.807 198.793 122.255 199.198C122.713 199.593 123.241 199.79 123.839 199.79C124.319 199.79 124.719 199.683 125.039 199.47C125.369 199.246 125.615 198.947 125.775 198.574H127.471C127.257 199.321 126.831 199.945 126.191 200.446C125.561 200.947 124.777 201.198 123.839 201.198ZM123.839 194.27C123.273 194.27 122.772 194.441 122.335 194.782C121.897 195.113 121.631 195.614 121.535 196.286H126.015C125.983 195.667 125.764 195.177 125.359 194.814C124.953 194.451 124.447 194.27 123.839 194.27ZM129.47 201.006V193.07H130.99L131.134 194.574C131.412 194.051 131.796 193.641 132.286 193.342C132.788 193.033 133.39 192.878 134.094 192.878V194.654H133.63C133.161 194.654 132.74 194.734 132.366 194.894C132.004 195.043 131.71 195.305 131.486 195.678C131.273 196.041 131.166 196.547 131.166 197.198V201.006H129.47ZM143.292 201.198C142.534 201.198 141.852 201.027 141.244 200.686C140.646 200.334 140.172 199.849 139.82 199.23C139.468 198.601 139.292 197.87 139.292 197.038C139.292 196.206 139.468 195.481 139.82 194.862C140.182 194.233 140.668 193.747 141.276 193.406C141.884 193.054 142.561 192.878 143.308 192.878C144.065 192.878 144.742 193.054 145.34 193.406C145.948 193.747 146.428 194.233 146.78 194.862C147.142 195.481 147.324 196.206 147.324 197.038C147.324 197.87 147.142 198.601 146.78 199.23C146.428 199.849 145.948 200.334 145.34 200.686C144.732 201.027 144.049 201.198 143.292 201.198ZM143.292 199.742C143.697 199.742 144.07 199.641 144.412 199.438C144.764 199.235 145.046 198.937 145.26 198.542C145.473 198.137 145.58 197.635 145.58 197.038C145.58 196.441 145.473 195.945 145.26 195.55C145.057 195.145 144.78 194.841 144.428 194.638C144.086 194.435 143.713 194.334 143.308 194.334C142.902 194.334 142.524 194.435 142.172 194.638C141.83 194.841 141.553 195.145 141.34 195.55C141.126 195.945 141.02 196.441 141.02 197.038C141.02 197.635 141.126 198.137 141.34 198.542C141.553 198.937 141.83 199.235 142.172 199.438C142.513 199.641 142.886 199.742 143.292 199.742ZM152.086 201.198C151.126 201.198 150.369 200.899 149.814 200.302C149.27 199.705 148.998 198.814 148.998 197.63V193.07H150.694V197.454C150.694 198.99 151.323 199.758 152.582 199.758C153.211 199.758 153.729 199.534 154.134 199.086C154.539 198.638 154.742 197.998 154.742 197.166V193.07H156.438V201.006H154.934L154.806 199.614C154.561 200.105 154.198 200.494 153.718 200.782C153.249 201.059 152.705 201.198 152.086 201.198ZM158.595 201.006V193.07H160.115L160.259 194.574C160.537 194.051 160.921 193.641 161.411 193.342C161.913 193.033 162.515 192.878 163.219 192.878V194.654H162.755C162.286 194.654 161.865 194.734 161.491 194.894C161.129 195.043 160.835 195.305 160.611 195.678C160.398 196.041 160.291 196.547 160.291 197.198V201.006H158.595ZM172.417 201.198C171.659 201.198 170.977 201.027 170.369 200.686C169.771 200.334 169.297 199.849 168.945 199.23C168.593 198.601 168.417 197.87 168.417 197.038C168.417 196.206 168.593 195.481 168.945 194.862C169.307 194.233 169.793 193.747 170.401 193.406C171.009 193.054 171.686 192.878 172.433 192.878C173.19 192.878 173.867 193.054 174.465 193.406C175.073 193.747 175.553 194.233 175.905 194.862C176.267 195.481 176.449 196.206 176.449 197.038C176.449 197.87 176.267 198.601 175.905 199.23C175.553 199.849 175.073 200.334 174.465 200.686C173.857 201.027 173.174 201.198 172.417 201.198ZM172.417 199.742C172.822 199.742 173.195 199.641 173.537 199.438C173.889 199.235 174.171 198.937 174.385 198.542C174.598 198.137 174.705 197.635 174.705 197.038C174.705 196.441 174.598 195.945 174.385 195.55C174.182 195.145 173.905 194.841 173.553 194.638C173.211 194.435 172.838 194.334 172.433 194.334C172.027 194.334 171.649 194.435 171.297 194.638C170.955 194.841 170.678 195.145 170.465 195.55C170.251 195.945 170.145 196.441 170.145 197.038C170.145 197.635 170.251 198.137 170.465 198.542C170.678 198.937 170.955 199.235 171.297 199.438C171.638 199.641 172.011 199.742 172.417 199.742ZM178.683 201.006V194.494H177.547V193.07H178.683V191.918C178.683 191.054 178.896 190.435 179.323 190.062C179.76 189.678 180.374 189.486 181.163 189.486H181.995V190.926H181.419C181.046 190.926 180.779 191.006 180.619 191.166C180.459 191.315 180.379 191.571 180.379 191.934V193.07H182.203V194.494H180.379V201.006H178.683ZM184.214 201.006V194.494H183.078V193.07H184.214V191.918C184.214 191.054 184.428 190.435 184.854 190.062C185.292 189.678 185.905 189.486 186.694 189.486H187.526V190.926H186.95C186.577 190.926 186.31 191.006 186.15 191.166C185.99 191.315 185.91 191.571 185.91 191.934V193.07H187.734V194.494H185.91V201.006H184.214ZM192.745 201.198C191.966 201.198 191.273 201.027 190.665 200.686C190.068 200.334 189.598 199.849 189.257 199.23C188.916 198.611 188.745 197.891 188.745 197.07C188.745 196.238 188.91 195.507 189.241 194.878C189.582 194.249 190.052 193.758 190.649 193.406C191.257 193.054 191.961 192.878 192.761 192.878C193.54 192.878 194.217 193.054 194.793 193.406C195.369 193.747 195.817 194.206 196.137 194.782C196.457 195.358 196.617 195.993 196.617 196.686C196.617 196.793 196.612 196.91 196.601 197.038C196.601 197.155 196.596 197.289 196.585 197.438H190.409C190.462 198.206 190.713 198.793 191.161 199.198C191.62 199.593 192.148 199.79 192.745 199.79C193.225 199.79 193.625 199.683 193.945 199.47C194.276 199.246 194.521 198.947 194.681 198.574H196.377C196.164 199.321 195.737 199.945 195.097 200.446C194.468 200.947 193.684 201.198 192.745 201.198ZM192.745 194.27C192.18 194.27 191.678 194.441 191.241 194.782C190.804 195.113 190.537 195.614 190.441 196.286H194.921C194.889 195.667 194.67 195.177 194.265 194.814C193.86 194.451 193.353 194.27 192.745 194.27ZM198.377 201.006V193.07H199.897L200.041 194.574C200.318 194.051 200.702 193.641 201.193 193.342C201.694 193.033 202.297 192.878 203.001 192.878V194.654H202.537C202.067 194.654 201.646 194.734 201.273 194.894C200.91 195.043 200.617 195.305 200.393 195.678C200.179 196.041 200.073 196.547 200.073 197.198V201.006H198.377ZM207.623 201.198C206.62 201.198 205.793 200.953 205.143 200.462C204.492 199.971 204.119 199.321 204.023 198.51H205.735C205.82 198.873 206.023 199.187 206.343 199.454C206.663 199.71 207.084 199.838 207.607 199.838C208.119 199.838 208.492 199.731 208.727 199.518C208.961 199.305 209.079 199.059 209.079 198.782C209.079 198.377 208.913 198.105 208.583 197.966C208.263 197.817 207.815 197.683 207.239 197.566C206.791 197.47 206.343 197.342 205.895 197.182C205.457 197.022 205.089 196.798 204.791 196.51C204.503 196.211 204.359 195.811 204.359 195.31C204.359 194.617 204.625 194.041 205.159 193.582C205.692 193.113 206.439 192.878 207.399 192.878C208.284 192.878 208.999 193.091 209.543 193.518C210.097 193.945 210.423 194.547 210.519 195.326H208.887C208.833 194.985 208.673 194.718 208.407 194.526C208.151 194.334 207.804 194.238 207.367 194.238C206.94 194.238 206.609 194.329 206.375 194.51C206.14 194.681 206.023 194.905 206.023 195.182C206.023 195.459 206.183 195.678 206.503 195.838C206.833 195.998 207.265 196.142 207.799 196.27C208.332 196.387 208.823 196.526 209.271 196.686C209.729 196.835 210.097 197.059 210.375 197.358C210.652 197.657 210.791 198.094 210.791 198.67C210.801 199.395 210.519 199.998 209.943 200.478C209.377 200.958 208.604 201.198 207.623 201.198ZM219.362 201.198C218.69 201.198 218.135 201.086 217.698 200.862C217.26 200.638 216.935 200.345 216.722 199.982C216.508 199.609 216.402 199.203 216.402 198.766C216.402 197.998 216.7 197.39 217.298 196.942C217.895 196.494 218.748 196.27 219.858 196.27H221.938V196.126C221.938 195.507 221.767 195.043 221.426 194.734C221.095 194.425 220.663 194.27 220.13 194.27C219.66 194.27 219.25 194.387 218.898 194.622C218.556 194.846 218.348 195.182 218.274 195.63H216.578C216.631 195.054 216.823 194.563 217.154 194.158C217.495 193.742 217.922 193.427 218.434 193.214C218.956 192.99 219.527 192.878 220.146 192.878C221.255 192.878 222.114 193.171 222.722 193.758C223.33 194.334 223.634 195.123 223.634 196.126V201.006H222.162L222.018 199.646C221.794 200.083 221.468 200.451 221.042 200.75C220.615 201.049 220.055 201.198 219.362 201.198ZM219.698 199.822C220.156 199.822 220.54 199.715 220.85 199.502C221.17 199.278 221.415 198.985 221.586 198.622C221.767 198.259 221.879 197.859 221.922 197.422H220.034C219.362 197.422 218.882 197.539 218.594 197.774C218.316 198.009 218.178 198.302 218.178 198.654C218.178 199.017 218.311 199.305 218.578 199.518C218.855 199.721 219.228 199.822 219.698 199.822ZM225.611 201.006V193.07H227.115L227.243 194.462C227.488 193.971 227.846 193.587 228.315 193.31C228.795 193.022 229.344 192.878 229.963 192.878C230.923 192.878 231.675 193.177 232.219 193.774C232.774 194.371 233.051 195.262 233.051 196.446V201.006H231.371V196.622C231.371 195.086 230.742 194.318 229.483 194.318C228.854 194.318 228.331 194.542 227.915 194.99C227.51 195.438 227.307 196.078 227.307 196.91V201.006H225.611ZM238.665 201.198C237.897 201.198 237.219 201.017 236.633 200.654C236.046 200.291 235.587 199.795 235.257 199.166C234.926 198.537 234.761 197.822 234.761 197.022C234.761 196.222 234.926 195.513 235.257 194.894C235.587 194.265 236.046 193.774 236.633 193.422C237.23 193.059 237.913 192.878 238.681 192.878C239.31 192.878 239.859 193.001 240.329 193.246C240.809 193.491 241.182 193.838 241.449 194.286V189.486H243.145V201.006H241.625L241.449 199.774C241.193 200.147 240.841 200.478 240.393 200.766C239.945 201.054 239.369 201.198 238.665 201.198ZM238.969 199.726C239.694 199.726 240.286 199.475 240.745 198.974C241.214 198.473 241.449 197.827 241.449 197.038C241.449 196.238 241.214 195.593 240.745 195.102C240.286 194.601 239.694 194.35 238.969 194.35C238.243 194.35 237.646 194.601 237.177 195.102C236.707 195.593 236.473 196.238 236.473 197.038C236.473 197.561 236.579 198.025 236.793 198.43C237.006 198.835 237.299 199.155 237.673 199.39C238.057 199.614 238.489 199.726 238.969 199.726ZM252.482 201.198C251.48 201.198 250.653 200.953 250.002 200.462C249.352 199.971 248.978 199.321 248.882 198.51H250.594C250.68 198.873 250.882 199.187 251.202 199.454C251.522 199.71 251.944 199.838 252.466 199.838C252.978 199.838 253.352 199.731 253.586 199.518C253.821 199.305 253.938 199.059 253.938 198.782C253.938 198.377 253.773 198.105 253.442 197.966C253.122 197.817 252.674 197.683 252.098 197.566C251.65 197.47 251.202 197.342 250.754 197.182C250.317 197.022 249.949 196.798 249.65 196.51C249.362 196.211 249.218 195.811 249.218 195.31C249.218 194.617 249.485 194.041 250.018 193.582C250.552 193.113 251.298 192.878 252.258 192.878C253.144 192.878 253.858 193.091 254.402 193.518C254.957 193.945 255.282 194.547 255.378 195.326H253.746C253.693 194.985 253.533 194.718 253.266 194.526C253.01 194.334 252.664 194.238 252.226 194.238C251.8 194.238 251.469 194.329 251.234 194.51C251 194.681 250.882 194.905 250.882 195.182C250.882 195.459 251.042 195.678 251.362 195.838C251.693 195.998 252.125 196.142 252.658 196.27C253.192 196.387 253.682 196.526 254.13 196.686C254.589 196.835 254.957 197.059 255.234 197.358C255.512 197.657 255.65 198.094 255.65 198.67C255.661 199.395 255.378 199.998 254.802 200.478C254.237 200.958 253.464 201.198 252.482 201.198ZM261.214 201.198C260.435 201.198 259.742 201.027 259.134 200.686C258.536 200.334 258.067 199.849 257.726 199.23C257.384 198.611 257.214 197.891 257.214 197.07C257.214 196.238 257.379 195.507 257.71 194.878C258.051 194.249 258.52 193.758 259.118 193.406C259.726 193.054 260.43 192.878 261.23 192.878C262.008 192.878 262.686 193.054 263.262 193.406C263.838 193.747 264.286 194.206 264.606 194.782C264.926 195.358 265.086 195.993 265.086 196.686C265.086 196.793 265.08 196.91 265.07 197.038C265.07 197.155 265.064 197.289 265.054 197.438H258.878C258.931 198.206 259.182 198.793 259.63 199.198C260.088 199.593 260.616 199.79 261.214 199.79C261.694 199.79 262.094 199.683 262.414 199.47C262.744 199.246 262.99 198.947 263.15 198.574H264.846C264.632 199.321 264.206 199.945 263.566 200.446C262.936 200.947 262.152 201.198 261.214 201.198ZM261.214 194.27C260.648 194.27 260.147 194.441 259.71 194.782C259.272 195.113 259.006 195.614 258.91 196.286H263.39C263.358 195.667 263.139 195.177 262.734 194.814C262.328 194.451 261.822 194.27 261.214 194.27ZM270.605 201.198C269.827 201.198 269.128 201.022 268.509 200.67C267.901 200.318 267.421 199.833 267.069 199.214C266.728 198.585 266.557 197.859 266.557 197.038C266.557 196.217 266.728 195.497 267.069 194.878C267.421 194.249 267.901 193.758 268.509 193.406C269.128 193.054 269.827 192.878 270.605 192.878C271.587 192.878 272.408 193.134 273.069 193.646C273.741 194.158 274.173 194.851 274.365 195.726H272.589C272.483 195.289 272.248 194.947 271.885 194.702C271.523 194.457 271.096 194.334 270.605 194.334C270.189 194.334 269.805 194.441 269.453 194.654C269.101 194.857 268.819 195.161 268.605 195.566C268.392 195.961 268.285 196.451 268.285 197.038C268.285 197.625 268.392 198.121 268.605 198.526C268.819 198.921 269.101 199.225 269.453 199.438C269.805 199.651 270.189 199.758 270.605 199.758C271.096 199.758 271.523 199.635 271.885 199.39C272.248 199.145 272.483 198.798 272.589 198.35H274.365C274.184 199.203 273.757 199.891 273.085 200.414C272.413 200.937 271.587 201.198 270.605 201.198ZM279.133 201.198C278.173 201.198 277.415 200.899 276.861 200.302C276.317 199.705 276.045 198.814 276.045 197.63V193.07H277.741V197.454C277.741 198.99 278.37 199.758 279.629 199.758C280.258 199.758 280.775 199.534 281.181 199.086C281.586 198.638 281.789 197.998 281.789 197.166V193.07H283.485V201.006H281.981L281.853 199.614C281.607 200.105 281.245 200.494 280.765 200.782C280.295 201.059 279.751 201.198 279.133 201.198ZM285.642 201.006V193.07H287.162L287.306 194.574C287.584 194.051 287.968 193.641 288.458 193.342C288.96 193.033 289.562 192.878 290.266 192.878V194.654H289.802C289.333 194.654 288.912 194.734 288.538 194.894C288.176 195.043 287.882 195.305 287.658 195.678C287.445 196.041 287.338 196.547 287.338 197.198V201.006H285.642ZM295.214 201.198C294.435 201.198 293.742 201.027 293.134 200.686C292.536 200.334 292.067 199.849 291.726 199.23C291.384 198.611 291.214 197.891 291.214 197.07C291.214 196.238 291.379 195.507 291.71 194.878C292.051 194.249 292.52 193.758 293.118 193.406C293.726 193.054 294.43 192.878 295.23 192.878C296.008 192.878 296.686 193.054 297.262 193.406C297.838 193.747 298.286 194.206 298.606 194.782C298.926 195.358 299.086 195.993 299.086 196.686C299.086 196.793 299.08 196.91 299.07 197.038C299.07 197.155 299.064 197.289 299.054 197.438H292.878C292.931 198.206 293.182 198.793 293.63 199.198C294.088 199.593 294.616 199.79 295.214 199.79C295.694 199.79 296.094 199.683 296.414 199.47C296.744 199.246 296.99 198.947 297.15 198.574H298.846C298.632 199.321 298.206 199.945 297.566 200.446C296.936 200.947 296.152 201.198 295.214 201.198ZM295.214 194.27C294.648 194.27 294.147 194.441 293.71 194.782C293.272 195.113 293.006 195.614 292.91 196.286H297.39C297.358 195.667 297.139 195.177 296.734 194.814C296.328 194.451 295.822 194.27 295.214 194.27ZM305.805 204.526L307.709 200.35H307.245L304.109 193.07H305.949L308.381 198.942L310.925 193.07H312.717L307.597 204.526H305.805ZM317.104 201.198C316.347 201.198 315.664 201.027 315.056 200.686C314.459 200.334 313.984 199.849 313.632 199.23C313.28 198.601 313.104 197.87 313.104 197.038C313.104 196.206 313.28 195.481 313.632 194.862C313.995 194.233 314.48 193.747 315.088 193.406C315.696 193.054 316.374 192.878 317.12 192.878C317.878 192.878 318.555 193.054 319.152 193.406C319.76 193.747 320.24 194.233 320.592 194.862C320.955 195.481 321.136 196.206 321.136 197.038C321.136 197.87 320.955 198.601 320.592 199.23C320.24 199.849 319.76 200.334 319.152 200.686C318.544 201.027 317.862 201.198 317.104 201.198ZM317.104 199.742C317.51 199.742 317.883 199.641 318.224 199.438C318.576 199.235 318.859 198.937 319.072 198.542C319.286 198.137 319.392 197.635 319.392 197.038C319.392 196.441 319.286 195.945 319.072 195.55C318.87 195.145 318.592 194.841 318.24 194.638C317.899 194.435 317.526 194.334 317.12 194.334C316.715 194.334 316.336 194.435 315.984 194.638C315.643 194.841 315.366 195.145 315.152 195.55C314.939 195.945 314.832 196.441 314.832 197.038C314.832 197.635 314.939 198.137 315.152 198.542C315.366 198.937 315.643 199.235 315.984 199.438C316.326 199.641 316.699 199.742 317.104 199.742ZM325.898 201.198C324.938 201.198 324.181 200.899 323.626 200.302C323.082 199.705 322.81 198.814 322.81 197.63V193.07H324.506V197.454C324.506 198.99 325.136 199.758 326.394 199.758C327.024 199.758 327.541 199.534 327.946 199.086C328.352 198.638 328.554 197.998 328.554 197.166V193.07H330.25V201.006H328.746L328.618 199.614C328.373 200.105 328.01 200.494 327.53 200.782C327.061 201.059 326.517 201.198 325.898 201.198ZM332.408 201.006V193.07H333.928L334.072 194.574C334.349 194.051 334.733 193.641 335.224 193.342C335.725 193.033 336.328 192.878 337.032 192.878V194.654H336.568C336.099 194.654 335.677 194.734 335.304 194.894C334.941 195.043 334.648 195.305 334.424 195.678C334.211 196.041 334.104 196.547 334.104 197.198V201.006H332.408ZM346.133 201.198C345.365 201.198 344.688 201.017 344.101 200.654C343.515 200.291 343.056 199.795 342.725 199.166C342.395 198.537 342.229 197.822 342.229 197.022C342.229 196.222 342.395 195.513 342.725 194.894C343.056 194.265 343.515 193.774 344.101 193.422C344.699 193.059 345.381 192.878 346.149 192.878C346.779 192.878 347.328 193.001 347.797 193.246C348.277 193.491 348.651 193.838 348.917 194.286V189.486H350.613V201.006H349.093L348.917 199.774C348.661 200.147 348.309 200.478 347.861 200.766C347.413 201.054 346.837 201.198 346.133 201.198ZM346.437 199.726C347.163 199.726 347.755 199.475 348.213 198.974C348.683 198.473 348.917 197.827 348.917 197.038C348.917 196.238 348.683 195.593 348.213 195.102C347.755 194.601 347.163 194.35 346.437 194.35C345.712 194.35 345.115 194.601 344.645 195.102C344.176 195.593 343.941 196.238 343.941 197.038C343.941 197.561 344.048 198.025 344.261 198.43C344.475 198.835 344.768 199.155 345.141 199.39C345.525 199.614 345.957 199.726 346.437 199.726ZM356.464 201.198C355.685 201.198 354.992 201.027 354.384 200.686C353.786 200.334 353.317 199.849 352.976 199.23C352.634 198.611 352.464 197.891 352.464 197.07C352.464 196.238 352.629 195.507 352.96 194.878C353.301 194.249 353.77 193.758 354.368 193.406C354.976 193.054 355.68 192.878 356.48 192.878C357.258 192.878 357.936 193.054 358.512 193.406C359.088 193.747 359.536 194.206 359.856 194.782C360.176 195.358 360.336 195.993 360.336 196.686C360.336 196.793 360.33 196.91 360.32 197.038C360.32 197.155 360.314 197.289 360.304 197.438H354.128C354.181 198.206 354.432 198.793 354.88 199.198C355.338 199.593 355.866 199.79 356.464 199.79C356.944 199.79 357.344 199.683 357.664 199.47C357.994 199.246 358.24 198.947 358.4 198.574H360.096C359.882 199.321 359.456 199.945 358.816 200.446C358.186 200.947 357.402 201.198 356.464 201.198ZM356.464 194.27C355.898 194.27 355.397 194.441 354.96 194.782C354.522 195.113 354.256 195.614 354.16 196.286H358.64C358.608 195.667 358.389 195.177 357.984 194.814C357.578 194.451 357.072 194.27 356.464 194.27ZM365.263 201.198C364.261 201.198 363.434 200.953 362.783 200.462C362.133 199.971 361.759 199.321 361.663 198.51H363.375C363.461 198.873 363.663 199.187 363.983 199.454C364.303 199.71 364.725 199.838 365.247 199.838C365.759 199.838 366.133 199.731 366.367 199.518C366.602 199.305 366.719 199.059 366.719 198.782C366.719 198.377 366.554 198.105 366.223 197.966C365.903 197.817 365.455 197.683 364.879 197.566C364.431 197.47 363.983 197.342 363.535 197.182C363.098 197.022 362.73 196.798 362.431 196.51C362.143 196.211 361.999 195.811 361.999 195.31C361.999 194.617 362.266 194.041 362.799 193.582C363.333 193.113 364.079 192.878 365.039 192.878C365.925 192.878 366.639 193.091 367.183 193.518C367.738 193.945 368.063 194.547 368.159 195.326H366.527C366.474 194.985 366.314 194.718 366.047 194.526C365.791 194.334 365.445 194.238 365.007 194.238C364.581 194.238 364.25 194.329 364.015 194.51C363.781 194.681 363.663 194.905 363.663 195.182C363.663 195.459 363.823 195.678 364.143 195.838C364.474 195.998 364.906 196.142 365.439 196.27C365.973 196.387 366.463 196.526 366.911 196.686C367.37 196.835 367.738 197.059 368.015 197.358C368.293 197.657 368.431 198.094 368.431 198.67C368.442 199.395 368.159 199.998 367.583 200.478C367.018 200.958 366.245 201.198 365.263 201.198ZM371.243 191.566C370.923 191.566 370.656 191.47 370.443 191.278C370.24 191.075 370.139 190.825 370.139 190.526C370.139 190.227 370.24 189.982 370.443 189.79C370.656 189.587 370.923 189.486 371.243 189.486C371.563 189.486 371.824 189.587 372.027 189.79C372.24 189.982 372.347 190.227 372.347 190.526C372.347 190.825 372.24 191.075 372.027 191.278C371.824 191.47 371.563 191.566 371.243 191.566ZM370.395 201.006V193.07H372.091V201.006H370.395ZM374.33 201.006V193.07H375.85L375.994 194.574C376.271 194.051 376.655 193.641 377.146 193.342C377.647 193.033 378.25 192.878 378.954 192.878V194.654H378.49C378.02 194.654 377.599 194.734 377.226 194.894C376.863 195.043 376.57 195.305 376.346 195.678C376.132 196.041 376.026 196.547 376.026 197.198V201.006H374.33ZM383.901 201.198C383.123 201.198 382.429 201.027 381.821 200.686C381.224 200.334 380.755 199.849 380.413 199.23C380.072 198.611 379.901 197.891 379.901 197.07C379.901 196.238 380.067 195.507 380.397 194.878C380.739 194.249 381.208 193.758 381.805 193.406C382.413 193.054 383.117 192.878 383.917 192.878C384.696 192.878 385.373 193.054 385.949 193.406C386.525 193.747 386.973 194.206 387.293 194.782C387.613 195.358 387.773 195.993 387.773 196.686C387.773 196.793 387.768 196.91 387.757 197.038C387.757 197.155 387.752 197.289 387.741 197.438H381.565C381.619 198.206 381.869 198.793 382.317 199.198C382.776 199.593 383.304 199.79 383.901 199.79C384.381 199.79 384.781 199.683 385.101 199.47C385.432 199.246 385.677 198.947 385.837 198.574H387.533C387.32 199.321 386.893 199.945 386.253 200.446C385.624 200.947 384.84 201.198 383.901 201.198ZM383.901 194.27C383.336 194.27 382.835 194.441 382.397 194.782C381.96 195.113 381.693 195.614 381.597 196.286H386.077C386.045 195.667 385.827 195.177 385.421 194.814C385.016 194.451 384.509 194.27 383.901 194.27ZM393.149 201.198C392.381 201.198 391.704 201.017 391.117 200.654C390.53 200.291 390.072 199.795 389.741 199.166C389.41 198.537 389.245 197.822 389.245 197.022C389.245 196.222 389.41 195.513 389.741 194.894C390.072 194.265 390.53 193.774 391.117 193.422C391.714 193.059 392.397 192.878 393.165 192.878C393.794 192.878 394.344 193.001 394.813 193.246C395.293 193.491 395.666 193.838 395.933 194.286V189.486H397.629V201.006H396.109L395.933 199.774C395.677 200.147 395.325 200.478 394.877 200.766C394.429 201.054 393.853 201.198 393.149 201.198ZM393.453 199.726C394.178 199.726 394.77 199.475 395.229 198.974C395.698 198.473 395.933 197.827 395.933 197.038C395.933 196.238 395.698 195.593 395.229 195.102C394.77 194.601 394.178 194.35 393.453 194.35C392.728 194.35 392.13 194.601 391.661 195.102C391.192 195.593 390.957 196.238 390.957 197.038C390.957 197.561 391.064 198.025 391.277 198.43C391.49 198.835 391.784 199.155 392.157 199.39C392.541 199.614 392.973 199.726 393.453 199.726ZM407.511 201.198C406.753 201.198 406.071 201.027 405.463 200.686C404.865 200.334 404.391 199.849 404.039 199.23C403.687 198.601 403.511 197.87 403.511 197.038C403.511 196.206 403.687 195.481 404.039 194.862C404.401 194.233 404.887 193.747 405.495 193.406C406.103 193.054 406.78 192.878 407.527 192.878C408.284 192.878 408.961 193.054 409.559 193.406C410.167 193.747 410.647 194.233 410.999 194.862C411.361 195.481 411.543 196.206 411.543 197.038C411.543 197.87 411.361 198.601 410.999 199.23C410.647 199.849 410.167 200.334 409.559 200.686C408.951 201.027 408.268 201.198 407.511 201.198ZM407.511 199.742C407.916 199.742 408.289 199.641 408.631 199.438C408.983 199.235 409.265 198.937 409.479 198.542C409.692 198.137 409.799 197.635 409.799 197.038C409.799 196.441 409.692 195.945 409.479 195.55C409.276 195.145 408.999 194.841 408.647 194.638C408.305 194.435 407.932 194.334 407.527 194.334C407.121 194.334 406.743 194.435 406.391 194.638C406.049 194.841 405.772 195.145 405.559 195.55C405.345 195.945 405.239 196.441 405.239 197.038C405.239 197.635 405.345 198.137 405.559 198.542C405.772 198.937 406.049 199.235 406.391 199.438C406.732 199.641 407.105 199.742 407.511 199.742ZM413.377 204.526V193.07H414.897L415.073 194.302C415.329 193.929 415.681 193.598 416.129 193.31C416.577 193.022 417.153 192.878 417.857 192.878C418.625 192.878 419.302 193.059 419.889 193.422C420.475 193.785 420.934 194.281 421.265 194.91C421.606 195.539 421.777 196.254 421.777 197.054C421.777 197.854 421.606 198.569 421.265 199.198C420.934 199.817 420.475 200.307 419.889 200.67C419.302 201.022 418.619 201.198 417.841 201.198C417.222 201.198 416.673 201.075 416.193 200.83C415.723 200.585 415.35 200.238 415.073 199.79V204.526H413.377ZM417.553 199.726C418.278 199.726 418.875 199.481 419.345 198.99C419.814 198.489 420.049 197.838 420.049 197.038C420.049 196.515 419.942 196.051 419.729 195.646C419.515 195.241 419.222 194.926 418.849 194.702C418.475 194.467 418.043 194.35 417.553 194.35C416.827 194.35 416.23 194.601 415.761 195.102C415.302 195.603 415.073 196.249 415.073 197.038C415.073 197.838 415.302 198.489 415.761 198.99C416.23 199.481 416.827 199.726 417.553 199.726ZM426.627 201.006C425.848 201.006 425.229 200.819 424.771 200.446C424.312 200.062 424.083 199.385 424.083 198.414V194.494H422.723V193.07H424.083L424.291 191.054H425.779V193.07H428.019V194.494H425.779V198.414C425.779 198.851 425.869 199.155 426.051 199.326C426.243 199.486 426.568 199.566 427.027 199.566H427.939V201.006H426.627ZM430.727 191.566C430.407 191.566 430.141 191.47 429.927 191.278C429.725 191.075 429.623 190.825 429.623 190.526C429.623 190.227 429.725 189.982 429.927 189.79C430.141 189.587 430.407 189.486 430.727 189.486C431.047 189.486 431.309 189.587 431.511 189.79C431.725 189.982 431.831 190.227 431.831 190.526C431.831 190.825 431.725 191.075 431.511 191.278C431.309 191.47 431.047 191.566 430.727 191.566ZM429.879 201.006V193.07H431.575V201.006H429.879ZM437.526 201.198C436.769 201.198 436.086 201.027 435.478 200.686C434.881 200.334 434.406 199.849 434.054 199.23C433.702 198.601 433.526 197.87 433.526 197.038C433.526 196.206 433.702 195.481 434.054 194.862C434.417 194.233 434.902 193.747 435.51 193.406C436.118 193.054 436.796 192.878 437.542 192.878C438.3 192.878 438.977 193.054 439.574 193.406C440.182 193.747 440.662 194.233 441.014 194.862C441.377 195.481 441.558 196.206 441.558 197.038C441.558 197.87 441.377 198.601 441.014 199.23C440.662 199.849 440.182 200.334 439.574 200.686C438.966 201.027 438.284 201.198 437.526 201.198ZM437.526 199.742C437.932 199.742 438.305 199.641 438.646 199.438C438.998 199.235 439.281 198.937 439.494 198.542C439.708 198.137 439.814 197.635 439.814 197.038C439.814 196.441 439.708 195.945 439.494 195.55C439.292 195.145 439.014 194.841 438.662 194.638C438.321 194.435 437.948 194.334 437.542 194.334C437.137 194.334 436.758 194.435 436.406 194.638C436.065 194.841 435.788 195.145 435.574 195.55C435.361 195.945 435.254 196.441 435.254 197.038C435.254 197.635 435.361 198.137 435.574 198.542C435.788 198.937 436.065 199.235 436.406 199.438C436.748 199.641 437.121 199.742 437.526 199.742ZM443.392 201.006V193.07H444.896L445.024 194.462C445.27 193.971 445.627 193.587 446.096 193.31C446.576 193.022 447.126 192.878 447.744 192.878C448.704 192.878 449.456 193.177 450 193.774C450.555 194.371 450.832 195.262 450.832 196.446V201.006H449.152V196.622C449.152 195.086 448.523 194.318 447.264 194.318C446.635 194.318 446.112 194.542 445.696 194.99C445.291 195.438 445.088 196.078 445.088 196.91V201.006H443.392ZM460.189 201.006C459.41 201.006 458.792 200.819 458.333 200.446C457.874 200.062 457.645 199.385 457.645 198.414V194.494H456.285V193.07H457.645L457.853 191.054H459.341V193.07H461.581V194.494H459.341V198.414C459.341 198.851 459.432 199.155 459.613 199.326C459.805 199.486 460.13 199.566 460.589 199.566H461.501V201.006H460.189ZM466.839 201.198C466.081 201.198 465.399 201.027 464.791 200.686C464.193 200.334 463.719 199.849 463.367 199.23C463.015 198.601 462.839 197.87 462.839 197.038C462.839 196.206 463.015 195.481 463.367 194.862C463.729 194.233 464.215 193.747 464.823 193.406C465.431 193.054 466.108 192.878 466.855 192.878C467.612 192.878 468.289 193.054 468.887 193.406C469.495 193.747 469.975 194.233 470.327 194.862C470.689 195.481 470.871 196.206 470.871 197.038C470.871 197.87 470.689 198.601 470.327 199.23C469.975 199.849 469.495 200.334 468.887 200.686C468.279 201.027 467.596 201.198 466.839 201.198ZM466.839 199.742C467.244 199.742 467.617 199.641 467.959 199.438C468.311 199.235 468.593 198.937 468.807 198.542C469.02 198.137 469.127 197.635 469.127 197.038C469.127 196.441 469.02 195.945 468.807 195.55C468.604 195.145 468.327 194.841 467.975 194.638C467.633 194.435 467.26 194.334 466.855 194.334C466.449 194.334 466.071 194.435 465.719 194.638C465.377 194.841 465.1 195.145 464.887 195.55C464.673 195.945 464.567 196.441 464.567 197.038C464.567 197.635 464.673 198.137 464.887 198.542C465.1 198.937 465.377 199.235 465.719 199.438C466.06 199.641 466.433 199.742 466.839 199.742ZM476.321 201.198C475.553 201.198 474.875 201.017 474.289 200.654C473.702 200.291 473.243 199.795 472.913 199.166C472.582 198.537 472.417 197.822 472.417 197.022C472.417 196.222 472.582 195.513 472.913 194.894C473.243 194.265 473.702 193.774 474.289 193.422C474.886 193.059 475.569 192.878 476.337 192.878C476.966 192.878 477.515 193.001 477.985 193.246C478.465 193.491 478.838 193.838 479.105 194.286V189.486H480.801V201.006H479.281L479.105 199.774C478.849 200.147 478.497 200.478 478.049 200.766C477.601 201.054 477.025 201.198 476.321 201.198ZM476.625 199.726C477.35 199.726 477.942 199.475 478.401 198.974C478.87 198.473 479.105 197.827 479.105 197.038C479.105 196.238 478.87 195.593 478.401 195.102C477.942 194.601 477.35 194.35 476.625 194.35C475.899 194.35 475.302 194.601 474.833 195.102C474.363 195.593 474.129 196.238 474.129 197.038C474.129 197.561 474.235 198.025 474.449 198.43C474.662 198.835 474.955 199.155 475.329 199.39C475.713 199.614 476.145 199.726 476.625 199.726ZM485.627 201.198C484.955 201.198 484.401 201.086 483.963 200.862C483.526 200.638 483.201 200.345 482.987 199.982C482.774 199.609 482.667 199.203 482.667 198.766C482.667 197.998 482.966 197.39 483.563 196.942C484.161 196.494 485.014 196.27 486.123 196.27H488.203V196.126C488.203 195.507 488.033 195.043 487.691 194.734C487.361 194.425 486.929 194.27 486.395 194.27C485.926 194.27 485.515 194.387 485.163 194.622C484.822 194.846 484.614 195.182 484.539 195.63H482.843C482.897 195.054 483.089 194.563 483.419 194.158C483.761 193.742 484.187 193.427 484.699 193.214C485.222 192.99 485.793 192.878 486.411 192.878C487.521 192.878 488.379 193.171 488.987 193.758C489.595 194.334 489.899 195.123 489.899 196.126V201.006H488.427L488.283 199.646C488.059 200.083 487.734 200.451 487.307 200.75C486.881 201.049 486.321 201.198 485.627 201.198ZM485.963 199.822C486.422 199.822 486.806 199.715 487.115 199.502C487.435 199.278 487.681 198.985 487.851 198.622C488.033 198.259 488.145 197.859 488.187 197.422H486.299C485.627 197.422 485.147 197.539 484.859 197.774C484.582 198.009 484.443 198.302 484.443 198.654C484.443 199.017 484.577 199.305 484.843 199.518C485.121 199.721 485.494 199.822 485.963 199.822ZM492.555 204.526L494.459 200.35H493.995L490.859 193.07H492.699L495.131 198.942L497.675 193.07H499.467L494.347 204.526H492.555ZM501.213 197.694L501.021 189.806H502.845L502.653 197.694H501.213ZM501.981 201.102C501.65 201.102 501.378 201.001 501.165 200.798C500.962 200.585 500.861 200.334 500.861 200.046C500.861 199.747 500.962 199.497 501.165 199.294C501.378 199.081 501.65 198.974 501.981 198.974C502.29 198.974 502.546 199.081 502.749 199.294C502.962 199.497 503.069 199.747 503.069 200.046C503.069 200.334 502.962 200.585 502.749 200.798C502.546 201.001 502.29 201.102 501.981 201.102Z" fill="#4A423B"/>
<defs>
<linearGradient id="paint0_linear_258_5888" x1="253.301" y1="106.559" x2="340.23" y2="106.559" gradientUnits="userSpaceOnUse">
<stop stop-color="#F9FAFA"/>
<stop offset="1" stop-color="#EEF0F1"/>
</linearGradient>
<linearGradient id="paint1_linear_258_5888" x1="310.031" y1="106.558" x2="340.229" y2="106.558" gradientUnits="userSpaceOnUse">
<stop stop-color="#F5F5F5" stop-opacity="0"/>
<stop offset="1" stop-color="#EEF0F1"/>
</linearGradient>
<linearGradient id="paint2_linear_258_5888" x1="241.127" y1="106.561" x2="265.477" y2="106.561" gradientUnits="userSpaceOnUse">
<stop stop-color="white" stop-opacity="0"/>
<stop offset="1" stop-color="#EEF0F1"/>
</linearGradient>
<linearGradient id="paint3_linear_258_5888" x1="216.777" y1="12.7204" x2="241.127" y2="12.7204" gradientUnits="userSpaceOnUse">
<stop stop-color="white"/>
<stop offset="1" stop-color="#EEF0F1"/>
</linearGradient>
</defs>
</svg>
