<svg width="143" height="128" viewBox="0 0 143 128" fill="none" xmlns="http://www.w3.org/2000/svg">
<path d="M126.755 17.0775L122.523 21.3086L123.868 22.6532L128.099 18.4221L126.755 17.0775Z" fill="#E0E1E1"/>
<path d="M119.214 12.8594H117.312V18.8431H119.214V12.8594Z" fill="#E0E1E1"/>
<path d="M132.476 25.5996H126.492V27.5012H132.476V25.5996Z" fill="#E0E1E1"/>
<path d="M125.23 94.9941V105.941C125.23 107.54 124.915 109.124 124.303 110.601C123.691 112.078 122.794 113.421 121.663 114.551C120.533 115.682 119.19 116.579 117.713 117.191C116.236 117.803 114.652 118.118 113.053 118.118H38.3008C41.5207 118.088 44.6003 116.795 46.8769 114.518C49.1536 112.241 50.4453 109.161 50.4742 105.941V94.9973L125.23 94.9941Z" fill="url(#paint0_linear_258_6303)"/>
<path style="mix-blend-mode:multiply" d="M125.229 94.9931V105.94C125.229 107.539 124.914 109.123 124.302 110.6C123.69 112.077 122.793 113.42 121.662 114.55C120.532 115.681 119.189 116.578 117.712 117.19C116.235 117.802 114.651 118.117 113.052 118.117H95.0312C95.3482 117.378 94.3625 119.153 108.314 94.9805L125.229 94.9931Z" fill="url(#paint1_linear_258_6303)"/>
<path d="M50.4767 94.9961V105.94C50.5028 107.555 50.2071 109.16 49.6069 110.66C49.0068 112.16 48.1141 113.525 46.981 114.677C45.8479 115.828 44.4969 116.743 43.0068 117.367C41.5167 117.991 39.9172 118.313 38.3016 118.313C36.686 118.313 35.0866 117.991 33.5965 117.367C32.1064 116.743 30.7554 115.828 29.6223 114.677C28.4891 113.525 27.5965 112.16 26.9963 110.66C26.3962 109.16 26.1005 107.555 26.1266 105.94V94.9961H50.4767Z" fill="url(#paint2_linear_258_6303)"/>
<path d="M1.77502 24.2822H26.1251V13.3321C26.1512 11.7167 25.8555 10.1123 25.2554 8.61229C24.6552 7.1123 23.7626 5.74675 22.6294 4.59518C21.4963 3.4436 20.1453 2.52904 18.6552 1.90476C17.1651 1.28049 15.5657 0.958984 13.9501 0.958984C12.3345 0.958984 10.735 1.28049 9.24494 1.90476C7.75484 2.52904 6.40386 3.4436 5.27072 4.59518C4.13757 5.74675 3.24492 7.1123 2.64477 8.61229C2.04462 10.1123 1.74896 11.7167 1.77502 13.3321V24.2822Z" fill="url(#paint3_linear_258_6303)"/>
<path d="M99.1699 21.2525L98.0511 22.3839L108.339 31.4483V95.4375H50.5299V106.372C50.556 107.987 50.2603 109.592 49.6602 111.091C49.06 112.591 48.1674 113.957 47.0342 115.109C45.9011 116.26 44.5501 117.175 43.06 117.799C41.5699 118.423 39.9705 118.745 38.3549 118.745C36.7393 118.745 35.1398 118.423 33.6497 117.799C32.1596 117.175 30.8086 116.26 29.6755 115.109C28.5424 113.957 27.6497 112.591 27.0496 111.091C26.4494 109.592 26.1537 107.987 26.1798 106.372V84.1863L37.3423 73.6577L36.813 73.1221H26.1798V13.7601C26.1781 10.5312 24.8941 7.43522 22.61 5.15294C20.3259 2.87065 17.2289 1.589 14 1.58984H96.159C99.3879 1.589 102.485 2.87065 104.769 5.15294C107.053 7.43522 108.337 10.5312 108.339 13.7601V21.2525H99.1699Z" fill="#F9FAFA"/>
<path d="M38.3025 119.073C31.1873 119.073 25.1782 113.052 25.1782 105.946V83.3391L35.4628 73.6377H25.1782V13.3281C25.174 10.3522 23.9893 7.49946 21.8841 5.39603C19.7789 3.2926 16.9252 2.11032 13.9492 2.10864V0.207031H96.1083C99.5883 0.209546 102.925 1.59245 105.387 4.05232C107.849 6.51218 109.234 9.8481 109.239 13.3281V21.7713H99.5153L99.3885 21.8981L109.239 30.5757V95.9467H51.4299V105.94C51.4299 113.061 45.4177 119.073 38.3025 119.073ZM27.0798 84.1599V105.94C27.0798 112.025 32.2205 117.166 38.3025 117.166C44.3845 117.166 49.5283 112.025 49.5283 105.94V94.0451H107.337V31.4346L96.6122 21.9836L98.7261 19.8697H107.337V13.3281C107.333 10.3522 106.148 7.49946 104.043 5.39603C101.938 3.2926 99.0842 2.11032 96.1083 2.10864H20.7506C22.6829 3.27575 24.2814 4.9215 25.3918 6.88687C26.5022 8.85224 27.0868 11.0708 27.0893 13.3281V71.7361H37.1647L38.6638 73.2415L27.0798 84.1599Z" fill="#E0E1E1"/>
<path d="M91.7847 29.4976H79.757L74.6797 24.4172L76.0235 23.0734L80.5462 27.596H90.9955L98.7224 19.8691H108.284V21.7708H99.5115L91.7847 29.4976Z" fill="#E0E1E1"/>
<path d="M118.638 34.4521L109.473 25.7871H118.638V34.4521Z" fill="#F5F5F5"/>
<path d="M27.0775 25.2323H0.825804V13.3314C0.798751 11.5905 1.11827 9.86167 1.76577 8.24546C2.41326 6.62926 3.37579 5.158 4.59732 3.91734C5.81885 2.67667 7.27498 1.6914 8.88093 1.01887C10.4869 0.346345 12.2106 0 13.9517 0C15.6927 0 17.4164 0.346345 19.0224 1.01887C20.6283 1.6914 22.0845 2.67667 23.306 3.91734C24.5275 5.158 25.4901 6.62926 26.1376 8.24546C26.7851 9.86167 27.1046 11.5905 27.0775 13.3314V25.2323ZM2.72741 23.3307H25.1759V13.3314C25.2009 11.8416 24.9291 10.3616 24.3763 8.97789C23.8235 7.59417 23.0007 6.33436 21.9559 5.2719C20.9112 4.20945 19.6654 3.36562 18.2911 2.78961C16.9169 2.21361 15.4417 1.91696 13.9517 1.91696C12.4616 1.91696 10.9864 2.21361 9.61219 2.78961C8.23796 3.36562 6.99214 4.20945 5.94739 5.2719C4.90264 6.33436 4.07986 7.59417 3.52703 8.97789C2.9742 10.3616 2.70238 11.8416 2.72741 13.3314V23.3307ZM38.3002 119.074V117.172C44.3853 117.172 49.526 112.031 49.526 105.946V94.0452H126.18V105.94C126.175 109.271 124.906 112.476 122.63 114.907C120.353 117.339 117.238 118.815 113.915 119.039C113.911 119.096 117.629 119.074 38.3002 119.074ZM44.997 117.172H113.052C116.03 117.169 118.884 115.984 120.989 113.878C123.094 111.772 124.277 108.917 124.278 105.94V95.9469H51.4276V105.94C51.4043 108.205 50.8011 110.427 49.6753 112.394C48.5496 114.36 46.939 116.005 44.997 117.172Z" fill="#E0E1E1"/>
<path d="M64.3315 88.3805L58.3129 82.3588H45.084L36.362 73.6399H26.125V71.7383H37.1512L45.87 80.4572H59.0989L65.6753 87.0336L64.3315 88.3805Z" fill="#E0E1E1"/>
<path d="M17.7031 85.18L25.0687 77.8145H17.7031V85.18Z" fill="#F5F5F5"/>
<path d="M119.586 36.6576L107.076 24.8359H119.586V36.6576ZM111.859 26.7375L117.684 32.2459V26.7375H111.859ZM16.75 87.475V76.864H27.361L16.75 87.475ZM18.6516 78.7656V82.8857L22.7718 78.7656H18.6516Z" fill="#E0E1E1"/>
<path d="M120.945 84.6665H119.043V82.7649H120.945V84.6665ZM120.945 79.5956H119.043V77.694H120.945V79.5956ZM120.945 74.5246H119.043V72.623H120.945V74.5246ZM120.945 69.4537H119.043V67.5521H120.945V69.4537ZM120.945 64.3827H119.043V62.4811H120.945V64.3827ZM120.945 59.3118H119.043V57.4101H120.945V59.3118ZM120.945 54.2408H119.043V52.3392H120.945V54.2408ZM120.945 49.1698H119.043V47.2682H120.945V49.1698ZM120.945 44.0989H119.043V42.1973H120.945V44.0989ZM19.7571 126.122H17.8555V124.22H19.7571V126.122ZM19.7571 121.051H17.8555V119.149H19.7571V121.051ZM19.7571 115.98H17.8555V114.078H19.7571V115.98ZM19.7571 110.909H17.8555V109.007H19.7571V110.909ZM19.7571 105.838H17.8555V103.936H19.7571V105.838ZM19.7571 100.767H17.8555V98.8652H19.7571V100.767ZM19.7571 95.6959H17.8555V93.7943H19.7571V95.6959ZM95.9514 126.248H94.0498V124.347H95.9514V126.248ZM90.8804 126.248H88.9788V124.347H90.8804V126.248ZM85.8095 126.248H83.9079V124.347H85.8095V126.248ZM80.7385 126.248H78.8369V124.347H80.7385V126.248ZM75.6676 126.248H73.766V124.347H75.6676V126.248ZM70.5966 126.248H68.695V124.347H70.5966V126.248ZM65.5257 126.248H63.624V124.347H65.5257V126.248ZM60.4547 126.248H58.5531V124.347H60.4547V126.248ZM55.3837 126.248H53.4821V124.347H55.3837V126.248ZM50.3128 126.248H48.4112V124.347H50.3128V126.248ZM45.2418 126.248H43.3402V124.347H45.2418V126.248ZM40.1709 126.248H38.2692V124.347H40.1709V126.248ZM35.0999 126.248H33.1983V124.347H35.0999V126.248ZM30.0289 126.248H28.1273V124.347H30.0289V126.248ZM24.958 126.248H23.0564V124.347H24.958V126.248Z" fill="#C39D63" fill-opacity="0.05"/>
<path d="M124.237 91.4233L140.566 119.703C140.996 120.448 141.222 121.293 141.222 122.153C141.222 123.013 140.996 123.858 140.566 124.603C140.135 125.348 139.517 125.967 138.772 126.397C138.027 126.827 137.182 127.053 136.322 127.053H103.678C102.817 127.053 101.972 126.827 101.228 126.397C100.483 125.967 99.864 125.348 99.4339 124.603C99.0038 123.858 98.7774 123.013 98.7773 122.153C98.7773 121.293 99.0037 120.448 99.4338 119.703L115.762 91.4233C116.192 90.6804 116.81 90.0636 117.554 89.6349C118.298 89.2061 119.141 88.9805 120 88.9805C120.858 88.9805 121.702 89.2061 122.445 89.6349C123.189 90.0636 123.807 90.6804 124.237 91.4233Z" fill="#F5F5F5"/>
<path d="M136.323 128.005H103.679C102.652 128.006 101.642 127.736 100.752 127.223C99.8623 126.71 99.1231 125.971 98.6091 125.082C98.0951 124.192 97.8244 123.183 97.8242 122.156C97.824 121.129 98.0944 120.119 98.6081 119.23L114.924 90.9494C115.436 90.0572 116.175 89.316 117.065 88.8006C117.955 88.2851 118.966 88.0137 119.995 88.0137C121.024 88.0137 122.034 88.2851 122.925 88.8006C123.815 89.316 124.554 90.0572 125.066 90.9494L141.391 119.23C141.906 120.119 142.177 121.128 142.177 122.156C142.178 123.183 141.907 124.192 141.394 125.082C140.88 125.972 140.141 126.711 139.251 127.224C138.36 127.737 137.351 128.007 136.323 128.005ZM116.575 91.9002L100.25 120.18C99.9022 120.78 99.7189 121.462 99.7184 122.155C99.7179 122.849 99.9002 123.53 100.247 124.131C100.594 124.731 101.093 125.23 101.694 125.576C102.294 125.923 102.976 126.105 103.67 126.104H136.314C137.007 126.104 137.688 125.921 138.288 125.575C138.889 125.228 139.387 124.73 139.734 124.129C140.08 123.529 140.263 122.848 140.263 122.155C140.263 121.462 140.08 120.781 139.734 120.18L123.415 91.9002C123.069 91.2992 122.57 90.8 121.97 90.4528C121.37 90.1057 120.688 89.9229 119.995 89.9229C119.301 89.9229 118.62 90.1057 118.02 90.4528C117.419 90.8 116.921 91.2992 116.575 91.9002Z" fill="#E0E1E1"/>
<path d="M116.785 99.0693V107.956L117.787 113.509H119.989V113.512L122.192 113.509L123.197 107.953L123.2 99.0566L116.785 99.0693Z" fill="#D93F21" fill-opacity="0.46"/>
<path d="M122.396 117.469H117.582V122.283H122.396V117.469Z" fill="#D93F21" fill-opacity="0.46"/>
<path d="M15.985 51.6805C15.3936 51.6811 14.8153 51.5063 14.3234 51.1782C13.8314 50.85 13.4478 50.3833 13.2212 49.837C12.9946 49.2908 12.9352 48.6896 13.0504 48.1095C13.1656 47.5295 13.4503 46.9967 13.8685 46.5785C14.2867 46.1603 14.8195 45.8756 15.3995 45.7604C15.9796 45.6452 16.5808 45.7046 17.127 45.9312C17.6733 46.1578 18.14 46.5414 18.4682 47.0334C18.7963 47.5253 18.9711 48.1036 18.9705 48.695C18.9697 49.4865 18.6549 50.2454 18.0952 50.8052C17.5354 51.3649 16.7766 51.6797 15.985 51.6805ZM15.985 47.6079C15.7699 47.6073 15.5594 47.6705 15.3802 47.7896C15.201 47.9086 15.0612 48.0782 14.9784 48.2768C14.8956 48.4754 14.8737 48.694 14.9152 48.9051C14.9568 49.1162 15.0601 49.3102 15.212 49.4626C15.3639 49.6149 15.5576 49.7188 15.7686 49.761C15.9795 49.8032 16.1983 49.7818 16.3971 49.6996C16.5959 49.6174 16.7659 49.4781 16.8855 49.2993C17.0051 49.1204 17.0689 48.9101 17.0689 48.695C17.064 48.4102 16.9478 48.1387 16.7452 47.9385C16.5426 47.7383 16.2698 47.6254 15.985 47.6238V47.6079ZM6.53083 66.6652C5.72055 66.6665 4.92811 66.4273 4.25382 65.978C3.57954 65.5287 3.05371 64.8894 2.74291 64.1411C2.4321 63.3928 2.35029 62.5691 2.50783 61.7743C2.66537 60.9795 3.05517 60.2492 3.62791 59.6761C4.20064 59.1029 4.93055 58.7125 5.72524 58.5544C6.51994 58.3962 7.34369 58.4774 8.09223 58.7876C8.84077 59.0978 9.48045 59.6232 9.93029 60.2971C10.3801 60.971 10.6199 61.7633 10.6193 62.5736C10.6185 63.6579 10.1875 64.6977 9.42107 65.4647C8.65461 66.2318 7.61519 66.6635 6.53083 66.6652ZM6.53083 60.3804C6.09705 60.3804 5.67302 60.509 5.31235 60.75C4.95169 60.991 4.67058 61.3335 4.50458 61.7343C4.33859 62.135 4.29515 62.576 4.37978 63.0014C4.4644 63.4269 4.67328 63.8177 4.98001 64.1244C5.28673 64.4311 5.67752 64.64 6.10296 64.7246C6.52839 64.8092 6.96937 64.7658 7.37012 64.5998C7.77088 64.4338 8.11341 64.1527 8.3544 63.792C8.59539 63.4314 8.72402 63.0073 8.72402 62.5736C8.72402 61.9919 8.49295 61.4341 8.08165 61.0228C7.67034 60.6115 7.1125 60.3804 6.53083 60.3804Z" fill="#E0E1E1"/>
<path d="M56.668 40.2559H64.668" stroke="#E0E1E1" stroke-width="1.5" stroke-linecap="round" stroke-linejoin="round"/>
<path d="M56.668 44.2559H60.668" stroke="#E0E1E1" stroke-width="1.5" stroke-linecap="round" stroke-linejoin="round"/>
<path d="M66.0013 48.9225C66.0013 55.9225 60.3346 61.5892 53.3346 61.5892C46.3346 61.5892 40.668 55.9225 40.668 48.9225C40.668 41.9225 46.3346 36.2559 53.3346 36.2559" stroke="#E0E1E1" stroke-width="1.5" stroke-linecap="round" stroke-linejoin="round"/>
<path d="M67.3346 62.9225L64.668 60.2559" stroke="#E0E1E1" stroke-width="1.5" stroke-linecap="round" stroke-linejoin="round"/>
<defs>
<linearGradient id="paint0_linear_258_6303" x1="38.3008" y1="106.559" x2="125.23" y2="106.559" gradientUnits="userSpaceOnUse">
<stop stop-color="#F9FAFA"/>
<stop offset="1" stop-color="#EEF0F1"/>
</linearGradient>
<linearGradient id="paint1_linear_258_6303" x1="95.0312" y1="106.558" x2="125.229" y2="106.558" gradientUnits="userSpaceOnUse">
<stop stop-color="#F5F5F5" stop-opacity="0"/>
<stop offset="1" stop-color="#EEF0F1"/>
</linearGradient>
<linearGradient id="paint2_linear_258_6303" x1="26.1266" y1="106.561" x2="50.4767" y2="106.561" gradientUnits="userSpaceOnUse">
<stop stop-color="white" stop-opacity="0"/>
<stop offset="1" stop-color="#EEF0F1"/>
</linearGradient>
<linearGradient id="paint3_linear_258_6303" x1="1.77502" y1="12.7204" x2="26.1251" y2="12.7204" gradientUnits="userSpaceOnUse">
<stop stop-color="white"/>
<stop offset="1" stop-color="#EEF0F1"/>
</linearGradient>
</defs>
</svg>
