<svg width="573" height="232" viewBox="0 0 573 232" fill="none" xmlns="http://www.w3.org/2000/svg">
<path d="M341.755 17.0775L337.523 21.3086L338.868 22.6532L343.099 18.4221L341.755 17.0775Z" fill="#E0E1E1"/>
<path d="M334.214 12.8594H332.312V18.8431H334.214V12.8594Z" fill="#E0E1E1"/>
<path d="M347.478 25.5996H341.494V27.5012H347.478V25.5996Z" fill="#E0E1E1"/>
<path d="M340.23 94.9941V105.941C340.23 107.54 339.915 109.124 339.303 110.601C338.691 112.078 337.794 113.421 336.663 114.551C335.533 115.682 334.19 116.579 332.713 117.191C331.236 117.803 329.652 118.118 328.053 118.118H253.301C256.521 118.088 259.6 116.795 261.877 114.518C264.154 112.241 265.445 109.161 265.474 105.941V94.9973L340.23 94.9941Z" fill="url(#paint0_linear_253_7553)"/>
<path style="mix-blend-mode:multiply" d="M340.229 94.9931V105.94C340.229 107.539 339.914 109.123 339.302 110.6C338.69 112.077 337.793 113.42 336.662 114.55C335.532 115.681 334.189 116.578 332.712 117.19C331.235 117.802 329.651 118.117 328.052 118.117H310.031C310.348 117.378 309.363 119.153 323.314 94.9805L340.229 94.9931Z" fill="url(#paint1_linear_253_7553)"/>
<path d="M265.477 94.9961V105.94C265.503 107.555 265.207 109.16 264.607 110.66C264.007 112.16 263.114 113.525 261.981 114.677C260.848 115.828 259.497 116.743 258.007 117.367C256.517 117.991 254.917 118.313 253.302 118.313C251.686 118.313 250.087 117.991 248.597 117.367C247.106 116.743 245.755 115.828 244.622 114.677C243.489 113.525 242.596 112.16 241.996 110.66C241.396 109.16 241.101 107.555 241.127 105.94V94.9961H265.477Z" fill="url(#paint2_linear_253_7553)"/>
<path d="M216.777 24.2822H241.127V13.3321C241.153 11.7167 240.857 10.1123 240.257 8.61229C239.657 7.1123 238.765 5.74675 237.631 4.59518C236.498 3.4436 235.147 2.52904 233.657 1.90476C232.167 1.28049 230.568 0.958984 228.952 0.958984C227.336 0.958984 225.737 1.28049 224.247 1.90476C222.757 2.52904 221.406 3.4436 220.273 4.59518C219.14 5.74675 218.247 7.1123 217.647 8.61229C217.047 10.1123 216.751 11.7167 216.777 13.3321V24.2822Z" fill="url(#paint3_linear_253_7553)"/>
<path d="M314.17 21.2525L313.051 22.3839L323.339 31.4483V95.4375H265.53V106.372C265.556 107.987 265.26 109.592 264.66 111.091C264.06 112.591 263.167 113.957 262.034 115.109C260.901 116.26 259.55 117.175 258.06 117.799C256.57 118.423 254.97 118.745 253.355 118.745C251.739 118.745 250.14 118.423 248.65 117.799C247.16 117.175 245.809 116.26 244.676 115.109C243.542 113.957 242.65 112.591 242.05 111.091C241.449 109.592 241.154 107.987 241.18 106.372V84.1863L252.342 73.6577L251.813 73.1221H241.18V13.7601C241.178 10.5312 239.894 7.43522 237.61 5.15294C235.326 2.87065 232.229 1.589 229 1.58984H311.159C314.388 1.589 317.485 2.87065 319.769 5.15294C322.053 7.43522 323.337 10.5312 323.339 13.7601V21.2525H314.17Z" fill="#F9FAFA"/>
<path d="M253.301 119.073C246.185 119.073 240.176 113.052 240.176 105.946V83.3391L250.461 73.6377H240.176V13.3281C240.172 10.3522 238.987 7.49946 236.882 5.39603C234.777 3.2926 231.923 2.11032 228.947 2.10864V0.207031H311.106C314.586 0.209546 317.923 1.59245 320.385 4.05232C322.847 6.51218 324.232 9.8481 324.237 13.3281V21.7713H314.513L314.387 21.8981L324.237 30.5757V95.9467H266.428V105.94C266.428 113.061 260.416 119.073 253.301 119.073ZM242.078 84.1599V105.94C242.078 112.025 247.219 117.166 253.301 117.166C259.383 117.166 264.526 112.025 264.526 105.94V94.0451H322.335V31.4346L311.61 21.9836L313.724 19.8697H322.335V13.3281C322.331 10.3522 321.146 7.49946 319.041 5.39603C316.936 3.2926 314.082 2.11032 311.106 2.10864H235.749C237.681 3.27575 239.279 4.9215 240.39 6.88687C241.5 8.85224 242.085 11.0708 242.087 13.3281V71.7361H252.163L253.662 73.2415L242.078 84.1599Z" fill="#E0E1E1"/>
<path d="M306.787 29.4976H294.759L289.682 24.4172L291.025 23.0734L295.548 27.596H305.997L313.724 19.8691H323.286V21.7708H314.513L306.787 29.4976Z" fill="#E0E1E1"/>
<path d="M333.636 34.4521L324.471 25.7871H333.636V34.4521Z" fill="#F5F5F5"/>
<path d="M242.078 25.2323H215.826V13.3314C215.799 11.5905 216.118 9.86167 216.766 8.24546C217.413 6.62926 218.376 5.158 219.597 3.91734C220.819 2.67667 222.275 1.6914 223.881 1.01887C225.487 0.346345 227.211 0 228.952 0C230.693 0 232.416 0.346345 234.022 1.01887C235.628 1.6914 237.084 2.67667 238.306 3.91734C239.528 5.158 240.49 6.62926 241.138 8.24546C241.785 9.86167 242.105 11.5905 242.078 13.3314V25.2323ZM217.727 23.3307H240.176V13.3314C240.201 11.8416 239.929 10.3616 239.376 8.97789C238.823 7.59417 238.001 6.33436 236.956 5.2719C235.911 4.20945 234.665 3.36562 233.291 2.78961C231.917 2.21361 230.442 1.91696 228.952 1.91696C227.462 1.91696 225.986 2.21361 224.612 2.78961C223.238 3.36562 221.992 4.20945 220.947 5.2719C219.903 6.33436 219.08 7.59417 218.527 8.97789C217.974 10.3616 217.702 11.8416 217.727 13.3314V23.3307ZM253.3 119.074V117.172C259.385 117.172 264.526 112.031 264.526 105.946V94.0452H341.18V105.94C341.175 109.271 339.906 112.476 337.63 114.907C335.353 117.339 332.238 118.815 328.915 119.039C328.911 119.096 332.629 119.074 253.3 119.074ZM259.997 117.172H328.052C331.03 117.169 333.884 115.984 335.989 113.878C338.094 111.772 339.277 108.917 339.278 105.94V95.9469H266.428V105.94C266.404 108.205 265.801 110.427 264.675 112.394C263.55 114.36 261.939 116.005 259.997 117.172Z" fill="#E0E1E1"/>
<path d="M279.333 88.3805L273.315 82.3588H260.086L251.364 73.6399H241.127V71.7383H252.153L260.872 80.4572H274.101L280.677 87.0336L279.333 88.3805Z" fill="#E0E1E1"/>
<path d="M232.703 85.18L240.069 77.8145H232.703V85.18Z" fill="#F5F5F5"/>
<path d="M334.588 36.6576L322.078 24.8359H334.588V36.6576ZM326.861 26.7375L332.686 32.2459V26.7375H326.861ZM231.752 87.475V76.864H242.363L231.752 87.475ZM233.654 78.7656V82.8857L237.774 78.7656H233.654Z" fill="#E0E1E1"/>
<path d="M335.945 84.6665H334.043V82.7649H335.945V84.6665ZM335.945 79.5956H334.043V77.694H335.945V79.5956ZM335.945 74.5246H334.043V72.623H335.945V74.5246ZM335.945 69.4537H334.043V67.5521H335.945V69.4537ZM335.945 64.3827H334.043V62.4811H335.945V64.3827ZM335.945 59.3118H334.043V57.4101H335.945V59.3118ZM335.945 54.2408H334.043V52.3392H335.945V54.2408ZM335.945 49.1698H334.043V47.2682H335.945V49.1698ZM335.945 44.0989H334.043V42.1973H335.945V44.0989ZM234.757 126.122H232.855V124.22H234.757V126.122ZM234.757 121.051H232.855V119.149H234.757V121.051ZM234.757 115.98H232.855V114.078H234.757V115.98ZM234.757 110.909H232.855V109.007H234.757V110.909ZM234.757 105.838H232.855V103.936H234.757V105.838ZM234.757 100.767H232.855V98.8652H234.757V100.767ZM234.757 95.6959H232.855V93.7943H234.757V95.6959ZM310.951 126.248H309.05V124.347H310.951V126.248ZM305.88 126.248H303.979V124.347H305.88V126.248ZM300.809 126.248H298.908V124.347H300.809V126.248ZM295.739 126.248H293.837V124.347H295.739V126.248ZM290.668 126.248H288.766V124.347H290.668V126.248ZM285.597 126.248H283.695V124.347H285.597V126.248ZM280.526 126.248H278.624V124.347H280.526V126.248ZM275.455 126.248H273.553V124.347H275.455V126.248ZM270.384 126.248H268.482V124.347H270.384V126.248ZM265.313 126.248H263.411V124.347H265.313V126.248ZM260.242 126.248H258.34V124.347H260.242V126.248ZM255.171 126.248H253.269V124.347H255.171V126.248ZM250.1 126.248H248.198V124.347H250.1V126.248ZM245.029 126.248H243.127V124.347H245.029V126.248ZM239.958 126.248H238.056V124.347H239.958V126.248Z" fill="#C39D63" fill-opacity="0.05"/>
<path d="M339.237 91.4233L355.566 119.703C355.996 120.448 356.222 121.293 356.222 122.153C356.222 123.013 355.996 123.858 355.566 124.603C355.135 125.348 354.517 125.967 353.772 126.397C353.027 126.827 352.182 127.053 351.322 127.053H318.678C317.817 127.053 316.972 126.827 316.228 126.397C315.483 125.967 314.864 125.348 314.434 124.603C314.004 123.858 313.777 123.013 313.777 122.153C313.777 121.293 314.004 120.448 314.434 119.703L330.762 91.4233C331.192 90.6804 331.81 90.0636 332.554 89.6349C333.298 89.2061 334.141 88.9805 335 88.9805C335.858 88.9805 336.702 89.2061 337.445 89.6349C338.189 90.0636 338.807 90.6804 339.237 91.4233Z" fill="#F5F5F5"/>
<path d="M351.323 128.005H318.679C317.652 128.006 316.642 127.736 315.752 127.223C314.862 126.71 314.123 125.971 313.609 125.082C313.095 124.192 312.824 123.183 312.824 122.156C312.824 121.129 313.094 120.119 313.608 119.23L329.924 90.9494C330.436 90.0572 331.175 89.316 332.065 88.8006C332.955 88.2851 333.966 88.0137 334.995 88.0137C336.024 88.0137 337.034 88.2851 337.925 88.8006C338.815 89.316 339.554 90.0572 340.066 90.9494L356.391 119.23C356.906 120.119 357.177 121.128 357.177 122.156C357.178 123.183 356.907 124.192 356.394 125.082C355.88 125.972 355.141 126.711 354.251 127.224C353.36 127.737 352.351 128.007 351.323 128.005ZM331.575 91.9002L315.25 120.18C314.902 120.78 314.719 121.462 314.718 122.155C314.718 122.849 314.9 123.53 315.247 124.131C315.594 124.731 316.093 125.23 316.694 125.576C317.294 125.923 317.976 126.105 318.67 126.104H351.314C352.007 126.104 352.688 125.921 353.288 125.575C353.889 125.228 354.387 124.73 354.734 124.129C355.08 123.529 355.263 122.848 355.263 122.155C355.263 121.462 355.08 120.781 354.734 120.18L338.415 91.9002C338.069 91.2992 337.57 90.8 336.97 90.4528C336.37 90.1057 335.688 89.9229 334.995 89.9229C334.301 89.9229 333.62 90.1057 333.02 90.4528C332.419 90.8 331.921 91.2992 331.575 91.9002Z" fill="#E0E1E1"/>
<path d="M331.787 99.0693V107.956L332.789 113.509H334.991V113.512L337.194 113.509L338.199 107.953L338.202 99.0566L331.787 99.0693Z" fill="#D93F21" fill-opacity="0.46"/>
<path d="M337.396 117.469H332.582V122.283H337.396V117.469Z" fill="#D93F21" fill-opacity="0.46"/>
<path d="M230.985 51.6805C230.394 51.6811 229.815 51.5063 229.323 51.1782C228.831 50.85 228.448 50.3833 228.221 49.837C227.995 49.2908 227.935 48.6896 228.05 48.1095C228.166 47.5295 228.45 46.9967 228.868 46.5785C229.287 46.1603 229.819 45.8756 230.4 45.7604C230.98 45.6452 231.581 45.7046 232.127 45.9312C232.673 46.1578 233.14 46.5414 233.468 47.0334C233.796 47.5253 233.971 48.1036 233.971 48.695C233.97 49.4865 233.655 50.2454 233.095 50.8052C232.535 51.3649 231.777 51.6797 230.985 51.6805ZM230.985 47.6079C230.77 47.6073 230.559 47.6705 230.38 47.7896C230.201 47.9086 230.061 48.0782 229.978 48.2768C229.896 48.4754 229.874 48.694 229.915 48.9051C229.957 49.1162 230.06 49.3102 230.212 49.4626C230.364 49.6149 230.558 49.7188 230.769 49.761C230.98 49.8032 231.198 49.7818 231.397 49.6996C231.596 49.6174 231.766 49.4781 231.885 49.2993C232.005 49.1204 232.069 48.9101 232.069 48.695C232.064 48.4102 231.948 48.1387 231.745 47.9385C231.543 47.7383 231.27 47.6254 230.985 47.6238V47.6079ZM221.531 66.6652C220.721 66.6665 219.928 66.4273 219.254 65.978C218.58 65.5287 218.054 64.8894 217.743 64.1411C217.432 63.3928 217.35 62.5691 217.508 61.7743C217.665 60.9795 218.055 60.2492 218.628 59.6761C219.201 59.1029 219.931 58.7125 220.725 58.5544C221.52 58.3962 222.344 58.4774 223.092 58.7876C223.841 59.0978 224.48 59.6232 224.93 60.2971C225.38 60.971 225.62 61.7633 225.619 62.5736C225.618 63.6579 225.188 64.6977 224.421 65.4647C223.655 66.2318 222.615 66.6635 221.531 66.6652ZM221.531 60.3804C221.097 60.3804 220.673 60.509 220.312 60.75C219.952 60.991 219.671 61.3335 219.505 61.7343C219.339 62.135 219.295 62.576 219.38 63.0014C219.464 63.4269 219.673 63.8177 219.98 64.1244C220.287 64.4311 220.678 64.64 221.103 64.7246C221.528 64.8092 221.969 64.7658 222.37 64.5998C222.771 64.4338 223.113 64.1527 223.354 63.792C223.595 63.4314 223.724 63.0073 223.724 62.5736C223.724 61.9919 223.493 61.4341 223.082 61.0228C222.67 60.6115 222.112 60.3804 221.531 60.3804Z" fill="#E0E1E1"/>
<path d="M271.666 40.2559H279.666" stroke="#E0E1E1" stroke-width="1.5" stroke-linecap="round" stroke-linejoin="round"/>
<path d="M271.666 44.2559H275.666" stroke="#E0E1E1" stroke-width="1.5" stroke-linecap="round" stroke-linejoin="round"/>
<path d="M280.999 48.9225C280.999 55.9225 275.333 61.5892 268.333 61.5892C261.333 61.5892 255.666 55.9225 255.666 48.9225C255.666 41.9225 261.333 36.2559 268.333 36.2559" stroke="#E0E1E1" stroke-width="1.5" stroke-linecap="round" stroke-linejoin="round"/>
<path d="M282.333 62.9225L279.666 60.2559" stroke="#E0E1E1" stroke-width="1.5" stroke-linecap="round" stroke-linejoin="round"/>
<path d="M134.869 177.006V167.182H131.557V165.806H139.861V167.182H136.565V177.006H134.869ZM141.385 177.006V165.486H143.081V170.35C143.347 169.891 143.715 169.534 144.185 169.278C144.665 169.011 145.193 168.878 145.769 168.878C146.718 168.878 147.465 169.177 148.009 169.774C148.553 170.371 148.825 171.262 148.825 172.446V177.006H147.145V172.622C147.145 171.086 146.531 170.318 145.305 170.318C144.665 170.318 144.131 170.542 143.705 170.99C143.289 171.438 143.081 172.078 143.081 172.91V177.006H141.385ZM154.534 177.198C153.755 177.198 153.062 177.027 152.454 176.686C151.857 176.334 151.387 175.849 151.046 175.23C150.705 174.611 150.534 173.891 150.534 173.07C150.534 172.238 150.699 171.507 151.03 170.878C151.371 170.249 151.841 169.758 152.438 169.406C153.046 169.054 153.75 168.878 154.55 168.878C155.329 168.878 156.006 169.054 156.582 169.406C157.158 169.747 157.606 170.206 157.926 170.782C158.246 171.358 158.406 171.993 158.406 172.686C158.406 172.793 158.401 172.91 158.39 173.038C158.39 173.155 158.385 173.289 158.374 173.438H152.198C152.251 174.206 152.502 174.793 152.95 175.198C153.409 175.593 153.937 175.79 154.534 175.79C155.014 175.79 155.414 175.683 155.734 175.47C156.065 175.246 156.31 174.947 156.47 174.574H158.166C157.953 175.321 157.526 175.945 156.886 176.446C156.257 176.947 155.473 177.198 154.534 177.198ZM154.534 170.27C153.969 170.27 153.467 170.441 153.03 170.782C152.593 171.113 152.326 171.614 152.23 172.286H156.71C156.678 171.667 156.459 171.177 156.054 170.814C155.649 170.451 155.142 170.27 154.534 170.27ZM160.166 177.006V169.07H161.686L161.83 170.574C162.107 170.051 162.491 169.641 162.982 169.342C163.483 169.033 164.086 168.878 164.79 168.878V170.654H164.326C163.856 170.654 163.435 170.734 163.062 170.894C162.699 171.043 162.406 171.305 162.182 171.678C161.968 172.041 161.862 172.547 161.862 173.198V177.006H160.166ZM169.737 177.198C168.958 177.198 168.265 177.027 167.657 176.686C167.06 176.334 166.59 175.849 166.249 175.23C165.908 174.611 165.737 173.891 165.737 173.07C165.737 172.238 165.902 171.507 166.233 170.878C166.574 170.249 167.044 169.758 167.641 169.406C168.249 169.054 168.953 168.878 169.753 168.878C170.532 168.878 171.209 169.054 171.785 169.406C172.361 169.747 172.809 170.206 173.129 170.782C173.449 171.358 173.609 171.993 173.609 172.686C173.609 172.793 173.604 172.91 173.593 173.038C173.593 173.155 173.588 173.289 173.577 173.438H167.401C167.454 174.206 167.705 174.793 168.153 175.198C168.612 175.593 169.14 175.79 169.737 175.79C170.217 175.79 170.617 175.683 170.937 175.47C171.268 175.246 171.513 174.947 171.673 174.574H173.369C173.156 175.321 172.729 175.945 172.089 176.446C171.46 176.947 170.676 177.198 169.737 177.198ZM169.737 170.27C169.172 170.27 168.67 170.441 168.233 170.782C167.796 171.113 167.529 171.614 167.433 172.286H171.913C171.881 171.667 171.662 171.177 171.257 170.814C170.852 170.451 170.345 170.27 169.737 170.27ZM182.088 177.198C181.416 177.198 180.861 177.086 180.424 176.862C179.987 176.638 179.661 176.345 179.448 175.982C179.235 175.609 179.128 175.203 179.128 174.766C179.128 173.998 179.427 173.39 180.024 172.942C180.621 172.494 181.475 172.27 182.584 172.27H184.664V172.126C184.664 171.507 184.493 171.043 184.152 170.734C183.821 170.425 183.389 170.27 182.856 170.27C182.387 170.27 181.976 170.387 181.624 170.622C181.283 170.846 181.075 171.182 181 171.63H179.304C179.357 171.054 179.549 170.563 179.88 170.158C180.221 169.742 180.648 169.427 181.16 169.214C181.683 168.99 182.253 168.878 182.872 168.878C183.981 168.878 184.84 169.171 185.448 169.758C186.056 170.334 186.36 171.123 186.36 172.126V177.006H184.888L184.744 175.646C184.52 176.083 184.195 176.451 183.768 176.75C183.341 177.049 182.781 177.198 182.088 177.198ZM182.424 175.822C182.883 175.822 183.267 175.715 183.576 175.502C183.896 175.278 184.141 174.985 184.312 174.622C184.493 174.259 184.605 173.859 184.648 173.422H182.76C182.088 173.422 181.608 173.539 181.32 173.774C181.043 174.009 180.904 174.302 180.904 174.654C180.904 175.017 181.037 175.305 181.304 175.518C181.581 175.721 181.955 175.822 182.424 175.822ZM188.338 177.006V169.07H189.858L190.002 170.574C190.279 170.051 190.663 169.641 191.154 169.342C191.655 169.033 192.258 168.878 192.962 168.878V170.654H192.498C192.028 170.654 191.607 170.734 191.234 170.894C190.871 171.043 190.578 171.305 190.354 171.678C190.14 172.041 190.034 172.547 190.034 173.198V177.006H188.338ZM197.909 177.198C197.13 177.198 196.437 177.027 195.829 176.686C195.232 176.334 194.762 175.849 194.421 175.23C194.08 174.611 193.909 173.891 193.909 173.07C193.909 172.238 194.074 171.507 194.405 170.878C194.746 170.249 195.216 169.758 195.813 169.406C196.421 169.054 197.125 168.878 197.925 168.878C198.704 168.878 199.381 169.054 199.957 169.406C200.533 169.747 200.981 170.206 201.301 170.782C201.621 171.358 201.781 171.993 201.781 172.686C201.781 172.793 201.776 172.91 201.765 173.038C201.765 173.155 201.76 173.289 201.749 173.438H195.573C195.626 174.206 195.877 174.793 196.325 175.198C196.784 175.593 197.312 175.79 197.909 175.79C198.389 175.79 198.789 175.683 199.109 175.47C199.44 175.246 199.685 174.947 199.845 174.574H201.541C201.328 175.321 200.901 175.945 200.261 176.446C199.632 176.947 198.848 177.198 197.909 177.198ZM197.909 170.27C197.344 170.27 196.842 170.441 196.405 170.782C195.968 171.113 195.701 171.614 195.605 172.286H200.085C200.053 171.667 199.834 171.177 199.429 170.814C199.024 170.451 198.517 170.27 197.909 170.27ZM207.572 177.006V169.07H209.076L209.204 170.462C209.449 169.971 209.807 169.587 210.276 169.31C210.756 169.022 211.305 168.878 211.924 168.878C212.884 168.878 213.636 169.177 214.18 169.774C214.735 170.371 215.012 171.262 215.012 172.446V177.006H213.332V172.622C213.332 171.086 212.703 170.318 211.444 170.318C210.815 170.318 210.292 170.542 209.876 170.99C209.471 171.438 209.268 172.078 209.268 172.91V177.006H207.572ZM220.722 177.198C219.964 177.198 219.282 177.027 218.674 176.686C218.076 176.334 217.602 175.849 217.25 175.23C216.898 174.601 216.722 173.87 216.722 173.038C216.722 172.206 216.898 171.481 217.25 170.862C217.612 170.233 218.098 169.747 218.706 169.406C219.314 169.054 219.991 168.878 220.738 168.878C221.495 168.878 222.172 169.054 222.77 169.406C223.378 169.747 223.858 170.233 224.21 170.862C224.572 171.481 224.753 172.206 224.753 173.038C224.753 173.87 224.572 174.601 224.21 175.23C223.858 175.849 223.378 176.334 222.77 176.686C222.162 177.027 221.479 177.198 220.722 177.198ZM220.722 175.742C221.127 175.742 221.5 175.641 221.842 175.438C222.194 175.235 222.476 174.937 222.69 174.542C222.903 174.137 223.01 173.635 223.01 173.038C223.01 172.441 222.903 171.945 222.69 171.55C222.487 171.145 222.21 170.841 221.858 170.638C221.516 170.435 221.143 170.334 220.738 170.334C220.332 170.334 219.954 170.435 219.602 170.638C219.26 170.841 218.983 171.145 218.77 171.55C218.556 171.945 218.45 172.441 218.45 173.038C218.45 173.635 218.556 174.137 218.77 174.542C218.983 174.937 219.26 175.235 219.602 175.438C219.943 175.641 220.316 175.742 220.722 175.742ZM231.579 167.566C231.259 167.566 230.992 167.47 230.779 167.278C230.576 167.075 230.475 166.825 230.475 166.526C230.475 166.227 230.576 165.982 230.779 165.79C230.992 165.587 231.259 165.486 231.579 165.486C231.899 165.486 232.16 165.587 232.363 165.79C232.576 165.982 232.683 166.227 232.683 166.526C232.683 166.825 232.576 167.075 232.363 167.278C232.16 167.47 231.899 167.566 231.579 167.566ZM230.731 177.006V169.07H232.427V177.006H230.731ZM237.994 177.006C237.215 177.006 236.596 176.819 236.138 176.446C235.679 176.062 235.45 175.385 235.45 174.414V170.494H234.09V169.07H235.45L235.658 167.054H237.146V169.07H239.386V170.494H237.146V174.414C237.146 174.851 237.236 175.155 237.418 175.326C237.61 175.486 237.935 175.566 238.394 175.566H239.306V177.006H237.994ZM244.643 177.198C243.865 177.198 243.171 177.027 242.563 176.686C241.966 176.334 241.497 175.849 241.155 175.23C240.814 174.611 240.643 173.891 240.643 173.07C240.643 172.238 240.809 171.507 241.139 170.878C241.481 170.249 241.95 169.758 242.547 169.406C243.155 169.054 243.859 168.878 244.659 168.878C245.438 168.878 246.115 169.054 246.691 169.406C247.267 169.747 247.715 170.206 248.035 170.782C248.355 171.358 248.515 171.993 248.515 172.686C248.515 172.793 248.51 172.91 248.499 173.038C248.499 173.155 248.494 173.289 248.483 173.438H242.307C242.361 174.206 242.611 174.793 243.059 175.198C243.518 175.593 244.046 175.79 244.643 175.79C245.123 175.79 245.523 175.683 245.843 175.47C246.174 175.246 246.419 174.947 246.579 174.574H248.275C248.062 175.321 247.635 175.945 246.995 176.446C246.366 176.947 245.582 177.198 244.643 177.198ZM244.643 170.27C244.078 170.27 243.577 170.441 243.139 170.782C242.702 171.113 242.435 171.614 242.339 172.286H246.819C246.787 171.667 246.569 171.177 246.163 170.814C245.758 170.451 245.251 170.27 244.643 170.27ZM250.275 177.006V169.07H251.779L251.923 170.19C252.179 169.785 252.515 169.465 252.931 169.23C253.358 168.995 253.848 168.878 254.403 168.878C255.662 168.878 256.536 169.374 257.027 170.366C257.315 169.907 257.699 169.545 258.179 169.278C258.67 169.011 259.198 168.878 259.763 168.878C260.755 168.878 261.534 169.177 262.099 169.774C262.664 170.371 262.947 171.262 262.947 172.446V177.006H261.251V172.622C261.251 171.086 260.664 170.318 259.491 170.318C258.894 170.318 258.403 170.542 258.019 170.99C257.646 171.438 257.459 172.078 257.459 172.91V177.006H255.763V172.622C255.763 171.086 255.171 170.318 253.987 170.318C253.4 170.318 252.915 170.542 252.531 170.99C252.158 171.438 251.971 172.078 251.971 172.91V177.006H250.275ZM268.099 177.198C267.097 177.198 266.27 176.953 265.619 176.462C264.969 175.971 264.595 175.321 264.499 174.51H266.211C266.297 174.873 266.499 175.187 266.819 175.454C267.139 175.71 267.561 175.838 268.083 175.838C268.595 175.838 268.969 175.731 269.203 175.518C269.438 175.305 269.555 175.059 269.555 174.782C269.555 174.377 269.39 174.105 269.059 173.966C268.739 173.817 268.291 173.683 267.715 173.566C267.267 173.47 266.819 173.342 266.371 173.182C265.934 173.022 265.566 172.798 265.267 172.51C264.979 172.211 264.835 171.811 264.835 171.31C264.835 170.617 265.102 170.041 265.635 169.582C266.169 169.113 266.915 168.878 267.875 168.878C268.761 168.878 269.475 169.091 270.019 169.518C270.574 169.945 270.899 170.547 270.995 171.326H269.363C269.31 170.985 269.15 170.718 268.883 170.526C268.627 170.334 268.281 170.238 267.843 170.238C267.417 170.238 267.086 170.329 266.851 170.51C266.617 170.681 266.499 170.905 266.499 171.182C266.499 171.459 266.659 171.678 266.979 171.838C267.31 171.998 267.742 172.142 268.275 172.27C268.809 172.387 269.299 172.526 269.747 172.686C270.206 172.835 270.574 173.059 270.851 173.358C271.129 173.657 271.267 174.094 271.267 174.67C271.278 175.395 270.995 175.998 270.419 176.478C269.854 176.958 269.081 177.198 268.099 177.198ZM277.15 177.006V169.07H278.654L278.798 170.19C279.054 169.785 279.39 169.465 279.806 169.23C280.233 168.995 280.723 168.878 281.278 168.878C282.537 168.878 283.411 169.374 283.902 170.366C284.19 169.907 284.574 169.545 285.054 169.278C285.545 169.011 286.073 168.878 286.638 168.878C287.63 168.878 288.409 169.177 288.974 169.774C289.539 170.371 289.822 171.262 289.822 172.446V177.006H288.126V172.622C288.126 171.086 287.539 170.318 286.366 170.318C285.769 170.318 285.278 170.542 284.894 170.99C284.521 171.438 284.334 172.078 284.334 172.91V177.006H282.638V172.622C282.638 171.086 282.046 170.318 280.862 170.318C280.275 170.318 279.79 170.542 279.406 170.99C279.033 171.438 278.846 172.078 278.846 172.91V177.006H277.15ZM294.494 177.198C293.822 177.198 293.268 177.086 292.83 176.862C292.393 176.638 292.068 176.345 291.854 175.982C291.641 175.609 291.534 175.203 291.534 174.766C291.534 173.998 291.833 173.39 292.43 172.942C293.028 172.494 293.881 172.27 294.99 172.27H297.07V172.126C297.07 171.507 296.9 171.043 296.558 170.734C296.228 170.425 295.796 170.27 295.262 170.27C294.793 170.27 294.382 170.387 294.03 170.622C293.689 170.846 293.481 171.182 293.406 171.63H291.71C291.764 171.054 291.956 170.563 292.286 170.158C292.628 169.742 293.054 169.427 293.566 169.214C294.089 168.99 294.66 168.878 295.278 168.878C296.388 168.878 297.246 169.171 297.854 169.758C298.462 170.334 298.766 171.123 298.766 172.126V177.006H297.294L297.15 175.646C296.926 176.083 296.601 176.451 296.174 176.75C295.748 177.049 295.188 177.198 294.494 177.198ZM294.83 175.822C295.289 175.822 295.673 175.715 295.982 175.502C296.302 175.278 296.548 174.985 296.718 174.622C296.9 174.259 297.012 173.859 297.054 173.422H295.166C294.494 173.422 294.014 173.539 293.726 173.774C293.449 174.009 293.31 174.302 293.31 174.654C293.31 175.017 293.444 175.305 293.71 175.518C293.988 175.721 294.361 175.822 294.83 175.822ZM300.744 177.006V169.07H302.264L302.408 170.574C302.685 170.051 303.069 169.641 303.56 169.342C304.061 169.033 304.664 168.878 305.368 168.878V170.654H304.904C304.435 170.654 304.013 170.734 303.64 170.894C303.277 171.043 302.984 171.305 302.76 171.678C302.547 172.041 302.44 172.547 302.44 173.198V177.006H300.744ZM306.822 177.006V165.486H308.518V172.35L311.558 169.07H313.59L310.214 172.67L314.086 177.006H311.942L308.518 172.942V177.006H306.822ZM318.503 177.198C317.724 177.198 317.031 177.027 316.423 176.686C315.825 176.334 315.356 175.849 315.015 175.23C314.673 174.611 314.503 173.891 314.503 173.07C314.503 172.238 314.668 171.507 314.999 170.878C315.34 170.249 315.809 169.758 316.407 169.406C317.015 169.054 317.719 168.878 318.519 168.878C319.297 168.878 319.975 169.054 320.551 169.406C321.127 169.747 321.575 170.206 321.895 170.782C322.215 171.358 322.375 171.993 322.375 172.686C322.375 172.793 322.369 172.91 322.359 173.038C322.359 173.155 322.353 173.289 322.343 173.438H316.167C316.22 174.206 316.471 174.793 316.919 175.198C317.377 175.593 317.905 175.79 318.503 175.79C318.983 175.79 319.383 175.683 319.703 175.47C320.033 175.246 320.279 174.947 320.439 174.574H322.135C321.921 175.321 321.495 175.945 320.855 176.446C320.225 176.947 319.441 177.198 318.503 177.198ZM318.503 170.27C317.937 170.27 317.436 170.441 316.999 170.782C316.561 171.113 316.295 171.614 316.199 172.286H320.679C320.647 171.667 320.428 171.177 320.023 170.814C319.617 170.451 319.111 170.27 318.503 170.27ZM327.751 177.198C326.983 177.198 326.305 177.017 325.719 176.654C325.132 176.291 324.673 175.795 324.343 175.166C324.012 174.537 323.847 173.822 323.847 173.022C323.847 172.222 324.012 171.513 324.343 170.894C324.673 170.265 325.132 169.774 325.719 169.422C326.316 169.059 326.999 168.878 327.766 168.878C328.396 168.878 328.945 169.001 329.415 169.246C329.895 169.491 330.268 169.838 330.535 170.286V165.486H332.231V177.006H330.711L330.535 175.774C330.279 176.147 329.927 176.478 329.479 176.766C329.031 177.054 328.455 177.198 327.751 177.198ZM328.055 175.726C328.78 175.726 329.372 175.475 329.831 174.974C330.3 174.473 330.535 173.827 330.535 173.038C330.535 172.238 330.3 171.593 329.831 171.102C329.372 170.601 328.78 170.35 328.055 170.35C327.329 170.35 326.732 170.601 326.263 171.102C325.793 171.593 325.559 172.238 325.559 173.038C325.559 173.561 325.665 174.025 325.879 174.43C326.092 174.835 326.385 175.155 326.759 175.39C327.143 175.614 327.575 175.726 328.055 175.726ZM341.088 177.198C340.416 177.198 339.861 177.086 339.424 176.862C338.987 176.638 338.661 176.345 338.448 175.982C338.235 175.609 338.128 175.203 338.128 174.766C338.128 173.998 338.427 173.39 339.024 172.942C339.621 172.494 340.475 172.27 341.584 172.27H343.664V172.126C343.664 171.507 343.493 171.043 343.152 170.734C342.821 170.425 342.389 170.27 341.856 170.27C341.387 170.27 340.976 170.387 340.624 170.622C340.283 170.846 340.075 171.182 340 171.63H338.304C338.357 171.054 338.549 170.563 338.88 170.158C339.221 169.742 339.648 169.427 340.16 169.214C340.683 168.99 341.253 168.878 341.872 168.878C342.981 168.878 343.84 169.171 344.448 169.758C345.056 170.334 345.36 171.123 345.36 172.126V177.006H343.888L343.744 175.646C343.52 176.083 343.195 176.451 342.768 176.75C342.341 177.049 341.781 177.198 341.088 177.198ZM341.424 175.822C341.883 175.822 342.267 175.715 342.576 175.502C342.896 175.278 343.141 174.985 343.312 174.622C343.493 174.259 343.605 173.859 343.648 173.422H341.76C341.088 173.422 340.608 173.539 340.32 173.774C340.043 174.009 339.904 174.302 339.904 174.654C339.904 175.017 340.037 175.305 340.304 175.518C340.581 175.721 340.955 175.822 341.424 175.822ZM350.506 177.198C349.503 177.198 348.676 176.953 348.026 176.462C347.375 175.971 347.002 175.321 346.906 174.51H348.618C348.703 174.873 348.906 175.187 349.226 175.454C349.546 175.71 349.967 175.838 350.49 175.838C351.002 175.838 351.375 175.731 351.61 175.518C351.844 175.305 351.962 175.059 351.962 174.782C351.962 174.377 351.796 174.105 351.466 173.966C351.146 173.817 350.698 173.683 350.122 173.566C349.674 173.47 349.226 173.342 348.778 173.182C348.34 173.022 347.972 172.798 347.674 172.51C347.386 172.211 347.242 171.811 347.242 171.31C347.242 170.617 347.508 170.041 348.042 169.582C348.575 169.113 349.322 168.878 350.282 168.878C351.167 168.878 351.882 169.091 352.426 169.518C352.98 169.945 353.306 170.547 353.402 171.326H351.77C351.716 170.985 351.556 170.718 351.29 170.526C351.034 170.334 350.687 170.238 350.25 170.238C349.823 170.238 349.492 170.329 349.258 170.51C349.023 170.681 348.906 170.905 348.906 171.182C348.906 171.459 349.066 171.678 349.386 171.838C349.716 171.998 350.148 172.142 350.682 172.27C351.215 172.387 351.706 172.526 352.154 172.686C352.612 172.835 352.98 173.059 353.258 173.358C353.535 173.657 353.674 174.094 353.674 174.67C353.684 175.395 353.402 175.998 352.826 176.478C352.26 176.958 351.487 177.198 350.506 177.198ZM359.956 177.006V170.494H358.82V169.07H359.956V167.918C359.956 167.054 360.17 166.435 360.596 166.062C361.034 165.678 361.647 165.486 362.436 165.486H363.268V166.926H362.692C362.319 166.926 362.052 167.006 361.892 167.166C361.732 167.315 361.652 167.571 361.652 167.934V169.07H363.476V170.494H361.652V177.006H359.956ZM367.463 177.198C366.791 177.198 366.236 177.086 365.799 176.862C365.362 176.638 365.036 176.345 364.823 175.982C364.61 175.609 364.503 175.203 364.503 174.766C364.503 173.998 364.802 173.39 365.399 172.942C365.996 172.494 366.85 172.27 367.959 172.27H370.039V172.126C370.039 171.507 369.868 171.043 369.527 170.734C369.196 170.425 368.764 170.27 368.231 170.27C367.762 170.27 367.351 170.387 366.999 170.622C366.658 170.846 366.45 171.182 366.375 171.63H364.679C364.732 171.054 364.924 170.563 365.255 170.158C365.596 169.742 366.023 169.427 366.535 169.214C367.058 168.99 367.628 168.878 368.247 168.878C369.356 168.878 370.215 169.171 370.823 169.758C371.431 170.334 371.735 171.123 371.735 172.126V177.006H370.263L370.119 175.646C369.895 176.083 369.57 176.451 369.143 176.75C368.716 177.049 368.156 177.198 367.463 177.198ZM367.799 175.822C368.258 175.822 368.642 175.715 368.951 175.502C369.271 175.278 369.516 174.985 369.687 174.622C369.868 174.259 369.98 173.859 370.023 173.422H368.135C367.463 173.422 366.983 173.539 366.695 173.774C366.418 174.009 366.279 174.302 366.279 174.654C366.279 175.017 366.412 175.305 366.679 175.518C366.956 175.721 367.33 175.822 367.799 175.822ZM375.671 177.006L372.695 169.07H374.471L376.679 175.39L378.887 169.07H380.647L377.687 177.006H375.671ZM385.347 177.198C384.589 177.198 383.907 177.027 383.299 176.686C382.701 176.334 382.227 175.849 381.875 175.23C381.523 174.601 381.347 173.87 381.347 173.038C381.347 172.206 381.523 171.481 381.875 170.862C382.237 170.233 382.723 169.747 383.331 169.406C383.939 169.054 384.616 168.878 385.363 168.878C386.12 168.878 386.797 169.054 387.395 169.406C388.003 169.747 388.483 170.233 388.835 170.862C389.197 171.481 389.378 172.206 389.378 173.038C389.378 173.87 389.197 174.601 388.835 175.23C388.483 175.849 388.003 176.334 387.395 176.686C386.787 177.027 386.104 177.198 385.347 177.198ZM385.347 175.742C385.752 175.742 386.125 175.641 386.467 175.438C386.819 175.235 387.101 174.937 387.315 174.542C387.528 174.137 387.635 173.635 387.635 173.038C387.635 172.441 387.528 171.945 387.315 171.55C387.112 171.145 386.835 170.841 386.483 170.638C386.141 170.435 385.768 170.334 385.363 170.334C384.957 170.334 384.579 170.435 384.227 170.638C383.885 170.841 383.608 171.145 383.395 171.55C383.181 171.945 383.075 172.441 383.075 173.038C383.075 173.635 383.181 174.137 383.395 174.542C383.608 174.937 383.885 175.235 384.227 175.438C384.568 175.641 384.941 175.742 385.347 175.742ZM394.141 177.198C393.181 177.198 392.423 176.899 391.869 176.302C391.325 175.705 391.053 174.814 391.053 173.63V169.07H392.749V173.454C392.749 174.99 393.378 175.758 394.637 175.758C395.266 175.758 395.783 175.534 396.189 175.086C396.594 174.638 396.797 173.998 396.797 173.166V169.07H398.493V177.006H396.989L396.861 175.614C396.615 176.105 396.253 176.494 395.773 176.782C395.303 177.059 394.759 177.198 394.141 177.198ZM400.65 177.006V169.07H402.17L402.314 170.574C402.591 170.051 402.975 169.641 403.466 169.342C403.967 169.033 404.57 168.878 405.274 168.878V170.654H404.81C404.341 170.654 403.919 170.734 403.546 170.894C403.183 171.043 402.89 171.305 402.666 171.678C402.453 172.041 402.346 172.547 402.346 173.198V177.006H400.65ZM407.688 167.566C407.368 167.566 407.102 167.47 406.888 167.278C406.686 167.075 406.584 166.825 406.584 166.526C406.584 166.227 406.686 165.982 406.888 165.79C407.102 165.587 407.368 165.486 407.688 165.486C408.008 165.486 408.27 165.587 408.472 165.79C408.686 165.982 408.792 166.227 408.792 166.526C408.792 166.825 408.686 167.075 408.472 167.278C408.27 167.47 408.008 167.566 407.688 167.566ZM406.84 177.006V169.07H408.536V177.006H406.84ZM414.103 177.006C413.324 177.006 412.706 176.819 412.247 176.446C411.788 176.062 411.559 175.385 411.559 174.414V170.494H410.199V169.07H411.559L411.767 167.054H413.255V169.07H415.495V170.494H413.255V174.414C413.255 174.851 413.346 175.155 413.527 175.326C413.719 175.486 414.044 175.566 414.503 175.566H415.415V177.006H414.103ZM420.753 177.198C419.974 177.198 419.281 177.027 418.673 176.686C418.075 176.334 417.606 175.849 417.265 175.23C416.923 174.611 416.753 173.891 416.753 173.07C416.753 172.238 416.918 171.507 417.249 170.878C417.59 170.249 418.059 169.758 418.657 169.406C419.265 169.054 419.969 168.878 420.769 168.878C421.547 168.878 422.225 169.054 422.801 169.406C423.377 169.747 423.825 170.206 424.145 170.782C424.465 171.358 424.625 171.993 424.625 172.686C424.625 172.793 424.619 172.91 424.609 173.038C424.609 173.155 424.603 173.289 424.593 173.438H418.417C418.47 174.206 418.721 174.793 419.169 175.198C419.627 175.593 420.155 175.79 420.753 175.79C421.233 175.79 421.633 175.683 421.953 175.47C422.283 175.246 422.529 174.947 422.689 174.574H424.385C424.171 175.321 423.745 175.945 423.105 176.446C422.475 176.947 421.691 177.198 420.753 177.198ZM420.753 170.27C420.187 170.27 419.686 170.441 419.249 170.782C418.811 171.113 418.545 171.614 418.449 172.286H422.929C422.897 171.667 422.678 171.177 422.273 170.814C421.867 170.451 421.361 170.27 420.753 170.27ZM429.553 177.198C428.55 177.198 427.723 176.953 427.073 176.462C426.422 175.971 426.049 175.321 425.953 174.51H427.664C427.75 174.873 427.953 175.187 428.273 175.454C428.593 175.71 429.014 175.838 429.536 175.838C430.049 175.838 430.422 175.731 430.657 175.518C430.891 175.305 431.009 175.059 431.009 174.782C431.009 174.377 430.843 174.105 430.513 173.966C430.193 173.817 429.745 173.683 429.169 173.566C428.721 173.47 428.273 173.342 427.825 173.182C427.387 173.022 427.019 172.798 426.721 172.51C426.433 172.211 426.289 171.811 426.289 171.31C426.289 170.617 426.555 170.041 427.089 169.582C427.622 169.113 428.369 168.878 429.329 168.878C430.214 168.878 430.929 169.091 431.473 169.518C432.027 169.945 432.353 170.547 432.449 171.326H430.817C430.763 170.985 430.603 170.718 430.337 170.526C430.081 170.334 429.734 170.238 429.297 170.238C428.87 170.238 428.539 170.329 428.305 170.51C428.07 170.681 427.953 170.905 427.953 171.182C427.953 171.459 428.113 171.678 428.433 171.838C428.763 171.998 429.195 172.142 429.729 172.27C430.262 172.387 430.753 172.526 431.201 172.686C431.659 172.835 432.027 173.059 432.305 173.358C432.582 173.657 432.721 174.094 432.721 174.67C432.731 175.395 432.449 175.998 431.873 176.478C431.307 176.958 430.534 177.198 429.553 177.198ZM434.924 173.694L434.732 165.806H436.556L436.364 173.694H434.924ZM435.692 177.102C435.361 177.102 435.089 177.001 434.876 176.798C434.673 176.585 434.572 176.334 434.572 176.046C434.572 175.747 434.673 175.497 434.876 175.294C435.089 175.081 435.361 174.974 435.692 174.974C436.001 174.974 436.257 175.081 436.46 175.294C436.673 175.497 436.78 175.747 436.78 176.046C436.78 176.334 436.673 176.585 436.46 176.798C436.257 177.001 436.001 177.102 435.692 177.102ZM12.8938 201.006V189.806H20.0138V191.182H14.5898V194.67H19.5338V196.014H14.5898V199.63H20.0138V201.006H12.8938ZM21.2024 201.006L24.0184 197.038L21.2024 193.07H23.0104L25.1384 196.11L27.2504 193.07H29.0744L26.2584 197.038L29.0744 201.006H27.2504L25.1384 197.966L23.0104 201.006H21.2024ZM30.4548 204.526V193.07H31.9748L32.1508 194.302C32.4068 193.929 32.7588 193.598 33.2068 193.31C33.6548 193.022 34.2308 192.878 34.9348 192.878C35.7028 192.878 36.3801 193.059 36.9668 193.422C37.5535 193.785 38.0121 194.281 38.3428 194.91C38.6841 195.539 38.8548 196.254 38.8548 197.054C38.8548 197.854 38.6841 198.569 38.3428 199.198C38.0121 199.817 37.5535 200.307 36.9668 200.67C36.3801 201.022 35.6975 201.198 34.9188 201.198C34.3001 201.198 33.7508 201.075 33.2708 200.83C32.8015 200.585 32.4281 200.238 32.1508 199.79V204.526H30.4548ZM34.6308 199.726C35.3561 199.726 35.9535 199.481 36.4228 198.99C36.8921 198.489 37.1268 197.838 37.1268 197.038C37.1268 196.515 37.0201 196.051 36.8068 195.646C36.5935 195.241 36.3001 194.926 35.9268 194.702C35.5535 194.467 35.1215 194.35 34.6308 194.35C33.9055 194.35 33.3081 194.601 32.8388 195.102C32.3801 195.603 32.1508 196.249 32.1508 197.038C32.1508 197.838 32.3801 198.489 32.8388 198.99C33.3081 199.481 33.9055 199.726 34.6308 199.726ZM40.6892 201.006V189.486H42.3852V201.006H40.6892ZM48.2449 201.198C47.4876 201.198 46.8049 201.027 46.1969 200.686C45.5996 200.334 45.1249 199.849 44.7729 199.23C44.4209 198.601 44.2449 197.87 44.2449 197.038C44.2449 196.206 44.4209 195.481 44.7729 194.862C45.1356 194.233 45.6209 193.747 46.2289 193.406C46.8369 193.054 47.5143 192.878 48.2609 192.878C49.0183 192.878 49.6956 193.054 50.2929 193.406C50.9009 193.747 51.3809 194.233 51.7329 194.862C52.0956 195.481 52.2769 196.206 52.2769 197.038C52.2769 197.87 52.0956 198.601 51.7329 199.23C51.3809 199.849 50.9009 200.334 50.2929 200.686C49.6849 201.027 49.0023 201.198 48.2449 201.198ZM48.2449 199.742C48.6503 199.742 49.0236 199.641 49.3649 199.438C49.7169 199.235 49.9996 198.937 50.2129 198.542C50.4263 198.137 50.5329 197.635 50.5329 197.038C50.5329 196.441 50.4263 195.945 50.2129 195.55C50.0103 195.145 49.7329 194.841 49.3809 194.638C49.0396 194.435 48.6663 194.334 48.2609 194.334C47.8556 194.334 47.4769 194.435 47.1249 194.638C46.7836 194.841 46.5063 195.145 46.2929 195.55C46.0796 195.945 45.9729 196.441 45.9729 197.038C45.9729 197.635 46.0796 198.137 46.2929 198.542C46.5063 198.937 46.7836 199.235 47.1249 199.438C47.4663 199.641 47.8396 199.742 48.2449 199.742ZM54.1111 201.006V193.07H55.6311L55.7751 194.574C56.0524 194.051 56.4364 193.641 56.9271 193.342C57.4284 193.033 58.0311 192.878 58.7351 192.878V194.654H58.2711C57.8017 194.654 57.3804 194.734 57.0071 194.894C56.6444 195.043 56.3511 195.305 56.1271 195.678C55.9137 196.041 55.8071 196.547 55.8071 197.198V201.006H54.1111ZM63.6824 201.198C62.9038 201.198 62.2104 201.027 61.6024 200.686C61.0051 200.334 60.5358 199.849 60.1944 199.23C59.8531 198.611 59.6824 197.891 59.6824 197.07C59.6824 196.238 59.8478 195.507 60.1784 194.878C60.5198 194.249 60.9891 193.758 61.5864 193.406C62.1944 193.054 62.8984 192.878 63.6984 192.878C64.4771 192.878 65.1544 193.054 65.7304 193.406C66.3064 193.747 66.7544 194.206 67.0744 194.782C67.3944 195.358 67.5544 195.993 67.5544 196.686C67.5544 196.793 67.5491 196.91 67.5384 197.038C67.5384 197.155 67.5331 197.289 67.5224 197.438H61.3464C61.3998 198.206 61.6504 198.793 62.0984 199.198C62.5571 199.593 63.0851 199.79 63.6824 199.79C64.1624 199.79 64.5624 199.683 64.8824 199.47C65.2131 199.246 65.4584 198.947 65.6184 198.574H67.3144C67.1011 199.321 66.6744 199.945 66.0344 200.446C65.4051 200.947 64.6211 201.198 63.6824 201.198ZM63.6824 194.27C63.1171 194.27 62.6158 194.441 62.1784 194.782C61.7411 195.113 61.4744 195.614 61.3784 196.286H65.8584C65.8264 195.667 65.6078 195.177 65.2024 194.814C64.7971 194.451 64.2904 194.27 63.6824 194.27ZM77.0574 201.198C76.3001 201.198 75.6174 201.027 75.0094 200.686C74.4121 200.334 73.9374 199.849 73.5854 199.23C73.2334 198.601 73.0574 197.87 73.0574 197.038C73.0574 196.206 73.2334 195.481 73.5854 194.862C73.9481 194.233 74.4334 193.747 75.0414 193.406C75.6494 193.054 76.3268 192.878 77.0734 192.878C77.8308 192.878 78.5081 193.054 79.1054 193.406C79.7134 193.747 80.1934 194.233 80.5454 194.862C80.9081 195.481 81.0894 196.206 81.0894 197.038C81.0894 197.87 80.9081 198.601 80.5454 199.23C80.1934 199.849 79.7134 200.334 79.1054 200.686C78.4974 201.027 77.8148 201.198 77.0574 201.198ZM77.0574 199.742C77.4628 199.742 77.8361 199.641 78.1774 199.438C78.5294 199.235 78.8121 198.937 79.0254 198.542C79.2388 198.137 79.3454 197.635 79.3454 197.038C79.3454 196.441 79.2388 195.945 79.0254 195.55C78.8228 195.145 78.5454 194.841 78.1934 194.638C77.8521 194.435 77.4788 194.334 77.0734 194.334C76.6681 194.334 76.2894 194.435 75.9374 194.638C75.5961 194.841 75.3188 195.145 75.1054 195.55C74.8921 195.945 74.7854 196.441 74.7854 197.038C74.7854 197.635 74.8921 198.137 75.1054 198.542C75.3188 198.937 75.5961 199.235 75.9374 199.438C76.2788 199.641 76.6521 199.742 77.0574 199.742ZM85.8516 201.198C84.8916 201.198 84.1342 200.899 83.5796 200.302C83.0356 199.705 82.7636 198.814 82.7636 197.63V193.07H84.4596V197.454C84.4596 198.99 85.0889 199.758 86.3476 199.758C86.9769 199.758 87.4942 199.534 87.8996 199.086C88.3049 198.638 88.5076 197.998 88.5076 197.166V193.07H90.2036V201.006H88.6996L88.5716 199.614C88.3262 200.105 87.9636 200.494 87.4836 200.782C87.0142 201.059 86.4702 201.198 85.8516 201.198ZM92.3611 201.006V193.07H93.8811L94.0251 194.574C94.3024 194.051 94.6864 193.641 95.1771 193.342C95.6784 193.033 96.2811 192.878 96.9851 192.878V194.654H96.5211C96.0517 194.654 95.6304 194.734 95.2571 194.894C94.8944 195.043 94.6011 195.305 94.3771 195.678C94.1637 196.041 94.0571 196.547 94.0571 197.198V201.006H92.3611ZM106.182 201.198C105.425 201.198 104.742 201.027 104.134 200.686C103.537 200.334 103.062 199.849 102.71 199.23C102.358 198.601 102.182 197.87 102.182 197.038C102.182 196.206 102.358 195.481 102.71 194.862C103.073 194.233 103.558 193.747 104.166 193.406C104.774 193.054 105.452 192.878 106.198 192.878C106.956 192.878 107.633 193.054 108.23 193.406C108.838 193.747 109.318 194.233 109.67 194.862C110.033 195.481 110.214 196.206 110.214 197.038C110.214 197.87 110.033 198.601 109.67 199.23C109.318 199.849 108.838 200.334 108.23 200.686C107.622 201.027 106.94 201.198 106.182 201.198ZM106.182 199.742C106.588 199.742 106.961 199.641 107.302 199.438C107.654 199.235 107.937 198.937 108.15 198.542C108.364 198.137 108.47 197.635 108.47 197.038C108.47 196.441 108.364 195.945 108.15 195.55C107.948 195.145 107.67 194.841 107.318 194.638C106.977 194.435 106.604 194.334 106.198 194.334C105.793 194.334 105.414 194.435 105.062 194.638C104.721 194.841 104.444 195.145 104.23 195.55C104.017 195.945 103.91 196.441 103.91 197.038C103.91 197.635 104.017 198.137 104.23 198.542C104.444 198.937 104.721 199.235 105.062 199.438C105.404 199.641 105.777 199.742 106.182 199.742ZM112.449 201.006V194.494H111.313V193.07H112.449V191.918C112.449 191.054 112.662 190.435 113.089 190.062C113.526 189.678 114.139 189.486 114.929 189.486H115.761V190.926H115.185C114.811 190.926 114.545 191.006 114.385 191.166C114.225 191.315 114.145 191.571 114.145 191.934V193.07H115.969V194.494H114.145V201.006H112.449ZM117.98 201.006V194.494H116.844V193.07H117.98V191.918C117.98 191.054 118.193 190.435 118.62 190.062C119.057 189.678 119.67 189.486 120.46 189.486H121.292V190.926H120.716C120.342 190.926 120.076 191.006 119.916 191.166C119.756 191.315 119.676 191.571 119.676 191.934V193.07H121.5V194.494H119.676V201.006H117.98ZM126.511 201.198C125.732 201.198 125.039 201.027 124.431 200.686C123.833 200.334 123.364 199.849 123.023 199.23C122.681 198.611 122.511 197.891 122.511 197.07C122.511 196.238 122.676 195.507 123.007 194.878C123.348 194.249 123.817 193.758 124.415 193.406C125.023 193.054 125.727 192.878 126.527 192.878C127.305 192.878 127.983 193.054 128.559 193.406C129.135 193.747 129.583 194.206 129.903 194.782C130.223 195.358 130.383 195.993 130.383 196.686C130.383 196.793 130.377 196.91 130.367 197.038C130.367 197.155 130.361 197.289 130.351 197.438H124.175C124.228 198.206 124.479 198.793 124.927 199.198C125.385 199.593 125.913 199.79 126.511 199.79C126.991 199.79 127.391 199.683 127.711 199.47C128.041 199.246 128.287 198.947 128.447 198.574H130.143C129.929 199.321 129.503 199.945 128.863 200.446C128.233 200.947 127.449 201.198 126.511 201.198ZM126.511 194.27C125.945 194.27 125.444 194.441 125.007 194.782C124.569 195.113 124.303 195.614 124.207 196.286H128.687C128.655 195.667 128.436 195.177 128.031 194.814C127.625 194.451 127.119 194.27 126.511 194.27ZM132.142 201.006V193.07H133.662L133.806 194.574C134.084 194.051 134.468 193.641 134.958 193.342C135.46 193.033 136.062 192.878 136.766 192.878V194.654H136.302C135.833 194.654 135.412 194.734 135.038 194.894C134.676 195.043 134.382 195.305 134.158 195.678C133.945 196.041 133.838 196.547 133.838 197.198V201.006H132.142ZM141.388 201.198C140.386 201.198 139.559 200.953 138.908 200.462C138.258 199.971 137.884 199.321 137.788 198.51H139.5C139.586 198.873 139.788 199.187 140.108 199.454C140.428 199.71 140.85 199.838 141.372 199.838C141.884 199.838 142.258 199.731 142.492 199.518C142.727 199.305 142.844 199.059 142.844 198.782C142.844 198.377 142.679 198.105 142.348 197.966C142.028 197.817 141.58 197.683 141.004 197.566C140.556 197.47 140.108 197.342 139.66 197.182C139.223 197.022 138.855 196.798 138.556 196.51C138.268 196.211 138.124 195.811 138.124 195.31C138.124 194.617 138.391 194.041 138.924 193.582C139.458 193.113 140.204 192.878 141.164 192.878C142.05 192.878 142.764 193.091 143.308 193.518C143.863 193.945 144.188 194.547 144.284 195.326H142.652C142.599 194.985 142.439 194.718 142.172 194.526C141.916 194.334 141.57 194.238 141.132 194.238C140.706 194.238 140.375 194.329 140.14 194.51C139.906 194.681 139.788 194.905 139.788 195.182C139.788 195.459 139.948 195.678 140.268 195.838C140.599 195.998 141.031 196.142 141.564 196.27C142.098 196.387 142.588 196.526 143.036 196.686C143.495 196.835 143.863 197.059 144.14 197.358C144.418 197.657 144.556 198.094 144.556 198.67C144.567 199.395 144.284 199.998 143.708 200.478C143.143 200.958 142.37 201.198 141.388 201.198ZM145.992 202.606V201.886C146.504 201.886 146.76 201.582 146.76 200.974V200.622H145.928V199.134H147.512C147.587 199.422 147.64 199.699 147.672 199.966C147.715 200.222 147.736 200.462 147.736 200.686C147.736 201.966 147.155 202.606 145.992 202.606ZM156.814 201.006C156.035 201.006 155.417 200.819 154.958 200.446C154.499 200.062 154.27 199.385 154.27 198.414V194.494H152.91V193.07H154.27L154.478 191.054H155.966V193.07H158.206V194.494H155.966V198.414C155.966 198.851 156.057 199.155 156.238 199.326C156.43 199.486 156.755 199.566 157.214 199.566H158.126V201.006H156.814ZM162.643 201.198C161.971 201.198 161.416 201.086 160.979 200.862C160.541 200.638 160.216 200.345 160.003 199.982C159.789 199.609 159.683 199.203 159.683 198.766C159.683 197.998 159.981 197.39 160.579 196.942C161.176 196.494 162.029 196.27 163.139 196.27H165.219V196.126C165.219 195.507 165.048 195.043 164.707 194.734C164.376 194.425 163.944 194.27 163.411 194.27C162.941 194.27 162.531 194.387 162.179 194.622C161.837 194.846 161.629 195.182 161.555 195.63H159.859C159.912 195.054 160.104 194.563 160.435 194.158C160.776 193.742 161.203 193.427 161.715 193.214C162.237 192.99 162.808 192.878 163.427 192.878C164.536 192.878 165.395 193.171 166.003 193.758C166.611 194.334 166.915 195.123 166.915 196.126V201.006H165.443L165.299 199.646C165.075 200.083 164.749 200.451 164.323 200.75C163.896 201.049 163.336 201.198 162.643 201.198ZM162.979 199.822C163.437 199.822 163.821 199.715 164.131 199.502C164.451 199.278 164.696 198.985 164.867 198.622C165.048 198.259 165.16 197.859 165.203 197.422H163.315C162.643 197.422 162.163 197.539 161.875 197.774C161.597 198.009 161.459 198.302 161.459 198.654C161.459 199.017 161.592 199.305 161.859 199.518C162.136 199.721 162.509 199.822 162.979 199.822ZM168.892 204.526V193.07H170.412L170.588 194.302C170.844 193.929 171.196 193.598 171.644 193.31C172.092 193.022 172.668 192.878 173.372 192.878C174.14 192.878 174.818 193.059 175.404 193.422C175.991 193.785 176.45 194.281 176.78 194.91C177.122 195.539 177.292 196.254 177.292 197.054C177.292 197.854 177.122 198.569 176.78 199.198C176.45 199.817 175.991 200.307 175.404 200.67C174.818 201.022 174.135 201.198 173.356 201.198C172.738 201.198 172.188 201.075 171.708 200.83C171.239 200.585 170.866 200.238 170.588 199.79V204.526H168.892ZM173.068 199.726C173.794 199.726 174.391 199.481 174.86 198.99C175.33 198.489 175.564 197.838 175.564 197.038C175.564 196.515 175.458 196.051 175.244 195.646C175.031 195.241 174.738 194.926 174.364 194.702C173.991 194.467 173.559 194.35 173.068 194.35C172.343 194.35 171.746 194.601 171.276 195.102C170.818 195.603 170.588 196.249 170.588 197.038C170.588 197.838 170.818 198.489 171.276 198.99C171.746 199.481 172.343 199.726 173.068 199.726ZM186.87 201.198C186.113 201.198 185.43 201.027 184.822 200.686C184.225 200.334 183.75 199.849 183.398 199.23C183.046 198.601 182.87 197.87 182.87 197.038C182.87 196.206 183.046 195.481 183.398 194.862C183.761 194.233 184.246 193.747 184.854 193.406C185.462 193.054 186.139 192.878 186.886 192.878C187.643 192.878 188.321 193.054 188.918 193.406C189.526 193.747 190.006 194.233 190.358 194.862C190.721 195.481 190.902 196.206 190.902 197.038C190.902 197.87 190.721 198.601 190.358 199.23C190.006 199.849 189.526 200.334 188.918 200.686C188.31 201.027 187.627 201.198 186.87 201.198ZM186.87 199.742C187.275 199.742 187.649 199.641 187.99 199.438C188.342 199.235 188.625 198.937 188.838 198.542C189.051 198.137 189.158 197.635 189.158 197.038C189.158 196.441 189.051 195.945 188.838 195.55C188.635 195.145 188.358 194.841 188.006 194.638C187.665 194.435 187.291 194.334 186.886 194.334C186.481 194.334 186.102 194.435 185.75 194.638C185.409 194.841 185.131 195.145 184.918 195.55C184.705 195.945 184.598 196.441 184.598 197.038C184.598 197.635 184.705 198.137 184.918 198.542C185.131 198.937 185.409 199.235 185.75 199.438C186.091 199.641 186.465 199.742 186.87 199.742ZM192.736 201.006V193.07H194.24L194.368 194.462C194.613 193.971 194.971 193.587 195.44 193.31C195.92 193.022 196.469 192.878 197.088 192.878C198.048 192.878 198.8 193.177 199.344 193.774C199.899 194.371 200.176 195.262 200.176 196.446V201.006H198.496V196.622C198.496 195.086 197.867 194.318 196.608 194.318C195.979 194.318 195.456 194.542 195.04 194.99C194.635 195.438 194.432 196.078 194.432 196.91V201.006H192.736ZM209.533 201.006C208.754 201.006 208.135 200.819 207.677 200.446C207.218 200.062 206.989 199.385 206.989 198.414V194.494H205.629V193.07H206.989L207.197 191.054H208.685V193.07H210.925V194.494H208.685V198.414C208.685 198.851 208.775 199.155 208.957 199.326C209.149 199.486 209.474 199.566 209.933 199.566H210.845V201.006H209.533ZM212.674 201.006V189.486H214.37V194.35C214.636 193.891 215.004 193.534 215.474 193.278C215.954 193.011 216.482 192.878 217.058 192.878C218.007 192.878 218.754 193.177 219.298 193.774C219.842 194.371 220.114 195.262 220.114 196.446V201.006H218.434V196.622C218.434 195.086 217.82 194.318 216.594 194.318C215.954 194.318 215.42 194.542 214.994 194.99C214.578 195.438 214.37 196.078 214.37 196.91V201.006H212.674ZM225.823 201.198C225.044 201.198 224.351 201.027 223.743 200.686C223.146 200.334 222.676 199.849 222.335 199.23C221.994 198.611 221.823 197.891 221.823 197.07C221.823 196.238 221.988 195.507 222.319 194.878C222.66 194.249 223.13 193.758 223.727 193.406C224.335 193.054 225.039 192.878 225.839 192.878C226.618 192.878 227.295 193.054 227.871 193.406C228.447 193.747 228.895 194.206 229.215 194.782C229.535 195.358 229.695 195.993 229.695 196.686C229.695 196.793 229.69 196.91 229.679 197.038C229.679 197.155 229.674 197.289 229.663 197.438H223.487C223.54 198.206 223.791 198.793 224.239 199.198C224.698 199.593 225.226 199.79 225.823 199.79C226.303 199.79 226.703 199.683 227.023 199.47C227.354 199.246 227.599 198.947 227.759 198.574H229.455C229.242 199.321 228.815 199.945 228.175 200.446C227.546 200.947 226.762 201.198 225.823 201.198ZM225.823 194.27C225.258 194.27 224.756 194.441 224.319 194.782C223.882 195.113 223.615 195.614 223.519 196.286H227.999C227.967 195.667 227.748 195.177 227.343 194.814C226.938 194.451 226.431 194.27 225.823 194.27ZM235.486 201.006V189.486H237.182V194.35C237.449 193.891 237.817 193.534 238.286 193.278C238.766 193.011 239.294 192.878 239.87 192.878C240.819 192.878 241.566 193.177 242.11 193.774C242.654 194.371 242.926 195.262 242.926 196.446V201.006H241.246V196.622C241.246 195.086 240.633 194.318 239.406 194.318C238.766 194.318 238.233 194.542 237.806 194.99C237.39 195.438 237.182 196.078 237.182 196.91V201.006H235.486ZM248.636 201.198C247.857 201.198 247.164 201.027 246.556 200.686C245.958 200.334 245.489 199.849 245.148 199.23C244.806 198.611 244.636 197.891 244.636 197.07C244.636 196.238 244.801 195.507 245.132 194.878C245.473 194.249 245.942 193.758 246.54 193.406C247.148 193.054 247.852 192.878 248.652 192.878C249.43 192.878 250.108 193.054 250.684 193.406C251.26 193.747 251.708 194.206 252.028 194.782C252.348 195.358 252.508 195.993 252.508 196.686C252.508 196.793 252.502 196.91 252.492 197.038C252.492 197.155 252.486 197.289 252.476 197.438H246.3C246.353 198.206 246.604 198.793 247.052 199.198C247.51 199.593 248.038 199.79 248.636 199.79C249.116 199.79 249.516 199.683 249.836 199.47C250.166 199.246 250.412 198.947 250.572 198.574H252.268C252.054 199.321 251.628 199.945 250.988 200.446C250.358 200.947 249.574 201.198 248.636 201.198ZM248.636 194.27C248.07 194.27 247.569 194.441 247.132 194.782C246.694 195.113 246.428 195.614 246.332 196.286H250.812C250.78 195.667 250.561 195.177 250.156 194.814C249.75 194.451 249.244 194.27 248.636 194.27ZM256.955 201.198C256.283 201.198 255.729 201.086 255.291 200.862C254.854 200.638 254.529 200.345 254.315 199.982C254.102 199.609 253.995 199.203 253.995 198.766C253.995 197.998 254.294 197.39 254.891 196.942C255.489 196.494 256.342 196.27 257.451 196.27H259.531V196.126C259.531 195.507 259.361 195.043 259.019 194.734C258.689 194.425 258.257 194.27 257.723 194.27C257.254 194.27 256.843 194.387 256.491 194.622C256.15 194.846 255.942 195.182 255.867 195.63H254.171C254.225 195.054 254.417 194.563 254.747 194.158C255.089 193.742 255.515 193.427 256.027 193.214C256.55 192.99 257.121 192.878 257.739 192.878C258.849 192.878 259.707 193.171 260.315 193.758C260.923 194.334 261.227 195.123 261.227 196.126V201.006H259.755L259.611 199.646C259.387 200.083 259.062 200.451 258.635 200.75C258.209 201.049 257.649 201.198 256.955 201.198ZM257.291 199.822C257.75 199.822 258.134 199.715 258.443 199.502C258.763 199.278 259.009 198.985 259.179 198.622C259.361 198.259 259.473 197.859 259.515 197.422H257.627C256.955 197.422 256.475 197.539 256.187 197.774C255.91 198.009 255.771 198.302 255.771 198.654C255.771 199.017 255.905 199.305 256.171 199.518C256.449 199.721 256.822 199.822 257.291 199.822ZM263.205 201.006V193.07H264.725L264.869 194.574C265.146 194.051 265.53 193.641 266.021 193.342C266.522 193.033 267.125 192.878 267.829 192.878V194.654H267.365C266.895 194.654 266.474 194.734 266.101 194.894C265.738 195.043 265.445 195.305 265.221 195.678C265.007 196.041 264.901 196.547 264.901 197.198V201.006H263.205ZM272.611 201.006C271.832 201.006 271.214 200.819 270.755 200.446C270.296 200.062 270.067 199.385 270.067 198.414V194.494H268.707V193.07H270.067L270.275 191.054H271.763V193.07H274.003V194.494H271.763V198.414C271.763 198.851 271.854 199.155 272.035 199.326C272.227 199.486 272.552 199.566 273.011 199.566H273.923V201.006H272.611ZM280.743 191.566C280.423 191.566 280.156 191.47 279.943 191.278C279.74 191.075 279.639 190.825 279.639 190.526C279.639 190.227 279.74 189.982 279.943 189.79C280.156 189.587 280.423 189.486 280.743 189.486C281.063 189.486 281.324 189.587 281.527 189.79C281.74 189.982 281.847 190.227 281.847 190.526C281.847 190.825 281.74 191.075 281.527 191.278C281.324 191.47 281.063 191.566 280.743 191.566ZM279.895 201.006V193.07H281.591V201.006H279.895ZM287.59 201.198C286.811 201.198 286.112 201.022 285.494 200.67C284.886 200.318 284.406 199.833 284.054 199.214C283.712 198.585 283.542 197.859 283.542 197.038C283.542 196.217 283.712 195.497 284.054 194.878C284.406 194.249 284.886 193.758 285.494 193.406C286.112 193.054 286.811 192.878 287.59 192.878C288.571 192.878 289.392 193.134 290.054 193.646C290.726 194.158 291.158 194.851 291.35 195.726H289.574C289.467 195.289 289.232 194.947 288.87 194.702C288.507 194.457 288.08 194.334 287.59 194.334C287.174 194.334 286.79 194.441 286.438 194.654C286.086 194.857 285.803 195.161 285.59 195.566C285.376 195.961 285.27 196.451 285.27 197.038C285.27 197.625 285.376 198.121 285.59 198.526C285.803 198.921 286.086 199.225 286.438 199.438C286.79 199.651 287.174 199.758 287.59 199.758C288.08 199.758 288.507 199.635 288.87 199.39C289.232 199.145 289.467 198.798 289.574 198.35H291.35C291.168 199.203 290.742 199.891 290.07 200.414C289.398 200.937 288.571 201.198 287.59 201.198ZM296.901 201.198C296.144 201.198 295.461 201.027 294.853 200.686C294.256 200.334 293.781 199.849 293.429 199.23C293.077 198.601 292.901 197.87 292.901 197.038C292.901 196.206 293.077 195.481 293.429 194.862C293.792 194.233 294.277 193.747 294.885 193.406C295.493 193.054 296.171 192.878 296.917 192.878C297.675 192.878 298.352 193.054 298.949 193.406C299.557 193.747 300.037 194.233 300.389 194.862C300.752 195.481 300.933 196.206 300.933 197.038C300.933 197.87 300.752 198.601 300.389 199.23C300.037 199.849 299.557 200.334 298.949 200.686C298.341 201.027 297.659 201.198 296.901 201.198ZM296.901 199.742C297.307 199.742 297.68 199.641 298.021 199.438C298.373 199.235 298.656 198.937 298.869 198.542C299.083 198.137 299.189 197.635 299.189 197.038C299.189 196.441 299.083 195.945 298.869 195.55C298.667 195.145 298.389 194.841 298.037 194.638C297.696 194.435 297.323 194.334 296.917 194.334C296.512 194.334 296.133 194.435 295.781 194.638C295.44 194.841 295.163 195.145 294.949 195.55C294.736 195.945 294.629 196.441 294.629 197.038C294.629 197.635 294.736 198.137 294.949 198.542C295.163 198.937 295.44 199.235 295.781 199.438C296.123 199.641 296.496 199.742 296.901 199.742ZM302.767 201.006V193.07H304.271L304.399 194.462C304.645 193.971 305.002 193.587 305.471 193.31C305.951 193.022 306.501 192.878 307.119 192.878C308.079 192.878 308.831 193.177 309.375 193.774C309.93 194.371 310.207 195.262 310.207 196.446V201.006H308.527V196.622C308.527 195.086 307.898 194.318 306.639 194.318C306.01 194.318 305.487 194.542 305.071 194.99C304.666 195.438 304.463 196.078 304.463 196.91V201.006H302.767ZM319.564 201.006C318.785 201.006 318.167 200.819 317.708 200.446C317.249 200.062 317.02 199.385 317.02 198.414V194.494H315.66V193.07H317.02L317.228 191.054H318.716V193.07H320.956V194.494H318.716V198.414C318.716 198.851 318.807 199.155 318.988 199.326C319.18 199.486 319.505 199.566 319.964 199.566H320.876V201.006H319.564ZM326.214 201.198C325.456 201.198 324.774 201.027 324.166 200.686C323.568 200.334 323.094 199.849 322.742 199.23C322.39 198.601 322.214 197.87 322.214 197.038C322.214 196.206 322.39 195.481 322.742 194.862C323.104 194.233 323.59 193.747 324.198 193.406C324.806 193.054 325.483 192.878 326.23 192.878C326.987 192.878 327.664 193.054 328.262 193.406C328.87 193.747 329.35 194.233 329.702 194.862C330.064 195.481 330.246 196.206 330.246 197.038C330.246 197.87 330.064 198.601 329.702 199.23C329.35 199.849 328.87 200.334 328.262 200.686C327.654 201.027 326.971 201.198 326.214 201.198ZM326.214 199.742C326.619 199.742 326.992 199.641 327.334 199.438C327.686 199.235 327.968 198.937 328.182 198.542C328.395 198.137 328.502 197.635 328.502 197.038C328.502 196.441 328.395 195.945 328.182 195.55C327.979 195.145 327.702 194.841 327.35 194.638C327.008 194.435 326.635 194.334 326.23 194.334C325.824 194.334 325.446 194.435 325.094 194.638C324.752 194.841 324.475 195.145 324.262 195.55C324.048 195.945 323.942 196.441 323.942 197.038C323.942 197.635 324.048 198.137 324.262 198.542C324.475 198.937 324.752 199.235 325.094 199.438C325.435 199.641 325.808 199.742 326.214 199.742ZM338.799 201.198C338.127 201.198 337.572 201.086 337.135 200.862C336.698 200.638 336.372 200.345 336.159 199.982C335.946 199.609 335.839 199.203 335.839 198.766C335.839 197.998 336.138 197.39 336.735 196.942C337.332 196.494 338.186 196.27 339.295 196.27H341.375V196.126C341.375 195.507 341.204 195.043 340.863 194.734C340.532 194.425 340.1 194.27 339.567 194.27C339.098 194.27 338.687 194.387 338.335 194.622C337.994 194.846 337.786 195.182 337.711 195.63H336.015C336.068 195.054 336.26 194.563 336.591 194.158C336.932 193.742 337.359 193.427 337.871 193.214C338.394 192.99 338.964 192.878 339.583 192.878C340.692 192.878 341.551 193.171 342.159 193.758C342.767 194.334 343.071 195.123 343.071 196.126V201.006H341.599L341.455 199.646C341.231 200.083 340.906 200.451 340.479 200.75C340.052 201.049 339.492 201.198 338.799 201.198ZM339.135 199.822C339.594 199.822 339.978 199.715 340.287 199.502C340.607 199.278 340.852 198.985 341.023 198.622C341.204 198.259 341.316 197.859 341.359 197.422H339.471C338.799 197.422 338.319 197.539 338.031 197.774C337.754 198.009 337.615 198.302 337.615 198.654C337.615 199.017 337.748 199.305 338.015 199.518C338.292 199.721 338.666 199.822 339.135 199.822ZM348.665 201.198C347.897 201.198 347.219 201.017 346.633 200.654C346.046 200.291 345.587 199.795 345.257 199.166C344.926 198.537 344.761 197.822 344.761 197.022C344.761 196.222 344.926 195.513 345.257 194.894C345.587 194.265 346.046 193.774 346.633 193.422C347.23 193.059 347.913 192.878 348.681 192.878C349.31 192.878 349.859 193.001 350.329 193.246C350.809 193.491 351.182 193.838 351.449 194.286V189.486H353.145V201.006H351.625L351.449 199.774C351.193 200.147 350.841 200.478 350.393 200.766C349.945 201.054 349.369 201.198 348.665 201.198ZM348.969 199.726C349.694 199.726 350.286 199.475 350.745 198.974C351.214 198.473 351.449 197.827 351.449 197.038C351.449 196.238 351.214 195.593 350.745 195.102C350.286 194.601 349.694 194.35 348.969 194.35C348.243 194.35 347.646 194.601 347.177 195.102C346.707 195.593 346.473 196.238 346.473 197.038C346.473 197.561 346.579 198.025 346.793 198.43C347.006 198.835 347.299 199.155 347.673 199.39C348.057 199.614 348.489 199.726 348.969 199.726ZM358.899 201.198C358.131 201.198 357.454 201.017 356.867 200.654C356.28 200.291 355.822 199.795 355.491 199.166C355.16 198.537 354.995 197.822 354.995 197.022C354.995 196.222 355.16 195.513 355.491 194.894C355.822 194.265 356.28 193.774 356.867 193.422C357.464 193.059 358.147 192.878 358.915 192.878C359.544 192.878 360.094 193.001 360.563 193.246C361.043 193.491 361.416 193.838 361.683 194.286V189.486H363.379V201.006H361.859L361.683 199.774C361.427 200.147 361.075 200.478 360.627 200.766C360.179 201.054 359.603 201.198 358.899 201.198ZM359.203 199.726C359.928 199.726 360.52 199.475 360.979 198.974C361.448 198.473 361.683 197.827 361.683 197.038C361.683 196.238 361.448 195.593 360.979 195.102C360.52 194.601 359.928 194.35 359.203 194.35C358.478 194.35 357.88 194.601 357.411 195.102C356.942 195.593 356.707 196.238 356.707 197.038C356.707 197.561 356.814 198.025 357.027 198.43C357.24 198.835 357.534 199.155 357.907 199.39C358.291 199.614 358.723 199.726 359.203 199.726ZM372.877 201.006C372.098 201.006 371.479 200.819 371.021 200.446C370.562 200.062 370.333 199.385 370.333 198.414V194.494H368.973V193.07H370.333L370.541 191.054H372.029V193.07H374.269V194.494H372.029V198.414C372.029 198.851 372.119 199.155 372.301 199.326C372.493 199.486 372.818 199.566 373.277 199.566H374.189V201.006H372.877ZM379.526 201.198C378.769 201.198 378.086 201.027 377.478 200.686C376.881 200.334 376.406 199.849 376.054 199.23C375.702 198.601 375.526 197.87 375.526 197.038C375.526 196.206 375.702 195.481 376.054 194.862C376.417 194.233 376.902 193.747 377.51 193.406C378.118 193.054 378.796 192.878 379.542 192.878C380.3 192.878 380.977 193.054 381.574 193.406C382.182 193.747 382.662 194.233 383.014 194.862C383.377 195.481 383.558 196.206 383.558 197.038C383.558 197.87 383.377 198.601 383.014 199.23C382.662 199.849 382.182 200.334 381.574 200.686C380.966 201.027 380.284 201.198 379.526 201.198ZM379.526 199.742C379.932 199.742 380.305 199.641 380.646 199.438C380.998 199.235 381.281 198.937 381.494 198.542C381.708 198.137 381.814 197.635 381.814 197.038C381.814 196.441 381.708 195.945 381.494 195.55C381.292 195.145 381.014 194.841 380.662 194.638C380.321 194.435 379.948 194.334 379.542 194.334C379.137 194.334 378.758 194.435 378.406 194.638C378.065 194.841 377.788 195.145 377.574 195.55C377.361 195.945 377.254 196.441 377.254 197.038C377.254 197.635 377.361 198.137 377.574 198.542C377.788 198.937 378.065 199.235 378.406 199.438C378.748 199.641 379.121 199.742 379.526 199.742ZM390.352 204.526L392.256 200.35H391.792L388.656 193.07H390.496L392.928 198.942L395.472 193.07H397.264L392.144 204.526H390.352ZM401.651 201.198C400.894 201.198 400.211 201.027 399.603 200.686C399.006 200.334 398.531 199.849 398.179 199.23C397.827 198.601 397.651 197.87 397.651 197.038C397.651 196.206 397.827 195.481 398.179 194.862C398.542 194.233 399.027 193.747 399.635 193.406C400.243 193.054 400.921 192.878 401.667 192.878C402.425 192.878 403.102 193.054 403.699 193.406C404.307 193.747 404.787 194.233 405.139 194.862C405.502 195.481 405.683 196.206 405.683 197.038C405.683 197.87 405.502 198.601 405.139 199.23C404.787 199.849 404.307 200.334 403.699 200.686C403.091 201.027 402.409 201.198 401.651 201.198ZM401.651 199.742C402.057 199.742 402.43 199.641 402.771 199.438C403.123 199.235 403.406 198.937 403.619 198.542C403.833 198.137 403.939 197.635 403.939 197.038C403.939 196.441 403.833 195.945 403.619 195.55C403.417 195.145 403.139 194.841 402.787 194.638C402.446 194.435 402.073 194.334 401.667 194.334C401.262 194.334 400.883 194.435 400.531 194.638C400.19 194.841 399.913 195.145 399.699 195.55C399.486 195.945 399.379 196.441 399.379 197.038C399.379 197.635 399.486 198.137 399.699 198.542C399.913 198.937 400.19 199.235 400.531 199.438C400.873 199.641 401.246 199.742 401.651 199.742ZM410.445 201.198C409.485 201.198 408.728 200.899 408.173 200.302C407.629 199.705 407.357 198.814 407.357 197.63V193.07H409.053V197.454C409.053 198.99 409.683 199.758 410.941 199.758C411.571 199.758 412.088 199.534 412.493 199.086C412.899 198.638 413.101 197.998 413.101 197.166V193.07H414.797V201.006H413.293L413.165 199.614C412.92 200.105 412.557 200.494 412.077 200.782C411.608 201.059 411.064 201.198 410.445 201.198ZM416.955 201.006V193.07H418.475L418.619 194.574C418.896 194.051 419.28 193.641 419.771 193.342C420.272 193.033 420.875 192.878 421.579 192.878V194.654H421.115C420.645 194.654 420.224 194.734 419.851 194.894C419.488 195.043 419.195 195.305 418.971 195.678C418.757 196.041 418.651 196.547 418.651 197.198V201.006H416.955ZM427.464 201.006V194.494H426.328V193.07H427.464V191.918C427.464 191.054 427.678 190.435 428.104 190.062C428.542 189.678 429.155 189.486 429.944 189.486H430.776V190.926H430.2C429.827 190.926 429.56 191.006 429.4 191.166C429.24 191.315 429.16 191.571 429.16 191.934V193.07H430.984V194.494H429.16V201.006H427.464ZM434.971 201.198C434.299 201.198 433.744 201.086 433.307 200.862C432.87 200.638 432.544 200.345 432.331 199.982C432.118 199.609 432.011 199.203 432.011 198.766C432.011 197.998 432.31 197.39 432.907 196.942C433.504 196.494 434.358 196.27 435.467 196.27H437.547V196.126C437.547 195.507 437.376 195.043 437.035 194.734C436.704 194.425 436.272 194.27 435.739 194.27C435.27 194.27 434.859 194.387 434.507 194.622C434.166 194.846 433.958 195.182 433.883 195.63H432.187C432.24 195.054 432.432 194.563 432.763 194.158C433.104 193.742 433.531 193.427 434.043 193.214C434.566 192.99 435.136 192.878 435.755 192.878C436.864 192.878 437.723 193.171 438.331 193.758C438.939 194.334 439.243 195.123 439.243 196.126V201.006H437.771L437.627 199.646C437.403 200.083 437.078 200.451 436.651 200.75C436.224 201.049 435.664 201.198 434.971 201.198ZM435.307 199.822C435.766 199.822 436.15 199.715 436.459 199.502C436.779 199.278 437.024 198.985 437.195 198.622C437.376 198.259 437.488 197.859 437.531 197.422H435.643C434.971 197.422 434.491 197.539 434.203 197.774C433.926 198.009 433.787 198.302 433.787 198.654C433.787 199.017 433.92 199.305 434.187 199.518C434.464 199.721 434.838 199.822 435.307 199.822ZM443.179 201.006L440.203 193.07H441.979L444.187 199.39L446.395 193.07H448.155L445.195 201.006H443.179ZM452.854 201.198C452.097 201.198 451.414 201.027 450.806 200.686C450.209 200.334 449.734 199.849 449.382 199.23C449.03 198.601 448.854 197.87 448.854 197.038C448.854 196.206 449.03 195.481 449.382 194.862C449.745 194.233 450.23 193.747 450.838 193.406C451.446 193.054 452.124 192.878 452.87 192.878C453.628 192.878 454.305 193.054 454.902 193.406C455.51 193.747 455.99 194.233 456.342 194.862C456.705 195.481 456.886 196.206 456.886 197.038C456.886 197.87 456.705 198.601 456.342 199.23C455.99 199.849 455.51 200.334 454.902 200.686C454.294 201.027 453.612 201.198 452.854 201.198ZM452.854 199.742C453.26 199.742 453.633 199.641 453.974 199.438C454.326 199.235 454.609 198.937 454.822 198.542C455.036 198.137 455.142 197.635 455.142 197.038C455.142 196.441 455.036 195.945 454.822 195.55C454.62 195.145 454.342 194.841 453.99 194.638C453.649 194.435 453.276 194.334 452.87 194.334C452.465 194.334 452.086 194.435 451.734 194.638C451.393 194.841 451.116 195.145 450.902 195.55C450.689 195.945 450.582 196.441 450.582 197.038C450.582 197.635 450.689 198.137 450.902 198.542C451.116 198.937 451.393 199.235 451.734 199.438C452.076 199.641 452.449 199.742 452.854 199.742ZM461.648 201.198C460.688 201.198 459.931 200.899 459.376 200.302C458.832 199.705 458.56 198.814 458.56 197.63V193.07H460.256V197.454C460.256 198.99 460.886 199.758 462.144 199.758C462.774 199.758 463.291 199.534 463.696 199.086C464.102 198.638 464.304 197.998 464.304 197.166V193.07H466V201.006H464.496L464.368 199.614C464.123 200.105 463.76 200.494 463.28 200.782C462.811 201.059 462.267 201.198 461.648 201.198ZM468.158 201.006V193.07H469.678L469.822 194.574C470.099 194.051 470.483 193.641 470.974 193.342C471.475 193.033 472.078 192.878 472.782 192.878V194.654H472.318C471.849 194.654 471.427 194.734 471.054 194.894C470.691 195.043 470.398 195.305 470.174 195.678C469.961 196.041 469.854 196.547 469.854 197.198V201.006H468.158ZM475.196 191.566C474.876 191.566 474.609 191.47 474.396 191.278C474.193 191.075 474.092 190.825 474.092 190.526C474.092 190.227 474.193 189.982 474.396 189.79C474.609 189.587 474.876 189.486 475.196 189.486C475.516 189.486 475.777 189.587 475.98 189.79C476.193 189.982 476.3 190.227 476.3 190.526C476.3 190.825 476.193 191.075 475.98 191.278C475.777 191.47 475.516 191.566 475.196 191.566ZM474.348 201.006V193.07H476.044V201.006H474.348ZM481.611 201.006C480.832 201.006 480.214 200.819 479.755 200.446C479.296 200.062 479.067 199.385 479.067 198.414V194.494H477.707V193.07H479.067L479.275 191.054H480.763V193.07H483.003V194.494H480.763V198.414C480.763 198.851 480.854 199.155 481.035 199.326C481.227 199.486 481.552 199.566 482.011 199.566H482.923V201.006H481.611ZM488.261 201.198C487.482 201.198 486.789 201.027 486.181 200.686C485.583 200.334 485.114 199.849 484.773 199.23C484.431 198.611 484.261 197.891 484.261 197.07C484.261 196.238 484.426 195.507 484.757 194.878C485.098 194.249 485.567 193.758 486.165 193.406C486.773 193.054 487.477 192.878 488.277 192.878C489.055 192.878 489.733 193.054 490.309 193.406C490.885 193.747 491.333 194.206 491.653 194.782C491.973 195.358 492.133 195.993 492.133 196.686C492.133 196.793 492.127 196.91 492.117 197.038C492.117 197.155 492.111 197.289 492.101 197.438H485.925C485.978 198.206 486.229 198.793 486.677 199.198C487.135 199.593 487.663 199.79 488.261 199.79C488.741 199.79 489.141 199.683 489.461 199.47C489.791 199.246 490.037 198.947 490.197 198.574H491.893C491.679 199.321 491.253 199.945 490.613 200.446C489.983 200.947 489.199 201.198 488.261 201.198ZM488.261 194.27C487.695 194.27 487.194 194.441 486.757 194.782C486.319 195.113 486.053 195.614 485.957 196.286H490.437C490.405 195.667 490.186 195.177 489.781 194.814C489.375 194.451 488.869 194.27 488.261 194.27ZM497.06 201.198C496.058 201.198 495.231 200.953 494.58 200.462C493.93 199.971 493.556 199.321 493.46 198.51H495.172C495.258 198.873 495.46 199.187 495.78 199.454C496.1 199.71 496.522 199.838 497.044 199.838C497.556 199.838 497.93 199.731 498.164 199.518C498.399 199.305 498.516 199.059 498.516 198.782C498.516 198.377 498.351 198.105 498.02 197.966C497.7 197.817 497.252 197.683 496.676 197.566C496.228 197.47 495.78 197.342 495.332 197.182C494.895 197.022 494.527 196.798 494.228 196.51C493.94 196.211 493.796 195.811 493.796 195.31C493.796 194.617 494.063 194.041 494.596 193.582C495.13 193.113 495.876 192.878 496.836 192.878C497.722 192.878 498.436 193.091 498.98 193.518C499.535 193.945 499.86 194.547 499.956 195.326H498.324C498.271 194.985 498.111 194.718 497.844 194.526C497.588 194.334 497.242 194.238 496.804 194.238C496.378 194.238 496.047 194.329 495.812 194.51C495.578 194.681 495.46 194.905 495.46 195.182C495.46 195.459 495.62 195.678 495.94 195.838C496.271 195.998 496.703 196.142 497.236 196.27C497.77 196.387 498.26 196.526 498.708 196.686C499.167 196.835 499.535 197.059 499.812 197.358C500.09 197.657 500.228 198.094 500.228 198.67C500.239 199.395 499.956 199.998 499.38 200.478C498.815 200.958 498.042 201.198 497.06 201.198ZM506.111 201.006V189.486H507.807V201.006H506.111ZM510.915 191.566C510.595 191.566 510.328 191.47 510.115 191.278C509.912 191.075 509.811 190.825 509.811 190.526C509.811 190.227 509.912 189.982 510.115 189.79C510.328 189.587 510.595 189.486 510.915 189.486C511.235 189.486 511.496 189.587 511.699 189.79C511.912 189.982 512.019 190.227 512.019 190.526C512.019 190.825 511.912 191.075 511.699 191.278C511.496 191.47 511.235 191.566 510.915 191.566ZM510.067 201.006V193.07H511.763V201.006H510.067ZM517.17 201.198C516.167 201.198 515.34 200.953 514.69 200.462C514.039 199.971 513.666 199.321 513.57 198.51H515.282C515.367 198.873 515.57 199.187 515.89 199.454C516.21 199.71 516.631 199.838 517.154 199.838C517.666 199.838 518.039 199.731 518.274 199.518C518.508 199.305 518.626 199.059 518.626 198.782C518.626 198.377 518.46 198.105 518.13 197.966C517.81 197.817 517.362 197.683 516.786 197.566C516.338 197.47 515.89 197.342 515.442 197.182C515.004 197.022 514.636 196.798 514.338 196.51C514.05 196.211 513.906 195.811 513.906 195.31C513.906 194.617 514.172 194.041 514.706 193.582C515.239 193.113 515.986 192.878 516.946 192.878C517.831 192.878 518.546 193.091 519.09 193.518C519.644 193.945 519.97 194.547 520.066 195.326H518.434C518.38 194.985 518.22 194.718 517.954 194.526C517.698 194.334 517.351 194.238 516.914 194.238C516.487 194.238 516.156 194.329 515.922 194.51C515.687 194.681 515.57 194.905 515.57 195.182C515.57 195.459 515.73 195.678 516.05 195.838C516.38 195.998 516.812 196.142 517.346 196.27C517.879 196.387 518.37 196.526 518.818 196.686C519.276 196.835 519.644 197.059 519.922 197.358C520.199 197.657 520.338 198.094 520.338 198.67C520.348 199.395 520.066 199.998 519.49 200.478C518.924 200.958 518.151 201.198 517.17 201.198ZM525.22 201.006C524.442 201.006 523.823 200.819 523.364 200.446C522.906 200.062 522.676 199.385 522.676 198.414V194.494H521.316V193.07H522.676L522.884 191.054H524.372V193.07H526.612V194.494H524.372V198.414C524.372 198.851 524.463 199.155 524.644 199.326C524.836 199.486 525.162 199.566 525.62 199.566H526.532V201.006H525.22ZM527.945 202.606V201.886C528.457 201.886 528.713 201.582 528.713 200.974V200.622H527.881V199.134H529.465C529.54 199.422 529.593 199.699 529.625 199.966C529.668 200.222 529.689 200.462 529.689 200.686C529.689 201.966 529.108 202.606 527.945 202.606ZM538.607 201.198C537.605 201.198 536.778 200.953 536.127 200.462C535.477 199.971 535.103 199.321 535.007 198.51H536.719C536.805 198.873 537.007 199.187 537.327 199.454C537.647 199.71 538.069 199.838 538.591 199.838C539.103 199.838 539.477 199.731 539.711 199.518C539.946 199.305 540.063 199.059 540.063 198.782C540.063 198.377 539.898 198.105 539.567 197.966C539.247 197.817 538.799 197.683 538.223 197.566C537.775 197.47 537.327 197.342 536.879 197.182C536.442 197.022 536.074 196.798 535.775 196.51C535.487 196.211 535.343 195.811 535.343 195.31C535.343 194.617 535.61 194.041 536.143 193.582C536.677 193.113 537.423 192.878 538.383 192.878C539.269 192.878 539.983 193.091 540.527 193.518C541.082 193.945 541.407 194.547 541.503 195.326H539.871C539.818 194.985 539.658 194.718 539.391 194.526C539.135 194.334 538.789 194.238 538.351 194.238C537.925 194.238 537.594 194.329 537.359 194.51C537.125 194.681 537.007 194.905 537.007 195.182C537.007 195.459 537.167 195.678 537.487 195.838C537.818 195.998 538.25 196.142 538.783 196.27C539.317 196.387 539.807 196.526 540.255 196.686C540.714 196.835 541.082 197.059 541.359 197.358C541.637 197.657 541.775 198.094 541.775 198.67C541.786 199.395 541.503 199.998 540.927 200.478C540.362 200.958 539.589 201.198 538.607 201.198ZM547.339 201.198C546.56 201.198 545.867 201.027 545.259 200.686C544.661 200.334 544.192 199.849 543.851 199.23C543.509 198.611 543.339 197.891 543.339 197.07C543.339 196.238 543.504 195.507 543.835 194.878C544.176 194.249 544.645 193.758 545.243 193.406C545.851 193.054 546.555 192.878 547.355 192.878C548.133 192.878 548.811 193.054 549.387 193.406C549.963 193.747 550.411 194.206 550.731 194.782C551.051 195.358 551.211 195.993 551.211 196.686C551.211 196.793 551.205 196.91 551.195 197.038C551.195 197.155 551.189 197.289 551.179 197.438H545.003C545.056 198.206 545.307 198.793 545.755 199.198C546.213 199.593 546.741 199.79 547.339 199.79C547.819 199.79 548.219 199.683 548.539 199.47C548.869 199.246 549.115 198.947 549.275 198.574H550.971C550.757 199.321 550.331 199.945 549.691 200.446C549.061 200.947 548.277 201.198 547.339 201.198ZM547.339 194.27C546.773 194.27 546.272 194.441 545.835 194.782C545.397 195.113 545.131 195.614 545.035 196.286H549.515C549.483 195.667 549.264 195.177 548.859 194.814C548.453 194.451 547.947 194.27 547.339 194.27ZM556.682 201.198C555.904 201.198 555.21 201.027 554.602 200.686C554.005 200.334 553.536 199.849 553.194 199.23C552.853 198.611 552.682 197.891 552.682 197.07C552.682 196.238 552.848 195.507 553.178 194.878C553.52 194.249 553.989 193.758 554.586 193.406C555.194 193.054 555.898 192.878 556.698 192.878C557.477 192.878 558.154 193.054 558.73 193.406C559.306 193.747 559.754 194.206 560.074 194.782C560.394 195.358 560.554 195.993 560.554 196.686C560.554 196.793 560.549 196.91 560.538 197.038C560.538 197.155 560.533 197.289 560.522 197.438H554.346C554.4 198.206 554.65 198.793 555.098 199.198C555.557 199.593 556.085 199.79 556.682 199.79C557.162 199.79 557.562 199.683 557.882 199.47C558.213 199.246 558.458 198.947 558.618 198.574H560.314C560.101 199.321 559.674 199.945 559.034 200.446C558.405 200.947 557.621 201.198 556.682 201.198ZM556.682 194.27C556.117 194.27 555.616 194.441 555.178 194.782C554.741 195.113 554.474 195.614 554.378 196.286H558.858C558.826 195.667 558.608 195.177 558.202 194.814C557.797 194.451 557.29 194.27 556.682 194.27ZM207.119 225.006C206.34 225.006 205.721 224.819 205.263 224.446C204.804 224.062 204.575 223.385 204.575 222.414V218.494H203.215V217.07H204.575L204.783 215.054H206.271V217.07H208.511V218.494H206.271V222.414C206.271 222.851 206.361 223.155 206.543 223.326C206.735 223.486 207.06 223.566 207.519 223.566H208.431V225.006H207.119ZM210.26 225.006V213.486H211.956V218.35C212.222 217.891 212.59 217.534 213.06 217.278C213.54 217.011 214.068 216.878 214.644 216.878C215.593 216.878 216.34 217.177 216.884 217.774C217.428 218.371 217.7 219.262 217.7 220.446V225.006H216.02V220.622C216.02 219.086 215.406 218.318 214.18 218.318C213.54 218.318 213.006 218.542 212.58 218.99C212.164 219.438 211.956 220.078 211.956 220.91V225.006H210.26ZM223.409 225.198C222.63 225.198 221.937 225.027 221.329 224.686C220.732 224.334 220.262 223.849 219.921 223.23C219.58 222.611 219.409 221.891 219.409 221.07C219.409 220.238 219.574 219.507 219.905 218.878C220.246 218.249 220.716 217.758 221.313 217.406C221.921 217.054 222.625 216.878 223.425 216.878C224.204 216.878 224.881 217.054 225.457 217.406C226.033 217.747 226.481 218.206 226.801 218.782C227.121 219.358 227.281 219.993 227.281 220.686C227.281 220.793 227.276 220.91 227.265 221.038C227.265 221.155 227.26 221.289 227.249 221.438H221.073C221.126 222.206 221.377 222.793 221.825 223.198C222.284 223.593 222.812 223.79 223.409 223.79C223.889 223.79 224.289 223.683 224.609 223.47C224.94 223.246 225.185 222.947 225.345 222.574H227.041C226.828 223.321 226.401 223.945 225.761 224.446C225.132 224.947 224.348 225.198 223.409 225.198ZM223.409 218.27C222.844 218.27 222.342 218.441 221.905 218.782C221.468 219.113 221.201 219.614 221.105 220.286H225.585C225.553 219.667 225.334 219.177 224.929 218.814C224.524 218.451 224.017 218.27 223.409 218.27ZM229.041 225.006V217.07H230.545L230.689 218.19C230.945 217.785 231.281 217.465 231.697 217.23C232.123 216.995 232.614 216.878 233.169 216.878C234.427 216.878 235.302 217.374 235.793 218.366C236.081 217.907 236.465 217.545 236.945 217.278C237.435 217.011 237.963 216.878 238.529 216.878C239.521 216.878 240.299 217.177 240.865 217.774C241.43 218.371 241.713 219.262 241.713 220.446V225.006H240.017V220.622C240.017 219.086 239.43 218.318 238.257 218.318C237.659 218.318 237.169 218.542 236.785 218.99C236.411 219.438 236.225 220.078 236.225 220.91V225.006H234.529V220.622C234.529 219.086 233.937 218.318 232.753 218.318C232.166 218.318 231.681 218.542 231.297 218.99C230.923 219.438 230.737 220.078 230.737 220.91V225.006H229.041ZM247.728 225.006V213.486H249.424V218.35C249.691 217.891 250.059 217.534 250.528 217.278C251.008 217.011 251.536 216.878 252.112 216.878C253.062 216.878 253.808 217.177 254.352 217.774C254.896 218.371 255.168 219.262 255.168 220.446V225.006H253.488V220.622C253.488 219.086 252.875 218.318 251.648 218.318C251.008 218.318 250.475 218.542 250.048 218.99C249.632 219.438 249.424 220.078 249.424 220.91V225.006H247.728ZM260.878 225.198C260.099 225.198 259.406 225.027 258.798 224.686C258.2 224.334 257.731 223.849 257.39 223.23C257.048 222.611 256.878 221.891 256.878 221.07C256.878 220.238 257.043 219.507 257.374 218.878C257.715 218.249 258.184 217.758 258.782 217.406C259.39 217.054 260.094 216.878 260.894 216.878C261.672 216.878 262.35 217.054 262.926 217.406C263.502 217.747 263.95 218.206 264.27 218.782C264.59 219.358 264.75 219.993 264.75 220.686C264.75 220.793 264.744 220.91 264.734 221.038C264.734 221.155 264.728 221.289 264.718 221.438H258.542C258.595 222.206 258.846 222.793 259.294 223.198C259.752 223.593 260.28 223.79 260.878 223.79C261.358 223.79 261.758 223.683 262.078 223.47C262.408 223.246 262.654 222.947 262.814 222.574H264.51C264.296 223.321 263.87 223.945 263.23 224.446C262.6 224.947 261.816 225.198 260.878 225.198ZM260.878 218.27C260.312 218.27 259.811 218.441 259.374 218.782C258.936 219.113 258.67 219.614 258.574 220.286H263.054C263.022 219.667 262.803 219.177 262.398 218.814C261.992 218.451 261.486 218.27 260.878 218.27ZM266.51 225.006V217.07H268.03L268.174 218.574C268.451 218.051 268.835 217.641 269.326 217.342C269.827 217.033 270.43 216.878 271.134 216.878V218.654H270.67C270.2 218.654 269.779 218.734 269.406 218.894C269.043 219.043 268.75 219.305 268.526 219.678C268.312 220.041 268.206 220.547 268.206 221.198V225.006H266.51ZM276.081 225.198C275.302 225.198 274.609 225.027 274.001 224.686C273.404 224.334 272.934 223.849 272.593 223.23C272.252 222.611 272.081 221.891 272.081 221.07C272.081 220.238 272.246 219.507 272.577 218.878C272.918 218.249 273.388 217.758 273.985 217.406C274.593 217.054 275.297 216.878 276.097 216.878C276.876 216.878 277.553 217.054 278.129 217.406C278.705 217.747 279.153 218.206 279.473 218.782C279.793 219.358 279.953 219.993 279.953 220.686C279.953 220.793 279.948 220.91 279.937 221.038C279.937 221.155 279.932 221.289 279.921 221.438H273.745C273.798 222.206 274.049 222.793 274.497 223.198C274.956 223.593 275.484 223.79 276.081 223.79C276.561 223.79 276.961 223.683 277.281 223.47C277.612 223.246 277.857 222.947 278.017 222.574H279.713C279.5 223.321 279.073 223.945 278.433 224.446C277.804 224.947 277.02 225.198 276.081 225.198ZM276.081 218.27C275.516 218.27 275.014 218.441 274.577 218.782C274.14 219.113 273.873 219.614 273.777 220.286H278.257C278.225 219.667 278.006 219.177 277.601 218.814C277.196 218.451 276.689 218.27 276.081 218.27ZM288.432 225.198C287.76 225.198 287.205 225.086 286.768 224.862C286.331 224.638 286.005 224.345 285.792 223.982C285.579 223.609 285.472 223.203 285.472 222.766C285.472 221.998 285.771 221.39 286.368 220.942C286.965 220.494 287.819 220.27 288.928 220.27H291.008V220.126C291.008 219.507 290.837 219.043 290.496 218.734C290.165 218.425 289.733 218.27 289.2 218.27C288.731 218.27 288.32 218.387 287.968 218.622C287.627 218.846 287.419 219.182 287.344 219.63H285.648C285.701 219.054 285.893 218.563 286.224 218.158C286.565 217.742 286.992 217.427 287.504 217.214C288.027 216.99 288.597 216.878 289.216 216.878C290.325 216.878 291.184 217.171 291.792 217.758C292.4 218.334 292.704 219.123 292.704 220.126V225.006H291.232L291.088 223.646C290.864 224.083 290.539 224.451 290.112 224.75C289.685 225.049 289.125 225.198 288.432 225.198ZM288.768 223.822C289.227 223.822 289.611 223.715 289.92 223.502C290.24 223.278 290.485 222.985 290.656 222.622C290.837 222.259 290.949 221.859 290.992 221.422H289.104C288.432 221.422 287.952 221.539 287.664 221.774C287.387 222.009 287.248 222.302 287.248 222.654C287.248 223.017 287.381 223.305 287.648 223.518C287.925 223.721 288.299 223.822 288.768 223.822ZM297.853 225.006C297.074 225.006 296.456 224.819 295.997 224.446C295.538 224.062 295.309 223.385 295.309 222.414V218.494H293.949V217.07H295.309L295.517 215.054H297.005V217.07H299.245V218.494H297.005V222.414C297.005 222.851 297.096 223.155 297.277 223.326C297.469 223.486 297.794 223.566 298.253 223.566H299.165V225.006H297.853ZM307.713 225.198C307.041 225.198 306.486 225.086 306.049 224.862C305.612 224.638 305.286 224.345 305.073 223.982C304.86 223.609 304.753 223.203 304.753 222.766C304.753 221.998 305.052 221.39 305.649 220.942C306.246 220.494 307.1 220.27 308.209 220.27H310.289V220.126C310.289 219.507 310.118 219.043 309.777 218.734C309.446 218.425 309.014 218.27 308.481 218.27C308.012 218.27 307.601 218.387 307.249 218.622C306.908 218.846 306.7 219.182 306.625 219.63H304.929C304.982 219.054 305.174 218.563 305.505 218.158C305.846 217.742 306.273 217.427 306.785 217.214C307.308 216.99 307.878 216.878 308.497 216.878C309.606 216.878 310.465 217.171 311.073 217.758C311.681 218.334 311.985 219.123 311.985 220.126V225.006H310.513L310.369 223.646C310.145 224.083 309.82 224.451 309.393 224.75C308.966 225.049 308.406 225.198 307.713 225.198ZM308.049 223.822C308.508 223.822 308.892 223.715 309.201 223.502C309.521 223.278 309.766 222.985 309.937 222.622C310.118 222.259 310.23 221.859 310.273 221.422H308.385C307.713 221.422 307.233 221.539 306.945 221.774C306.668 222.009 306.529 222.302 306.529 222.654C306.529 223.017 306.662 223.305 306.929 223.518C307.206 223.721 307.58 223.822 308.049 223.822ZM321.242 222.574C320.826 222.574 320.442 222.526 320.09 222.43L319.402 223.102C319.519 223.177 319.663 223.241 319.834 223.294C320.005 223.347 320.245 223.395 320.554 223.438C320.863 223.481 321.285 223.523 321.818 223.566C322.874 223.662 323.637 223.918 324.106 224.334C324.575 224.739 324.81 225.283 324.81 225.966C324.81 226.435 324.682 226.878 324.426 227.294C324.181 227.721 323.791 228.062 323.258 228.318C322.735 228.585 322.063 228.718 321.242 228.718C320.133 228.718 319.231 228.505 318.538 228.078C317.855 227.662 317.514 227.027 317.514 226.174C317.514 225.843 317.599 225.513 317.77 225.182C317.951 224.862 318.234 224.558 318.618 224.27C318.394 224.174 318.197 224.073 318.026 223.966C317.866 223.849 317.722 223.731 317.594 223.614V223.23L318.97 221.822C318.351 221.289 318.042 220.59 318.042 219.726C318.042 219.203 318.165 218.729 318.41 218.302C318.666 217.865 319.034 217.518 319.514 217.262C319.994 217.006 320.57 216.878 321.242 216.878C321.69 216.878 322.106 216.942 322.49 217.07H325.45V218.19L324.042 218.27C324.298 218.707 324.426 219.193 324.426 219.726C324.426 220.259 324.298 220.739 324.042 221.166C323.797 221.593 323.434 221.934 322.954 222.19C322.485 222.446 321.914 222.574 321.242 222.574ZM321.242 221.246C321.733 221.246 322.127 221.118 322.426 220.862C322.735 220.595 322.89 220.222 322.89 219.742C322.89 219.251 322.735 218.878 322.426 218.622C322.127 218.366 321.733 218.238 321.242 218.238C320.741 218.238 320.335 218.366 320.026 218.622C319.727 218.878 319.578 219.251 319.578 219.742C319.578 220.222 319.727 220.595 320.026 220.862C320.335 221.118 320.741 221.246 321.242 221.246ZM319.114 226.014C319.114 226.473 319.317 226.814 319.722 227.038C320.127 227.273 320.634 227.39 321.242 227.39C321.829 227.39 322.303 227.262 322.666 227.006C323.029 226.761 323.21 226.43 323.21 226.014C323.21 225.705 323.087 225.438 322.842 225.214C322.597 225.001 322.133 224.867 321.45 224.814C320.938 224.782 320.485 224.734 320.09 224.67C319.717 224.873 319.461 225.091 319.322 225.326C319.183 225.561 319.114 225.79 319.114 226.014ZM326.963 225.006V213.486H328.659V225.006H326.963ZM333.494 225.198C332.822 225.198 332.268 225.086 331.83 224.862C331.393 224.638 331.068 224.345 330.854 223.982C330.641 223.609 330.534 223.203 330.534 222.766C330.534 221.998 330.833 221.39 331.43 220.942C332.028 220.494 332.881 220.27 333.99 220.27H336.07V220.126C336.07 219.507 335.9 219.043 335.558 218.734C335.228 218.425 334.796 218.27 334.262 218.27C333.793 218.27 333.382 218.387 333.03 218.622C332.689 218.846 332.481 219.182 332.406 219.63H330.71C330.764 219.054 330.956 218.563 331.286 218.158C331.628 217.742 332.054 217.427 332.566 217.214C333.089 216.99 333.66 216.878 334.278 216.878C335.388 216.878 336.246 217.171 336.854 217.758C337.462 218.334 337.766 219.123 337.766 220.126V225.006H336.294L336.15 223.646C335.926 224.083 335.601 224.451 335.174 224.75C334.748 225.049 334.188 225.198 333.494 225.198ZM333.83 223.822C334.289 223.822 334.673 223.715 334.982 223.502C335.302 223.278 335.548 222.985 335.718 222.622C335.9 222.259 336.012 221.859 336.054 221.422H334.166C333.494 221.422 333.014 221.539 332.726 221.774C332.449 222.009 332.31 222.302 332.31 222.654C332.31 223.017 332.444 223.305 332.71 223.518C332.988 223.721 333.361 223.822 333.83 223.822ZM339.744 225.006V217.07H341.248L341.376 218.462C341.621 217.971 341.979 217.587 342.448 217.31C342.928 217.022 343.477 216.878 344.096 216.878C345.056 216.878 345.808 217.177 346.352 217.774C346.907 218.371 347.184 219.262 347.184 220.446V225.006H345.504V220.622C345.504 219.086 344.875 218.318 343.616 218.318C342.987 218.318 342.464 218.542 342.048 218.99C341.643 219.438 341.44 220.078 341.44 220.91V225.006H339.744ZM352.941 225.198C352.163 225.198 351.464 225.022 350.845 224.67C350.237 224.318 349.757 223.833 349.405 223.214C349.064 222.585 348.893 221.859 348.893 221.038C348.893 220.217 349.064 219.497 349.405 218.878C349.757 218.249 350.237 217.758 350.845 217.406C351.464 217.054 352.163 216.878 352.941 216.878C353.923 216.878 354.744 217.134 355.405 217.646C356.077 218.158 356.509 218.851 356.701 219.726H354.925C354.819 219.289 354.584 218.947 354.221 218.702C353.859 218.457 353.432 218.334 352.941 218.334C352.525 218.334 352.141 218.441 351.789 218.654C351.437 218.857 351.155 219.161 350.941 219.566C350.728 219.961 350.621 220.451 350.621 221.038C350.621 221.625 350.728 222.121 350.941 222.526C351.155 222.921 351.437 223.225 351.789 223.438C352.141 223.651 352.525 223.758 352.941 223.758C353.432 223.758 353.859 223.635 354.221 223.39C354.584 223.145 354.819 222.798 354.925 222.35H356.701C356.52 223.203 356.093 223.891 355.421 224.414C354.749 224.937 353.923 225.198 352.941 225.198ZM362.253 225.198C361.474 225.198 360.781 225.027 360.173 224.686C359.575 224.334 359.106 223.849 358.765 223.23C358.423 222.611 358.253 221.891 358.253 221.07C358.253 220.238 358.418 219.507 358.749 218.878C359.09 218.249 359.559 217.758 360.157 217.406C360.765 217.054 361.469 216.878 362.269 216.878C363.047 216.878 363.725 217.054 364.301 217.406C364.877 217.747 365.325 218.206 365.645 218.782C365.965 219.358 366.125 219.993 366.125 220.686C366.125 220.793 366.119 220.91 366.109 221.038C366.109 221.155 366.103 221.289 366.093 221.438H359.917C359.97 222.206 360.221 222.793 360.669 223.198C361.127 223.593 361.655 223.79 362.253 223.79C362.733 223.79 363.133 223.683 363.453 223.47C363.783 223.246 364.029 222.947 364.189 222.574H365.885C365.671 223.321 365.245 223.945 364.605 224.446C363.975 224.947 363.191 225.198 362.253 225.198ZM362.253 218.27C361.687 218.27 361.186 218.441 360.749 218.782C360.311 219.113 360.045 219.614 359.949 220.286H364.429C364.397 219.667 364.178 219.177 363.773 218.814C363.367 218.451 362.861 218.27 362.253 218.27ZM368.557 225.102C368.237 225.102 367.97 225.001 367.757 224.798C367.554 224.585 367.453 224.334 367.453 224.046C367.453 223.747 367.554 223.497 367.757 223.294C367.97 223.081 368.237 222.974 368.557 222.974C368.877 222.974 369.138 223.081 369.341 223.294C369.543 223.497 369.645 223.747 369.645 224.046C369.645 224.334 369.543 224.585 369.341 224.798C369.138 225.001 368.877 225.102 368.557 225.102Z" fill="#4A423B"/>
<defs>
<linearGradient id="paint0_linear_253_7553" x1="253.301" y1="106.559" x2="340.23" y2="106.559" gradientUnits="userSpaceOnUse">
<stop stop-color="#F9FAFA"/>
<stop offset="1" stop-color="#EEF0F1"/>
</linearGradient>
<linearGradient id="paint1_linear_253_7553" x1="310.031" y1="106.558" x2="340.229" y2="106.558" gradientUnits="userSpaceOnUse">
<stop stop-color="#F5F5F5" stop-opacity="0"/>
<stop offset="1" stop-color="#EEF0F1"/>
</linearGradient>
<linearGradient id="paint2_linear_253_7553" x1="241.127" y1="106.561" x2="265.477" y2="106.561" gradientUnits="userSpaceOnUse">
<stop stop-color="white" stop-opacity="0"/>
<stop offset="1" stop-color="#EEF0F1"/>
</linearGradient>
<linearGradient id="paint3_linear_253_7553" x1="216.777" y1="12.7204" x2="241.127" y2="12.7204" gradientUnits="userSpaceOnUse">
<stop stop-color="white"/>
<stop offset="1" stop-color="#EEF0F1"/>
</linearGradient>
</defs>
</svg>
