<svg width="120" height="44" viewBox="0 0 120 44" fill="none" xmlns="http://www.w3.org/2000/svg">
<path d="M66.5 19.5H62.5" stroke="#7E7E7E" stroke-width="1.5" stroke-linecap="round" stroke-linejoin="round"/>
<path d="M64.5 21.5V17.5" stroke="#7E7E7E" stroke-width="1.5" stroke-linecap="round" stroke-linejoin="round"/>
<path d="M60.1601 10.87C60.0601 10.86 59.9401 10.86 59.8301 10.87C57.4501 10.79 55.5601 8.84 55.5601 6.44C55.5501 3.99 57.5401 2 59.9901 2C62.4401 2 64.4301 3.99 64.4301 6.44C64.4301 8.84 62.5301 10.79 60.1601 10.87Z" stroke="#7E7E7E" stroke-width="1.5" stroke-linecap="round" stroke-linejoin="round"/>
<path d="M59.99 21.8097C58.17 21.8097 56.36 21.3497 54.98 20.4297C52.56 18.8097 52.56 16.1697 54.98 14.5597C57.73 12.7197 62.24 12.7197 64.99 14.5597" stroke="#7E7E7E" stroke-width="1.5" stroke-linecap="round" stroke-linejoin="round"/>
<path d="M22.388 40V31.6H25.1C25.756 31.6 26.292 31.708 26.708 31.924C27.124 32.14 27.432 32.436 27.632 32.812C27.832 33.188 27.932 33.604 27.932 34.06C27.932 34.588 27.788 35.064 27.5 35.488C27.22 35.912 26.78 36.212 26.18 36.388L28.016 40H26.828L25.124 36.532H25.052H23.396V40H22.388ZM23.396 35.74H25.028C25.676 35.74 26.148 35.584 26.444 35.272C26.74 34.96 26.888 34.56 26.888 34.072C26.888 33.576 26.74 33.184 26.444 32.896C26.156 32.6 25.68 32.452 25.016 32.452H23.396V35.74ZM31.754 40.144C31.186 40.144 30.682 40.016 30.242 39.76C29.802 39.496 29.454 39.132 29.198 38.668C28.95 38.204 28.826 37.656 28.826 37.024C28.826 36.4 28.95 35.856 29.198 35.392C29.446 34.92 29.79 34.556 30.23 34.3C30.678 34.036 31.194 33.904 31.778 33.904C32.354 33.904 32.85 34.036 33.266 34.3C33.69 34.556 34.014 34.896 34.238 35.32C34.462 35.744 34.574 36.2 34.574 36.688C34.574 36.776 34.57 36.864 34.562 36.952C34.562 37.04 34.562 37.14 34.562 37.252H29.822C29.846 37.708 29.95 38.088 30.134 38.392C30.326 38.688 30.562 38.912 30.842 39.064C31.13 39.216 31.434 39.292 31.754 39.292C32.17 39.292 32.518 39.196 32.798 39.004C33.078 38.812 33.282 38.552 33.41 38.224H34.406C34.246 38.776 33.938 39.236 33.482 39.604C33.034 39.964 32.458 40.144 31.754 40.144ZM31.754 34.756C31.274 34.756 30.846 34.904 30.47 35.2C30.102 35.488 29.89 35.912 29.834 36.472H33.578C33.554 35.936 33.37 35.516 33.026 35.212C32.682 34.908 32.258 34.756 31.754 34.756ZM36.234 40V34.9H35.334V34.048H36.234V33.016C36.234 32.44 36.378 32.02 36.666 31.756C36.954 31.492 37.374 31.36 37.926 31.36H38.526V32.224H38.082C37.778 32.224 37.562 32.288 37.434 32.416C37.306 32.536 37.242 32.744 37.242 33.04V34.048H38.706V34.9H37.242V40H36.234ZM42.3478 40.144C41.7798 40.144 41.2758 40.016 40.8358 39.76C40.3958 39.496 40.0478 39.132 39.7918 38.668C39.5438 38.204 39.4198 37.656 39.4198 37.024C39.4198 36.4 39.5438 35.856 39.7918 35.392C40.0398 34.92 40.3838 34.556 40.8238 34.3C41.2718 34.036 41.7878 33.904 42.3717 33.904C42.9478 33.904 43.4438 34.036 43.8598 34.3C44.2838 34.556 44.6078 34.896 44.8318 35.32C45.0558 35.744 45.1678 36.2 45.1678 36.688C45.1678 36.776 45.1638 36.864 45.1558 36.952C45.1558 37.04 45.1558 37.14 45.1558 37.252H40.4158C40.4398 37.708 40.5438 38.088 40.7278 38.392C40.9198 38.688 41.1558 38.912 41.4358 39.064C41.7238 39.216 42.0278 39.292 42.3478 39.292C42.7638 39.292 43.1118 39.196 43.3918 39.004C43.6718 38.812 43.8758 38.552 44.0038 38.224H44.9998C44.8398 38.776 44.5318 39.236 44.0758 39.604C43.6278 39.964 43.0518 40.144 42.3478 40.144ZM42.3478 34.756C41.8678 34.756 41.4398 34.904 41.0638 35.2C40.6958 35.488 40.4838 35.912 40.4277 36.472H44.1718C44.1478 35.936 43.9638 35.516 43.6198 35.212C43.2758 34.908 42.8518 34.756 42.3478 34.756ZM46.5038 40V34.048H47.4158L47.4998 35.188C47.6838 34.796 47.9638 34.484 48.3398 34.252C48.7158 34.02 49.1798 33.904 49.7318 33.904V34.96H49.4558C49.1038 34.96 48.7798 35.024 48.4838 35.152C48.1878 35.272 47.9518 35.48 47.7758 35.776C47.5998 36.072 47.5118 36.48 47.5118 37V40H46.5038ZM56.0189 40.144C55.5229 40.144 55.1109 40.06 54.7829 39.892C54.4549 39.724 54.2109 39.5 54.0509 39.22C53.8909 38.94 53.8109 38.636 53.8109 38.308C53.8109 37.7 54.0429 37.232 54.5069 36.904C54.9709 36.576 55.6029 36.412 56.4029 36.412H58.0109V36.34C58.0109 35.82 57.8749 35.428 57.6029 35.164C57.3309 34.892 56.9669 34.756 56.5109 34.756C56.1189 34.756 55.7789 34.856 55.4909 35.056C55.2109 35.248 55.0349 35.532 54.9629 35.908H53.9309C53.9709 35.476 54.1149 35.112 54.3629 34.816C54.6189 34.52 54.9349 34.296 55.3109 34.144C55.6869 33.984 56.0869 33.904 56.5109 33.904C57.3429 33.904 57.9669 34.128 58.3829 34.576C58.8069 35.016 59.0189 35.604 59.0189 36.34V40H58.1189L58.0589 38.932C57.8909 39.268 57.6429 39.556 57.3149 39.796C56.9949 40.028 56.5629 40.144 56.0189 40.144ZM56.1749 39.292C56.5589 39.292 56.8869 39.192 57.1589 38.992C57.4389 38.792 57.6509 38.532 57.7949 38.212C57.9389 37.892 58.0109 37.556 58.0109 37.204V37.192H56.4869C55.8949 37.192 55.4749 37.296 55.2269 37.504C54.9869 37.704 54.8669 37.956 54.8669 38.26C54.8669 38.572 54.9789 38.824 55.2029 39.016C55.4349 39.2 55.7589 39.292 56.1749 39.292ZM63.7669 40V31.6H68.8789V32.428H64.7749V35.38H68.2669V36.196H64.7749V40H63.7669ZM70.1171 40V34.048H71.0291L71.1131 35.188C71.2971 34.796 71.5771 34.484 71.9531 34.252C72.3291 34.02 72.7931 33.904 73.3451 33.904V34.96H73.0691C72.7171 34.96 72.3931 35.024 72.0971 35.152C71.8011 35.272 71.5651 35.48 71.3891 35.776C71.2131 36.072 71.1251 36.48 71.1251 37V40H70.1171ZM75.0884 32.728C74.8884 32.728 74.7204 32.664 74.5844 32.536C74.4564 32.4 74.3924 32.232 74.3924 32.032C74.3924 31.84 74.4564 31.68 74.5844 31.552C74.7204 31.424 74.8884 31.36 75.0884 31.36C75.2804 31.36 75.4444 31.424 75.5804 31.552C75.7164 31.68 75.7844 31.84 75.7844 32.032C75.7844 32.232 75.7164 32.4 75.5804 32.536C75.4444 32.664 75.2804 32.728 75.0884 32.728ZM74.5844 40V34.048H75.5924V40H74.5844ZM80.0235 40.144C79.4555 40.144 78.9515 40.016 78.5115 39.76C78.0715 39.496 77.7235 39.132 77.4675 38.668C77.2195 38.204 77.0955 37.656 77.0955 37.024C77.0955 36.4 77.2195 35.856 77.4675 35.392C77.7155 34.92 78.0595 34.556 78.4995 34.3C78.9475 34.036 79.4635 33.904 80.0475 33.904C80.6235 33.904 81.1195 34.036 81.5355 34.3C81.9595 34.556 82.2835 34.896 82.5075 35.32C82.7315 35.744 82.8435 36.2 82.8435 36.688C82.8435 36.776 82.8395 36.864 82.8315 36.952C82.8315 37.04 82.8315 37.14 82.8315 37.252H78.0915C78.1155 37.708 78.2195 38.088 78.4035 38.392C78.5955 38.688 78.8315 38.912 79.1115 39.064C79.3995 39.216 79.7035 39.292 80.0235 39.292C80.4395 39.292 80.7875 39.196 81.0675 39.004C81.3475 38.812 81.5515 38.552 81.6795 38.224H82.6755C82.5155 38.776 82.2075 39.236 81.7515 39.604C81.3035 39.964 80.7275 40.144 80.0235 40.144ZM80.0235 34.756C79.5435 34.756 79.1155 34.904 78.7395 35.2C78.3715 35.488 78.1595 35.912 78.1035 36.472H81.8475C81.8235 35.936 81.6395 35.516 81.2955 35.212C80.9515 34.908 80.5275 34.756 80.0235 34.756ZM84.1796 40V34.048H85.0916L85.1516 35.116C85.3436 34.74 85.6196 34.444 85.9796 34.228C86.3396 34.012 86.7476 33.904 87.2036 33.904C87.9076 33.904 88.4676 34.12 88.8836 34.552C89.3076 34.976 89.5196 35.632 89.5196 36.52V40H88.5116V36.628C88.5116 35.388 87.9996 34.768 86.9756 34.768C86.4636 34.768 86.0356 34.956 85.6916 35.332C85.3556 35.7 85.1876 36.228 85.1876 36.916V40H84.1796ZM93.7467 40.144C93.1548 40.144 92.6348 40.008 92.1868 39.736C91.7468 39.464 91.4028 39.092 91.1548 38.62C90.9148 38.148 90.7948 37.612 90.7948 37.012C90.7948 36.412 90.9188 35.88 91.1668 35.416C91.4148 34.944 91.7588 34.576 92.1988 34.312C92.6388 34.04 93.1588 33.904 93.7588 33.904C94.2468 33.904 94.6788 34.004 95.0548 34.204C95.4308 34.404 95.7228 34.684 95.9308 35.044V31.36H96.9388V40H96.0268L95.9308 39.016C95.7388 39.304 95.4628 39.564 95.1028 39.796C94.7428 40.028 94.2908 40.144 93.7467 40.144ZM93.8548 39.268C94.2548 39.268 94.6068 39.176 94.9108 38.992C95.2228 38.8 95.4628 38.536 95.6308 38.2C95.8068 37.864 95.8948 37.472 95.8948 37.024C95.8948 36.576 95.8068 36.184 95.6308 35.848C95.4628 35.512 95.2228 35.252 94.9108 35.068C94.6068 34.876 94.2548 34.78 93.8548 34.78C93.4628 34.78 93.1108 34.876 92.7988 35.068C92.4948 35.252 92.2548 35.512 92.0788 35.848C91.9108 36.184 91.8268 36.576 91.8268 37.024C91.8268 37.472 91.9108 37.864 92.0788 38.2C92.2548 38.536 92.4948 38.8 92.7988 38.992C93.1108 39.176 93.4628 39.268 93.8548 39.268Z" fill="#7E7E7E"/>
</svg>
