<svg width="74" height="74" viewBox="0 0 74 74" fill="none" xmlns="http://www.w3.org/2000/svg">
<circle cx="37" cy="37" r="37" fill="white"/>
<path d="M29.5543 53.5724C25.8851 53.5724 22.8789 50.9053 22.8789 47.6216V44.4766C22.8789 43.8445 23.4031 43.3203 24.0352 43.3203C24.6672 43.3203 25.1914 43.8445 25.1914 44.4766C25.1914 46.4036 27.0568 47.8528 29.5543 47.8528C32.0518 47.8528 33.9172 46.4036 33.9172 44.4766C33.9172 43.8445 34.4413 43.3203 35.0734 43.3203C35.7055 43.3203 36.2297 43.8445 36.2297 44.4766V47.6216C36.2297 50.9053 33.2388 53.5724 29.5543 53.5724ZM25.5922 49.1324C26.2705 50.3966 27.7968 51.2599 29.5543 51.2599C31.3118 51.2599 32.838 50.3811 33.5164 49.1324C32.4218 49.7953 31.0651 50.1807 29.5543 50.1807C28.0434 50.1807 26.6867 49.7953 25.5922 49.1324Z" fill="#C39D63"/>
<path d="M29.5543 45.941C27.0259 45.941 24.7597 44.7847 23.6343 42.9502C23.141 42.1485 22.8789 41.2081 22.8789 40.2522C22.8789 38.6335 23.5881 37.1227 24.8831 35.9972C27.3806 33.8081 31.6818 33.8082 34.1947 35.982C35.4897 37.1228 36.2143 38.6335 36.2143 40.2522C36.2143 41.2081 35.9522 42.1485 35.4588 42.9502C34.3488 44.7847 32.0826 45.941 29.5543 45.941ZM29.5543 36.6141C28.3518 36.6141 27.2418 37.0147 26.4093 37.7393C25.623 38.4177 25.1914 39.3118 25.1914 40.2522C25.1914 40.7918 25.3301 41.2853 25.6076 41.7478C26.3168 42.9195 27.8276 43.6441 29.5543 43.6441C31.2809 43.6441 32.7917 42.9195 33.4855 41.7632C33.763 41.3161 33.9018 40.8074 33.9018 40.2678C33.9018 39.3274 33.4701 38.4331 32.6839 37.7393C31.8668 37.0147 30.7568 36.6141 29.5543 36.6141Z" fill="#C39D63"/>
<path d="M29.5543 50.1819C25.7463 50.1819 22.8789 47.7307 22.8789 44.4932V40.2536C22.8789 36.9698 25.8697 34.3027 29.5543 34.3027C31.2963 34.3027 32.9614 34.904 34.2101 35.9832C35.5051 37.124 36.2297 38.6348 36.2297 40.2536V44.4932C36.2297 47.7307 33.3622 50.1819 29.5543 50.1819ZM29.5543 36.6152C27.1493 36.6152 25.1914 38.2494 25.1914 40.2536V44.4932C25.1914 46.4202 27.0568 47.8694 29.5543 47.8694C32.0518 47.8694 33.9172 46.4202 33.9172 44.4932V40.2536C33.9172 39.3132 33.4856 38.419 32.6993 37.7252C31.8668 37.0161 30.7568 36.6152 29.5543 36.6152Z" fill="#C39D63"/>
<path d="M47.8535 41.3169C45.5256 41.3169 43.5523 39.5903 43.3673 37.3703C43.2439 36.0907 43.7064 34.8419 44.6314 33.9323C45.4023 33.1307 46.4969 32.6836 47.6531 32.6836H50.8752C52.4014 32.7298 53.5731 33.9323 53.5731 35.4123V38.5882C53.5731 40.0682 52.4014 41.2707 50.9214 41.3169H47.8535ZM50.8289 34.9961H47.6685C47.1289 34.9961 46.6356 35.1965 46.281 35.5665C45.8339 35.9982 45.6181 36.584 45.6798 37.1698C45.7569 38.1873 46.7435 39.0044 47.8535 39.0044H50.8752C51.0756 39.0044 51.2606 38.8194 51.2606 38.5882V35.4123C51.2606 35.1811 51.0756 35.0115 50.8289 34.9961Z" fill="#C39D63"/>
<path d="M43.1651 51.2611H39.3109C38.6789 51.2611 38.1547 50.7369 38.1547 50.1048C38.1547 49.4727 38.6789 48.9486 39.3109 48.9486H43.1651C47.1426 48.9486 49.7172 46.374 49.7172 42.3965V41.3173H47.8518C45.5239 41.3173 43.5505 39.5907 43.3655 37.3707C43.2422 36.0911 43.7048 34.8423 44.6299 33.9327C45.4007 33.1311 46.4951 32.684 47.6514 32.684H49.7018V31.6048C49.7018 27.9973 47.5898 25.5152 44.1673 25.1144C43.7973 25.0527 43.4734 25.0527 43.1497 25.0527H29.2747C28.9047 25.0527 28.5501 25.0836 28.1956 25.1298C24.8039 25.5615 22.7227 28.0282 22.7227 31.6048V34.6882C22.7227 35.3202 22.1985 35.8444 21.5664 35.8444C20.9343 35.8444 20.4102 35.3202 20.4102 34.6882V31.6048C20.4102 26.8565 23.3394 23.4186 27.8873 22.8482C28.3036 22.7865 28.7814 22.7402 29.2747 22.7402H43.1497C43.5197 22.7402 43.9976 22.7557 44.4909 22.8327C49.0389 23.3569 52.0143 26.8102 52.0143 31.6048V33.8403C52.0143 34.4723 51.4901 34.9965 50.858 34.9965H47.6514C47.1118 34.9965 46.6186 35.1969 46.264 35.5669C45.8169 35.9986 45.6009 36.5844 45.6626 37.1702C45.7397 38.1877 46.7265 39.0048 47.8365 39.0048H50.8734C51.5055 39.0048 52.0297 39.529 52.0297 40.1611V42.3965C52.0297 47.6998 48.4684 51.2611 43.1651 51.2611Z" fill="#C39D63"/>
</svg>
