<svg width="22" height="26" viewBox="0 0 22 26" fill="none" xmlns="http://www.w3.org/2000/svg">
<path d="M9.77234 18.0469V20.2198C9.77234 22.0609 8.31804 23.5487 6.52744 23.5487C4.73684 23.5487 3.27344 22.0609 3.27344 20.2198V18.0469C3.27344 19.8879 4.72775 21.1938 6.52744 21.1938C8.31804 21.1938 9.77234 19.8772 9.77234 18.0469Z" stroke="white" stroke-width="1.5" stroke-linecap="round" stroke-linejoin="round"/>
<path d="M9.77162 15.1033C9.77162 15.6385 9.64436 16.1309 9.42622 16.559C8.88995 17.5973 7.79013 18.2503 6.51762 18.2503C5.24511 18.2503 4.14529 17.5866 3.60902 16.559C3.39087 16.1309 3.26367 15.6385 3.26367 15.1033C3.26367 14.1828 3.62723 13.3586 4.20894 12.7592C4.79975 12.1491 5.60867 11.7852 6.50852 11.7852C7.40837 11.7852 8.21734 12.1598 8.80815 12.7592C9.40805 13.3479 9.77162 14.1828 9.77162 15.1033Z" stroke="white" stroke-width="1.5" stroke-linecap="round" stroke-linejoin="round"/>
<path d="M9.77234 15.1023V18.0459C9.77234 19.887 8.31804 21.1928 6.52744 21.1928C4.73684 21.1928 3.27344 19.8763 3.27344 18.0459V15.1023C3.27344 13.2613 4.72775 11.7734 6.52744 11.7734C7.42728 11.7734 8.23626 12.148 8.82707 12.7475C9.40879 13.3469 9.77234 14.1818 9.77234 15.1023Z" stroke="white" stroke-width="1.5" stroke-linecap="round" stroke-linejoin="round"/>
<path d="M19.996 11.7421V13.9472C19.996 14.5359 19.5961 15.0175 19.0871 15.039H17.3056C16.3239 15.039 15.4241 14.1934 15.3423 13.0373C15.2877 12.363 15.5059 11.7315 15.8876 11.2926C16.2239 10.8858 16.6875 10.6504 17.1965 10.6504H19.0871C19.5961 10.6718 19.996 11.1534 19.996 11.7421Z" stroke="white" stroke-width="1.5" stroke-linecap="round" stroke-linejoin="round"/>
<path d="M1.81836 11.2388V9.09804C1.81836 6.18658 3.30901 4.15284 5.6268 3.81031C5.86312 3.7675 6.10853 3.74609 6.36303 3.74609H14.5434C14.7798 3.74609 15.007 3.75678 15.2251 3.7996C17.5702 4.12072 19.0881 6.16517 19.0881 9.09804V10.6501H17.1975C16.6885 10.6501 16.225 10.8856 15.8887 11.2923C15.5069 11.7312 15.2888 12.3627 15.3433 13.0371C15.4251 14.1931 16.3249 15.0387 17.3066 15.0387H19.0881V16.5908C19.0881 19.8019 17.2703 21.9427 14.5434 21.9427H12.2711" stroke="white" stroke-width="1.5" stroke-linecap="round" stroke-linejoin="round"/>
</svg>
