<svg width="97" height="31" viewBox="0 0 97 31" fill="none" xmlns="http://www.w3.org/2000/svg">
<path d="M0.888 12V3.6H1.896V7.308H6.252V3.6H7.26V12H6.252V8.136H1.896V12H0.888ZM11.6485 12.144C11.0805 12.144 10.5765 12.016 10.1365 11.76C9.69653 11.496 9.34853 11.132 9.09253 10.668C8.84453 10.204 8.72053 9.656 8.72053 9.024C8.72053 8.4 8.84453 7.856 9.09253 7.392C9.34053 6.92 9.68453 6.556 10.1245 6.3C10.5725 6.036 11.0885 5.904 11.6725 5.904C12.2485 5.904 12.7445 6.036 13.1605 6.3C13.5845 6.556 13.9085 6.896 14.1325 7.32C14.3565 7.744 14.4685 8.2 14.4685 8.688C14.4685 8.776 14.4645 8.864 14.4565 8.952C14.4565 9.04 14.4565 9.14 14.4565 9.252H9.71653C9.74053 9.708 9.84453 10.088 10.0285 10.392C10.2205 10.688 10.4565 10.912 10.7365 11.064C11.0245 11.216 11.3285 11.292 11.6485 11.292C12.0645 11.292 12.4125 11.196 12.6925 11.004C12.9725 10.812 13.1765 10.552 13.3045 10.224H14.3005C14.1405 10.776 13.8325 11.236 13.3765 11.604C12.9285 11.964 12.3525 12.144 11.6485 12.144ZM11.6485 6.756C11.1685 6.756 10.7405 6.904 10.3645 7.2C9.99653 7.488 9.78453 7.912 9.72853 8.472H13.4725C13.4485 7.936 13.2645 7.516 12.9205 7.212C12.5765 6.908 12.1525 6.756 11.6485 6.756ZM15.8046 12V3.36H16.8126V12H15.8046ZM18.4647 12V3.36H19.4727V12H18.4647ZM23.8369 12.144C23.2769 12.144 22.7729 12.016 22.3249 11.76C21.8769 11.504 21.5209 11.144 21.2569 10.68C21.0009 10.208 20.8729 9.656 20.8729 9.024C20.8729 8.392 21.0049 7.844 21.2689 7.38C21.5329 6.908 21.8889 6.544 22.3369 6.288C22.7929 6.032 23.3009 5.904 23.8609 5.904C24.4209 5.904 24.9249 6.032 25.3729 6.288C25.8209 6.544 26.1729 6.908 26.4289 7.38C26.6929 7.844 26.8249 8.392 26.8249 9.024C26.8249 9.656 26.6929 10.208 26.4289 10.68C26.1649 11.144 25.8049 11.504 25.3489 11.76C24.9009 12.016 24.3969 12.144 23.8369 12.144ZM23.8369 11.28C24.1809 11.28 24.5009 11.196 24.7969 11.028C25.0929 10.86 25.3329 10.608 25.5169 10.272C25.7009 9.936 25.7929 9.52 25.7929 9.024C25.7929 8.528 25.7009 8.112 25.5169 7.776C25.3409 7.44 25.1049 7.188 24.8089 7.02C24.5129 6.852 24.1969 6.768 23.8609 6.768C23.5169 6.768 23.1969 6.852 22.9009 7.02C22.6049 7.188 22.3649 7.44 22.1809 7.776C21.9969 8.112 21.9049 8.528 21.9049 9.024C21.9049 9.52 21.9969 9.936 22.1809 10.272C22.3649 10.608 22.6009 10.86 22.8889 11.028C23.1849 11.196 23.5009 11.28 23.8369 11.28ZM30.5742 12.84H42.5742V0.84H30.5742V12.84ZM4.572 28.144C3.748 28.144 3.036 27.964 2.436 27.604C1.844 27.236 1.384 26.728 1.056 26.08C0.728 25.424 0.564 24.664 0.564 23.8C0.564 22.944 0.728 22.192 1.056 21.544C1.384 20.888 1.844 20.376 2.436 20.008C3.036 19.64 3.748 19.456 4.572 19.456C5.532 19.456 6.312 19.688 6.912 20.152C7.52 20.608 7.908 21.248 8.076 22.072H6.96C6.832 21.552 6.568 21.136 6.168 20.824C5.776 20.504 5.244 20.344 4.572 20.344C3.972 20.344 3.448 20.484 3 20.764C2.552 21.036 2.204 21.432 1.956 21.952C1.716 22.464 1.596 23.08 1.596 23.8C1.596 24.52 1.716 25.14 1.956 25.66C2.204 26.172 2.552 26.568 3 26.848C3.448 27.12 3.972 27.256 4.572 27.256C5.244 27.256 5.776 27.104 6.168 26.8C6.568 26.488 6.832 26.076 6.96 25.564H8.076C7.908 26.372 7.52 27.004 6.912 27.46C6.312 27.916 5.532 28.144 4.572 28.144ZM11.4447 28.144C10.9487 28.144 10.5367 28.06 10.2087 27.892C9.88072 27.724 9.63672 27.5 9.47672 27.22C9.31672 26.94 9.23672 26.636 9.23672 26.308C9.23672 25.7 9.46872 25.232 9.93272 24.904C10.3967 24.576 11.0287 24.412 11.8287 24.412H13.4367V24.34C13.4367 23.82 13.3007 23.428 13.0287 23.164C12.7567 22.892 12.3927 22.756 11.9367 22.756C11.5447 22.756 11.2047 22.856 10.9167 23.056C10.6367 23.248 10.4607 23.532 10.3887 23.908H9.35672C9.39672 23.476 9.54072 23.112 9.78872 22.816C10.0447 22.52 10.3607 22.296 10.7367 22.144C11.1127 21.984 11.5127 21.904 11.9367 21.904C12.7687 21.904 13.3927 22.128 13.8087 22.576C14.2327 23.016 14.4447 23.604 14.4447 24.34V28H13.5447L13.4847 26.932C13.3167 27.268 13.0687 27.556 12.7407 27.796C12.4207 28.028 11.9887 28.144 11.4447 28.144ZM11.6007 27.292C11.9847 27.292 12.3127 27.192 12.5847 26.992C12.8647 26.792 13.0767 26.532 13.2207 26.212C13.3647 25.892 13.4367 25.556 13.4367 25.204V25.192H11.9127C11.3207 25.192 10.9007 25.296 10.6527 25.504C10.4127 25.704 10.2927 25.956 10.2927 26.26C10.2927 26.572 10.4047 26.824 10.6287 27.016C10.8607 27.2 11.1847 27.292 11.6007 27.292ZM15.9569 28V22.048H16.8689L16.9289 23.116C17.1209 22.74 17.3969 22.444 17.7569 22.228C18.1169 22.012 18.5249 21.904 18.9809 21.904C19.6849 21.904 20.2449 22.12 20.6609 22.552C21.0849 22.976 21.2969 23.632 21.2969 24.52V28H20.2889V24.628C20.2889 23.388 19.7769 22.768 18.7529 22.768C18.2409 22.768 17.8129 22.956 17.4689 23.332C17.1329 23.7 16.9649 24.228 16.9649 24.916V28H15.9569ZM27.1999 28L25.4599 22.048H26.4679L27.7279 26.716L29.1199 22.048H30.2599L31.6639 26.716L32.9119 22.048H33.9319L32.1919 28H31.1599L29.6959 23.092L28.2319 28H27.1999ZM37.5001 28.144C36.9321 28.144 36.4281 28.016 35.9881 27.76C35.5481 27.496 35.2001 27.132 34.9441 26.668C34.6961 26.204 34.5721 25.656 34.5721 25.024C34.5721 24.4 34.6961 23.856 34.9441 23.392C35.1921 22.92 35.5361 22.556 35.9761 22.3C36.4241 22.036 36.9401 21.904 37.5241 21.904C38.1001 21.904 38.5961 22.036 39.0121 22.3C39.4361 22.556 39.7601 22.896 39.9841 23.32C40.2081 23.744 40.3201 24.2 40.3201 24.688C40.3201 24.776 40.3161 24.864 40.3081 24.952C40.3081 25.04 40.3081 25.14 40.3081 25.252H35.5681C35.5921 25.708 35.6961 26.088 35.8801 26.392C36.0721 26.688 36.3081 26.912 36.5881 27.064C36.8761 27.216 37.1801 27.292 37.5001 27.292C37.9161 27.292 38.2641 27.196 38.5441 27.004C38.8241 26.812 39.0281 26.552 39.1561 26.224H40.1521C39.9921 26.776 39.6841 27.236 39.2281 27.604C38.7801 27.964 38.2041 28.144 37.5001 28.144ZM37.5001 22.756C37.0201 22.756 36.5921 22.904 36.2161 23.2C35.8481 23.488 35.6361 23.912 35.5801 24.472H39.3241C39.3001 23.936 39.1161 23.516 38.7721 23.212C38.4281 22.908 38.0041 22.756 37.5001 22.756ZM44.8319 28V19.36H45.8399V23.068C46.0399 22.7 46.3239 22.416 46.6919 22.216C47.0599 22.008 47.4599 21.904 47.8919 21.904C48.5799 21.904 49.1319 22.12 49.5479 22.552C49.9639 22.976 50.1719 23.632 50.1719 24.52V28H49.1759V24.628C49.1759 23.388 48.6759 22.768 47.6759 22.768C47.1559 22.768 46.7199 22.956 46.3679 23.332C46.0159 23.7 45.8399 24.228 45.8399 24.916V28H44.8319ZM54.3751 28.144C53.8071 28.144 53.3031 28.016 52.8631 27.76C52.4231 27.496 52.0751 27.132 51.8191 26.668C51.5711 26.204 51.4471 25.656 51.4471 25.024C51.4471 24.4 51.5711 23.856 51.8191 23.392C52.0671 22.92 52.4111 22.556 52.8511 22.3C53.2991 22.036 53.8151 21.904 54.3991 21.904C54.9751 21.904 55.4711 22.036 55.8871 22.3C56.3111 22.556 56.6351 22.896 56.8591 23.32C57.0831 23.744 57.1951 24.2 57.1951 24.688C57.1951 24.776 57.1911 24.864 57.1831 24.952C57.1831 25.04 57.1831 25.14 57.1831 25.252H52.4431C52.4671 25.708 52.5711 26.088 52.7551 26.392C52.9471 26.688 53.1831 26.912 53.4631 27.064C53.7511 27.216 54.0551 27.292 54.3751 27.292C54.7911 27.292 55.1391 27.196 55.4191 27.004C55.6991 26.812 55.9031 26.552 56.0311 26.224H57.0271C56.8671 26.776 56.5591 27.236 56.1031 27.604C55.6551 27.964 55.0791 28.144 54.3751 28.144ZM54.3751 22.756C53.8951 22.756 53.4671 22.904 53.0911 23.2C52.7231 23.488 52.5111 23.912 52.4551 24.472H56.1991C56.1751 23.936 55.9911 23.516 55.6471 23.212C55.3031 22.908 54.8791 22.756 54.3751 22.756ZM58.5311 28V19.36H59.5391V28H58.5311ZM61.1913 30.64V22.048H62.1033L62.1993 23.032C62.3913 22.744 62.6633 22.484 63.0153 22.252C63.3753 22.02 63.8313 21.904 64.3833 21.904C64.9753 21.904 65.4913 22.04 65.9313 22.312C66.3713 22.584 66.7113 22.956 66.9513 23.428C67.1993 23.9 67.3233 24.436 67.3233 25.036C67.3233 25.636 67.1993 26.172 66.9513 26.644C66.7113 27.108 66.3673 27.476 65.9193 27.748C65.4793 28.012 64.9633 28.144 64.3713 28.144C63.8833 28.144 63.4473 28.044 63.0633 27.844C62.6873 27.644 62.3993 27.364 62.1993 27.004V30.64H61.1913ZM64.2633 27.268C64.6633 27.268 65.0153 27.176 65.3193 26.992C65.6233 26.8 65.8633 26.536 66.0393 26.2C66.2153 25.864 66.3033 25.472 66.3033 25.024C66.3033 24.576 66.2153 24.184 66.0393 23.848C65.8633 23.512 65.6233 23.252 65.3193 23.068C65.0153 22.876 64.6633 22.78 64.2633 22.78C63.8633 22.78 63.5113 22.876 63.2073 23.068C62.9033 23.252 62.6633 23.512 62.4873 23.848C62.3113 24.184 62.2233 24.576 62.2233 25.024C62.2233 25.472 62.3113 25.864 62.4873 26.2C62.6633 26.536 62.9033 26.8 63.2073 26.992C63.5113 27.176 63.8633 27.268 64.2633 27.268ZM72.5502 30.64L74.0262 27.424H73.6782L71.3142 22.048H72.4062L74.3742 26.68L76.4622 22.048H77.5062L73.6062 30.64H72.5502ZM80.7197 28.144C80.1597 28.144 79.6557 28.016 79.2077 27.76C78.7597 27.504 78.4037 27.144 78.1397 26.68C77.8837 26.208 77.7557 25.656 77.7557 25.024C77.7557 24.392 77.8877 23.844 78.1517 23.38C78.4157 22.908 78.7717 22.544 79.2197 22.288C79.6757 22.032 80.1837 21.904 80.7437 21.904C81.3037 21.904 81.8077 22.032 82.2557 22.288C82.7037 22.544 83.0557 22.908 83.3117 23.38C83.5757 23.844 83.7077 24.392 83.7077 25.024C83.7077 25.656 83.5757 26.208 83.3117 26.68C83.0477 27.144 82.6877 27.504 82.2317 27.76C81.7837 28.016 81.2797 28.144 80.7197 28.144ZM80.7197 27.28C81.0637 27.28 81.3837 27.196 81.6797 27.028C81.9757 26.86 82.2157 26.608 82.3997 26.272C82.5837 25.936 82.6757 25.52 82.6757 25.024C82.6757 24.528 82.5837 24.112 82.3997 23.776C82.2237 23.44 81.9877 23.188 81.6917 23.02C81.3957 22.852 81.0797 22.768 80.7437 22.768C80.3997 22.768 80.0797 22.852 79.7837 23.02C79.4877 23.188 79.2477 23.44 79.0637 23.776C78.8797 24.112 78.7877 24.528 78.7877 25.024C78.7877 25.52 78.8797 25.936 79.0637 26.272C79.2477 26.608 79.4837 26.86 79.7717 27.028C80.0677 27.196 80.3837 27.28 80.7197 27.28ZM87.2812 28.144C86.5773 28.144 86.0173 27.932 85.6013 27.508C85.1853 27.076 84.9773 26.416 84.9773 25.528V22.048H85.9853V25.42C85.9853 26.66 86.4933 27.28 87.5093 27.28C88.0293 27.28 88.4573 27.096 88.7933 26.728C89.1373 26.352 89.3093 25.82 89.3093 25.132V22.048H90.3173V28H89.4053L89.3333 26.932C89.1493 27.308 88.8733 27.604 88.5053 27.82C88.1453 28.036 87.7373 28.144 87.2812 28.144ZM92.9604 25.648L92.9124 23.716H93.2844C93.7324 23.716 94.1484 23.672 94.5324 23.584C94.9244 23.496 95.2404 23.324 95.4804 23.068C95.7204 22.812 95.8404 22.428 95.8404 21.916C95.8404 21.42 95.6844 21.028 95.3724 20.74C95.0684 20.452 94.6644 20.308 94.1604 20.308C93.6484 20.308 93.2444 20.448 92.9484 20.728C92.6524 21.008 92.5044 21.384 92.5044 21.856H91.5444C91.5444 21.376 91.6524 20.956 91.8684 20.596C92.0924 20.236 92.4004 19.956 92.7924 19.756C93.1844 19.556 93.6404 19.456 94.1604 19.456C94.6804 19.456 95.1404 19.556 95.5404 19.756C95.9404 19.956 96.2524 20.24 96.4764 20.608C96.7004 20.976 96.8124 21.412 96.8124 21.916C96.8124 22.508 96.6844 22.988 96.4284 23.356C96.1804 23.724 95.8324 23.992 95.3844 24.16C94.9444 24.328 94.4404 24.412 93.8724 24.412L93.8364 25.648H92.9604ZM93.3924 28.06C93.1924 28.06 93.0244 27.996 92.8884 27.868C92.7604 27.732 92.6964 27.568 92.6964 27.376C92.6964 27.184 92.7604 27.024 92.8884 26.896C93.0244 26.76 93.1924 26.692 93.3924 26.692C93.5924 26.692 93.7564 26.76 93.8844 26.896C94.0124 27.024 94.0764 27.184 94.0764 27.376C94.0764 27.568 94.0124 27.732 93.8844 27.868C93.7564 27.996 93.5924 28.06 93.3924 28.06Z" fill="#4A423B"/>
</svg>
