<svg width="31" height="30" viewBox="0 0 31 30" fill="none" xmlns="http://www.w3.org/2000/svg">
<g id="facebook 1">
<g id="Vector">
<path d="M26 14C26 20.6274 20.6274 26 14 26C7.37258 26 2 20.6274 2 14C2 7.37258 7.37258 2 14 2C20.6274 2 26 7.37258 26 14Z" fill="url(#paint0_linear_156_367)"/>
<path d="M12.08 17.6V25.76C12.08 25.8925 12.1875 26 12.32 26H15.68C15.8125 26 15.92 25.8925 15.92 25.76V17.6C15.92 17.4675 16.0275 17.36 16.16 17.36H18.56C18.6925 17.36 18.8 17.2525 18.8 17.12V14.24C18.8 14.1075 18.6925 14 18.56 14H16.16C16.0275 14 15.92 13.8927 15.92 13.7602V11.6C15.92 10.64 17.12 10.16 17.6 10.16H19.04C19.1725 10.16 19.28 10.0525 19.28 9.92V7.04C19.28 6.90745 19.1726 6.8 19.04 6.8H15.92C13.616 6.8 12.08 9.2 12.08 10.64V13.76C12.08 13.8925 11.9725 14 11.84 14H9.44C9.30745 14 9.2 14.1075 9.2 14.24V17.12C9.2 17.2525 9.30745 17.36 9.44 17.36H11.84C11.9725 17.36 12.08 17.4675 12.08 17.6Z" fill="white"/>
</g>
</g>
<defs>
<linearGradient id="paint0_linear_156_367" x1="14" y1="2" x2="14" y2="26" gradientUnits="userSpaceOnUse">
<stop stop-color="#18ACFE"/>
<stop offset="1" stop-color="#0165E1"/>
</linearGradient>
</defs>
</svg>
