<svg width="26" height="26" viewBox="0 0 26 26" fill="none" xmlns="http://www.w3.org/2000/svg">
<g id="google 1" clip-path="url(#clip0_156_371)">
<path id="Vector" d="M24.6233 10.6489L14.3678 10.6484C13.9149 10.6484 13.5479 11.0096 13.5479 11.4553V14.6792C13.5479 15.1247 13.9149 15.486 14.3677 15.486H20.143C19.5106 17.101 18.3303 18.4536 16.8244 19.313L19.287 23.5079C23.2372 21.2597 25.5727 17.3151 25.5727 12.8994C25.5727 12.2706 25.5256 11.8212 25.4314 11.3151C25.3598 10.9306 25.0206 10.6489 24.6233 10.6489Z" fill="#167EE6"/>
<path id="Vector_2" d="M13.0012 20.3298C10.1749 20.3298 7.70758 18.8102 6.38242 16.5615L2.11963 18.9794C4.28894 22.6791 8.35275 25.1706 13.0012 25.1706C15.2816 25.1706 17.4333 24.5664 19.2869 23.5135V23.5077L16.8244 19.3127C15.6979 19.9556 14.3945 20.3298 13.0012 20.3298Z" fill="#12B347"/>
<path id="Vector_3" d="M19.2869 23.5132V23.5075L16.8244 19.3125C15.6979 19.9554 14.3945 20.3296 13.0012 20.3296V25.1704C15.2816 25.1704 17.4334 24.5662 19.2869 23.5132Z" fill="#0F993E"/>
<path id="Vector_4" d="M5.34895 12.7998C5.34895 11.4289 5.72913 10.1464 6.38231 9.03796L2.11951 6.62012C1.04362 8.4384 0.429688 10.5501 0.429688 12.7998C0.429688 15.0496 1.04362 17.1613 2.11951 18.9795L6.38231 16.5617C5.72913 15.4533 5.34895 14.1707 5.34895 12.7998Z" fill="#FFD500"/>
<path id="Vector_5" d="M13.0012 5.26951C14.8443 5.26951 16.5372 5.91396 17.8595 6.98593C18.1857 7.25036 18.6598 7.23127 18.9587 6.93722L21.28 4.65295C21.619 4.31932 21.5948 3.77321 21.2327 3.46403C19.0172 1.57268 16.1346 0.428711 13.0012 0.428711C8.35275 0.428711 4.28894 2.92015 2.11963 6.61993L6.38242 9.03776C7.70758 6.78911 10.1749 5.26951 13.0012 5.26951Z" fill="#FF4B26"/>
<path id="Vector_6" d="M17.8595 6.98593C18.1857 7.25036 18.6599 7.23127 18.9587 6.93722L21.28 4.65295C21.6189 4.31932 21.5948 3.77321 21.2327 3.46403C19.0172 1.57264 16.1346 0.428711 13.0012 0.428711V5.26951C14.8442 5.26951 16.5372 5.91396 17.8595 6.98593Z" fill="#D93F21"/>
</g>
<defs>
<clipPath id="clip0_156_371">
<rect width="25.1429" height="24.7419" fill="white" transform="translate(0.429688 0.428711)"/>
</clipPath>
</defs>
</svg>
