<svg width="39" height="16" viewBox="0 0 39 16" fill="none" xmlns="http://www.w3.org/2000/svg">
<path fill-rule="evenodd" clip-rule="evenodd" d="M0.325447 8.76412L7.44477 15.6835C7.87914 16.1055 8.58371 16.1055 9.01797 15.6835C9.45246 15.2609 9.45246 14.5765 9.01797 14.1544L3.79763 9.08079L37.7783 9.08079C38.3926 9.08079 38.8906 8.59692 38.8906 7.9996C38.8906 7.40283 38.3926 6.91842 37.7783 6.91842L3.79763 6.91842L9.01785 1.84478C9.45234 1.42326 9.45234 0.738312 9.01785 0.316284C8.80067 0.105517 8.51588 0.000143051 8.2312 0.000143051C7.94652 0.000143051 7.66184 0.105517 7.44465 0.316284L0.325447 7.23563C-0.109043 7.65712 -0.109043 8.34207 0.325447 8.76412Z" fill="#444237"/>
</svg>
