<svg width="22" height="22" viewBox="0 0 22 22" fill="none" xmlns="http://www.w3.org/2000/svg">
<path d="M17.04 12.55C16.62 12.96 16.38 13.55 16.44 14.18C16.53 15.26 17.52 16.05 18.6 16.05H20.5V17.24C20.5 19.31 18.81 21 16.74 21H5.26C3.19 21 1.5 19.31 1.5 17.24V10.51C1.5 8.44001 3.19 6.75 5.26 6.75H16.74C18.81 6.75 20.5 8.44001 20.5 10.51V11.95H18.48C17.92 11.95 17.41 12.17 17.04 12.55Z" stroke="#292D32" stroke-width="1.5" stroke-linecap="round" stroke-linejoin="round"/>
<path d="M1.5 11.4093V6.83937C1.5 5.64937 2.23 4.58933 3.34 4.16933L11.28 1.16933C12.52 0.699328 13.85 1.61936 13.85 2.94936V6.74934" stroke="#292D32" stroke-width="1.5" stroke-linecap="round" stroke-linejoin="round"/>
</svg>
