<svg width="28" height="28" viewBox="0 0 28 28" fill="none" xmlns="http://www.w3.org/2000/svg">
<circle cx="14" cy="14" r="14" fill="#2DA771" fill-opacity="0.2"/>
<path d="M20.4294 6.12586C20.3528 6.20297 19.9697 6.28009 19.5866 6.30579C19.2036 6.3315 18.5906 6.53714 18.182 6.79419C16.9051 7.64246 13.3552 12.4493 10.6225 17.0248C9.80528 18.4129 9.16681 18.3101 8.70711 16.7935C8.42619 15.7653 8.27295 15.5596 7.81325 15.611C6.89386 15.7396 6 16.4593 6 17.1533C6 18.2073 7.55787 21.8574 8.01756 21.8831C8.24741 21.8831 8.6305 21.9345 8.86034 21.9859C9.60097 22.1144 10.2905 21.3947 11.9761 18.5671C13.9681 15.2255 16.7263 11.4468 19.3568 8.41361C20.4294 7.15406 21.3233 6.10015 21.3233 6.07445C21.3233 5.94592 20.5571 5.99733 20.4294 6.12586Z" fill="#2DA771"/>
</svg>
