<svg width="1190" height="508" viewBox="0 0 1190 508" fill="none" xmlns="http://www.w3.org/2000/svg">
<g clip-path="url(#clip0_440_6320)">
<circle cx="646" cy="34" r="18" fill="#E9D5B2" fill-opacity="0.9"/>
<path d="M652.375 32.6425H650.208C648.43 32.6425 646.983 31.195 646.983 29.4175V27.25C646.983 26.8375 646.645 26.5 646.233 26.5H643.052C640.742 26.5 638.875 28 638.875 30.6775V37.3225C638.875 40 640.742 41.5 643.052 41.5H648.948C651.257 41.5 653.125 40 653.125 37.3225V33.3925C653.125 32.98 652.788 32.6425 652.375 32.6425ZM645.648 35.1475C645.535 35.26 645.392 35.3125 645.25 35.3125C645.108 35.3125 644.965 35.26 644.852 35.1475L644.312 34.6075V37.75C644.312 38.0575 644.057 38.3125 643.75 38.3125C643.443 38.3125 643.188 38.0575 643.188 37.75V34.6075L642.648 35.1475C642.43 35.365 642.07 35.365 641.852 35.1475C641.635 34.93 641.635 34.57 641.852 34.3525L643.352 32.8525C643.405 32.8075 643.457 32.77 643.517 32.74C643.532 32.7325 643.555 32.725 643.57 32.7175C643.615 32.7025 643.66 32.695 643.712 32.6875C643.735 32.6875 643.75 32.6875 643.773 32.6875C643.832 32.6875 643.893 32.7025 643.953 32.725C643.96 32.725 643.96 32.725 643.967 32.725C644.028 32.7475 644.088 32.7925 644.133 32.8375C644.14 32.845 644.148 32.845 644.148 32.8525L645.648 34.3525C645.865 34.57 645.865 34.93 645.648 35.1475Z" fill="#BB8D0B"/>
<path d="M650.072 31.6074C650.785 31.6149 651.775 31.6149 652.622 31.6149C653.05 31.6149 653.275 31.1124 652.975 30.8124C651.895 29.7249 649.96 27.7674 648.85 26.6574C648.542 26.3499 648.01 26.5599 648.01 26.9874V29.6049C648.01 30.6999 648.94 31.6074 650.072 31.6074Z" fill="#BB8D0B"/>
<rect width="1190" height="508" fill="#F2F2F2"/>
<path fill-rule="evenodd" clip-rule="evenodd" d="M595.91 234.305L609.263 212L642.789 268H613.713C613.937 266.476 614.053 264.918 614.053 263.333C614.053 250.703 606.684 239.74 595.91 234.305ZM595.91 234.305C591.302 231.98 586.07 230.667 580.526 230.667C562.02 230.667 547 245.301 547 263.333C547 281.365 562.02 296 580.526 296C597.407 296 611.386 283.824 613.713 268H575.737L595.91 234.305Z" fill="#B3B3B3"/>
</g>
<defs>
<clipPath id="clip0_440_6320">
<rect width="1190" height="508" fill="white"/>
</clipPath>
</defs>
</svg>
