<svg width="354" height="261" viewBox="0 0 354 261" fill="none" xmlns="http://www.w3.org/2000/svg">
<circle cx="179.5" cy="87" r="62" fill="#EDE2D0"/>
<path fill-rule="evenodd" clip-rule="evenodd" d="M195.335 73.477L180 67.1194C179.616 66.9602 179.184 66.9601 178.8 67.1194L163.465 73.477C162.881 73.7192 162.5 74.2886 162.5 74.9201V82.6486C162.5 93.2902 168.941 102.863 178.809 106.884C179.188 107.039 179.612 107.039 179.991 106.884C189.858 102.863 196.3 93.2903 196.3 82.6486V74.9201C196.3 74.2886 195.919 73.7192 195.335 73.477ZM178.492 89.1744L186.398 81.2798C187.117 80.5625 188.281 80.5625 189 81.2798C189.718 81.9971 189.718 83.1601 189 83.8773L179.793 93.0706C179.074 93.788 177.91 93.7878 177.191 93.0706L172.051 87.9375C171.332 87.2202 171.332 86.0572 172.051 85.34C172.769 84.6227 173.934 84.6226 174.652 85.34L178.492 89.1744Z" fill="white"/>
<circle cx="259.5" cy="35" r="9" fill="#EDE2D0"/>
<circle cx="131.5" cy="175" r="9" fill="#EDE2D0"/>
<circle cx="242" cy="153.5" r="4.5" fill="#EDE2D0"/>
<circle cx="98" cy="94.5" r="4.5" fill="#EDE2D0"/>
<circle cx="94.5" cy="9" r="9" fill="#EDE2D0"/>
<path d="M92.36 224.288C90.696 224.288 89.256 223.928 88.04 223.208C86.84 222.472 85.912 221.456 85.256 220.16C84.6 218.848 84.272 217.336 84.272 215.624C84.272 213.896 84.6 212.384 85.256 211.088C85.912 209.776 86.84 208.752 88.04 208.016C89.256 207.28 90.696 206.912 92.36 206.912C94.328 206.912 95.936 207.392 97.184 208.352C98.432 209.312 99.224 210.656 99.56 212.384H96.728C96.504 211.408 96.024 210.632 95.288 210.056C94.552 209.48 93.568 209.192 92.336 209.192C90.656 209.192 89.328 209.768 88.352 210.92C87.376 212.056 86.888 213.624 86.888 215.624C86.888 217.608 87.376 219.168 88.352 220.304C89.328 221.44 90.656 222.008 92.336 222.008C93.568 222.008 94.552 221.736 95.288 221.192C96.024 220.648 96.504 219.904 96.728 218.96H99.56C99.224 220.624 98.432 221.928 97.184 222.872C95.936 223.816 94.328 224.288 92.36 224.288ZM107.828 224.288C106.692 224.288 105.668 224.032 104.756 223.52C103.86 222.992 103.148 222.264 102.62 221.336C102.092 220.392 101.828 219.296 101.828 218.048C101.828 216.8 102.092 215.712 102.62 214.784C103.164 213.84 103.892 213.112 104.804 212.6C105.716 212.072 106.732 211.808 107.852 211.808C108.988 211.808 110.004 212.072 110.9 212.6C111.812 213.112 112.532 213.84 113.06 214.784C113.604 215.712 113.876 216.8 113.876 218.048C113.876 219.296 113.604 220.392 113.06 221.336C112.532 222.264 111.812 222.992 110.9 223.52C109.988 224.032 108.964 224.288 107.828 224.288ZM107.828 222.104C108.436 222.104 108.996 221.952 109.508 221.648C110.036 221.344 110.46 220.896 110.78 220.304C111.1 219.696 111.26 218.944 111.26 218.048C111.26 217.152 111.1 216.408 110.78 215.816C110.476 215.208 110.06 214.752 109.532 214.448C109.02 214.144 108.46 213.992 107.852 213.992C107.244 213.992 106.676 214.144 106.148 214.448C105.636 214.752 105.22 215.208 104.9 215.816C104.58 216.408 104.42 217.152 104.42 218.048C104.42 218.944 104.58 219.696 104.9 220.304C105.22 220.896 105.636 221.344 106.148 221.648C106.66 221.952 107.22 222.104 107.828 222.104ZM116.628 224V212.096H118.884L119.076 214.184C119.444 213.448 119.98 212.872 120.684 212.456C121.404 212.024 122.228 211.808 123.156 211.808C124.596 211.808 125.724 212.256 126.54 213.152C127.372 214.048 127.788 215.384 127.788 217.16V224H125.268V217.424C125.268 215.12 124.324 213.968 122.436 213.968C121.492 213.968 120.708 214.304 120.084 214.976C119.476 215.648 119.172 216.608 119.172 217.856V224H116.628ZM135.656 220.352C135.032 220.352 134.456 220.28 133.928 220.136L132.896 221.144C133.072 221.256 133.288 221.352 133.544 221.432C133.8 221.512 134.16 221.584 134.624 221.648C135.088 221.712 135.72 221.776 136.52 221.84C138.104 221.984 139.248 222.368 139.952 222.992C140.656 223.6 141.008 224.416 141.008 225.44C141.008 226.144 140.816 226.808 140.432 227.432C140.064 228.072 139.48 228.584 138.68 228.968C137.896 229.368 136.888 229.568 135.656 229.568C133.992 229.568 132.64 229.248 131.6 228.608C130.576 227.984 130.064 227.032 130.064 225.752C130.064 225.256 130.192 224.76 130.448 224.264C130.72 223.784 131.144 223.328 131.72 222.896C131.384 222.752 131.088 222.6 130.832 222.44C130.592 222.264 130.376 222.088 130.184 221.912V221.336L132.248 219.224C131.32 218.424 130.856 217.376 130.856 216.08C130.856 215.296 131.04 214.584 131.408 213.944C131.792 213.288 132.344 212.768 133.064 212.384C133.784 212 134.648 211.808 135.656 211.808C136.328 211.808 136.952 211.904 137.528 212.096H141.968V213.776L139.856 213.896C140.24 214.552 140.432 215.28 140.432 216.08C140.432 216.88 140.24 217.6 139.856 218.24C139.488 218.88 138.944 219.392 138.224 219.776C137.52 220.16 136.664 220.352 135.656 220.352ZM135.656 218.36C136.392 218.36 136.984 218.168 137.432 217.784C137.896 217.384 138.128 216.824 138.128 216.104C138.128 215.368 137.896 214.808 137.432 214.424C136.984 214.04 136.392 213.848 135.656 213.848C134.904 213.848 134.296 214.04 133.832 214.424C133.384 214.808 133.16 215.368 133.16 216.104C133.16 216.824 133.384 217.384 133.832 217.784C134.296 218.168 134.904 218.36 135.656 218.36ZM132.464 225.512C132.464 226.2 132.768 226.712 133.376 227.048C133.984 227.4 134.744 227.576 135.656 227.576C136.536 227.576 137.248 227.384 137.792 227C138.336 226.632 138.608 226.136 138.608 225.512C138.608 225.048 138.424 224.648 138.056 224.312C137.688 223.992 136.992 223.792 135.968 223.712C135.2 223.664 134.52 223.592 133.928 223.496C133.368 223.8 132.984 224.128 132.776 224.48C132.568 224.832 132.464 225.176 132.464 225.512ZM144.237 224V212.096H146.517L146.733 214.352C147.149 213.568 147.725 212.952 148.461 212.504C149.213 212.04 150.117 211.808 151.173 211.808V214.472H150.477C149.773 214.472 149.141 214.592 148.581 214.832C148.037 215.056 147.597 215.448 147.261 216.008C146.941 216.552 146.781 217.312 146.781 218.288V224H144.237ZM157.386 224.288C156.378 224.288 155.546 224.12 154.89 223.784C154.234 223.448 153.746 223.008 153.426 222.464C153.106 221.904 152.946 221.296 152.946 220.64C152.946 219.488 153.394 218.576 154.29 217.904C155.186 217.232 156.466 216.896 158.13 216.896H161.25V216.68C161.25 215.752 160.994 215.056 160.482 214.592C159.986 214.128 159.338 213.896 158.538 213.896C157.834 213.896 157.218 214.072 156.69 214.424C156.178 214.76 155.866 215.264 155.754 215.936H153.21C153.29 215.072 153.578 214.336 154.074 213.728C154.586 213.104 155.226 212.632 155.994 212.312C156.778 211.976 157.634 211.808 158.562 211.808C160.226 211.808 161.514 212.248 162.426 213.128C163.338 213.992 163.794 215.176 163.794 216.68V224H161.586L161.37 221.96C161.034 222.616 160.546 223.168 159.906 223.616C159.266 224.064 158.426 224.288 157.386 224.288ZM157.89 222.224C158.578 222.224 159.154 222.064 159.618 221.744C160.098 221.408 160.466 220.968 160.722 220.424C160.994 219.88 161.162 219.28 161.226 218.624H158.394C157.386 218.624 156.666 218.8 156.234 219.152C155.818 219.504 155.61 219.944 155.61 220.472C155.61 221.016 155.81 221.448 156.21 221.768C156.626 222.072 157.186 222.224 157.89 222.224ZM171.518 224C170.35 224 169.422 223.72 168.734 223.16C168.046 222.584 167.702 221.568 167.702 220.112V214.232H165.662V212.096H167.702L168.014 209.072H170.246V212.096H173.606V214.232H170.246V220.112C170.246 220.768 170.382 221.224 170.654 221.48C170.942 221.72 171.43 221.84 172.118 221.84H173.486V224H171.518ZM180.621 224.288C179.181 224.288 178.045 223.84 177.213 222.944C176.397 222.048 175.989 220.712 175.989 218.936V212.096H178.533V218.672C178.533 220.976 179.477 222.128 181.365 222.128C182.309 222.128 183.085 221.792 183.693 221.12C184.301 220.448 184.605 219.488 184.605 218.24V212.096H187.149V224H184.893L184.701 221.912C184.333 222.648 183.789 223.232 183.069 223.664C182.365 224.08 181.549 224.288 180.621 224.288ZM190.385 224V206.72H192.929V224H190.385ZM200.183 224.288C199.175 224.288 198.343 224.12 197.687 223.784C197.031 223.448 196.543 223.008 196.223 222.464C195.903 221.904 195.743 221.296 195.743 220.64C195.743 219.488 196.191 218.576 197.087 217.904C197.983 217.232 199.263 216.896 200.927 216.896H204.047V216.68C204.047 215.752 203.791 215.056 203.279 214.592C202.783 214.128 202.135 213.896 201.335 213.896C200.631 213.896 200.015 214.072 199.487 214.424C198.975 214.76 198.663 215.264 198.551 215.936H196.007C196.087 215.072 196.375 214.336 196.871 213.728C197.383 213.104 198.023 212.632 198.791 212.312C199.575 211.976 200.431 211.808 201.359 211.808C203.023 211.808 204.311 212.248 205.223 213.128C206.135 213.992 206.591 215.176 206.591 216.68V224H204.383L204.167 221.96C203.831 222.616 203.343 223.168 202.703 223.616C202.063 224.064 201.223 224.288 200.183 224.288ZM200.687 222.224C201.375 222.224 201.951 222.064 202.415 221.744C202.895 221.408 203.263 220.968 203.519 220.424C203.791 219.88 203.959 219.28 204.023 218.624H201.191C200.183 218.624 199.463 218.8 199.031 219.152C198.615 219.504 198.407 219.944 198.407 220.472C198.407 221.016 198.607 221.448 199.007 221.768C199.423 222.072 199.983 222.224 200.687 222.224ZM214.315 224C213.147 224 212.219 223.72 211.531 223.16C210.843 222.584 210.499 221.568 210.499 220.112V214.232H208.459V212.096H210.499L210.811 209.072H213.043V212.096H216.403V214.232H213.043V220.112C213.043 220.768 213.179 221.224 213.451 221.48C213.739 221.72 214.227 221.84 214.915 221.84H216.283V224H214.315ZM220.466 209.84C219.986 209.84 219.586 209.696 219.266 209.408C218.962 209.104 218.81 208.728 218.81 208.28C218.81 207.832 218.962 207.464 219.266 207.176C219.586 206.872 219.986 206.72 220.466 206.72C220.946 206.72 221.338 206.872 221.642 207.176C221.962 207.464 222.122 207.832 222.122 208.28C222.122 208.728 221.962 209.104 221.642 209.408C221.338 209.696 220.946 209.84 220.466 209.84ZM219.194 224V212.096H221.738V224H219.194ZM230.664 224.288C229.528 224.288 228.504 224.032 227.592 223.52C226.696 222.992 225.984 222.264 225.456 221.336C224.928 220.392 224.664 219.296 224.664 218.048C224.664 216.8 224.928 215.712 225.456 214.784C226 213.84 226.728 213.112 227.64 212.6C228.552 212.072 229.568 211.808 230.688 211.808C231.824 211.808 232.84 212.072 233.736 212.6C234.648 213.112 235.368 213.84 235.896 214.784C236.44 215.712 236.712 216.8 236.712 218.048C236.712 219.296 236.44 220.392 235.896 221.336C235.368 222.264 234.648 222.992 233.736 223.52C232.824 224.032 231.8 224.288 230.664 224.288ZM230.664 222.104C231.272 222.104 231.832 221.952 232.344 221.648C232.872 221.344 233.296 220.896 233.616 220.304C233.936 219.696 234.096 218.944 234.096 218.048C234.096 217.152 233.936 216.408 233.616 215.816C233.312 215.208 232.896 214.752 232.368 214.448C231.856 214.144 231.296 213.992 230.688 213.992C230.08 213.992 229.512 214.144 228.984 214.448C228.472 214.752 228.056 215.208 227.736 215.816C227.416 216.408 227.256 217.152 227.256 218.048C227.256 218.944 227.416 219.696 227.736 220.304C228.056 220.896 228.472 221.344 228.984 221.648C229.496 221.952 230.056 222.104 230.664 222.104ZM239.463 224V212.096H241.719L241.911 214.184C242.279 213.448 242.815 212.872 243.519 212.456C244.239 212.024 245.063 211.808 245.991 211.808C247.431 211.808 248.559 212.256 249.375 213.152C250.207 214.048 250.623 215.384 250.623 217.16V224H248.103V217.424C248.103 215.12 247.159 213.968 245.271 213.968C244.327 213.968 243.543 214.304 242.919 214.976C242.311 215.648 242.007 216.608 242.007 217.856V224H239.463ZM258.372 224.288C256.868 224.288 255.628 223.92 254.652 223.184C253.676 222.448 253.116 221.472 252.972 220.256H255.54C255.668 220.8 255.972 221.272 256.452 221.672C256.932 222.056 257.564 222.248 258.348 222.248C259.116 222.248 259.676 222.088 260.028 221.768C260.38 221.448 260.556 221.08 260.556 220.664C260.556 220.056 260.308 219.648 259.812 219.44C259.332 219.216 258.66 219.016 257.796 218.84C257.124 218.696 256.452 218.504 255.78 218.264C255.124 218.024 254.572 217.688 254.124 217.256C253.692 216.808 253.476 216.208 253.476 215.456C253.476 214.416 253.876 213.552 254.676 212.864C255.476 212.16 256.596 211.808 258.036 211.808C259.364 211.808 260.436 212.128 261.252 212.768C262.084 213.408 262.572 214.312 262.716 215.48H260.268C260.188 214.968 259.948 214.568 259.548 214.28C259.164 213.992 258.644 213.848 257.988 213.848C257.348 213.848 256.852 213.984 256.5 214.256C256.148 214.512 255.972 214.848 255.972 215.264C255.972 215.68 256.212 216.008 256.692 216.248C257.188 216.488 257.836 216.704 258.636 216.896C259.436 217.072 260.172 217.28 260.844 217.52C261.532 217.744 262.084 218.08 262.5 218.528C262.916 218.976 263.124 219.632 263.124 220.496C263.14 221.584 262.716 222.488 261.852 223.208C261.004 223.928 259.844 224.288 258.372 224.288ZM266.429 219.032L266.141 207.2H268.877L268.589 219.032H266.429ZM267.581 224.144C267.085 224.144 266.677 223.992 266.357 223.688C266.053 223.368 265.901 222.992 265.901 222.56C265.901 222.112 266.053 221.736 266.357 221.432C266.677 221.112 267.085 220.952 267.581 220.952C268.045 220.952 268.429 221.112 268.733 221.432C269.053 221.736 269.213 222.112 269.213 222.56C269.213 222.992 269.053 223.368 268.733 223.688C268.429 223.992 268.045 224.144 267.581 224.144Z" fill="#4A423B"/>
<path d="M30.1019 257V253.276L26.9099 247.2H28.2399L30.6899 252.156L33.1399 247.2H34.4559L31.2779 253.276V257H30.1019ZM37.6505 257.168C36.9972 257.168 36.4092 257.019 35.8865 256.72C35.3638 256.421 34.9485 256.001 34.6405 255.46C34.3418 254.909 34.1925 254.265 34.1925 253.528C34.1925 252.791 34.3465 252.151 34.6545 251.61C34.9625 251.059 35.3778 250.635 35.9005 250.336C36.4325 250.037 37.0252 249.888 37.6785 249.888C38.3318 249.888 38.9198 250.037 39.4425 250.336C39.9652 250.635 40.3758 251.059 40.6745 251.61C40.9825 252.151 41.1365 252.791 41.1365 253.528C41.1365 254.265 40.9825 254.909 40.6745 255.46C40.3665 256.001 39.9465 256.421 39.4145 256.72C38.8918 257.019 38.3038 257.168 37.6505 257.168ZM37.6505 256.16C38.0518 256.16 38.4252 256.062 38.7705 255.866C39.1158 255.67 39.3958 255.376 39.6105 254.984C39.8252 254.592 39.9325 254.107 39.9325 253.528C39.9325 252.949 39.8252 252.464 39.6105 252.072C39.4052 251.68 39.1298 251.386 38.7845 251.19C38.4392 250.994 38.0705 250.896 37.6785 250.896C37.2772 250.896 36.9038 250.994 36.5585 251.19C36.2132 251.386 35.9332 251.68 35.7185 252.072C35.5038 252.464 35.3965 252.949 35.3965 253.528C35.3965 254.107 35.5038 254.592 35.7185 254.984C35.9332 255.376 36.2085 255.67 36.5445 255.866C36.8898 256.062 37.2585 256.16 37.6505 256.16ZM45.3057 257.168C44.4843 257.168 43.831 256.921 43.3457 256.426C42.8603 255.922 42.6177 255.152 42.6177 254.116V250.056H43.7937V253.99C43.7937 255.437 44.3863 256.16 45.5717 256.16C46.1783 256.16 46.6777 255.945 47.0697 255.516C47.471 255.077 47.6717 254.457 47.6717 253.654V250.056H48.8477V257H47.7837L47.6997 255.754C47.485 256.193 47.163 256.538 46.7337 256.79C46.3137 257.042 45.8377 257.168 45.3057 257.168ZM50.7834 257V250.056H51.8474L51.9454 251.386C52.16 250.929 52.4867 250.565 52.9254 250.294C53.364 250.023 53.9054 249.888 54.5494 249.888V251.12H54.2274C53.8167 251.12 53.4387 251.195 53.0934 251.344C52.748 251.484 52.4727 251.727 52.2674 252.072C52.062 252.417 51.9594 252.893 51.9594 253.5V257H50.7834ZM59.5744 260.08V250.056H60.6384L60.7504 251.204C60.9744 250.868 61.2917 250.565 61.7024 250.294C62.1224 250.023 62.6544 249.888 63.2984 249.888C63.9891 249.888 64.5911 250.047 65.1044 250.364C65.6177 250.681 66.0144 251.115 66.2944 251.666C66.5837 252.217 66.7284 252.842 66.7284 253.542C66.7284 254.242 66.5837 254.867 66.2944 255.418C66.0144 255.959 65.6131 256.389 65.0904 256.706C64.5771 257.014 63.9751 257.168 63.2844 257.168C62.7151 257.168 62.2064 257.051 61.7584 256.818C61.3197 256.585 60.9837 256.258 60.7504 255.838V260.08H59.5744ZM63.1584 256.146C63.6251 256.146 64.0357 256.039 64.3904 255.824C64.7451 255.6 65.0251 255.292 65.2304 254.9C65.4357 254.508 65.5384 254.051 65.5384 253.528C65.5384 253.005 65.4357 252.548 65.2304 252.156C65.0251 251.764 64.7451 251.461 64.3904 251.246C64.0357 251.022 63.6251 250.91 63.1584 250.91C62.6917 250.91 62.2811 251.022 61.9264 251.246C61.5717 251.461 61.2917 251.764 61.0864 252.156C60.8811 252.548 60.7784 253.005 60.7784 253.528C60.7784 254.051 60.8811 254.508 61.0864 254.9C61.2917 255.292 61.5717 255.6 61.9264 255.824C62.2811 256.039 62.6917 256.146 63.1584 256.146ZM70.6754 257.168C70.0967 257.168 69.6161 257.07 69.2334 256.874C68.8507 256.678 68.5661 256.417 68.3794 256.09C68.1927 255.763 68.0994 255.409 68.0994 255.026C68.0994 254.317 68.3701 253.771 68.9114 253.388C69.4527 253.005 70.1901 252.814 71.1234 252.814H72.9994V252.73C72.9994 252.123 72.8407 251.666 72.5234 251.358C72.2061 251.041 71.7814 250.882 71.2494 250.882C70.7921 250.882 70.3954 250.999 70.0594 251.232C69.7327 251.456 69.5274 251.787 69.4434 252.226H68.2394C68.2861 251.722 68.4541 251.297 68.7434 250.952C69.0421 250.607 69.4107 250.345 69.8494 250.168C70.2881 249.981 70.7547 249.888 71.2494 249.888C72.2201 249.888 72.9481 250.149 73.4334 250.672C73.9281 251.185 74.1754 251.871 74.1754 252.73V257H73.1254L73.0554 255.754C72.8594 256.146 72.5701 256.482 72.1874 256.762C71.8141 257.033 71.3101 257.168 70.6754 257.168ZM70.8574 256.174C71.3054 256.174 71.6881 256.057 72.0054 255.824C72.3321 255.591 72.5794 255.287 72.7474 254.914C72.9154 254.541 72.9994 254.149 72.9994 253.738V253.724H71.2214C70.5307 253.724 70.0407 253.845 69.7514 254.088C69.4714 254.321 69.3314 254.615 69.3314 254.97C69.3314 255.334 69.4621 255.628 69.7234 255.852C69.9941 256.067 70.3721 256.174 70.8574 256.174ZM78.5996 257.168C77.769 257.168 77.0783 256.958 76.5276 256.538C75.977 256.118 75.655 255.549 75.5616 254.83H76.7656C76.8403 255.194 77.0316 255.511 77.3396 255.782C77.657 256.043 78.0816 256.174 78.6136 256.174C79.1083 256.174 79.4723 256.071 79.7056 255.866C79.939 255.651 80.0556 255.399 80.0556 255.11C80.0556 254.69 79.9016 254.41 79.5936 254.27C79.295 254.13 78.8703 254.004 78.3196 253.892C77.9463 253.817 77.573 253.71 77.1996 253.57C76.8263 253.43 76.5136 253.234 76.2616 252.982C76.0096 252.721 75.8836 252.38 75.8836 251.96C75.8836 251.353 76.1076 250.859 76.5556 250.476C77.013 250.084 77.629 249.888 78.4036 249.888C79.141 249.888 79.743 250.075 80.2096 250.448C80.6856 250.812 80.961 251.335 81.0356 252.016H79.8736C79.827 251.661 79.673 251.386 79.4116 251.19C79.1596 250.985 78.819 250.882 78.3896 250.882C77.9696 250.882 77.643 250.971 77.4096 251.148C77.1856 251.325 77.0736 251.559 77.0736 251.848C77.0736 252.128 77.2183 252.347 77.5076 252.506C77.8063 252.665 78.2076 252.8 78.7116 252.912C79.141 253.005 79.547 253.122 79.9296 253.262C80.3216 253.393 80.639 253.593 80.8816 253.864C81.1336 254.125 81.2596 254.508 81.2596 255.012C81.269 255.637 81.031 256.155 80.5456 256.566C80.0696 256.967 79.421 257.168 78.5996 257.168ZM85.5996 257.168C84.769 257.168 84.0783 256.958 83.5276 256.538C82.977 256.118 82.655 255.549 82.5616 254.83H83.7656C83.8403 255.194 84.0316 255.511 84.3396 255.782C84.657 256.043 85.0816 256.174 85.6136 256.174C86.1083 256.174 86.4723 256.071 86.7056 255.866C86.939 255.651 87.0556 255.399 87.0556 255.11C87.0556 254.69 86.9016 254.41 86.5936 254.27C86.295 254.13 85.8703 254.004 85.3196 253.892C84.9463 253.817 84.573 253.71 84.1996 253.57C83.8263 253.43 83.5136 253.234 83.2616 252.982C83.0096 252.721 82.8836 252.38 82.8836 251.96C82.8836 251.353 83.1076 250.859 83.5556 250.476C84.013 250.084 84.629 249.888 85.4036 249.888C86.141 249.888 86.743 250.075 87.2096 250.448C87.6856 250.812 87.961 251.335 88.0356 252.016H86.8736C86.827 251.661 86.673 251.386 86.4116 251.19C86.1596 250.985 85.819 250.882 85.3896 250.882C84.9696 250.882 84.643 250.971 84.4096 251.148C84.1856 251.325 84.0736 251.559 84.0736 251.848C84.0736 252.128 84.2183 252.347 84.5076 252.506C84.8063 252.665 85.2076 252.8 85.7116 252.912C86.141 253.005 86.547 253.122 86.9296 253.262C87.3216 253.393 87.639 253.593 87.8816 253.864C88.1336 254.125 88.2596 254.508 88.2596 255.012C88.269 255.637 88.031 256.155 87.5456 256.566C87.0696 256.967 86.421 257.168 85.5996 257.168ZM91.0799 257L89.0499 250.056H90.2259L91.6959 255.502L93.3199 250.056H94.6499L96.2879 255.502L97.7439 250.056H98.9339L96.9039 257H95.6999L93.9919 251.274L92.2839 257H91.0799ZM103.139 257.168C102.485 257.168 101.897 257.019 101.375 256.72C100.852 256.421 100.437 256.001 100.129 255.46C99.8301 254.909 99.6808 254.265 99.6808 253.528C99.6808 252.791 99.8348 252.151 100.143 251.61C100.451 251.059 100.866 250.635 101.389 250.336C101.921 250.037 102.513 249.888 103.167 249.888C103.82 249.888 104.408 250.037 104.931 250.336C105.453 250.635 105.864 251.059 106.163 251.61C106.471 252.151 106.625 252.791 106.625 253.528C106.625 254.265 106.471 254.909 106.163 255.46C105.855 256.001 105.435 256.421 104.903 256.72C104.38 257.019 103.792 257.168 103.139 257.168ZM103.139 256.16C103.54 256.16 103.913 256.062 104.259 255.866C104.604 255.67 104.884 255.376 105.099 254.984C105.313 254.592 105.421 254.107 105.421 253.528C105.421 252.949 105.313 252.464 105.099 252.072C104.893 251.68 104.618 251.386 104.273 251.19C103.927 250.994 103.559 250.896 103.167 250.896C102.765 250.896 102.392 250.994 102.047 251.19C101.701 251.386 101.421 251.68 101.207 252.072C100.992 252.464 100.885 252.949 100.885 253.528C100.885 254.107 100.992 254.592 101.207 254.984C101.421 255.376 101.697 255.67 102.033 255.866C102.378 256.062 102.747 256.16 103.139 256.16ZM108.26 257V250.056H109.324L109.422 251.386C109.637 250.929 109.963 250.565 110.402 250.294C110.841 250.023 111.382 249.888 112.026 249.888V251.12H111.704C111.293 251.12 110.915 251.195 110.57 251.344C110.225 251.484 109.949 251.727 109.744 252.072C109.539 252.417 109.436 252.893 109.436 253.5V257H108.26ZM116.236 257.168C115.545 257.168 114.939 257.009 114.416 256.692C113.903 256.375 113.501 255.941 113.212 255.39C112.932 254.839 112.792 254.214 112.792 253.514C112.792 252.814 112.937 252.193 113.226 251.652C113.515 251.101 113.917 250.672 114.43 250.364C114.943 250.047 115.55 249.888 116.25 249.888C116.819 249.888 117.323 250.005 117.762 250.238C118.201 250.471 118.541 250.798 118.784 251.218V246.92H119.96V257H118.896L118.784 255.852C118.56 256.188 118.238 256.491 117.818 256.762C117.398 257.033 116.871 257.168 116.236 257.168ZM116.362 256.146C116.829 256.146 117.239 256.039 117.594 255.824C117.958 255.6 118.238 255.292 118.434 254.9C118.639 254.508 118.742 254.051 118.742 253.528C118.742 253.005 118.639 252.548 118.434 252.156C118.238 251.764 117.958 251.461 117.594 251.246C117.239 251.022 116.829 250.91 116.362 250.91C115.905 250.91 115.494 251.022 115.13 251.246C114.775 251.461 114.495 251.764 114.29 252.156C114.094 252.548 113.996 253.005 113.996 253.528C113.996 254.051 114.094 254.508 114.29 254.9C114.495 255.292 114.775 255.6 115.13 255.824C115.494 256.039 115.905 256.146 116.362 256.146ZM125.582 257V246.92H126.758V251.246C126.992 250.817 127.323 250.485 127.752 250.252C128.182 250.009 128.648 249.888 129.152 249.888C129.955 249.888 130.599 250.14 131.084 250.644C131.57 251.139 131.812 251.904 131.812 252.94V257H130.65V253.066C130.65 251.619 130.067 250.896 128.9 250.896C128.294 250.896 127.785 251.115 127.374 251.554C126.964 251.983 126.758 252.599 126.758 253.402V257H125.582ZM135.904 257.168C135.325 257.168 134.845 257.07 134.462 256.874C134.079 256.678 133.795 256.417 133.608 256.09C133.421 255.763 133.328 255.409 133.328 255.026C133.328 254.317 133.599 253.771 134.14 253.388C134.681 253.005 135.419 252.814 136.352 252.814H138.228V252.73C138.228 252.123 138.069 251.666 137.752 251.358C137.435 251.041 137.01 250.882 136.478 250.882C136.021 250.882 135.624 250.999 135.288 251.232C134.961 251.456 134.756 251.787 134.672 252.226H133.468C133.515 251.722 133.683 251.297 133.972 250.952C134.271 250.607 134.639 250.345 135.078 250.168C135.517 249.981 135.983 249.888 136.478 249.888C137.449 249.888 138.177 250.149 138.662 250.672C139.157 251.185 139.404 251.871 139.404 252.73V257H138.354L138.284 255.754C138.088 256.146 137.799 256.482 137.416 256.762C137.043 257.033 136.539 257.168 135.904 257.168ZM136.086 256.174C136.534 256.174 136.917 256.057 137.234 255.824C137.561 255.591 137.808 255.287 137.976 254.914C138.144 254.541 138.228 254.149 138.228 253.738V253.724H136.45C135.759 253.724 135.269 253.845 134.98 254.088C134.7 254.321 134.56 254.615 134.56 254.97C134.56 255.334 134.691 255.628 134.952 255.852C135.223 256.067 135.601 256.174 136.086 256.174ZM143.828 257.168C142.997 257.168 142.307 256.958 141.756 256.538C141.205 256.118 140.883 255.549 140.79 254.83H141.994C142.069 255.194 142.26 255.511 142.568 255.782C142.885 256.043 143.31 256.174 143.842 256.174C144.337 256.174 144.701 256.071 144.934 255.866C145.167 255.651 145.284 255.399 145.284 255.11C145.284 254.69 145.13 254.41 144.822 254.27C144.523 254.13 144.099 254.004 143.548 253.892C143.175 253.817 142.801 253.71 142.428 253.57C142.055 253.43 141.742 253.234 141.49 252.982C141.238 252.721 141.112 252.38 141.112 251.96C141.112 251.353 141.336 250.859 141.784 250.476C142.241 250.084 142.857 249.888 143.632 249.888C144.369 249.888 144.971 250.075 145.438 250.448C145.914 250.812 146.189 251.335 146.264 252.016H145.102C145.055 251.661 144.901 251.386 144.64 251.19C144.388 250.985 144.047 250.882 143.618 250.882C143.198 250.882 142.871 250.971 142.638 251.148C142.414 251.325 142.302 251.559 142.302 251.848C142.302 252.128 142.447 252.347 142.736 252.506C143.035 252.665 143.436 252.8 143.94 252.912C144.369 253.005 144.775 253.122 145.158 253.262C145.55 253.393 145.867 253.593 146.11 253.864C146.362 254.125 146.488 254.508 146.488 255.012C146.497 255.637 146.259 256.155 145.774 256.566C145.298 256.967 144.649 257.168 143.828 257.168ZM155.583 257.168C155.014 257.168 154.505 257.051 154.057 256.818C153.619 256.585 153.283 256.258 153.049 255.838L152.937 257H151.873V246.92H153.049V251.204C153.273 250.868 153.591 250.565 154.001 250.294C154.421 250.023 154.953 249.888 155.597 249.888C156.288 249.888 156.89 250.047 157.403 250.364C157.917 250.681 158.313 251.115 158.593 251.666C158.883 252.217 159.027 252.842 159.027 253.542C159.027 254.242 158.883 254.867 158.593 255.418C158.313 255.959 157.912 256.389 157.389 256.706C156.876 257.014 156.274 257.168 155.583 257.168ZM155.457 256.146C155.924 256.146 156.335 256.039 156.689 255.824C157.044 255.6 157.324 255.292 157.529 254.9C157.735 254.508 157.837 254.051 157.837 253.528C157.837 253.005 157.735 252.548 157.529 252.156C157.324 251.764 157.044 251.461 156.689 251.246C156.335 251.022 155.924 250.91 155.457 250.91C154.991 250.91 154.58 251.022 154.225 251.246C153.871 251.461 153.591 251.764 153.385 252.156C153.18 252.548 153.077 253.005 153.077 253.528C153.077 254.051 153.18 254.508 153.385 254.9C153.591 255.292 153.871 255.6 154.225 255.824C154.58 256.039 154.991 256.146 155.457 256.146ZM163.786 257.168C163.124 257.168 162.536 257.019 162.022 256.72C161.509 256.412 161.103 255.987 160.804 255.446C160.515 254.905 160.37 254.265 160.37 253.528C160.37 252.8 160.515 252.165 160.804 251.624C161.094 251.073 161.495 250.649 162.008 250.35C162.531 250.042 163.133 249.888 163.814 249.888C164.486 249.888 165.065 250.042 165.55 250.35C166.045 250.649 166.423 251.045 166.684 251.54C166.946 252.035 167.076 252.567 167.076 253.136C167.076 253.239 167.072 253.341 167.062 253.444C167.062 253.547 167.062 253.663 167.062 253.794H161.532C161.56 254.326 161.682 254.769 161.896 255.124C162.12 255.469 162.396 255.731 162.722 255.908C163.058 256.085 163.413 256.174 163.786 256.174C164.272 256.174 164.678 256.062 165.004 255.838C165.331 255.614 165.569 255.311 165.718 254.928H166.88C166.694 255.572 166.334 256.109 165.802 256.538C165.28 256.958 164.608 257.168 163.786 257.168ZM163.786 250.882C163.226 250.882 162.727 251.055 162.288 251.4C161.859 251.736 161.612 252.231 161.546 252.884H165.914C165.886 252.259 165.672 251.769 165.27 251.414C164.869 251.059 164.374 250.882 163.786 250.882ZM171.757 257.168C171.094 257.168 170.506 257.019 169.993 256.72C169.48 256.412 169.074 255.987 168.775 255.446C168.486 254.905 168.341 254.265 168.341 253.528C168.341 252.8 168.486 252.165 168.775 251.624C169.064 251.073 169.466 250.649 169.979 250.35C170.502 250.042 171.104 249.888 171.785 249.888C172.457 249.888 173.036 250.042 173.521 250.35C174.016 250.649 174.394 251.045 174.655 251.54C174.916 252.035 175.047 252.567 175.047 253.136C175.047 253.239 175.042 253.341 175.033 253.444C175.033 253.547 175.033 253.663 175.033 253.794H169.503C169.531 254.326 169.652 254.769 169.867 255.124C170.091 255.469 170.366 255.731 170.693 255.908C171.029 256.085 171.384 256.174 171.757 256.174C172.242 256.174 172.648 256.062 172.975 255.838C173.302 255.614 173.54 255.311 173.689 254.928H174.851C174.664 255.572 174.305 256.109 173.773 256.538C173.25 256.958 172.578 257.168 171.757 257.168ZM171.757 250.882C171.197 250.882 170.698 251.055 170.259 251.4C169.83 251.736 169.582 252.231 169.517 252.884H173.885C173.857 252.259 173.642 251.769 173.241 251.414C172.84 251.059 172.345 250.882 171.757 250.882ZM176.606 257V250.056H177.67L177.74 251.302C177.964 250.863 178.286 250.518 178.706 250.266C179.126 250.014 179.602 249.888 180.134 249.888C180.955 249.888 181.608 250.14 182.094 250.644C182.588 251.139 182.836 251.904 182.836 252.94V257H181.66V253.066C181.66 251.619 181.062 250.896 179.868 250.896C179.27 250.896 178.771 251.115 178.37 251.554C177.978 251.983 177.782 252.599 177.782 253.402V257H176.606ZM190.856 257.168C190.035 257.168 189.382 256.921 188.896 256.426C188.411 255.922 188.168 255.152 188.168 254.116V250.056H189.344V253.99C189.344 255.437 189.937 256.16 191.122 256.16C191.729 256.16 192.228 255.945 192.62 255.516C193.022 255.077 193.222 254.457 193.222 253.654V250.056H194.398V257H193.334L193.25 255.754C193.036 256.193 192.714 256.538 192.284 256.79C191.864 257.042 191.388 257.168 190.856 257.168ZM196.334 260.08V250.056H197.398L197.51 251.204C197.734 250.868 198.051 250.565 198.462 250.294C198.882 250.023 199.414 249.888 200.058 249.888C200.749 249.888 201.351 250.047 201.864 250.364C202.377 250.681 202.774 251.115 203.054 251.666C203.343 252.217 203.488 252.842 203.488 253.542C203.488 254.242 203.343 254.867 203.054 255.418C202.774 255.959 202.373 256.389 201.85 256.706C201.337 257.014 200.735 257.168 200.044 257.168C199.475 257.168 198.966 257.051 198.518 256.818C198.079 256.585 197.743 256.258 197.51 255.838V260.08H196.334ZM199.918 256.146C200.385 256.146 200.795 256.039 201.15 255.824C201.505 255.6 201.785 255.292 201.99 254.9C202.195 254.508 202.298 254.051 202.298 253.528C202.298 253.005 202.195 252.548 201.99 252.156C201.785 251.764 201.505 251.461 201.15 251.246C200.795 251.022 200.385 250.91 199.918 250.91C199.451 250.91 199.041 251.022 198.686 251.246C198.331 251.461 198.051 251.764 197.846 252.156C197.641 252.548 197.538 253.005 197.538 253.528C197.538 254.051 197.641 254.508 197.846 254.9C198.051 255.292 198.331 255.6 198.686 255.824C199.041 256.039 199.451 256.146 199.918 256.146ZM208.275 257.168C207.585 257.168 206.978 257.009 206.455 256.692C205.942 256.375 205.541 255.941 205.251 255.39C204.971 254.839 204.831 254.214 204.831 253.514C204.831 252.814 204.976 252.193 205.265 251.652C205.555 251.101 205.956 250.672 206.469 250.364C206.983 250.047 207.589 249.888 208.289 249.888C208.859 249.888 209.363 250.005 209.801 250.238C210.24 250.471 210.581 250.798 210.823 251.218V246.92H211.999V257H210.935L210.823 255.852C210.599 256.188 210.277 256.491 209.857 256.762C209.437 257.033 208.91 257.168 208.275 257.168ZM208.401 256.146C208.868 256.146 209.279 256.039 209.633 255.824C209.997 255.6 210.277 255.292 210.473 254.9C210.679 254.508 210.781 254.051 210.781 253.528C210.781 253.005 210.679 252.548 210.473 252.156C210.277 251.764 209.997 251.461 209.633 251.246C209.279 251.022 208.868 250.91 208.401 250.91C207.944 250.91 207.533 251.022 207.169 251.246C206.815 251.461 206.535 251.764 206.329 252.156C206.133 252.548 206.035 253.005 206.035 253.528C206.035 254.051 206.133 254.508 206.329 254.9C206.535 255.292 206.815 255.6 207.169 255.824C207.533 256.039 207.944 256.146 208.401 256.146ZM216.226 257.168C215.648 257.168 215.167 257.07 214.784 256.874C214.402 256.678 214.117 256.417 213.93 256.09C213.744 255.763 213.65 255.409 213.65 255.026C213.65 254.317 213.921 253.771 214.462 253.388C215.004 253.005 215.741 252.814 216.674 252.814H218.55V252.73C218.55 252.123 218.392 251.666 218.074 251.358C217.757 251.041 217.332 250.882 216.8 250.882C216.343 250.882 215.946 250.999 215.61 251.232C215.284 251.456 215.078 251.787 214.994 252.226H213.79C213.837 251.722 214.005 251.297 214.294 250.952C214.593 250.607 214.962 250.345 215.4 250.168C215.839 249.981 216.306 249.888 216.8 249.888C217.771 249.888 218.499 250.149 218.984 250.672C219.479 251.185 219.726 251.871 219.726 252.73V257H218.676L218.606 255.754C218.41 256.146 218.121 256.482 217.738 256.762C217.365 257.033 216.861 257.168 216.226 257.168ZM216.408 256.174C216.856 256.174 217.239 256.057 217.556 255.824C217.883 255.591 218.13 255.287 218.298 254.914C218.466 254.541 218.55 254.149 218.55 253.738V253.724H216.772C216.082 253.724 215.592 253.845 215.302 254.088C215.022 254.321 214.882 254.615 214.882 254.97C214.882 255.334 215.013 255.628 215.274 255.852C215.545 256.067 215.923 256.174 216.408 256.174ZM224.043 257C223.408 257 222.909 256.846 222.545 256.538C222.181 256.23 221.999 255.675 221.999 254.872V251.05H220.795V250.056H221.999L222.153 248.39H223.175V250.056H225.219V251.05H223.175V254.872C223.175 255.311 223.264 255.609 223.441 255.768C223.618 255.917 223.931 255.992 224.379 255.992H225.107V257H224.043ZM229.644 257.168C228.981 257.168 228.393 257.019 227.88 256.72C227.366 256.412 226.96 255.987 226.662 255.446C226.372 254.905 226.228 254.265 226.228 253.528C226.228 252.8 226.372 252.165 226.662 251.624C226.951 251.073 227.352 250.649 227.866 250.35C228.388 250.042 228.99 249.888 229.672 249.888C230.344 249.888 230.922 250.042 231.408 250.35C231.902 250.649 232.28 251.045 232.542 251.54C232.803 252.035 232.934 252.567 232.934 253.136C232.934 253.239 232.929 253.341 232.92 253.444C232.92 253.547 232.92 253.663 232.92 253.794H227.39C227.418 254.326 227.539 254.769 227.754 255.124C227.978 255.469 228.253 255.731 228.58 255.908C228.916 256.085 229.27 256.174 229.644 256.174C230.129 256.174 230.535 256.062 230.862 255.838C231.188 255.614 231.426 255.311 231.576 254.928H232.738C232.551 255.572 232.192 256.109 231.66 256.538C231.137 256.958 230.465 257.168 229.644 257.168ZM229.644 250.882C229.084 250.882 228.584 251.055 228.146 251.4C227.716 251.736 227.469 252.231 227.404 252.884H231.772C231.744 252.259 231.529 251.769 231.128 251.414C230.726 251.059 230.232 250.882 229.644 250.882ZM237.642 257.168C236.952 257.168 236.345 257.009 235.822 256.692C235.309 256.375 234.908 255.941 234.618 255.39C234.338 254.839 234.198 254.214 234.198 253.514C234.198 252.814 234.343 252.193 234.632 251.652C234.922 251.101 235.323 250.672 235.836 250.364C236.35 250.047 236.956 249.888 237.656 249.888C238.226 249.888 238.73 250.005 239.168 250.238C239.607 250.471 239.948 250.798 240.19 251.218V246.92H241.366V257H240.302L240.19 255.852C239.966 256.188 239.644 256.491 239.224 256.762C238.804 257.033 238.277 257.168 237.642 257.168ZM237.768 256.146C238.235 256.146 238.646 256.039 239 255.824C239.364 255.6 239.644 255.292 239.84 254.9C240.046 254.508 240.148 254.051 240.148 253.528C240.148 253.005 240.046 252.548 239.84 252.156C239.644 251.764 239.364 251.461 239 251.246C238.646 251.022 238.235 250.91 237.768 250.91C237.311 250.91 236.9 251.022 236.536 251.246C236.182 251.461 235.902 251.764 235.696 252.156C235.5 252.548 235.402 253.005 235.402 253.528C235.402 254.051 235.5 254.508 235.696 254.9C235.902 255.292 236.182 255.6 236.536 255.824C236.9 256.039 237.311 256.146 237.768 256.146ZM249.648 257.168C248.818 257.168 248.127 256.958 247.576 256.538C247.026 256.118 246.704 255.549 246.61 254.83H247.814C247.889 255.194 248.08 255.511 248.388 255.782C248.706 256.043 249.13 256.174 249.662 256.174C250.157 256.174 250.521 256.071 250.754 255.866C250.988 255.651 251.104 255.399 251.104 255.11C251.104 254.69 250.95 254.41 250.642 254.27C250.344 254.13 249.919 254.004 249.368 253.892C248.995 253.817 248.622 253.71 248.248 253.57C247.875 253.43 247.562 253.234 247.31 252.982C247.058 252.721 246.932 252.38 246.932 251.96C246.932 251.353 247.156 250.859 247.604 250.476C248.062 250.084 248.678 249.888 249.452 249.888C250.19 249.888 250.792 250.075 251.258 250.448C251.734 250.812 252.01 251.335 252.084 252.016H250.922C250.876 251.661 250.722 251.386 250.46 251.19C250.208 250.985 249.868 250.882 249.438 250.882C249.018 250.882 248.692 250.971 248.458 251.148C248.234 251.325 248.122 251.559 248.122 251.848C248.122 252.128 248.267 252.347 248.556 252.506C248.855 252.665 249.256 252.8 249.76 252.912C250.19 253.005 250.596 253.122 250.978 253.262C251.37 253.393 251.688 253.593 251.93 253.864C252.182 254.125 252.308 254.508 252.308 255.012C252.318 255.637 252.08 256.155 251.594 256.566C251.118 256.967 250.47 257.168 249.648 257.168ZM256.522 257.168C255.701 257.168 255.048 256.921 254.562 256.426C254.077 255.922 253.834 255.152 253.834 254.116V250.056H255.01V253.99C255.01 255.437 255.603 256.16 256.788 256.16C257.395 256.16 257.894 255.945 258.286 255.516C258.688 255.077 258.888 254.457 258.888 253.654V250.056H260.064V257H259L258.916 255.754C258.702 256.193 258.38 256.538 257.95 256.79C257.53 257.042 257.054 257.168 256.522 257.168ZM265.192 257.168C264.53 257.168 263.932 257.019 263.4 256.72C262.878 256.412 262.462 255.987 262.154 255.446C261.856 254.895 261.706 254.256 261.706 253.528C261.706 252.8 261.856 252.165 262.154 251.624C262.462 251.073 262.878 250.649 263.4 250.35C263.932 250.042 264.53 249.888 265.192 249.888C266.014 249.888 266.704 250.103 267.264 250.532C267.834 250.961 268.193 251.535 268.342 252.254H267.138C267.045 251.825 266.816 251.493 266.452 251.26C266.088 251.017 265.664 250.896 265.178 250.896C264.786 250.896 264.418 250.994 264.072 251.19C263.727 251.386 263.447 251.68 263.232 252.072C263.018 252.464 262.91 252.949 262.91 253.528C262.91 254.107 263.018 254.592 263.232 254.984C263.447 255.376 263.727 255.675 264.072 255.88C264.418 256.076 264.786 256.174 265.178 256.174C265.664 256.174 266.088 256.057 266.452 255.824C266.816 255.581 267.045 255.241 267.138 254.802H268.342C268.202 255.502 267.848 256.071 267.278 256.51C266.709 256.949 266.014 257.168 265.192 257.168ZM273.177 257.168C272.514 257.168 271.917 257.019 271.385 256.72C270.862 256.412 270.447 255.987 270.139 255.446C269.84 254.895 269.691 254.256 269.691 253.528C269.691 252.8 269.84 252.165 270.139 251.624C270.447 251.073 270.862 250.649 271.385 250.35C271.917 250.042 272.514 249.888 273.177 249.888C273.998 249.888 274.689 250.103 275.249 250.532C275.818 250.961 276.177 251.535 276.327 252.254H275.123C275.029 251.825 274.801 251.493 274.437 251.26C274.073 251.017 273.648 250.896 273.163 250.896C272.771 250.896 272.402 250.994 272.057 251.19C271.711 251.386 271.431 251.68 271.217 252.072C271.002 252.464 270.895 252.949 270.895 253.528C270.895 254.107 271.002 254.592 271.217 254.984C271.431 255.376 271.711 255.675 272.057 255.88C272.402 256.076 272.771 256.174 273.163 256.174C273.648 256.174 274.073 256.057 274.437 255.824C274.801 255.581 275.029 255.241 275.123 254.802H276.327C276.187 255.502 275.832 256.071 275.263 256.51C274.693 256.949 273.998 257.168 273.177 257.168ZM281.091 257.168C280.428 257.168 279.84 257.019 279.327 256.72C278.814 256.412 278.408 255.987 278.109 255.446C277.82 254.905 277.675 254.265 277.675 253.528C277.675 252.8 277.82 252.165 278.109 251.624C278.398 251.073 278.8 250.649 279.313 250.35C279.836 250.042 280.438 249.888 281.119 249.888C281.791 249.888 282.37 250.042 282.855 250.35C283.35 250.649 283.728 251.045 283.989 251.54C284.25 252.035 284.381 252.567 284.381 253.136C284.381 253.239 284.376 253.341 284.367 253.444C284.367 253.547 284.367 253.663 284.367 253.794H278.837C278.865 254.326 278.986 254.769 279.201 255.124C279.425 255.469 279.7 255.731 280.027 255.908C280.363 256.085 280.718 256.174 281.091 256.174C281.576 256.174 281.982 256.062 282.309 255.838C282.636 255.614 282.874 255.311 283.023 254.928H284.185C283.998 255.572 283.639 256.109 283.107 256.538C282.584 256.958 281.912 257.168 281.091 257.168ZM281.091 250.882C280.531 250.882 280.032 251.055 279.593 251.4C279.164 251.736 278.916 252.231 278.851 252.884H283.219C283.191 252.259 282.976 251.769 282.575 251.414C282.174 251.059 281.679 250.882 281.091 250.882ZM288.6 257.168C287.769 257.168 287.078 256.958 286.528 256.538C285.977 256.118 285.655 255.549 285.562 254.83H286.766C286.84 255.194 287.032 255.511 287.34 255.782C287.657 256.043 288.082 256.174 288.614 256.174C289.108 256.174 289.472 256.071 289.706 255.866C289.939 255.651 290.056 255.399 290.056 255.11C290.056 254.69 289.902 254.41 289.594 254.27C289.295 254.13 288.87 254.004 288.32 253.892C287.946 253.817 287.573 253.71 287.2 253.57C286.826 253.43 286.514 253.234 286.262 252.982C286.01 252.721 285.884 252.38 285.884 251.96C285.884 251.353 286.108 250.859 286.556 250.476C287.013 250.084 287.629 249.888 288.404 249.888C289.141 249.888 289.743 250.075 290.21 250.448C290.686 250.812 290.961 251.335 291.036 252.016H289.874C289.827 251.661 289.673 251.386 289.412 251.19C289.16 250.985 288.819 250.882 288.39 250.882C287.97 250.882 287.643 250.971 287.41 251.148C287.186 251.325 287.074 251.559 287.074 251.848C287.074 252.128 287.218 252.347 287.508 252.506C287.806 252.665 288.208 252.8 288.712 252.912C289.141 253.005 289.547 253.122 289.93 253.262C290.322 253.393 290.639 253.593 290.882 253.864C291.134 254.125 291.26 254.508 291.26 255.012C291.269 255.637 291.031 256.155 290.546 256.566C290.07 256.967 289.421 257.168 288.6 257.168ZM295.6 257.168C294.769 257.168 294.078 256.958 293.528 256.538C292.977 256.118 292.655 255.549 292.562 254.83H293.766C293.84 255.194 294.032 255.511 294.34 255.782C294.657 256.043 295.082 256.174 295.614 256.174C296.108 256.174 296.472 256.071 296.706 255.866C296.939 255.651 297.056 255.399 297.056 255.11C297.056 254.69 296.902 254.41 296.594 254.27C296.295 254.13 295.87 254.004 295.32 253.892C294.946 253.817 294.573 253.71 294.2 253.57C293.826 253.43 293.514 253.234 293.262 252.982C293.01 252.721 292.884 252.38 292.884 251.96C292.884 251.353 293.108 250.859 293.556 250.476C294.013 250.084 294.629 249.888 295.404 249.888C296.141 249.888 296.743 250.075 297.21 250.448C297.686 250.812 297.961 251.335 298.036 252.016H296.874C296.827 251.661 296.673 251.386 296.412 251.19C296.16 250.985 295.819 250.882 295.39 250.882C294.97 250.882 294.643 250.971 294.41 251.148C294.186 251.325 294.074 251.559 294.074 251.848C294.074 252.128 294.218 252.347 294.508 252.506C294.806 252.665 295.208 252.8 295.712 252.912C296.141 253.005 296.547 253.122 296.93 253.262C297.322 253.393 297.639 253.593 297.882 253.864C298.134 254.125 298.26 254.508 298.26 255.012C298.269 255.637 298.031 256.155 297.546 256.566C297.07 256.967 296.421 257.168 295.6 257.168ZM300.318 257V251.05H299.268V250.056H300.318V248.852C300.318 248.18 300.486 247.69 300.822 247.382C301.158 247.074 301.648 246.92 302.292 246.92H302.992V247.928H302.474C302.119 247.928 301.867 248.003 301.718 248.152C301.568 248.292 301.494 248.535 301.494 248.88V250.056H303.202V251.05H301.494V257H300.318ZM307.136 257.168C306.314 257.168 305.661 256.921 305.176 256.426C304.69 255.922 304.448 255.152 304.448 254.116V250.056H305.624V253.99C305.624 255.437 306.216 256.16 307.402 256.16C308.008 256.16 308.508 255.945 308.9 255.516C309.301 255.077 309.502 254.457 309.502 253.654V250.056H310.678V257H309.614L309.53 255.754C309.315 256.193 308.993 256.538 308.564 256.79C308.144 257.042 307.668 257.168 307.136 257.168ZM312.613 257V246.92H313.789V257H312.613ZM315.717 257V246.92H316.893V257H315.717ZM319.576 260.08L321.298 256.328H320.892L318.134 250.056H319.408L321.704 255.46L324.14 250.056H325.358L320.808 260.08H319.576ZM326.008 257.07C325.774 257.07 325.578 256.995 325.42 256.846C325.27 256.687 325.196 256.496 325.196 256.272C325.196 256.048 325.27 255.861 325.42 255.712C325.578 255.553 325.774 255.474 326.008 255.474C326.232 255.474 326.418 255.553 326.568 255.712C326.726 255.861 326.806 256.048 326.806 256.272C326.806 256.496 326.726 256.687 326.568 256.846C326.418 256.995 326.232 257.07 326.008 257.07Z" fill="#4A423B"/>
</svg>
