<svg width="392" height="201" viewBox="0 0 392 201" fill="none" xmlns="http://www.w3.org/2000/svg">
<path d="M241.422 9.77734H150.797C147.043 9.77734 144 12.8313 144 16.5985V106.183C144 109.95 147.043 113.004 150.797 113.004H241.422C245.176 113.004 248.219 109.95 248.219 106.183V16.5985C248.219 12.8313 245.176 9.77734 241.422 9.77734Z" fill="#F7F7F7"/>
<path d="M241.422 9.77734H150.797C148.994 9.77734 147.265 10.496 145.991 11.7751C144.716 13.0543 144 14.7892 144 16.5983V34.56H248.219V16.5983C248.219 14.7892 247.503 13.0543 246.228 11.7751C244.953 10.496 243.225 9.77734 241.422 9.77734Z" fill="#C39D63" fill-opacity="0.4"/>
<path d="M164.391 44.793H156.461C155.21 44.793 154.195 45.8109 154.195 47.0666V55.0244C154.195 56.2801 155.21 57.298 156.461 57.298H164.391C165.642 57.298 166.656 56.2801 166.656 55.0244V47.0666C166.656 45.8109 165.642 44.793 164.391 44.793Z" fill="#DEDEDE"/>
<path d="M187.047 44.793H179.117C177.866 44.793 176.852 45.8109 176.852 47.0666V55.0244C176.852 56.2801 177.866 57.298 179.117 57.298H187.047C188.298 57.298 189.312 56.2801 189.312 55.0244V47.0666C189.312 45.8109 188.298 44.793 187.047 44.793Z" fill="#DEDEDE"/>
<path d="M209.703 44.793H201.773C200.522 44.793 199.508 45.8109 199.508 47.0666V55.0244C199.508 56.2801 200.522 57.298 201.773 57.298H209.703C210.954 57.298 211.969 56.2801 211.969 55.0244V47.0666C211.969 45.8109 210.954 44.793 209.703 44.793Z" fill="#DEDEDE"/>
<path d="M232.359 44.793H224.43C223.178 44.793 222.164 45.8109 222.164 47.0666V55.0244C222.164 56.2801 223.178 57.298 224.43 57.298H232.359C233.611 57.298 234.625 56.2801 234.625 55.0244V47.0666C234.625 45.8109 233.611 44.793 232.359 44.793Z" fill="#DEDEDE"/>
<path d="M164.391 67.5293H156.461C155.21 67.5293 154.195 68.5472 154.195 69.8029V77.7607C154.195 79.0164 155.21 80.0343 156.461 80.0343H164.391C165.642 80.0343 166.656 79.0164 166.656 77.7607V69.8029C166.656 68.5472 165.642 67.5293 164.391 67.5293Z" fill="#DEDEDE"/>
<path d="M187.047 67.5293H179.117C177.866 67.5293 176.852 68.5472 176.852 69.8029V77.7607C176.852 79.0164 177.866 80.0343 179.117 80.0343H187.047C188.298 80.0343 189.312 79.0164 189.312 77.7607V69.8029C189.312 68.5472 188.298 67.5293 187.047 67.5293Z" fill="#DEDEDE"/>
<path d="M203.335 81.9139C203.112 81.9141 202.891 81.8702 202.685 81.7848C202.479 81.6994 202.292 81.574 202.134 81.4159L198.129 77.3961C197.81 77.0763 197.631 76.6424 197.631 76.19C197.631 75.7376 197.81 75.3037 198.129 74.9838C198.447 74.6639 198.88 74.4842 199.331 74.4842C199.781 74.4842 200.214 74.6639 200.533 74.9838L203.133 77.5871L210.769 66.9579C211.032 66.5909 211.431 66.3442 211.876 66.2719C212.321 66.1996 212.776 66.3078 213.142 66.5725C213.508 66.8372 213.753 67.2368 213.825 67.6835C213.897 68.1301 213.79 68.5872 213.526 68.9541L204.719 81.2068C204.575 81.4074 204.389 81.5741 204.175 81.6955C203.96 81.8168 203.721 81.8898 203.476 81.9093C203.426 81.9139 203.38 81.9139 203.335 81.9139Z" fill="#63EA86"/>
<path d="M232.359 67.5293H224.43C223.178 67.5293 222.164 68.5472 222.164 69.8029V77.7607C222.164 79.0164 223.178 80.0343 224.43 80.0343H232.359C233.611 80.0343 234.625 79.0164 234.625 77.7607V69.8029C234.625 68.5472 233.611 67.5293 232.359 67.5293Z" fill="#DEDEDE"/>
<path d="M164.391 90.2676H156.461C155.21 90.2676 154.195 91.2855 154.195 92.5412V100.499C154.195 101.755 155.21 102.773 156.461 102.773H164.391C165.642 102.773 166.656 101.755 166.656 100.499V92.5412C166.656 91.2855 165.642 90.2676 164.391 90.2676Z" fill="#DEDEDE"/>
<path d="M187.047 90.2676H179.117C177.866 90.2676 176.852 91.2855 176.852 92.5412V100.499C176.852 101.755 177.866 102.773 179.117 102.773H187.047C188.298 102.773 189.312 101.755 189.312 100.499V92.5412C189.312 91.2855 188.298 90.2676 187.047 90.2676Z" fill="#DEDEDE"/>
<path d="M209.703 90.2676H201.773C200.522 90.2676 199.508 91.2855 199.508 92.5412V100.499C199.508 101.755 200.522 102.773 201.773 102.773H209.703C210.954 102.773 211.969 101.755 211.969 100.499V92.5412C211.969 91.2855 210.954 90.2676 209.703 90.2676Z" fill="#DEDEDE"/>
<path d="M232.359 90.2676H224.43C223.178 90.2676 222.164 91.2855 222.164 92.5412V100.499C222.164 101.755 223.178 102.773 224.43 102.773H232.359C233.611 102.773 234.625 101.755 234.625 100.499V92.5412C234.625 91.2855 233.611 90.2676 232.359 90.2676Z" fill="#DEDEDE"/>
<path d="M228.544 113.004V100.081C228.544 98.2717 229.26 96.5367 230.535 95.2576C231.809 93.9784 233.538 93.2598 235.341 93.2598H248.219L228.544 113.004Z" fill="#CECECE"/>
<path d="M163.71 19.0993C165.241 19.0969 166.708 18.485 167.79 17.3979C168.871 16.3109 169.479 14.8376 169.479 13.3015V9.77734H157.924V13.3015C157.924 14.0636 158.074 14.8183 158.364 15.5223C158.655 16.2263 159.082 16.8659 159.619 17.4044C160.157 17.9429 160.795 18.3697 161.497 18.6606C162.199 18.9514 162.951 19.1005 163.71 19.0993Z" fill="#C39D63" fill-opacity="0.1"/>
<path d="M166.081 5.79779C166.081 2.59576 163.494 0 160.304 0C157.113 0 154.526 2.59576 154.526 5.79779V13.3008C154.526 16.5028 157.113 19.0986 160.304 19.0986C163.494 19.0986 166.081 16.5028 166.081 13.3008V5.79779Z" fill="#EEEEEE"/>
<path d="M235.305 19.0993C236.065 19.1005 236.817 18.9514 237.519 18.6606C238.221 18.3697 238.859 17.9429 239.396 17.4044C239.934 16.8659 240.36 16.2263 240.651 15.5223C240.942 14.8183 241.092 14.0636 241.092 13.3015V9.77734H229.537V13.3015C229.537 14.8376 230.145 16.3109 231.226 17.3979C232.308 18.485 233.775 19.0969 235.305 19.0993Z" fill="#C39D63" fill-opacity="0.1"/>
<path d="M237.692 5.79779C237.692 2.59576 235.106 0 231.915 0C228.724 0 226.138 2.59576 226.138 5.79779V13.3008C226.138 16.5028 228.724 19.0986 231.915 19.0986C235.106 19.0986 237.692 16.5028 237.692 13.3008V5.79779Z" fill="#EEEEEE"/>
<path d="M231.906 7.13364e-06C231.33 -0.000778679 230.758 0.0850573 230.207 0.254655C231.388 0.62036 232.42 1.35582 233.154 2.35331C233.888 3.3508 234.284 4.55789 234.285 5.79779V13.3008C234.284 14.5407 233.888 15.7478 233.154 16.7453C232.42 17.7428 231.388 18.4782 230.207 18.8439C230.758 19.0135 231.33 19.0994 231.906 19.0986C232.666 19.0998 233.418 18.9507 234.12 18.6599C234.822 18.369 235.46 17.9422 235.997 17.4037C236.535 16.8652 236.961 16.2256 237.252 15.5216C237.543 14.8176 237.693 14.063 237.693 13.3008V5.79779C237.693 5.03565 237.543 4.28099 237.252 3.57697C236.961 2.87296 236.535 2.23341 235.997 1.69492C235.46 1.15643 234.822 0.729555 234.12 0.438724C233.418 0.147894 232.666 -0.00118838 231.906 7.13364e-06Z" fill="#CECECE"/>
<path d="M199.508 19.0993C201.04 19.0993 202.51 18.4884 203.593 17.4011C204.676 16.3138 205.285 14.8392 205.285 13.3015V9.77734H193.73V13.3015C193.73 14.8392 194.339 16.3138 195.423 17.4011C196.506 18.4884 197.976 19.0993 199.508 19.0993Z" fill="#C39D63" fill-opacity="0.1"/>
<path d="M201.887 5.79779C201.887 2.59576 199.3 0 196.109 0C192.919 0 190.332 2.59576 190.332 5.79779V13.3008C190.332 16.5028 192.919 19.0986 196.109 19.0986C199.3 19.0986 201.887 16.5028 201.887 13.3008V5.79779Z" fill="#EEEEEE"/>
<path d="M196.109 5.3468e-06C195.533 -0.000780466 194.961 0.0850555 194.41 0.254653C195.591 0.620358 196.624 1.35582 197.357 2.35331C198.091 3.35079 198.488 4.55789 198.488 5.79779V13.3008C198.488 14.5407 198.091 15.7478 197.357 16.7453C196.624 17.7428 195.591 18.4782 194.41 18.8439C194.961 19.0135 195.533 19.0994 196.109 19.0986C197.642 19.0986 199.111 18.4878 200.195 17.4005C201.278 16.3132 201.887 14.8385 201.887 13.3008V5.79779C201.887 4.26012 201.278 2.78543 200.195 1.69814C199.111 0.610842 197.642 5.3468e-06 196.109 5.3468e-06ZM160.312 5.3468e-06C159.737 -0.000780466 159.164 0.0850555 158.613 0.254653C159.794 0.620358 160.827 1.35582 161.561 2.35331C162.294 3.35079 162.691 4.55789 162.691 5.79779V13.3008C162.691 14.5407 162.294 15.7478 161.561 16.7453C160.827 17.7428 159.794 18.4782 158.613 18.8439C159.164 19.0135 159.737 19.0994 160.312 19.0986C161.843 19.0962 163.31 18.4843 164.392 17.3973C165.473 16.3102 166.081 14.8369 166.081 13.3008V5.79779C166.081 4.2617 165.473 2.78838 164.392 1.70135C163.31 0.614315 161.843 0.00241491 160.312 5.3468e-06Z" fill="#CECECE"/>
<path d="M23.3236 197.004V193.28L20.1316 187.204H21.4616L23.9116 192.16L26.3616 187.204H27.6776L24.4996 193.28V197.004H23.3236ZM30.8722 197.172C30.2189 197.172 29.6309 197.023 29.1082 196.724C28.5855 196.425 28.1702 196.005 27.8622 195.464C27.5635 194.913 27.4142 194.269 27.4142 193.532C27.4142 192.795 27.5682 192.155 27.8762 191.614C28.1842 191.063 28.5995 190.639 29.1222 190.34C29.6542 190.041 30.2469 189.892 30.9002 189.892C31.5535 189.892 32.1415 190.041 32.6642 190.34C33.1869 190.639 33.5975 191.063 33.8962 191.614C34.2042 192.155 34.3582 192.795 34.3582 193.532C34.3582 194.269 34.2042 194.913 33.8962 195.464C33.5882 196.005 33.1682 196.425 32.6362 196.724C32.1135 197.023 31.5255 197.172 30.8722 197.172ZM30.8722 196.164C31.2735 196.164 31.6469 196.066 31.9922 195.87C32.3375 195.674 32.6175 195.38 32.8322 194.988C33.0469 194.596 33.1542 194.111 33.1542 193.532C33.1542 192.953 33.0469 192.468 32.8322 192.076C32.6269 191.684 32.3515 191.39 32.0062 191.194C31.6609 190.998 31.2922 190.9 30.9002 190.9C30.4989 190.9 30.1255 190.998 29.7802 191.194C29.4349 191.39 29.1549 191.684 28.9402 192.076C28.7255 192.468 28.6182 192.953 28.6182 193.532C28.6182 194.111 28.7255 194.596 28.9402 194.988C29.1549 195.38 29.4302 195.674 29.7662 195.87C30.1115 196.066 30.4802 196.164 30.8722 196.164ZM38.5273 197.172C37.706 197.172 37.0527 196.925 36.5673 196.43C36.082 195.926 35.8393 195.156 35.8393 194.12V190.06H37.0153V193.994C37.0153 195.441 37.608 196.164 38.7933 196.164C39.4 196.164 39.8993 195.949 40.2913 195.52C40.6927 195.081 40.8933 194.461 40.8933 193.658V190.06H42.0693V197.004H41.0053L40.9213 195.758C40.7067 196.197 40.3847 196.542 39.9553 196.794C39.5353 197.046 39.0593 197.172 38.5273 197.172ZM50.9021 197.172C50.2395 197.172 49.6421 197.023 49.1101 196.724C48.5875 196.416 48.1721 195.991 47.8641 195.45C47.5655 194.899 47.4161 194.26 47.4161 193.532C47.4161 192.804 47.5655 192.169 47.8641 191.628C48.1721 191.077 48.5875 190.653 49.1101 190.354C49.6421 190.046 50.2395 189.892 50.9021 189.892C51.7235 189.892 52.4141 190.107 52.9741 190.536C53.5435 190.965 53.9028 191.539 54.0521 192.258H52.8481C52.7548 191.829 52.5261 191.497 52.1621 191.264C51.7981 191.021 51.3735 190.9 50.8881 190.9C50.4961 190.9 50.1275 190.998 49.7821 191.194C49.4368 191.39 49.1568 191.684 48.9421 192.076C48.7275 192.468 48.6201 192.953 48.6201 193.532C48.6201 194.111 48.7275 194.596 48.9421 194.988C49.1568 195.38 49.4368 195.679 49.7821 195.884C50.1275 196.08 50.4961 196.178 50.8881 196.178C51.3735 196.178 51.7981 196.061 52.1621 195.828C52.5261 195.585 52.7548 195.245 52.8481 194.806H54.0521C53.9121 195.506 53.5575 196.075 52.9881 196.514C52.4188 196.953 51.7235 197.172 50.9021 197.172ZM58.0045 197.172C57.4258 197.172 56.9452 197.074 56.5625 196.878C56.1798 196.682 55.8952 196.421 55.7085 196.094C55.5218 195.767 55.4285 195.413 55.4285 195.03C55.4285 194.321 55.6992 193.775 56.2405 193.392C56.7818 193.009 57.5192 192.818 58.4525 192.818H60.3285V192.734C60.3285 192.127 60.1698 191.67 59.8525 191.362C59.5352 191.045 59.1105 190.886 58.5785 190.886C58.1212 190.886 57.7245 191.003 57.3885 191.236C57.0618 191.46 56.8565 191.791 56.7725 192.23H55.5685C55.6152 191.726 55.7832 191.301 56.0725 190.956C56.3712 190.611 56.7398 190.349 57.1785 190.172C57.6172 189.985 58.0838 189.892 58.5785 189.892C59.5492 189.892 60.2772 190.153 60.7625 190.676C61.2572 191.189 61.5045 191.875 61.5045 192.734V197.004H60.4545L60.3845 195.758C60.1885 196.15 59.8992 196.486 59.5165 196.766C59.1432 197.037 58.6392 197.172 58.0045 197.172ZM58.1865 196.178C58.6345 196.178 59.0172 196.061 59.3345 195.828C59.6612 195.595 59.9085 195.291 60.0765 194.918C60.2445 194.545 60.3285 194.153 60.3285 193.742V193.728H58.5505C57.8598 193.728 57.3698 193.849 57.0805 194.092C56.8005 194.325 56.6605 194.619 56.6605 194.974C56.6605 195.338 56.7912 195.632 57.0525 195.856C57.3232 196.071 57.7012 196.178 58.1865 196.178ZM63.2687 197.004V190.06H64.3327L64.4027 191.306C64.6267 190.867 64.9487 190.522 65.3687 190.27C65.7887 190.018 66.2647 189.892 66.7967 189.892C67.6181 189.892 68.2714 190.144 68.7567 190.648C69.2514 191.143 69.4987 191.908 69.4987 192.944V197.004H68.3227V193.07C68.3227 191.623 67.7254 190.9 66.5307 190.9C65.9334 190.9 65.4341 191.119 65.0327 191.558C64.6407 191.987 64.4447 192.603 64.4447 193.406V197.004H63.2687ZM78.1075 197.172C77.4449 197.172 76.8569 197.023 76.3435 196.724C75.8302 196.416 75.4242 195.991 75.1255 195.45C74.8362 194.909 74.6915 194.269 74.6915 193.532C74.6915 192.804 74.8362 192.169 75.1255 191.628C75.4149 191.077 75.8162 190.653 76.3295 190.354C76.8522 190.046 77.4542 189.892 78.1355 189.892C78.8075 189.892 79.3862 190.046 79.8715 190.354C80.3662 190.653 80.7442 191.049 81.0055 191.544C81.2669 192.039 81.3975 192.571 81.3975 193.14C81.3975 193.243 81.3929 193.345 81.3835 193.448C81.3835 193.551 81.3835 193.667 81.3835 193.798H75.8535C75.8815 194.33 76.0029 194.773 76.2175 195.128C76.4415 195.473 76.7169 195.735 77.0435 195.912C77.3795 196.089 77.7342 196.178 78.1075 196.178C78.5929 196.178 78.9989 196.066 79.3255 195.842C79.6522 195.618 79.8902 195.315 80.0395 194.932H81.2015C81.0149 195.576 80.6555 196.113 80.1235 196.542C79.6009 196.962 78.9289 197.172 78.1075 197.172ZM78.1075 190.886C77.5475 190.886 77.0482 191.059 76.6095 191.404C76.1802 191.74 75.9329 192.235 75.8675 192.888H80.2355C80.2075 192.263 79.9929 191.773 79.5915 191.418C79.1902 191.063 78.6955 190.886 78.1075 190.886ZM81.9281 197.004L84.3361 193.532L81.9281 190.06H83.2021L85.1481 192.93L87.1081 190.06H88.3681L85.9601 193.532L88.3681 197.004H87.1081L85.1481 194.134L83.2021 197.004H81.9281ZM89.6008 200.084V190.06H90.6648L90.7768 191.208C91.0008 190.872 91.3181 190.569 91.7288 190.298C92.1488 190.027 92.6808 189.892 93.3248 189.892C94.0154 189.892 94.6174 190.051 95.1308 190.368C95.6441 190.685 96.0408 191.119 96.3208 191.67C96.6101 192.221 96.7548 192.846 96.7548 193.546C96.7548 194.246 96.6101 194.871 96.3208 195.422C96.0408 195.963 95.6394 196.393 95.1168 196.71C94.6034 197.018 94.0014 197.172 93.3108 197.172C92.7414 197.172 92.2328 197.055 91.7848 196.822C91.3461 196.589 91.0101 196.262 90.7768 195.842V200.084H89.6008ZM93.1848 196.15C93.6514 196.15 94.0621 196.043 94.4168 195.828C94.7714 195.604 95.0514 195.296 95.2568 194.904C95.4621 194.512 95.5648 194.055 95.5648 193.532C95.5648 193.009 95.4621 192.552 95.2568 192.16C95.0514 191.768 94.7714 191.465 94.4168 191.25C94.0621 191.026 93.6514 190.914 93.1848 190.914C92.7181 190.914 92.3074 191.026 91.9528 191.25C91.5981 191.465 91.3181 191.768 91.1128 192.16C90.9074 192.552 90.8048 193.009 90.8048 193.532C90.8048 194.055 90.9074 194.512 91.1128 194.904C91.3181 195.296 91.5981 195.604 91.9528 195.828C92.3074 196.043 92.7181 196.15 93.1848 196.15ZM101.514 197.172C100.851 197.172 100.263 197.023 99.7498 196.724C99.2364 196.416 98.8304 195.991 98.5318 195.45C98.2424 194.909 98.0978 194.269 98.0978 193.532C98.0978 192.804 98.2424 192.169 98.5318 191.628C98.8211 191.077 99.2224 190.653 99.7358 190.354C100.258 190.046 100.86 189.892 101.542 189.892C102.214 189.892 102.792 190.046 103.278 190.354C103.772 190.653 104.15 191.049 104.412 191.544C104.673 192.039 104.804 192.571 104.804 193.14C104.804 193.243 104.799 193.345 104.79 193.448C104.79 193.551 104.79 193.667 104.79 193.798H99.2598C99.2878 194.33 99.4091 194.773 99.6238 195.128C99.8478 195.473 100.123 195.735 100.45 195.912C100.786 196.089 101.14 196.178 101.514 196.178C101.999 196.178 102.405 196.066 102.732 195.842C103.058 195.618 103.296 195.315 103.446 194.932H104.608C104.421 195.576 104.062 196.113 103.53 196.542C103.007 196.962 102.335 197.172 101.514 197.172ZM101.514 190.886C100.954 190.886 100.454 191.059 100.016 191.404C99.5864 191.74 99.3391 192.235 99.2738 192.888H103.642C103.614 192.263 103.399 191.773 102.998 191.418C102.596 191.063 102.102 190.886 101.514 190.886ZM109.554 197.172C108.892 197.172 108.294 197.023 107.762 196.724C107.24 196.416 106.824 195.991 106.516 195.45C106.218 194.899 106.068 194.26 106.068 193.532C106.068 192.804 106.218 192.169 106.516 191.628C106.824 191.077 107.24 190.653 107.762 190.354C108.294 190.046 108.892 189.892 109.554 189.892C110.376 189.892 111.066 190.107 111.626 190.536C112.196 190.965 112.555 191.539 112.704 192.258H111.5C111.407 191.829 111.178 191.497 110.814 191.264C110.45 191.021 110.026 190.9 109.54 190.9C109.148 190.9 108.78 190.998 108.434 191.194C108.089 191.39 107.809 191.684 107.594 192.076C107.38 192.468 107.272 192.953 107.272 193.532C107.272 194.111 107.38 194.596 107.594 194.988C107.809 195.38 108.089 195.679 108.434 195.884C108.78 196.08 109.148 196.178 109.54 196.178C110.026 196.178 110.45 196.061 110.814 195.828C111.178 195.585 111.407 195.245 111.5 194.806H112.704C112.564 195.506 112.21 196.075 111.64 196.514C111.071 196.953 110.376 197.172 109.554 197.172ZM116.899 197.004C116.265 197.004 115.765 196.85 115.401 196.542C115.037 196.234 114.855 195.679 114.855 194.876V191.054H113.651V190.06H114.855L115.009 188.394H116.031V190.06H118.075V191.054H116.031V194.876C116.031 195.315 116.12 195.613 116.297 195.772C116.475 195.921 116.787 195.996 117.235 195.996H117.963V197.004H116.899ZM126.019 197.004C125.384 197.004 124.885 196.85 124.521 196.542C124.157 196.234 123.975 195.679 123.975 194.876V191.054H122.771V190.06H123.975L124.129 188.394H125.151V190.06H127.195V191.054H125.151V194.876C125.151 195.315 125.239 195.613 125.417 195.772C125.594 195.921 125.907 195.996 126.355 195.996H127.083V197.004H126.019ZM131.661 197.172C131.008 197.172 130.42 197.023 129.897 196.724C129.375 196.425 128.959 196.005 128.651 195.464C128.353 194.913 128.203 194.269 128.203 193.532C128.203 192.795 128.357 192.155 128.665 191.614C128.973 191.063 129.389 190.639 129.911 190.34C130.443 190.041 131.036 189.892 131.689 189.892C132.343 189.892 132.931 190.041 133.453 190.34C133.976 190.639 134.387 191.063 134.685 191.614C134.993 192.155 135.147 192.795 135.147 193.532C135.147 194.269 134.993 194.913 134.685 195.464C134.377 196.005 133.957 196.425 133.425 196.724C132.903 197.023 132.315 197.172 131.661 197.172ZM131.661 196.164C132.063 196.164 132.436 196.066 132.781 195.87C133.127 195.674 133.407 195.38 133.621 194.988C133.836 194.596 133.943 194.111 133.943 193.532C133.943 192.953 133.836 192.468 133.621 192.076C133.416 191.684 133.141 191.39 132.795 191.194C132.45 190.998 132.081 190.9 131.689 190.9C131.288 190.9 130.915 190.998 130.569 191.194C130.224 191.39 129.944 191.684 129.729 192.076C129.515 192.468 129.407 192.953 129.407 193.532C129.407 194.111 129.515 194.596 129.729 194.988C129.944 195.38 130.219 195.674 130.555 195.87C130.901 196.066 131.269 196.164 131.661 196.164ZM140.487 197.004V190.06H141.551L141.649 191.39C141.864 190.933 142.191 190.569 142.629 190.298C143.068 190.027 143.609 189.892 144.253 189.892V191.124H143.931C143.521 191.124 143.143 191.199 142.797 191.348C142.452 191.488 142.177 191.731 141.971 192.076C141.766 192.421 141.663 192.897 141.663 193.504V197.004H140.487ZM148.436 197.172C147.773 197.172 147.185 197.023 146.672 196.724C146.158 196.416 145.752 195.991 145.454 195.45C145.164 194.909 145.02 194.269 145.02 193.532C145.02 192.804 145.164 192.169 145.454 191.628C145.743 191.077 146.144 190.653 146.658 190.354C147.18 190.046 147.782 189.892 148.464 189.892C149.136 189.892 149.714 190.046 150.2 190.354C150.694 190.653 151.072 191.049 151.334 191.544C151.595 192.039 151.726 192.571 151.726 193.14C151.726 193.243 151.721 193.345 151.712 193.448C151.712 193.551 151.712 193.667 151.712 193.798H146.182C146.21 194.33 146.331 194.773 146.546 195.128C146.77 195.473 147.045 195.735 147.372 195.912C147.708 196.089 148.062 196.178 148.436 196.178C148.921 196.178 149.327 196.066 149.654 195.842C149.98 195.618 150.218 195.315 150.368 194.932H151.53C151.343 195.576 150.984 196.113 150.452 196.542C149.929 196.962 149.257 197.172 148.436 197.172ZM148.436 190.886C147.876 190.886 147.376 191.059 146.938 191.404C146.508 191.74 146.261 192.235 146.196 192.888H150.564C150.536 192.263 150.321 191.773 149.92 191.418C149.518 191.063 149.024 190.886 148.436 190.886ZM156.476 197.172C155.814 197.172 155.216 197.023 154.684 196.724C154.162 196.416 153.746 195.991 153.438 195.45C153.14 194.899 152.99 194.26 152.99 193.532C152.99 192.804 153.14 192.169 153.438 191.628C153.746 191.077 154.162 190.653 154.684 190.354C155.216 190.046 155.814 189.892 156.476 189.892C157.298 189.892 157.988 190.107 158.548 190.536C159.118 190.965 159.477 191.539 159.626 192.258H158.422C158.329 191.829 158.1 191.497 157.736 191.264C157.372 191.021 156.948 190.9 156.462 190.9C156.07 190.9 155.702 190.998 155.356 191.194C155.011 191.39 154.731 191.684 154.516 192.076C154.302 192.468 154.194 192.953 154.194 193.532C154.194 194.111 154.302 194.596 154.516 194.988C154.731 195.38 155.011 195.679 155.356 195.884C155.702 196.08 156.07 196.178 156.462 196.178C156.948 196.178 157.372 196.061 157.736 195.828C158.1 195.585 158.329 195.245 158.422 194.806H159.626C159.486 195.506 159.132 196.075 158.562 196.514C157.993 196.953 157.298 197.172 156.476 197.172ZM164.391 197.172C163.728 197.172 163.14 197.023 162.627 196.724C162.113 196.416 161.707 195.991 161.409 195.45C161.119 194.909 160.975 194.269 160.975 193.532C160.975 192.804 161.119 192.169 161.409 191.628C161.698 191.077 162.099 190.653 162.613 190.354C163.135 190.046 163.737 189.892 164.419 189.892C165.091 189.892 165.669 190.046 166.155 190.354C166.649 190.653 167.027 191.049 167.289 191.544C167.55 192.039 167.681 192.571 167.681 193.14C167.681 193.243 167.676 193.345 167.667 193.448C167.667 193.551 167.667 193.667 167.667 193.798H162.137C162.165 194.33 162.286 194.773 162.501 195.128C162.725 195.473 163 195.735 163.327 195.912C163.663 196.089 164.017 196.178 164.391 196.178C164.876 196.178 165.282 196.066 165.609 195.842C165.935 195.618 166.173 195.315 166.323 194.932H167.485C167.298 195.576 166.939 196.113 166.407 196.542C165.884 196.962 165.212 197.172 164.391 197.172ZM164.391 190.886C163.831 190.886 163.331 191.059 162.893 191.404C162.463 191.74 162.216 192.235 162.151 192.888H166.519C166.491 192.263 166.276 191.773 165.875 191.418C165.473 191.063 164.979 190.886 164.391 190.886ZM169.953 188.52C169.72 188.52 169.524 188.445 169.365 188.296C169.216 188.137 169.141 187.941 169.141 187.708C169.141 187.484 169.216 187.297 169.365 187.148C169.524 186.999 169.72 186.924 169.953 186.924C170.177 186.924 170.369 186.999 170.527 187.148C170.686 187.297 170.765 187.484 170.765 187.708C170.765 187.941 170.686 188.137 170.527 188.296C170.369 188.445 170.177 188.52 169.953 188.52ZM169.365 197.004V190.06H170.541V197.004H169.365ZM174.591 197.004L171.959 190.06H173.191L175.277 195.87L177.377 190.06H178.581L175.949 197.004H174.591ZM182.656 197.172C181.994 197.172 181.406 197.023 180.892 196.724C180.379 196.416 179.973 195.991 179.674 195.45C179.385 194.909 179.24 194.269 179.24 193.532C179.24 192.804 179.385 192.169 179.674 191.628C179.964 191.077 180.365 190.653 180.878 190.354C181.401 190.046 182.003 189.892 182.684 189.892C183.356 189.892 183.935 190.046 184.42 190.354C184.915 190.653 185.293 191.049 185.554 191.544C185.816 192.039 185.946 192.571 185.946 193.14C185.946 193.243 185.942 193.345 185.932 193.448C185.932 193.551 185.932 193.667 185.932 193.798H180.402C180.43 194.33 180.552 194.773 180.766 195.128C180.99 195.473 181.266 195.735 181.592 195.912C181.928 196.089 182.283 196.178 182.656 196.178C183.142 196.178 183.548 196.066 183.874 195.842C184.201 195.618 184.439 195.315 184.588 194.932H185.75C185.564 195.576 185.204 196.113 184.672 196.542C184.15 196.962 183.478 197.172 182.656 197.172ZM182.656 190.886C182.096 190.886 181.597 191.059 181.158 191.404C180.729 191.74 180.482 192.235 180.416 192.888H184.784C184.756 192.263 184.542 191.773 184.14 191.418C183.739 191.063 183.244 190.886 182.656 190.886ZM193.52 197.172C192.941 197.172 192.461 197.074 192.078 196.878C191.695 196.682 191.411 196.421 191.224 196.094C191.037 195.767 190.944 195.413 190.944 195.03C190.944 194.321 191.215 193.775 191.756 193.392C192.297 193.009 193.035 192.818 193.968 192.818H195.844V192.734C195.844 192.127 195.685 191.67 195.368 191.362C195.051 191.045 194.626 190.886 194.094 190.886C193.637 190.886 193.24 191.003 192.904 191.236C192.577 191.46 192.372 191.791 192.288 192.23H191.084C191.131 191.726 191.299 191.301 191.588 190.956C191.887 190.611 192.255 190.349 192.694 190.172C193.133 189.985 193.599 189.892 194.094 189.892C195.065 189.892 195.793 190.153 196.278 190.676C196.773 191.189 197.02 191.875 197.02 192.734V197.004H195.97L195.9 195.758C195.704 196.15 195.415 196.486 195.032 196.766C194.659 197.037 194.155 197.172 193.52 197.172ZM193.702 196.178C194.15 196.178 194.533 196.061 194.85 195.828C195.177 195.595 195.424 195.291 195.592 194.918C195.76 194.545 195.844 194.153 195.844 193.742V193.728H194.066C193.375 193.728 192.885 193.849 192.596 194.092C192.316 194.325 192.176 194.619 192.176 194.974C192.176 195.338 192.307 195.632 192.568 195.856C192.839 196.071 193.217 196.178 193.702 196.178ZM205.681 197.172C205.019 197.172 204.421 197.023 203.889 196.724C203.367 196.416 202.951 195.991 202.643 195.45C202.345 194.899 202.195 194.26 202.195 193.532C202.195 192.804 202.345 192.169 202.643 191.628C202.951 191.077 203.367 190.653 203.889 190.354C204.421 190.046 205.019 189.892 205.681 189.892C206.503 189.892 207.193 190.107 207.753 190.536C208.323 190.965 208.682 191.539 208.831 192.258H207.627C207.534 191.829 207.305 191.497 206.941 191.264C206.577 191.021 206.153 190.9 205.667 190.9C205.275 190.9 204.907 190.998 204.561 191.194C204.216 191.39 203.936 191.684 203.721 192.076C203.507 192.468 203.399 192.953 203.399 193.532C203.399 194.111 203.507 194.596 203.721 194.988C203.936 195.38 204.216 195.679 204.561 195.884C204.907 196.08 205.275 196.178 205.667 196.178C206.153 196.178 206.577 196.061 206.941 195.828C207.305 195.585 207.534 195.245 207.627 194.806H208.831C208.691 195.506 208.337 196.075 207.767 196.514C207.198 196.953 206.503 197.172 205.681 197.172ZM213.638 197.172C212.984 197.172 212.396 197.023 211.874 196.724C211.351 196.425 210.936 196.005 210.628 195.464C210.329 194.913 210.18 194.269 210.18 193.532C210.18 192.795 210.334 192.155 210.642 191.614C210.95 191.063 211.365 190.639 211.888 190.34C212.42 190.041 213.012 189.892 213.666 189.892C214.319 189.892 214.907 190.041 215.43 190.34C215.952 190.639 216.363 191.063 216.662 191.614C216.97 192.155 217.124 192.795 217.124 193.532C217.124 194.269 216.97 194.913 216.662 195.464C216.354 196.005 215.934 196.425 215.402 196.724C214.879 197.023 214.291 197.172 213.638 197.172ZM213.638 196.164C214.039 196.164 214.412 196.066 214.758 195.87C215.103 195.674 215.383 195.38 215.598 194.988C215.812 194.596 215.92 194.111 215.92 193.532C215.92 192.953 215.812 192.468 215.598 192.076C215.392 191.684 215.117 191.39 214.772 191.194C214.426 190.998 214.058 190.9 213.666 190.9C213.264 190.9 212.891 190.998 212.546 191.194C212.2 191.39 211.92 191.684 211.706 192.076C211.491 192.468 211.384 192.953 211.384 193.532C211.384 194.111 211.491 194.596 211.706 194.988C211.92 195.38 212.196 195.674 212.532 195.87C212.877 196.066 213.246 196.164 213.638 196.164ZM218.759 197.004V190.06H219.823L219.893 191.306C220.117 190.867 220.439 190.522 220.859 190.27C221.279 190.018 221.755 189.892 222.287 189.892C223.108 189.892 223.762 190.144 224.247 190.648C224.742 191.143 224.989 191.908 224.989 192.944V197.004H223.813V193.07C223.813 191.623 223.216 190.9 222.021 190.9C221.424 190.9 220.924 191.119 220.523 191.558C220.131 191.987 219.935 192.603 219.935 193.406V197.004H218.759ZM227.149 197.004V191.054H226.099V190.06H227.149V188.856C227.149 188.184 227.317 187.694 227.653 187.386C227.989 187.078 228.479 186.924 229.123 186.924H229.823V187.932H229.305C228.95 187.932 228.698 188.007 228.549 188.156C228.399 188.296 228.325 188.539 228.325 188.884V190.06H232.637V197.004H231.461V191.054H228.325V197.004H227.149ZM232.063 188.73C231.839 188.73 231.647 188.655 231.489 188.506C231.33 188.347 231.251 188.151 231.251 187.918C231.251 187.694 231.33 187.507 231.489 187.358C231.647 187.209 231.839 187.134 232.063 187.134C232.296 187.134 232.487 187.209 232.637 187.358C232.795 187.507 232.875 187.694 232.875 187.918C232.875 188.151 232.795 188.347 232.637 188.506C232.487 188.655 232.296 188.73 232.063 188.73ZM234.714 197.004V190.06H235.778L235.876 191.39C236.091 190.933 236.417 190.569 236.856 190.298C237.295 190.027 237.836 189.892 238.48 189.892V191.124H238.158C237.747 191.124 237.369 191.199 237.024 191.348C236.679 191.488 236.403 191.731 236.198 192.076C235.993 192.421 235.89 192.897 235.89 193.504V197.004H234.714ZM239.8 197.004V190.06H240.864L240.948 191.068C241.172 190.695 241.471 190.405 241.844 190.2C242.217 189.995 242.637 189.892 243.104 189.892C243.655 189.892 244.126 190.004 244.518 190.228C244.919 190.452 245.227 190.793 245.442 191.25C245.685 190.83 246.016 190.499 246.436 190.256C246.865 190.013 247.327 189.892 247.822 189.892C248.653 189.892 249.315 190.144 249.81 190.648C250.305 191.143 250.552 191.908 250.552 192.944V197.004H249.39V193.07C249.39 192.351 249.245 191.81 248.956 191.446C248.667 191.082 248.251 190.9 247.71 190.9C247.15 190.9 246.683 191.119 246.31 191.558C245.946 191.987 245.764 192.603 245.764 193.406V197.004H244.588V193.07C244.588 192.351 244.443 191.81 244.154 191.446C243.865 191.082 243.449 190.9 242.908 190.9C242.357 190.9 241.895 191.119 241.522 191.558C241.158 191.987 240.976 192.603 240.976 193.406V197.004H239.8ZM254.633 197.172C254.055 197.172 253.574 197.074 253.191 196.878C252.809 196.682 252.524 196.421 252.337 196.094C252.151 195.767 252.057 195.413 252.057 195.03C252.057 194.321 252.328 193.775 252.869 193.392C253.411 193.009 254.148 192.818 255.081 192.818H256.957V192.734C256.957 192.127 256.799 191.67 256.481 191.362C256.164 191.045 255.739 190.886 255.207 190.886C254.75 190.886 254.353 191.003 254.017 191.236C253.691 191.46 253.485 191.791 253.401 192.23H252.197C252.244 191.726 252.412 191.301 252.701 190.956C253 190.611 253.369 190.349 253.807 190.172C254.246 189.985 254.713 189.892 255.207 189.892C256.178 189.892 256.906 190.153 257.391 190.676C257.886 191.189 258.133 191.875 258.133 192.734V197.004H257.083L257.013 195.758C256.817 196.15 256.528 196.486 256.145 196.766C255.772 197.037 255.268 197.172 254.633 197.172ZM254.815 196.178C255.263 196.178 255.646 196.061 255.963 195.828C256.29 195.595 256.537 195.291 256.705 194.918C256.873 194.545 256.957 194.153 256.957 193.742V193.728H255.179C254.489 193.728 253.999 193.849 253.709 194.092C253.429 194.325 253.289 194.619 253.289 194.974C253.289 195.338 253.42 195.632 253.681 195.856C253.952 196.071 254.33 196.178 254.815 196.178ZM262.45 197.004C261.816 197.004 261.316 196.85 260.952 196.542C260.588 196.234 260.406 195.679 260.406 194.876V191.054H259.202V190.06H260.406L260.56 188.394H261.582V190.06H263.626V191.054H261.582V194.876C261.582 195.315 261.671 195.613 261.848 195.772C262.026 195.921 262.338 195.996 262.786 195.996H263.514V197.004H262.45ZM265.834 188.52C265.601 188.52 265.405 188.445 265.246 188.296C265.097 188.137 265.022 187.941 265.022 187.708C265.022 187.484 265.097 187.297 265.246 187.148C265.405 186.999 265.601 186.924 265.834 186.924C266.058 186.924 266.25 186.999 266.408 187.148C266.567 187.297 266.646 187.484 266.646 187.708C266.646 187.941 266.567 188.137 266.408 188.296C266.25 188.445 266.058 188.52 265.834 188.52ZM265.246 197.004V190.06H266.422V197.004H265.246ZM271.634 197.172C270.981 197.172 270.393 197.023 269.87 196.724C269.347 196.425 268.932 196.005 268.624 195.464C268.325 194.913 268.176 194.269 268.176 193.532C268.176 192.795 268.33 192.155 268.638 191.614C268.946 191.063 269.361 190.639 269.884 190.34C270.416 190.041 271.009 189.892 271.662 189.892C272.315 189.892 272.903 190.041 273.426 190.34C273.949 190.639 274.359 191.063 274.658 191.614C274.966 192.155 275.12 192.795 275.12 193.532C275.12 194.269 274.966 194.913 274.658 195.464C274.35 196.005 273.93 196.425 273.398 196.724C272.875 197.023 272.287 197.172 271.634 197.172ZM271.634 196.164C272.035 196.164 272.409 196.066 272.754 195.87C273.099 195.674 273.379 195.38 273.594 194.988C273.809 194.596 273.916 194.111 273.916 193.532C273.916 192.953 273.809 192.468 273.594 192.076C273.389 191.684 273.113 191.39 272.768 191.194C272.423 190.998 272.054 190.9 271.662 190.9C271.261 190.9 270.887 190.998 270.542 191.194C270.197 191.39 269.917 191.684 269.702 192.076C269.487 192.468 269.38 192.953 269.38 193.532C269.38 194.111 269.487 194.596 269.702 194.988C269.917 195.38 270.192 195.674 270.528 195.87C270.873 196.066 271.242 196.164 271.634 196.164ZM276.755 197.004V190.06H277.819L277.889 191.306C278.113 190.867 278.435 190.522 278.855 190.27C279.275 190.018 279.751 189.892 280.283 189.892C281.104 189.892 281.758 190.144 282.243 190.648C282.738 191.143 282.985 191.908 282.985 192.944V197.004H281.809V193.07C281.809 191.623 281.212 190.9 280.017 190.9C279.42 190.9 278.92 191.119 278.519 191.558C278.127 191.987 277.931 192.603 277.931 193.406V197.004H276.755ZM291.594 197.172C290.931 197.172 290.343 197.023 289.83 196.724C289.317 196.416 288.911 195.991 288.612 195.45C288.323 194.909 288.178 194.269 288.178 193.532C288.178 192.804 288.323 192.169 288.612 191.628C288.901 191.077 289.303 190.653 289.816 190.354C290.339 190.046 290.941 189.892 291.622 189.892C292.294 189.892 292.873 190.046 293.358 190.354C293.853 190.653 294.231 191.049 294.492 191.544C294.753 192.039 294.884 192.571 294.884 193.14C294.884 193.243 294.879 193.345 294.87 193.448C294.87 193.551 294.87 193.667 294.87 193.798H289.34C289.368 194.33 289.489 194.773 289.704 195.128C289.928 195.473 290.203 195.735 290.53 195.912C290.866 196.089 291.221 196.178 291.594 196.178C292.079 196.178 292.485 196.066 292.812 195.842C293.139 195.618 293.377 195.315 293.526 194.932H294.688C294.501 195.576 294.142 196.113 293.61 196.542C293.087 196.962 292.415 197.172 291.594 197.172ZM291.594 190.886C291.034 190.886 290.535 191.059 290.096 191.404C289.667 191.74 289.419 192.235 289.354 192.888H293.722C293.694 192.263 293.479 191.773 293.078 191.418C292.677 191.063 292.182 190.886 291.594 190.886ZM296.443 197.004V190.06H297.507L297.591 191.068C297.815 190.695 298.113 190.405 298.487 190.2C298.86 189.995 299.28 189.892 299.747 189.892C300.297 189.892 300.769 190.004 301.161 190.228C301.562 190.452 301.87 190.793 302.085 191.25C302.327 190.83 302.659 190.499 303.079 190.256C303.508 190.013 303.97 189.892 304.465 189.892C305.295 189.892 305.958 190.144 306.453 190.648C306.947 191.143 307.195 191.908 307.195 192.944V197.004H306.033V193.07C306.033 192.351 305.888 191.81 305.599 191.446C305.309 191.082 304.894 190.9 304.353 190.9C303.793 190.9 303.326 191.119 302.953 191.558C302.589 191.987 302.407 192.603 302.407 193.406V197.004H301.231V193.07C301.231 192.351 301.086 191.81 300.797 191.446C300.507 191.082 300.092 190.9 299.551 190.9C299 190.9 298.538 191.119 298.165 191.558C297.801 191.987 297.619 192.603 297.619 193.406V197.004H296.443ZM311.276 197.172C310.697 197.172 310.217 197.074 309.834 196.878C309.451 196.682 309.167 196.421 308.98 196.094C308.793 195.767 308.7 195.413 308.7 195.03C308.7 194.321 308.971 193.775 309.512 193.392C310.053 193.009 310.791 192.818 311.724 192.818H313.6V192.734C313.6 192.127 313.441 191.67 313.124 191.362C312.807 191.045 312.382 190.886 311.85 190.886C311.393 190.886 310.996 191.003 310.66 191.236C310.333 191.46 310.128 191.791 310.044 192.23H308.84C308.887 191.726 309.055 191.301 309.344 190.956C309.643 190.611 310.011 190.349 310.45 190.172C310.889 189.985 311.355 189.892 311.85 189.892C312.821 189.892 313.549 190.153 314.034 190.676C314.529 191.189 314.776 191.875 314.776 192.734V197.004H313.726L313.656 195.758C313.46 196.15 313.171 196.486 312.788 196.766C312.415 197.037 311.911 197.172 311.276 197.172ZM311.458 196.178C311.906 196.178 312.289 196.061 312.606 195.828C312.933 195.595 313.18 195.291 313.348 194.918C313.516 194.545 313.6 194.153 313.6 193.742V193.728H311.822C311.131 193.728 310.641 193.849 310.352 194.092C310.072 194.325 309.932 194.619 309.932 194.974C309.932 195.338 310.063 195.632 310.324 195.856C310.595 196.071 310.973 196.178 311.458 196.178ZM317.254 188.52C317.021 188.52 316.825 188.445 316.666 188.296C316.517 188.137 316.442 187.941 316.442 187.708C316.442 187.484 316.517 187.297 316.666 187.148C316.825 186.999 317.021 186.924 317.254 186.924C317.478 186.924 317.67 186.999 317.828 187.148C317.987 187.297 318.066 187.484 318.066 187.708C318.066 187.941 317.987 188.137 317.828 188.296C317.67 188.445 317.478 188.52 317.254 188.52ZM316.666 197.004V190.06H317.842V197.004H316.666ZM319.89 197.004V186.924H321.066V197.004H319.89ZM329.358 197.172C328.528 197.172 327.837 196.962 327.286 196.542C326.736 196.122 326.414 195.553 326.32 194.834H327.524C327.599 195.198 327.79 195.515 328.098 195.786C328.416 196.047 328.84 196.178 329.372 196.178C329.867 196.178 330.231 196.075 330.464 195.87C330.698 195.655 330.814 195.403 330.814 195.114C330.814 194.694 330.66 194.414 330.352 194.274C330.054 194.134 329.629 194.008 329.078 193.896C328.705 193.821 328.332 193.714 327.958 193.574C327.585 193.434 327.272 193.238 327.02 192.986C326.768 192.725 326.642 192.384 326.642 191.964C326.642 191.357 326.866 190.863 327.314 190.48C327.772 190.088 328.388 189.892 329.162 189.892C329.9 189.892 330.502 190.079 330.968 190.452C331.444 190.816 331.72 191.339 331.794 192.02H330.632C330.586 191.665 330.432 191.39 330.17 191.194C329.918 190.989 329.578 190.886 329.148 190.886C328.728 190.886 328.402 190.975 328.168 191.152C327.944 191.329 327.832 191.563 327.832 191.852C327.832 192.132 327.977 192.351 328.266 192.51C328.565 192.669 328.966 192.804 329.47 192.916C329.9 193.009 330.306 193.126 330.688 193.266C331.08 193.397 331.398 193.597 331.64 193.868C331.892 194.129 332.018 194.512 332.018 195.016C332.028 195.641 331.79 196.159 331.304 196.57C330.828 196.971 330.18 197.172 329.358 197.172ZM333.698 197.004V186.924H334.874V191.25C335.108 190.821 335.439 190.489 335.868 190.256C336.298 190.013 336.764 189.892 337.268 189.892C338.071 189.892 338.715 190.144 339.2 190.648C339.686 191.143 339.928 191.908 339.928 192.944V197.004H338.766V193.07C338.766 191.623 338.183 190.9 337.016 190.9C336.41 190.9 335.901 191.119 335.49 191.558C335.08 191.987 334.874 192.603 334.874 193.406V197.004H333.698ZM344.874 197.172C344.221 197.172 343.633 197.023 343.11 196.724C342.587 196.425 342.172 196.005 341.864 195.464C341.565 194.913 341.416 194.269 341.416 193.532C341.416 192.795 341.57 192.155 341.878 191.614C342.186 191.063 342.601 190.639 343.124 190.34C343.656 190.041 344.249 189.892 344.902 189.892C345.555 189.892 346.143 190.041 346.666 190.34C347.189 190.639 347.599 191.063 347.898 191.614C348.206 192.155 348.36 192.795 348.36 193.532C348.36 194.269 348.206 194.913 347.898 195.464C347.59 196.005 347.17 196.425 346.638 196.724C346.115 197.023 345.527 197.172 344.874 197.172ZM344.874 196.164C345.275 196.164 345.649 196.066 345.994 195.87C346.339 195.674 346.619 195.38 346.834 194.988C347.049 194.596 347.156 194.111 347.156 193.532C347.156 192.953 347.049 192.468 346.834 192.076C346.629 191.684 346.353 191.39 346.008 191.194C345.663 190.998 345.294 190.9 344.902 190.9C344.501 190.9 344.127 190.998 343.782 191.194C343.437 191.39 343.157 191.684 342.942 192.076C342.727 192.468 342.62 192.953 342.62 193.532C342.62 194.111 342.727 194.596 342.942 194.988C343.157 195.38 343.432 195.674 343.768 195.87C344.113 196.066 344.482 196.164 344.874 196.164ZM349.995 197.004V190.06H351.059L351.157 191.39C351.372 190.933 351.699 190.569 352.137 190.298C352.576 190.027 353.117 189.892 353.761 189.892V191.124H353.439C353.029 191.124 352.651 191.199 352.305 191.348C351.96 191.488 351.685 191.731 351.479 192.076C351.274 192.421 351.171 192.897 351.171 193.504V197.004H349.995ZM357.825 197.004C357.191 197.004 356.691 196.85 356.327 196.542C355.963 196.234 355.781 195.679 355.781 194.876V191.054H354.577V190.06H355.781L355.935 188.394H356.957V190.06H359.001V191.054H356.957V194.876C356.957 195.315 357.046 195.613 357.223 195.772C357.401 195.921 357.713 195.996 358.161 195.996H358.889V197.004H357.825ZM360.495 197.004V186.924H361.671V197.004H360.495ZM364.355 200.084L366.077 196.332H365.671L362.913 190.06H364.187L366.483 195.464L368.919 190.06H370.137L365.587 200.084H364.355ZM370.786 197.074C370.553 197.074 370.357 196.999 370.198 196.85C370.049 196.691 369.974 196.5 369.974 196.276C369.974 196.052 370.049 195.865 370.198 195.716C370.357 195.557 370.553 195.478 370.786 195.478C371.01 195.478 371.197 195.557 371.346 195.716C371.505 195.865 371.584 196.052 371.584 196.276C371.584 196.5 371.505 196.691 371.346 196.85C371.197 196.999 371.01 197.074 370.786 197.074Z" fill="#4A423B"/>
<path d="M32.4493 164.941V150.941H37.7293C39.1826 150.941 40.2826 151.281 41.0293 151.961C41.776 152.641 42.1493 153.495 42.1493 154.521C42.1493 155.415 41.9093 156.128 41.4293 156.661C40.9493 157.181 40.3693 157.535 39.6893 157.721C40.2226 157.828 40.696 158.041 41.1093 158.361C41.536 158.681 41.8693 159.081 42.1093 159.561C42.3493 160.041 42.4693 160.561 42.4693 161.121C42.4693 161.841 42.2893 162.495 41.9293 163.081C41.5826 163.655 41.0693 164.108 40.3893 164.441C39.7093 164.775 38.876 164.941 37.8893 164.941H32.4493ZM34.5693 156.941H37.4693C38.2826 156.941 38.9026 156.755 39.3293 156.381C39.756 155.995 39.9693 155.468 39.9693 154.801C39.9693 154.148 39.756 153.628 39.3293 153.241C38.916 152.855 38.2826 152.661 37.4293 152.661H34.5693V156.941ZM34.5693 163.201H37.6093C38.4626 163.201 39.1226 163.001 39.5893 162.601C40.0693 162.201 40.3093 161.641 40.3093 160.921C40.3093 160.201 40.0626 159.635 39.5693 159.221C39.076 158.795 38.4093 158.581 37.5693 158.581H34.5693V163.201ZM49.353 165.181C48.4064 165.181 47.553 164.968 46.793 164.541C46.0464 164.101 45.453 163.495 45.013 162.721C44.573 161.935 44.353 161.021 44.353 159.981C44.353 158.941 44.573 158.035 45.013 157.261C45.4664 156.475 46.073 155.868 46.833 155.441C47.593 155.001 48.4397 154.781 49.373 154.781C50.3197 154.781 51.1664 155.001 51.913 155.441C52.673 155.868 53.273 156.475 53.713 157.261C54.1664 158.035 54.393 158.941 54.393 159.981C54.393 161.021 54.1664 161.935 53.713 162.721C53.273 163.495 52.673 164.101 51.913 164.541C51.153 164.968 50.2997 165.181 49.353 165.181ZM49.353 163.361C49.8597 163.361 50.3264 163.235 50.753 162.981C51.193 162.728 51.5464 162.355 51.813 161.861C52.0797 161.355 52.213 160.728 52.213 159.981C52.213 159.235 52.0797 158.615 51.813 158.121C51.5597 157.615 51.213 157.235 50.773 156.981C50.3464 156.728 49.8797 156.601 49.373 156.601C48.8664 156.601 48.393 156.728 47.953 156.981C47.5264 157.235 47.1797 157.615 46.913 158.121C46.6464 158.615 46.513 159.235 46.513 159.981C46.513 160.728 46.6464 161.355 46.913 161.861C47.1797 162.355 47.5264 162.728 47.953 162.981C48.3797 163.235 48.8464 163.361 49.353 163.361ZM61.3257 165.181C60.379 165.181 59.5257 164.968 58.7657 164.541C58.019 164.101 57.4257 163.495 56.9857 162.721C56.5457 161.935 56.3257 161.021 56.3257 159.981C56.3257 158.941 56.5457 158.035 56.9857 157.261C57.439 156.475 58.0457 155.868 58.8057 155.441C59.5657 155.001 60.4124 154.781 61.3457 154.781C62.2924 154.781 63.139 155.001 63.8857 155.441C64.6457 155.868 65.2457 156.475 65.6857 157.261C66.139 158.035 66.3657 158.941 66.3657 159.981C66.3657 161.021 66.139 161.935 65.6857 162.721C65.2457 163.495 64.6457 164.101 63.8857 164.541C63.1257 164.968 62.2724 165.181 61.3257 165.181ZM61.3257 163.361C61.8324 163.361 62.299 163.235 62.7257 162.981C63.1657 162.728 63.519 162.355 63.7857 161.861C64.0524 161.355 64.1857 160.728 64.1857 159.981C64.1857 159.235 64.0524 158.615 63.7857 158.121C63.5324 157.615 63.1857 157.235 62.7457 156.981C62.319 156.728 61.8524 156.601 61.3457 156.601C60.839 156.601 60.3657 156.728 59.9257 156.981C59.499 157.235 59.1524 157.615 58.8857 158.121C58.619 158.615 58.4857 159.235 58.4857 159.981C58.4857 160.728 58.619 161.355 58.8857 161.861C59.1524 162.355 59.499 162.728 59.9257 162.981C60.3524 163.235 60.819 163.361 61.3257 163.361ZM68.6584 164.941V150.541H70.7784V159.121L74.5784 155.021H77.1184L72.8984 159.521L77.7384 164.941H75.0584L70.7784 159.861V164.941H68.6584ZM80.581 153.141C80.181 153.141 79.8477 153.021 79.581 152.781C79.3277 152.528 79.201 152.215 79.201 151.841C79.201 151.468 79.3277 151.161 79.581 150.921C79.8477 150.668 80.181 150.541 80.581 150.541C80.981 150.541 81.3077 150.668 81.561 150.921C81.8277 151.161 81.961 151.468 81.961 151.841C81.961 152.215 81.8277 152.528 81.561 152.781C81.3077 153.021 80.981 153.141 80.581 153.141ZM79.521 164.941V155.021H81.641V164.941H79.521ZM84.4396 164.941V155.021H86.3196L86.4796 156.761C86.7863 156.148 87.2329 155.668 87.8196 155.321C88.4196 154.961 89.1063 154.781 89.8796 154.781C91.0796 154.781 92.0196 155.155 92.6996 155.901C93.3929 156.648 93.7396 157.761 93.7396 159.241V164.941H91.6396V159.461C91.6396 157.541 90.8529 156.581 89.2796 156.581C88.4929 156.581 87.8396 156.861 87.3196 157.421C86.8129 157.981 86.5596 158.781 86.5596 159.821V164.941H84.4396ZM100.296 161.901C99.7765 161.901 99.2965 161.841 98.8565 161.721L97.9965 162.561C98.1432 162.655 98.3232 162.735 98.5365 162.801C98.7498 162.868 99.0498 162.928 99.4365 162.981C99.8232 163.035 100.35 163.088 101.016 163.141C102.336 163.261 103.29 163.581 103.876 164.101C104.463 164.608 104.756 165.288 104.756 166.141C104.756 166.728 104.596 167.281 104.276 167.801C103.97 168.335 103.483 168.761 102.816 169.081C102.163 169.415 101.323 169.581 100.296 169.581C98.9098 169.581 97.7832 169.315 96.9165 168.781C96.0632 168.261 95.6365 167.468 95.6365 166.401C95.6365 165.988 95.7432 165.575 95.9565 165.161C96.1832 164.761 96.5365 164.381 97.0165 164.021C96.7365 163.901 96.4898 163.775 96.2765 163.641C96.0765 163.495 95.8965 163.348 95.7365 163.201V162.721L97.4565 160.961C96.6832 160.295 96.2965 159.421 96.2965 158.341C96.2965 157.688 96.4498 157.095 96.7565 156.561C97.0765 156.015 97.5365 155.581 98.1365 155.261C98.7365 154.941 99.4565 154.781 100.296 154.781C100.856 154.781 101.376 154.861 101.856 155.021H105.556V156.421L103.796 156.521C104.116 157.068 104.276 157.675 104.276 158.341C104.276 159.008 104.116 159.608 103.796 160.141C103.49 160.675 103.036 161.101 102.436 161.421C101.85 161.741 101.136 161.901 100.296 161.901ZM100.296 160.241C100.91 160.241 101.403 160.081 101.776 159.761C102.163 159.428 102.356 158.961 102.356 158.361C102.356 157.748 102.163 157.281 101.776 156.961C101.403 156.641 100.91 156.481 100.296 156.481C99.6698 156.481 99.1632 156.641 98.7765 156.961C98.4032 157.281 98.2165 157.748 98.2165 158.361C98.2165 158.961 98.4032 159.428 98.7765 159.761C99.1632 160.081 99.6698 160.241 100.296 160.241ZM97.6365 166.201C97.6365 166.775 97.8898 167.201 98.3965 167.481C98.9032 167.775 99.5365 167.921 100.296 167.921C101.03 167.921 101.623 167.761 102.076 167.441C102.53 167.135 102.756 166.721 102.756 166.201C102.756 165.815 102.603 165.481 102.296 165.201C101.99 164.935 101.41 164.768 100.556 164.701C99.9165 164.661 99.3498 164.601 98.8565 164.521C98.3898 164.775 98.0698 165.048 97.8965 165.341C97.7232 165.635 97.6365 165.921 97.6365 166.201ZM112.566 164.941V150.941H117.386C118.493 150.941 119.4 151.128 120.106 151.501C120.826 151.875 121.36 152.381 121.706 153.021C122.053 153.648 122.226 154.348 122.226 155.121C122.226 155.988 121.993 156.775 121.526 157.481C121.073 158.188 120.36 158.695 119.386 159.001L122.366 164.941H119.906L117.186 159.301H114.686V164.941H112.566ZM114.686 157.701H117.266C118.226 157.701 118.926 157.468 119.366 157.001C119.82 156.535 120.046 155.928 120.046 155.181C120.046 154.435 119.826 153.841 119.386 153.401C118.946 152.948 118.233 152.721 117.246 152.721H114.686V157.701ZM128.689 165.181C127.716 165.181 126.849 164.968 126.089 164.541C125.342 164.101 124.756 163.495 124.329 162.721C123.902 161.948 123.689 161.048 123.689 160.021C123.689 158.981 123.896 158.068 124.309 157.281C124.736 156.495 125.322 155.881 126.069 155.441C126.829 155.001 127.709 154.781 128.709 154.781C129.682 154.781 130.529 155.001 131.249 155.441C131.969 155.868 132.529 156.441 132.929 157.161C133.329 157.881 133.529 158.675 133.529 159.541C133.529 159.675 133.522 159.821 133.509 159.981C133.509 160.128 133.502 160.295 133.489 160.481H125.769C125.836 161.441 126.149 162.175 126.709 162.681C127.282 163.175 127.942 163.421 128.689 163.421C129.289 163.421 129.789 163.288 130.189 163.021C130.602 162.741 130.909 162.368 131.109 161.901H133.229C132.962 162.835 132.429 163.615 131.629 164.241C130.842 164.868 129.862 165.181 128.689 165.181ZM128.689 156.521C127.982 156.521 127.356 156.735 126.809 157.161C126.262 157.575 125.929 158.201 125.809 159.041H131.409C131.369 158.268 131.096 157.655 130.589 157.201C130.082 156.748 129.449 156.521 128.689 156.521ZM143.729 169.341V163.401C143.409 163.868 142.969 164.281 142.409 164.641C141.849 165.001 141.129 165.181 140.249 165.181C139.289 165.181 138.442 164.955 137.709 164.501C136.975 164.048 136.402 163.428 135.989 162.641C135.575 161.855 135.369 160.961 135.369 159.961C135.369 158.961 135.575 158.075 135.989 157.301C136.402 156.515 136.975 155.901 137.709 155.461C138.455 155.008 139.309 154.781 140.269 154.781C141.055 154.781 141.742 154.935 142.329 155.241C142.929 155.548 143.395 155.981 143.729 156.541L143.949 155.021H145.849V169.341H143.729ZM140.629 163.341C141.535 163.341 142.275 163.028 142.849 162.401C143.435 161.775 143.729 160.968 143.729 159.981C143.729 158.981 143.435 158.175 142.849 157.561C142.275 156.935 141.535 156.621 140.629 156.621C139.722 156.621 138.975 156.935 138.389 157.561C137.802 158.175 137.509 158.981 137.509 159.981C137.509 160.635 137.642 161.215 137.909 161.721C138.175 162.228 138.542 162.628 139.009 162.921C139.489 163.201 140.029 163.341 140.629 163.341ZM152.182 165.181C150.982 165.181 150.035 164.808 149.342 164.061C148.662 163.315 148.322 162.201 148.322 160.721V155.021H150.442V160.501C150.442 162.421 151.228 163.381 152.802 163.381C153.588 163.381 154.235 163.101 154.742 162.541C155.248 161.981 155.502 161.181 155.502 160.141V155.021H157.622V164.941H155.742L155.582 163.201C155.275 163.815 154.822 164.301 154.222 164.661C153.635 165.008 152.955 165.181 152.182 165.181ZM164.959 165.181C163.985 165.181 163.119 164.968 162.359 164.541C161.612 164.101 161.025 163.495 160.599 162.721C160.172 161.948 159.959 161.048 159.959 160.021C159.959 158.981 160.165 158.068 160.579 157.281C161.005 156.495 161.592 155.881 162.339 155.441C163.099 155.001 163.979 154.781 164.979 154.781C165.952 154.781 166.799 155.001 167.519 155.441C168.239 155.868 168.799 156.441 169.199 157.161C169.599 157.881 169.799 158.675 169.799 159.541C169.799 159.675 169.792 159.821 169.779 159.981C169.779 160.128 169.772 160.295 169.759 160.481H162.039C162.105 161.441 162.419 162.175 162.979 162.681C163.552 163.175 164.212 163.421 164.959 163.421C165.559 163.421 166.059 163.288 166.459 163.021C166.872 162.741 167.179 162.368 167.379 161.901H169.499C169.232 162.835 168.699 163.615 167.899 164.241C167.112 164.868 166.132 165.181 164.959 165.181ZM164.959 156.521C164.252 156.521 163.625 156.735 163.079 157.161C162.532 157.575 162.199 158.201 162.079 159.041H167.679C167.639 158.268 167.365 157.655 166.859 157.201C166.352 156.748 165.719 156.521 164.959 156.521ZM175.958 165.181C174.705 165.181 173.672 164.875 172.858 164.261C172.045 163.648 171.578 162.835 171.458 161.821H173.598C173.705 162.275 173.958 162.668 174.358 163.001C174.758 163.321 175.285 163.481 175.938 163.481C176.578 163.481 177.045 163.348 177.338 163.081C177.632 162.815 177.778 162.508 177.778 162.161C177.778 161.655 177.572 161.315 177.158 161.141C176.758 160.955 176.198 160.788 175.478 160.641C174.918 160.521 174.358 160.361 173.798 160.161C173.252 159.961 172.792 159.681 172.418 159.321C172.058 158.948 171.878 158.448 171.878 157.821C171.878 156.955 172.212 156.235 172.878 155.661C173.545 155.075 174.478 154.781 175.678 154.781C176.785 154.781 177.678 155.048 178.358 155.581C179.052 156.115 179.458 156.868 179.578 157.841H177.538C177.472 157.415 177.272 157.081 176.938 156.841C176.618 156.601 176.185 156.481 175.638 156.481C175.105 156.481 174.692 156.595 174.398 156.821C174.105 157.035 173.958 157.315 173.958 157.661C173.958 158.008 174.158 158.281 174.558 158.481C174.972 158.681 175.512 158.861 176.178 159.021C176.845 159.168 177.458 159.341 178.018 159.541C178.592 159.728 179.052 160.008 179.398 160.381C179.745 160.755 179.918 161.301 179.918 162.021C179.932 162.928 179.578 163.681 178.858 164.281C178.152 164.881 177.185 165.181 175.958 165.181ZM186.021 164.941C185.048 164.941 184.275 164.708 183.701 164.241C183.128 163.761 182.841 162.915 182.841 161.701V156.801H181.141V155.021H182.841L183.101 152.501H184.961V155.021H187.761V156.801H184.961V161.701C184.961 162.248 185.075 162.628 185.301 162.841C185.541 163.041 185.948 163.141 186.521 163.141H187.661V164.941H186.021ZM199.686 165.181C198.66 165.181 197.76 165.001 196.986 164.641C196.213 164.281 195.606 163.768 195.166 163.101C194.74 162.435 194.52 161.641 194.506 160.721H196.746C196.76 161.468 197.02 162.101 197.526 162.621C198.033 163.141 198.746 163.401 199.666 163.401C200.48 163.401 201.113 163.208 201.566 162.821C202.033 162.421 202.266 161.915 202.266 161.301C202.266 160.808 202.153 160.408 201.926 160.101C201.713 159.795 201.413 159.541 201.026 159.341C200.653 159.141 200.22 158.961 199.726 158.801C199.233 158.641 198.713 158.468 198.166 158.281C197.086 157.921 196.273 157.455 195.726 156.881C195.193 156.308 194.926 155.555 194.926 154.621C194.913 153.835 195.093 153.148 195.466 152.561C195.853 151.975 196.386 151.521 197.066 151.201C197.76 150.868 198.566 150.701 199.486 150.701C200.393 150.701 201.186 150.868 201.866 151.201C202.56 151.535 203.1 152.001 203.486 152.601C203.873 153.188 204.073 153.875 204.086 154.661H201.846C201.846 154.301 201.753 153.961 201.566 153.641C201.38 153.308 201.106 153.035 200.746 152.821C200.386 152.608 199.946 152.501 199.426 152.501C198.76 152.488 198.206 152.655 197.766 153.001C197.34 153.348 197.126 153.828 197.126 154.441C197.126 154.988 197.286 155.408 197.606 155.701C197.926 155.995 198.366 156.241 198.926 156.441C199.486 156.628 200.126 156.848 200.846 157.101C201.54 157.328 202.16 157.601 202.706 157.921C203.253 158.241 203.686 158.661 204.006 159.181C204.34 159.701 204.506 160.361 204.506 161.161C204.506 161.868 204.326 162.528 203.966 163.141C203.606 163.741 203.066 164.235 202.346 164.621C201.626 164.995 200.74 165.181 199.686 165.181ZM211.384 165.181C210.411 165.181 209.544 164.968 208.784 164.541C208.038 164.101 207.451 163.495 207.024 162.721C206.598 161.948 206.384 161.048 206.384 160.021C206.384 158.981 206.591 158.068 207.004 157.281C207.431 156.495 208.018 155.881 208.764 155.441C209.524 155.001 210.404 154.781 211.404 154.781C212.378 154.781 213.224 155.001 213.944 155.441C214.664 155.868 215.224 156.441 215.624 157.161C216.024 157.881 216.224 158.675 216.224 159.541C216.224 159.675 216.218 159.821 216.204 159.981C216.204 160.128 216.198 160.295 216.184 160.481H208.464C208.531 161.441 208.844 162.175 209.404 162.681C209.978 163.175 210.638 163.421 211.384 163.421C211.984 163.421 212.484 163.288 212.884 163.021C213.298 162.741 213.604 162.368 213.804 161.901H215.924C215.658 162.835 215.124 163.615 214.324 164.241C213.538 164.868 212.558 165.181 211.384 165.181ZM211.384 156.521C210.678 156.521 210.051 156.735 209.504 157.161C208.958 157.575 208.624 158.201 208.504 159.041H214.104C214.064 158.268 213.791 157.655 213.284 157.201C212.778 156.748 212.144 156.521 211.384 156.521ZM218.424 164.941V155.021H220.304L220.464 156.761C220.771 156.148 221.217 155.668 221.804 155.321C222.404 154.961 223.091 154.781 223.864 154.781C225.064 154.781 226.004 155.155 226.684 155.901C227.377 156.648 227.724 157.761 227.724 159.241V164.941H225.624V159.461C225.624 157.541 224.837 156.581 223.264 156.581C222.477 156.581 221.824 156.861 221.304 157.421C220.797 157.981 220.544 158.781 220.544 159.821V164.941H218.424ZM234.381 164.941C233.408 164.941 232.634 164.708 232.061 164.241C231.488 163.761 231.201 162.915 231.201 161.701V156.801H229.501V155.021H231.201L231.461 152.501H233.321V155.021H236.121V156.801H233.321V161.701C233.321 162.248 233.434 162.628 233.661 162.841C233.901 163.041 234.308 163.141 234.881 163.141H236.021V164.941H234.381ZM248.046 165.181C247.019 165.181 246.119 165.001 245.346 164.641C244.573 164.281 243.966 163.768 243.526 163.101C243.099 162.435 242.879 161.641 242.866 160.721H245.106C245.119 161.468 245.379 162.101 245.886 162.621C246.393 163.141 247.106 163.401 248.026 163.401C248.839 163.401 249.473 163.208 249.926 162.821C250.393 162.421 250.626 161.915 250.626 161.301C250.626 160.808 250.513 160.408 250.286 160.101C250.073 159.795 249.773 159.541 249.386 159.341C249.013 159.141 248.579 158.961 248.086 158.801C247.593 158.641 247.073 158.468 246.526 158.281C245.446 157.921 244.633 157.455 244.086 156.881C243.553 156.308 243.286 155.555 243.286 154.621C243.273 153.835 243.453 153.148 243.826 152.561C244.213 151.975 244.746 151.521 245.426 151.201C246.119 150.868 246.926 150.701 247.846 150.701C248.753 150.701 249.546 150.868 250.226 151.201C250.919 151.535 251.459 152.001 251.846 152.601C252.233 153.188 252.433 153.875 252.446 154.661H250.206C250.206 154.301 250.113 153.961 249.926 153.641C249.739 153.308 249.466 153.035 249.106 152.821C248.746 152.608 248.306 152.501 247.786 152.501C247.119 152.488 246.566 152.655 246.126 153.001C245.699 153.348 245.486 153.828 245.486 154.441C245.486 154.988 245.646 155.408 245.966 155.701C246.286 155.995 246.726 156.241 247.286 156.441C247.846 156.628 248.486 156.848 249.206 157.101C249.899 157.328 250.519 157.601 251.066 157.921C251.613 158.241 252.046 158.661 252.366 159.181C252.699 159.701 252.866 160.361 252.866 161.161C252.866 161.868 252.686 162.528 252.326 163.141C251.966 163.741 251.426 164.235 250.706 164.621C249.986 164.995 249.099 165.181 248.046 165.181ZM258.764 165.181C257.564 165.181 256.617 164.808 255.924 164.061C255.244 163.315 254.904 162.201 254.904 160.721V155.021H257.024V160.501C257.024 162.421 257.81 163.381 259.384 163.381C260.17 163.381 260.817 163.101 261.324 162.541C261.83 161.981 262.084 161.181 262.084 160.141V155.021H264.204V164.941H262.324L262.164 163.201C261.857 163.815 261.404 164.301 260.804 164.661C260.217 165.008 259.537 165.181 258.764 165.181ZM271.601 165.181C270.627 165.181 269.754 164.961 268.981 164.521C268.221 164.081 267.621 163.475 267.181 162.701C266.754 161.915 266.541 161.008 266.541 159.981C266.541 158.955 266.754 158.055 267.181 157.281C267.621 156.495 268.221 155.881 268.981 155.441C269.754 155.001 270.627 154.781 271.601 154.781C272.827 154.781 273.854 155.101 274.681 155.741C275.521 156.381 276.061 157.248 276.301 158.341H274.081C273.947 157.795 273.654 157.368 273.201 157.061C272.747 156.755 272.214 156.601 271.601 156.601C271.081 156.601 270.601 156.735 270.161 157.001C269.721 157.255 269.367 157.635 269.101 158.141C268.834 158.635 268.701 159.248 268.701 159.981C268.701 160.715 268.834 161.335 269.101 161.841C269.367 162.335 269.721 162.715 270.161 162.981C270.601 163.248 271.081 163.381 271.601 163.381C272.214 163.381 272.747 163.228 273.201 162.921C273.654 162.615 273.947 162.181 274.081 161.621H276.301C276.074 162.688 275.541 163.548 274.701 164.201C273.861 164.855 272.827 165.181 271.601 165.181ZM283.3 165.181C282.326 165.181 281.453 164.961 280.68 164.521C279.92 164.081 279.32 163.475 278.88 162.701C278.453 161.915 278.24 161.008 278.24 159.981C278.24 158.955 278.453 158.055 278.88 157.281C279.32 156.495 279.92 155.881 280.68 155.441C281.453 155.001 282.326 154.781 283.3 154.781C284.526 154.781 285.553 155.101 286.38 155.741C287.22 156.381 287.76 157.248 288 158.341H285.78C285.646 157.795 285.353 157.368 284.9 157.061C284.446 156.755 283.913 156.601 283.3 156.601C282.78 156.601 282.3 156.735 281.86 157.001C281.42 157.255 281.066 157.635 280.8 158.141C280.533 158.635 280.4 159.248 280.4 159.981C280.4 160.715 280.533 161.335 280.8 161.841C281.066 162.335 281.42 162.715 281.86 162.981C282.3 163.248 282.78 163.381 283.3 163.381C283.913 163.381 284.446 163.228 284.9 162.921C285.353 162.615 285.646 162.181 285.78 161.621H288C287.773 162.688 287.24 163.548 286.4 164.201C285.56 164.855 284.526 165.181 283.3 165.181ZM294.939 165.181C293.966 165.181 293.099 164.968 292.339 164.541C291.592 164.101 291.006 163.495 290.579 162.721C290.152 161.948 289.939 161.048 289.939 160.021C289.939 158.981 290.146 158.068 290.559 157.281C290.986 156.495 291.572 155.881 292.319 155.441C293.079 155.001 293.959 154.781 294.959 154.781C295.932 154.781 296.779 155.001 297.499 155.441C298.219 155.868 298.779 156.441 299.179 157.161C299.579 157.881 299.779 158.675 299.779 159.541C299.779 159.675 299.772 159.821 299.759 159.981C299.759 160.128 299.752 160.295 299.739 160.481H292.019C292.086 161.441 292.399 162.175 292.959 162.681C293.532 163.175 294.192 163.421 294.939 163.421C295.539 163.421 296.039 163.288 296.439 163.021C296.852 162.741 297.159 162.368 297.359 161.901H299.479C299.212 162.835 298.679 163.615 297.879 164.241C297.092 164.868 296.112 165.181 294.939 165.181ZM294.939 156.521C294.232 156.521 293.606 156.735 293.059 157.161C292.512 157.575 292.179 158.201 292.059 159.041H297.659C297.619 158.268 297.346 157.655 296.839 157.201C296.332 156.748 295.699 156.521 294.939 156.521ZM305.939 165.181C304.685 165.181 303.652 164.875 302.839 164.261C302.025 163.648 301.559 162.835 301.439 161.821H303.579C303.685 162.275 303.939 162.668 304.339 163.001C304.739 163.321 305.265 163.481 305.919 163.481C306.559 163.481 307.025 163.348 307.319 163.081C307.612 162.815 307.759 162.508 307.759 162.161C307.759 161.655 307.552 161.315 307.139 161.141C306.739 160.955 306.179 160.788 305.459 160.641C304.899 160.521 304.339 160.361 303.779 160.161C303.232 159.961 302.772 159.681 302.399 159.321C302.039 158.948 301.859 158.448 301.859 157.821C301.859 156.955 302.192 156.235 302.859 155.661C303.525 155.075 304.459 154.781 305.659 154.781C306.765 154.781 307.659 155.048 308.339 155.581C309.032 156.115 309.439 156.868 309.559 157.841H307.519C307.452 157.415 307.252 157.081 306.919 156.841C306.599 156.601 306.165 156.481 305.619 156.481C305.085 156.481 304.672 156.595 304.379 156.821C304.085 157.035 303.939 157.315 303.939 157.661C303.939 158.008 304.139 158.281 304.539 158.481C304.952 158.681 305.492 158.861 306.159 159.021C306.825 159.168 307.439 159.341 307.999 159.541C308.572 159.728 309.032 160.008 309.379 160.381C309.725 160.755 309.899 161.301 309.899 162.021C309.912 162.928 309.559 163.681 308.839 164.281C308.132 164.881 307.165 165.181 305.939 165.181ZM316.173 165.181C314.92 165.181 313.886 164.875 313.073 164.261C312.26 163.648 311.793 162.835 311.673 161.821H313.813C313.92 162.275 314.173 162.668 314.573 163.001C314.973 163.321 315.5 163.481 316.153 163.481C316.793 163.481 317.26 163.348 317.553 163.081C317.846 162.815 317.993 162.508 317.993 162.161C317.993 161.655 317.786 161.315 317.373 161.141C316.973 160.955 316.413 160.788 315.693 160.641C315.133 160.521 314.573 160.361 314.013 160.161C313.466 159.961 313.006 159.681 312.633 159.321C312.273 158.948 312.093 158.448 312.093 157.821C312.093 156.955 312.426 156.235 313.093 155.661C313.76 155.075 314.693 154.781 315.893 154.781C317 154.781 317.893 155.048 318.573 155.581C319.266 156.115 319.673 156.868 319.793 157.841H317.753C317.686 157.415 317.486 157.081 317.153 156.841C316.833 156.601 316.4 156.481 315.853 156.481C315.32 156.481 314.906 156.595 314.613 156.821C314.32 157.035 314.173 157.315 314.173 157.661C314.173 158.008 314.373 158.281 314.773 158.481C315.186 158.681 315.726 158.861 316.393 159.021C317.06 159.168 317.673 159.341 318.233 159.541C318.806 159.728 319.266 160.008 319.613 160.381C319.96 160.755 320.133 161.301 320.133 162.021C320.146 162.928 319.793 163.681 319.073 164.281C318.366 164.881 317.4 165.181 316.173 165.181ZM322.947 164.941V156.801H321.527V155.021H322.947V153.581C322.947 152.501 323.214 151.728 323.747 151.261C324.294 150.781 325.061 150.541 326.047 150.541H327.087V152.341H326.367C325.901 152.341 325.567 152.441 325.367 152.641C325.167 152.828 325.067 153.148 325.067 153.601V155.021H327.347V156.801H325.067V164.941H322.947ZM333.021 165.181C331.821 165.181 330.875 164.808 330.181 164.061C329.501 163.315 329.161 162.201 329.161 160.721V155.021H331.281V160.501C331.281 162.421 332.068 163.381 333.641 163.381C334.428 163.381 335.075 163.101 335.581 162.541C336.088 161.981 336.341 161.181 336.341 160.141V155.021H338.461V164.941H336.581L336.421 163.201C336.115 163.815 335.661 164.301 335.061 164.661C334.475 165.008 333.795 165.181 333.021 165.181ZM341.158 164.941V150.541H343.278V164.941H341.158ZM345.963 164.941V150.541H348.083V164.941H345.963ZM351.928 169.341L354.308 164.121H353.728L349.808 155.021H352.108L355.148 162.361L358.328 155.021H360.568L354.168 169.341H351.928Z" fill="#4A423B"/>
</svg>
