<svg width="320" height="236" viewBox="0 0 320 236" fill="none" xmlns="http://www.w3.org/2000/svg">
<ellipse cx="162.795" cy="66.1934" rx="47.4317" ry="47.1739" fill="#EDE2D0"/>
<ellipse cx="223.615" cy="26.6291" rx="6.88525" ry="6.84783" fill="#EDE2D0"/>
<ellipse cx="125.691" cy="133.153" rx="6.88525" ry="6.84783" fill="#EDE2D0"/>
<ellipse cx="210.227" cy="116.795" rx="3.44262" ry="3.42391" fill="#EDE2D0"/>
<ellipse cx="100.063" cy="71.9005" rx="3.44262" ry="3.42391" fill="#EDE2D0"/>
<ellipse cx="97.3852" cy="6.84783" rx="6.88525" ry="6.84783" fill="#EDE2D0"/>
<path d="M156.93 51.6094V55.9844" stroke="#F9FAFA" stroke-width="2" stroke-miterlimit="10" stroke-linecap="round" stroke-linejoin="round"/>
<path d="M168.66 51.6094V55.9844" stroke="#F9FAFA" stroke-width="2" stroke-miterlimit="10" stroke-linecap="round" stroke-linejoin="round"/>
<path opacity="0.4" d="M150.331 61.9492H175.258" stroke="#F9FAFA" stroke-width="2" stroke-miterlimit="10" stroke-linecap="round" stroke-linejoin="round"/>
<path d="M171.593 82.237C174.832 82.237 177.458 79.6253 177.458 76.4036C177.458 73.182 174.832 70.5703 171.593 70.5703C168.353 70.5703 165.728 73.182 165.728 76.4036C165.728 79.6253 168.353 82.237 171.593 82.237Z" stroke="#F9FAFA" stroke-width="2" stroke-miterlimit="10" stroke-linecap="round" stroke-linejoin="round"/>
<path d="M173.16 78.0224L170.052 74.9453" stroke="#F9FAFA" stroke-width="2" stroke-miterlimit="10" stroke-linecap="round" stroke-linejoin="round"/>
<path d="M173.132 74.9766L170.023 78.0683" stroke="#F9FAFA" stroke-width="2" stroke-miterlimit="10" stroke-linecap="round" stroke-linejoin="round"/>
<path d="M175.992 61.0885V72.551C174.922 71.3406 173.353 70.5677 171.593 70.5677C168.353 70.5677 165.728 73.1781 165.728 76.401C165.728 77.4948 166.036 78.5302 166.578 79.4052C166.886 79.9302 167.282 80.3969 167.737 80.776H156.93C151.798 80.776 149.599 77.8594 149.599 73.4844V61.0885C149.599 56.7135 151.798 53.7969 156.93 53.7969H168.661C173.793 53.7969 175.992 56.7135 175.992 61.0885Z" fill="#F5F5F5" fill-opacity="0.22" stroke="#F9FAFA" stroke-width="2" stroke-miterlimit="10" stroke-linecap="round" stroke-linejoin="round"/>
<path opacity="0.4" d="M162.789 68.6706H162.802" stroke="#F9FAFA" stroke-width="2" stroke-linecap="round" stroke-linejoin="round"/>
<path opacity="0.4" d="M157.361 68.6706H157.374" stroke="#F9FAFA" stroke-width="2" stroke-linecap="round" stroke-linejoin="round"/>
<path opacity="0.4" d="M157.362 73.0508H157.375" stroke="#F9FAFA" stroke-width="2" stroke-linecap="round" stroke-linejoin="round"/>
<path d="M0.22002 181L4.09002 170.5H5.42502L9.28002 181H7.94502L6.98502 178.3H2.51502L1.54002 181H0.22002ZM2.89002 177.28H6.61002L4.75002 172.09L2.89002 177.28ZM10.766 181V173.56H11.906L12.011 174.985C12.241 174.495 12.591 174.105 13.061 173.815C13.531 173.525 14.111 173.38 14.801 173.38V174.7H14.456C14.016 174.7 13.611 174.78 13.241 174.94C12.871 175.09 12.576 175.35 12.356 175.72C12.136 176.09 12.026 176.6 12.026 177.25V181H10.766ZM19.2819 181.18C18.5719 181.18 17.9419 181.02 17.3919 180.7C16.8419 180.37 16.4069 179.915 16.0869 179.335C15.7769 178.755 15.6219 178.07 15.6219 177.28C15.6219 176.5 15.7769 175.82 16.0869 175.24C16.3969 174.65 16.8269 174.195 17.3769 173.875C17.9369 173.545 18.5819 173.38 19.3119 173.38C20.0319 173.38 20.6519 173.545 21.1719 173.875C21.7019 174.195 22.1069 174.62 22.3869 175.15C22.6669 175.68 22.8069 176.25 22.8069 176.86C22.8069 176.97 22.8019 177.08 22.7919 177.19C22.7919 177.3 22.7919 177.425 22.7919 177.565H16.8669C16.8969 178.135 17.0269 178.61 17.2569 178.99C17.4969 179.36 17.7919 179.64 18.1419 179.83C18.5019 180.02 18.8819 180.115 19.2819 180.115C19.8019 180.115 20.2369 179.995 20.5869 179.755C20.9369 179.515 21.1919 179.19 21.3519 178.78H22.5969C22.3969 179.47 22.0119 180.045 21.4419 180.505C20.8819 180.955 20.1619 181.18 19.2819 181.18ZM19.2819 174.445C18.6819 174.445 18.1469 174.63 17.6769 175C17.2169 175.36 16.9519 175.89 16.8819 176.59H21.5619C21.5319 175.92 21.3019 175.395 20.8719 175.015C20.4419 174.635 19.9119 174.445 19.2819 174.445ZM29.2566 184.3L31.1016 180.28H30.6666L27.7116 173.56H29.0766L31.5366 179.35L34.1466 173.56H35.4516L30.5766 184.3H29.2566ZM39.4685 181.18C38.7685 181.18 38.1385 181.02 37.5785 180.7C37.0185 180.38 36.5735 179.93 36.2435 179.35C35.9235 178.76 35.7635 178.07 35.7635 177.28C35.7635 176.49 35.9285 175.805 36.2585 175.225C36.5885 174.635 37.0335 174.18 37.5935 173.86C38.1635 173.54 38.7985 173.38 39.4985 173.38C40.1985 173.38 40.8285 173.54 41.3885 173.86C41.9485 174.18 42.3885 174.635 42.7085 175.225C43.0385 175.805 43.2035 176.49 43.2035 177.28C43.2035 178.07 43.0385 178.76 42.7085 179.35C42.3785 179.93 41.9285 180.38 41.3585 180.7C40.7985 181.02 40.1685 181.18 39.4685 181.18ZM39.4685 180.1C39.8985 180.1 40.2985 179.995 40.6685 179.785C41.0385 179.575 41.3385 179.26 41.5685 178.84C41.7985 178.42 41.9135 177.9 41.9135 177.28C41.9135 176.66 41.7985 176.14 41.5685 175.72C41.3485 175.3 41.0535 174.985 40.6835 174.775C40.3135 174.565 39.9185 174.46 39.4985 174.46C39.0685 174.46 38.6685 174.565 38.2985 174.775C37.9285 174.985 37.6285 175.3 37.3985 175.72C37.1685 176.14 37.0535 176.66 37.0535 177.28C37.0535 177.9 37.1685 178.42 37.3985 178.84C37.6285 179.26 37.9235 179.575 38.2835 179.785C38.6535 179.995 39.0485 180.1 39.4685 180.1ZM47.6704 181.18C46.7904 181.18 46.0904 180.915 45.5704 180.385C45.0504 179.845 44.7904 179.02 44.7904 177.91V173.56H46.0504V177.775C46.0504 179.325 46.6854 180.1 47.9554 180.1C48.6054 180.1 49.1404 179.87 49.5604 179.41C49.9904 178.94 50.2054 178.275 50.2054 177.415V173.56H51.4654V181H50.3254L50.2354 179.665C50.0054 180.135 49.6604 180.505 49.2004 180.775C48.7504 181.045 48.2404 181.18 47.6704 181.18ZM60.3591 181.18C59.4691 181.18 58.7291 180.955 58.1391 180.505C57.5491 180.055 57.2041 179.445 57.1041 178.675H58.3941C58.4741 179.065 58.6791 179.405 59.0091 179.695C59.3491 179.975 59.8041 180.115 60.3741 180.115C60.9041 180.115 61.2941 180.005 61.5441 179.785C61.7941 179.555 61.9191 179.285 61.9191 178.975C61.9191 178.525 61.7541 178.225 61.4241 178.075C61.1041 177.925 60.6491 177.79 60.0591 177.67C59.6591 177.59 59.2591 177.475 58.8591 177.325C58.4591 177.175 58.1241 176.965 57.8541 176.695C57.5841 176.415 57.4491 176.05 57.4491 175.6C57.4491 174.95 57.6891 174.42 58.1691 174.01C58.6591 173.59 59.3191 173.38 60.1491 173.38C60.9391 173.38 61.5841 173.58 62.0841 173.98C62.5941 174.37 62.8891 174.93 62.9691 175.66H61.7241C61.6741 175.28 61.5091 174.985 61.2291 174.775C60.9591 174.555 60.5941 174.445 60.1341 174.445C59.6841 174.445 59.3341 174.54 59.0841 174.73C58.8441 174.92 58.7241 175.17 58.7241 175.48C58.7241 175.78 58.8791 176.015 59.1891 176.185C59.5091 176.355 59.9391 176.5 60.4791 176.62C60.9391 176.72 61.3741 176.845 61.7841 176.995C62.2041 177.135 62.5441 177.35 62.8041 177.64C63.0741 177.92 63.2091 178.33 63.2091 178.87C63.2191 179.54 62.9641 180.095 62.4441 180.535C61.9341 180.965 61.2391 181.18 60.3591 181.18ZM67.7241 181.18C66.8441 181.18 66.1441 180.915 65.6241 180.385C65.1041 179.845 64.8441 179.02 64.8441 177.91V173.56H66.1041V177.775C66.1041 179.325 66.7391 180.1 68.0091 180.1C68.6591 180.1 69.1941 179.87 69.6141 179.41C70.0441 178.94 70.2591 178.275 70.2591 177.415V173.56H71.5191V181H70.3791L70.2891 179.665C70.0591 180.135 69.7141 180.505 69.2541 180.775C68.8041 181.045 68.2941 181.18 67.7241 181.18ZM73.5931 181V173.56H74.7331L74.8381 174.985C75.0681 174.495 75.4181 174.105 75.8881 173.815C76.3581 173.525 76.9381 173.38 77.6281 173.38V174.7H77.2831C76.8431 174.7 76.4381 174.78 76.0681 174.94C75.6981 175.09 75.4031 175.35 75.1831 175.72C74.9631 176.09 74.8531 176.6 74.8531 177.25V181H73.5931ZM82.109 181.18C81.399 181.18 80.769 181.02 80.219 180.7C79.669 180.37 79.234 179.915 78.914 179.335C78.604 178.755 78.449 178.07 78.449 177.28C78.449 176.5 78.604 175.82 78.914 175.24C79.224 174.65 79.654 174.195 80.204 173.875C80.764 173.545 81.409 173.38 82.139 173.38C82.859 173.38 83.479 173.545 83.999 173.875C84.529 174.195 84.934 174.62 85.214 175.15C85.494 175.68 85.634 176.25 85.634 176.86C85.634 176.97 85.629 177.08 85.619 177.19C85.619 177.3 85.619 177.425 85.619 177.565H79.694C79.724 178.135 79.854 178.61 80.084 178.99C80.324 179.36 80.619 179.64 80.969 179.83C81.329 180.02 81.709 180.115 82.109 180.115C82.629 180.115 83.064 179.995 83.414 179.755C83.764 179.515 84.019 179.19 84.179 178.78H85.424C85.224 179.47 84.839 180.045 84.269 180.505C83.709 180.955 82.989 181.18 82.109 181.18ZM82.109 174.445C81.509 174.445 80.974 174.63 80.504 175C80.044 175.36 79.779 175.89 79.709 176.59H84.389C84.359 175.92 84.129 175.395 83.699 175.015C83.269 174.635 82.739 174.445 82.109 174.445ZM92.0838 184.3L93.9288 180.28H93.4938L90.5388 173.56H91.9038L94.3638 179.35L96.9738 173.56H98.2788L93.4038 184.3H92.0838ZM102.296 181.18C101.596 181.18 100.966 181.02 100.406 180.7C99.8456 180.38 99.4006 179.93 99.0706 179.35C98.7506 178.76 98.5906 178.07 98.5906 177.28C98.5906 176.49 98.7556 175.805 99.0856 175.225C99.4156 174.635 99.8606 174.18 100.421 173.86C100.991 173.54 101.626 173.38 102.326 173.38C103.026 173.38 103.656 173.54 104.216 173.86C104.776 174.18 105.216 174.635 105.536 175.225C105.866 175.805 106.031 176.49 106.031 177.28C106.031 178.07 105.866 178.76 105.536 179.35C105.206 179.93 104.756 180.38 104.186 180.7C103.626 181.02 102.996 181.18 102.296 181.18ZM102.296 180.1C102.726 180.1 103.126 179.995 103.496 179.785C103.866 179.575 104.166 179.26 104.396 178.84C104.626 178.42 104.741 177.9 104.741 177.28C104.741 176.66 104.626 176.14 104.396 175.72C104.176 175.3 103.881 174.985 103.511 174.775C103.141 174.565 102.746 174.46 102.326 174.46C101.896 174.46 101.496 174.565 101.126 174.775C100.756 174.985 100.456 175.3 100.226 175.72C99.9956 176.14 99.8806 176.66 99.8806 177.28C99.8806 177.9 99.9956 178.42 100.226 178.84C100.456 179.26 100.751 179.575 101.111 179.785C101.481 179.995 101.876 180.1 102.296 180.1ZM110.498 181.18C109.618 181.18 108.918 180.915 108.398 180.385C107.878 179.845 107.618 179.02 107.618 177.91V173.56H108.878V177.775C108.878 179.325 109.513 180.1 110.783 180.1C111.433 180.1 111.968 179.87 112.388 179.41C112.818 178.94 113.033 178.275 113.033 177.415V173.56H114.293V181H113.153L113.063 179.665C112.833 180.135 112.488 180.505 112.028 180.775C111.578 181.045 111.068 181.18 110.498 181.18ZM121.836 181L119.661 173.56H120.921L122.496 179.395L124.236 173.56H125.661L127.416 179.395L128.976 173.56H130.251L128.076 181H126.786L124.956 174.865L123.126 181H121.836ZM133.856 181.18C133.236 181.18 132.721 181.075 132.311 180.865C131.901 180.655 131.596 180.375 131.396 180.025C131.196 179.675 131.096 179.295 131.096 178.885C131.096 178.125 131.386 177.54 131.966 177.13C132.546 176.72 133.336 176.515 134.336 176.515H136.346V176.425C136.346 175.775 136.176 175.285 135.836 174.955C135.496 174.615 135.041 174.445 134.471 174.445C133.981 174.445 133.556 174.57 133.196 174.82C132.846 175.06 132.626 175.415 132.536 175.885H131.246C131.296 175.345 131.476 174.89 131.786 174.52C132.106 174.15 132.501 173.87 132.971 173.68C133.441 173.48 133.941 173.38 134.471 173.38C135.511 173.38 136.291 173.66 136.811 174.22C137.341 174.77 137.606 175.505 137.606 176.425V181H136.481L136.406 179.665C136.196 180.085 135.886 180.445 135.476 180.745C135.076 181.035 134.536 181.18 133.856 181.18ZM134.051 180.115C134.531 180.115 134.941 179.99 135.281 179.74C135.631 179.49 135.896 179.165 136.076 178.765C136.256 178.365 136.346 177.945 136.346 177.505V177.49H134.441C133.701 177.49 133.176 177.62 132.866 177.88C132.566 178.13 132.416 178.445 132.416 178.825C132.416 179.215 132.556 179.53 132.836 179.77C133.126 180 133.531 180.115 134.051 180.115ZM139.496 181V173.56H140.636L140.711 174.895C140.951 174.425 141.296 174.055 141.746 173.785C142.196 173.515 142.706 173.38 143.276 173.38C144.156 173.38 144.856 173.65 145.376 174.19C145.906 174.72 146.171 175.54 146.171 176.65V181H144.911V176.785C144.911 175.235 144.271 174.46 142.991 174.46C142.351 174.46 141.816 174.695 141.386 175.165C140.966 175.625 140.756 176.285 140.756 177.145V181H139.496ZM151.02 181C150.34 181 149.805 180.835 149.415 180.505C149.025 180.175 148.83 179.58 148.83 178.72V174.625H147.54V173.56H148.83L148.995 171.775H150.09V173.56H152.28V174.625H150.09V178.72C150.09 179.19 150.185 179.51 150.375 179.68C150.565 179.84 150.9 179.92 151.38 179.92H152.16V181H151.02ZM160.791 181C160.111 181 159.576 180.835 159.186 180.505C158.796 180.175 158.601 179.58 158.601 178.72V174.625H157.311V173.56H158.601L158.766 171.775H159.861V173.56H162.051V174.625H159.861V178.72C159.861 179.19 159.956 179.51 160.146 179.68C160.336 179.84 160.671 179.92 161.151 179.92H161.931V181H160.791ZM166.837 181.18C166.137 181.18 165.507 181.02 164.947 180.7C164.387 180.38 163.942 179.93 163.612 179.35C163.292 178.76 163.132 178.07 163.132 177.28C163.132 176.49 163.297 175.805 163.627 175.225C163.957 174.635 164.402 174.18 164.962 173.86C165.532 173.54 166.167 173.38 166.867 173.38C167.567 173.38 168.197 173.54 168.757 173.86C169.317 174.18 169.757 174.635 170.077 175.225C170.407 175.805 170.572 176.49 170.572 177.28C170.572 178.07 170.407 178.76 170.077 179.35C169.747 179.93 169.297 180.38 168.727 180.7C168.167 181.02 167.537 181.18 166.837 181.18ZM166.837 180.1C167.267 180.1 167.667 179.995 168.037 179.785C168.407 179.575 168.707 179.26 168.937 178.84C169.167 178.42 169.282 177.9 169.282 177.28C169.282 176.66 169.167 176.14 168.937 175.72C168.717 175.3 168.422 174.985 168.052 174.775C167.682 174.565 167.287 174.46 166.867 174.46C166.437 174.46 166.037 174.565 165.667 174.775C165.297 174.985 164.997 175.3 164.767 175.72C164.537 176.14 164.422 176.66 164.422 177.28C164.422 177.9 164.537 178.42 164.767 178.84C164.997 179.26 165.292 179.575 165.652 179.785C166.022 179.995 166.417 180.1 166.837 180.1ZM179.713 181.18C179.003 181.18 178.363 181.02 177.793 180.7C177.233 180.37 176.788 179.915 176.458 179.335C176.138 178.745 175.978 178.06 175.978 177.28C175.978 176.5 176.138 175.82 176.458 175.24C176.788 174.65 177.233 174.195 177.793 173.875C178.363 173.545 179.003 173.38 179.713 173.38C180.593 173.38 181.333 173.61 181.933 174.07C182.543 174.53 182.928 175.145 183.088 175.915H181.798C181.698 175.455 181.453 175.1 181.063 174.85C180.673 174.59 180.218 174.46 179.698 174.46C179.278 174.46 178.883 174.565 178.513 174.775C178.143 174.985 177.843 175.3 177.613 175.72C177.383 176.14 177.268 176.66 177.268 177.28C177.268 177.9 177.383 178.42 177.613 178.84C177.843 179.26 178.143 179.58 178.513 179.8C178.883 180.01 179.278 180.115 179.698 180.115C180.218 180.115 180.673 179.99 181.063 179.74C181.453 179.48 181.698 179.115 181.798 178.645H183.088C182.938 179.395 182.558 180.005 181.948 180.475C181.338 180.945 180.593 181.18 179.713 181.18ZM187.323 181.18C186.703 181.18 186.188 181.075 185.778 180.865C185.368 180.655 185.063 180.375 184.863 180.025C184.663 179.675 184.563 179.295 184.563 178.885C184.563 178.125 184.853 177.54 185.433 177.13C186.013 176.72 186.803 176.515 187.803 176.515H189.813V176.425C189.813 175.775 189.643 175.285 189.303 174.955C188.963 174.615 188.508 174.445 187.938 174.445C187.448 174.445 187.023 174.57 186.663 174.82C186.313 175.06 186.093 175.415 186.003 175.885H184.713C184.763 175.345 184.943 174.89 185.253 174.52C185.573 174.15 185.968 173.87 186.438 173.68C186.908 173.48 187.408 173.38 187.938 173.38C188.978 173.38 189.758 173.66 190.278 174.22C190.808 174.77 191.073 175.505 191.073 176.425V181H189.948L189.873 179.665C189.663 180.085 189.353 180.445 188.943 180.745C188.543 181.035 188.003 181.18 187.323 181.18ZM187.518 180.115C187.998 180.115 188.408 179.99 188.748 179.74C189.098 179.49 189.363 179.165 189.543 178.765C189.723 178.365 189.813 177.945 189.813 177.505V177.49H187.908C187.168 177.49 186.643 177.62 186.333 177.88C186.033 178.13 185.883 178.445 185.883 178.825C185.883 179.215 186.023 179.53 186.303 179.77C186.593 180 186.998 180.115 187.518 180.115ZM192.963 181V173.56H194.103L194.178 174.895C194.418 174.425 194.763 174.055 195.213 173.785C195.663 173.515 196.173 173.38 196.743 173.38C197.623 173.38 198.323 173.65 198.843 174.19C199.373 174.72 199.638 175.54 199.638 176.65V181H198.378V176.785C198.378 175.235 197.738 174.46 196.458 174.46C195.818 174.46 195.283 174.695 194.853 175.165C194.433 175.625 194.223 176.285 194.223 177.145V181H192.963ZM204.967 181.18C204.257 181.18 203.617 181.02 203.047 180.7C202.487 180.37 202.042 179.915 201.712 179.335C201.392 178.745 201.232 178.06 201.232 177.28C201.232 176.5 201.392 175.82 201.712 175.24C202.042 174.65 202.487 174.195 203.047 173.875C203.617 173.545 204.257 173.38 204.967 173.38C205.847 173.38 206.587 173.61 207.187 174.07C207.797 174.53 208.182 175.145 208.342 175.915H207.052C206.952 175.455 206.707 175.1 206.317 174.85C205.927 174.59 205.472 174.46 204.952 174.46C204.532 174.46 204.137 174.565 203.767 174.775C203.397 174.985 203.097 175.3 202.867 175.72C202.637 176.14 202.522 176.66 202.522 177.28C202.522 177.9 202.637 178.42 202.867 178.84C203.097 179.26 203.397 179.58 203.767 179.8C204.137 180.01 204.532 180.115 204.952 180.115C205.472 180.115 205.927 179.99 206.317 179.74C206.707 179.48 206.952 179.115 207.052 178.645H208.342C208.192 179.395 207.812 180.005 207.202 180.475C206.592 180.945 205.847 181.18 204.967 181.18ZM213.447 181.18C212.737 181.18 212.107 181.02 211.557 180.7C211.007 180.37 210.572 179.915 210.252 179.335C209.942 178.755 209.787 178.07 209.787 177.28C209.787 176.5 209.942 175.82 210.252 175.24C210.562 174.65 210.992 174.195 211.542 173.875C212.102 173.545 212.747 173.38 213.477 173.38C214.197 173.38 214.817 173.545 215.337 173.875C215.867 174.195 216.272 174.62 216.552 175.15C216.832 175.68 216.972 176.25 216.972 176.86C216.972 176.97 216.967 177.08 216.957 177.19C216.957 177.3 216.957 177.425 216.957 177.565H211.032C211.062 178.135 211.192 178.61 211.422 178.99C211.662 179.36 211.957 179.64 212.307 179.83C212.667 180.02 213.047 180.115 213.447 180.115C213.967 180.115 214.402 179.995 214.752 179.755C215.102 179.515 215.357 179.19 215.517 178.78H216.762C216.562 179.47 216.177 180.045 215.607 180.505C215.047 180.955 214.327 181.18 213.447 181.18ZM213.447 174.445C212.847 174.445 212.312 174.63 211.842 175C211.382 175.36 211.117 175.89 211.047 176.59H215.727C215.697 175.92 215.467 175.395 215.037 175.015C214.607 174.635 214.077 174.445 213.447 174.445ZM218.642 181V170.2H219.902V181H218.642ZM228.877 181C228.197 181 227.662 180.835 227.272 180.505C226.882 180.175 226.687 179.58 226.687 178.72V174.625H225.397V173.56H226.687L226.852 171.775H227.947V173.56H230.137V174.625H227.947V178.72C227.947 179.19 228.042 179.51 228.232 179.68C228.422 179.84 228.757 179.92 229.237 179.92H230.017V181H228.877ZM231.738 181V170.2H232.998V174.835C233.248 174.375 233.603 174.02 234.063 173.77C234.523 173.51 235.023 173.38 235.563 173.38C236.423 173.38 237.113 173.65 237.633 174.19C238.153 174.72 238.413 175.54 238.413 176.65V181H237.168V176.785C237.168 175.235 236.543 174.46 235.293 174.46C234.643 174.46 234.098 174.695 233.658 175.165C233.218 175.625 232.998 176.285 232.998 177.145V181H231.738ZM241.087 171.91C240.837 171.91 240.627 171.83 240.457 171.67C240.297 171.5 240.217 171.29 240.217 171.04C240.217 170.8 240.297 170.6 240.457 170.44C240.627 170.28 240.837 170.2 241.087 170.2C241.327 170.2 241.532 170.28 241.702 170.44C241.872 170.6 241.957 170.8 241.957 171.04C241.957 171.29 241.872 171.5 241.702 171.67C241.532 171.83 241.327 171.91 241.087 171.91ZM240.457 181V173.56H241.717V181H240.457ZM246.76 181.18C245.87 181.18 245.13 180.955 244.54 180.505C243.95 180.055 243.605 179.445 243.505 178.675H244.795C244.875 179.065 245.08 179.405 245.41 179.695C245.75 179.975 246.205 180.115 246.775 180.115C247.305 180.115 247.695 180.005 247.945 179.785C248.195 179.555 248.32 179.285 248.32 178.975C248.32 178.525 248.155 178.225 247.825 178.075C247.505 177.925 247.05 177.79 246.46 177.67C246.06 177.59 245.66 177.475 245.26 177.325C244.86 177.175 244.525 176.965 244.255 176.695C243.985 176.415 243.85 176.05 243.85 175.6C243.85 174.95 244.09 174.42 244.57 174.01C245.06 173.59 245.72 173.38 246.55 173.38C247.34 173.38 247.985 173.58 248.485 173.98C248.995 174.37 249.29 174.93 249.37 175.66H248.125C248.075 175.28 247.91 174.985 247.63 174.775C247.36 174.555 246.995 174.445 246.535 174.445C246.085 174.445 245.735 174.54 245.485 174.73C245.245 174.92 245.125 175.17 245.125 175.48C245.125 175.78 245.28 176.015 245.59 176.185C245.91 176.355 246.34 176.5 246.88 176.62C247.34 176.72 247.775 176.845 248.185 176.995C248.605 177.135 248.945 177.35 249.205 177.64C249.475 177.92 249.61 178.33 249.61 178.87C249.62 179.54 249.365 180.095 248.845 180.535C248.335 180.965 247.64 181.18 246.76 181.18ZM259.355 181.18C258.745 181.18 258.2 181.055 257.72 180.805C257.25 180.555 256.89 180.205 256.64 179.755L256.52 181H255.38V170.2H256.64V174.79C256.88 174.43 257.22 174.105 257.66 173.815C258.11 173.525 258.68 173.38 259.37 173.38C260.11 173.38 260.755 173.55 261.305 173.89C261.855 174.23 262.28 174.695 262.58 175.285C262.89 175.875 263.045 176.545 263.045 177.295C263.045 178.045 262.89 178.715 262.58 179.305C262.28 179.885 261.85 180.345 261.29 180.685C260.74 181.015 260.095 181.18 259.355 181.18ZM259.22 180.085C259.72 180.085 260.16 179.97 260.54 179.74C260.92 179.5 261.22 179.17 261.44 178.75C261.66 178.33 261.77 177.84 261.77 177.28C261.77 176.72 261.66 176.23 261.44 175.81C261.22 175.39 260.92 175.065 260.54 174.835C260.16 174.595 259.72 174.475 259.22 174.475C258.72 174.475 258.28 174.595 257.9 174.835C257.52 175.065 257.22 175.39 257 175.81C256.78 176.23 256.67 176.72 256.67 177.28C256.67 177.84 256.78 178.33 257 178.75C257.22 179.17 257.52 179.5 257.9 179.74C258.28 179.97 258.72 180.085 259.22 180.085ZM268.189 181.18C267.489 181.18 266.859 181.02 266.299 180.7C265.739 180.38 265.294 179.93 264.964 179.35C264.644 178.76 264.484 178.07 264.484 177.28C264.484 176.49 264.649 175.805 264.979 175.225C265.309 174.635 265.754 174.18 266.314 173.86C266.884 173.54 267.519 173.38 268.219 173.38C268.919 173.38 269.549 173.54 270.109 173.86C270.669 174.18 271.109 174.635 271.429 175.225C271.759 175.805 271.924 176.49 271.924 177.28C271.924 178.07 271.759 178.76 271.429 179.35C271.099 179.93 270.649 180.38 270.079 180.7C269.519 181.02 268.889 181.18 268.189 181.18ZM268.189 180.1C268.619 180.1 269.019 179.995 269.389 179.785C269.759 179.575 270.059 179.26 270.289 178.84C270.519 178.42 270.634 177.9 270.634 177.28C270.634 176.66 270.519 176.14 270.289 175.72C270.069 175.3 269.774 174.985 269.404 174.775C269.034 174.565 268.639 174.46 268.219 174.46C267.789 174.46 267.389 174.565 267.019 174.775C266.649 174.985 266.349 175.3 266.119 175.72C265.889 176.14 265.774 176.66 265.774 177.28C265.774 177.9 265.889 178.42 266.119 178.84C266.349 179.26 266.644 179.575 267.004 179.785C267.374 179.995 267.769 180.1 268.189 180.1ZM277.066 181.18C276.366 181.18 275.736 181.02 275.176 180.7C274.616 180.38 274.171 179.93 273.841 179.35C273.521 178.76 273.361 178.07 273.361 177.28C273.361 176.49 273.526 175.805 273.856 175.225C274.186 174.635 274.631 174.18 275.191 173.86C275.761 173.54 276.396 173.38 277.096 173.38C277.796 173.38 278.426 173.54 278.986 173.86C279.546 174.18 279.986 174.635 280.306 175.225C280.636 175.805 280.801 176.49 280.801 177.28C280.801 178.07 280.636 178.76 280.306 179.35C279.976 179.93 279.526 180.38 278.956 180.7C278.396 181.02 277.766 181.18 277.066 181.18ZM277.066 180.1C277.496 180.1 277.896 179.995 278.266 179.785C278.636 179.575 278.936 179.26 279.166 178.84C279.396 178.42 279.511 177.9 279.511 177.28C279.511 176.66 279.396 176.14 279.166 175.72C278.946 175.3 278.651 174.985 278.281 174.775C277.911 174.565 277.516 174.46 277.096 174.46C276.666 174.46 276.266 174.565 275.896 174.775C275.526 174.985 275.226 175.3 274.996 175.72C274.766 176.14 274.651 176.66 274.651 177.28C274.651 177.9 274.766 178.42 274.996 178.84C275.226 179.26 275.521 179.575 275.881 179.785C276.251 179.995 276.646 180.1 277.066 180.1ZM282.553 181V170.2H283.813V176.695L286.858 173.56H288.403L285.103 176.92L288.823 181H287.218L283.813 177.145V181H282.553ZM290.877 171.91C290.627 171.91 290.417 171.83 290.247 171.67C290.087 171.5 290.007 171.29 290.007 171.04C290.007 170.8 290.087 170.6 290.247 170.44C290.417 170.28 290.627 170.2 290.877 170.2C291.117 170.2 291.322 170.28 291.492 170.44C291.662 170.6 291.747 170.8 291.747 171.04C291.747 171.29 291.662 171.5 291.492 171.67C291.322 171.83 291.117 171.91 290.877 171.91ZM290.247 181V173.56H291.507V181H290.247ZM293.701 181V173.56H294.841L294.916 174.895C295.156 174.425 295.501 174.055 295.951 173.785C296.401 173.515 296.911 173.38 297.481 173.38C298.361 173.38 299.061 173.65 299.581 174.19C300.111 174.72 300.376 175.54 300.376 176.65V181H299.116V176.785C299.116 175.235 298.476 174.46 297.196 174.46C296.556 174.46 296.021 174.695 295.591 175.165C295.171 175.625 294.961 176.285 294.961 177.145V181H293.701ZM305.225 178.66C304.805 178.66 304.42 178.605 304.07 178.495L303.32 179.2C303.43 179.28 303.565 179.35 303.725 179.41C303.895 179.46 304.135 179.51 304.445 179.56C304.755 179.6 305.19 179.645 305.75 179.695C306.75 179.765 307.465 179.995 307.895 180.385C308.325 180.775 308.54 181.285 308.54 181.915C308.54 182.345 308.42 182.755 308.18 183.145C307.95 183.535 307.59 183.855 307.1 184.105C306.62 184.355 306 184.48 305.24 184.48C304.57 184.48 303.975 184.39 303.455 184.21C302.935 184.04 302.53 183.775 302.24 183.415C301.95 183.065 301.805 182.62 301.805 182.08C301.805 181.8 301.88 181.495 302.03 181.165C302.18 180.845 302.46 180.54 302.87 180.25C302.65 180.16 302.46 180.065 302.3 179.965C302.15 179.855 302.01 179.735 301.88 179.605V179.26L303.155 178C302.565 177.5 302.27 176.84 302.27 176.02C302.27 175.53 302.385 175.085 302.615 174.685C302.845 174.285 303.18 173.97 303.62 173.74C304.06 173.5 304.595 173.38 305.225 173.38C305.655 173.38 306.045 173.44 306.395 173.56H309.14V174.505L307.745 174.565C308.035 174.985 308.18 175.47 308.18 176.02C308.18 176.51 308.06 176.955 307.82 177.355C307.59 177.755 307.255 178.075 306.815 178.315C306.385 178.545 305.855 178.66 305.225 178.66ZM305.225 177.625C305.755 177.625 306.175 177.49 306.485 177.22C306.805 176.94 306.965 176.54 306.965 176.02C306.965 175.51 306.805 175.12 306.485 174.85C306.175 174.57 305.755 174.43 305.225 174.43C304.685 174.43 304.255 174.57 303.935 174.85C303.625 175.12 303.47 175.51 303.47 176.02C303.47 176.54 303.625 176.94 303.935 177.22C304.255 177.49 304.685 177.625 305.225 177.625ZM303.035 181.96C303.035 182.46 303.245 182.83 303.665 183.07C304.085 183.32 304.61 183.445 305.24 183.445C305.86 183.445 306.355 183.31 306.725 183.04C307.105 182.77 307.295 182.41 307.295 181.96C307.295 181.64 307.165 181.36 306.905 181.12C306.645 180.89 306.165 180.755 305.465 180.715C304.915 180.675 304.44 180.625 304.04 180.565C303.63 180.785 303.36 181.02 303.23 181.27C303.1 181.53 303.035 181.76 303.035 181.96ZM311.791 178.06L311.731 175.645H312.196C312.756 175.645 313.276 175.59 313.756 175.48C314.246 175.37 314.641 175.155 314.941 174.835C315.241 174.515 315.391 174.035 315.391 173.395C315.391 172.775 315.196 172.285 314.806 171.925C314.426 171.565 313.921 171.385 313.291 171.385C312.651 171.385 312.146 171.56 311.776 171.91C311.406 172.26 311.221 172.73 311.221 173.32H310.021C310.021 172.72 310.156 172.195 310.426 171.745C310.706 171.295 311.091 170.945 311.581 170.695C312.071 170.445 312.641 170.32 313.291 170.32C313.941 170.32 314.516 170.445 315.016 170.695C315.516 170.945 315.906 171.3 316.186 171.76C316.466 172.22 316.606 172.765 316.606 173.395C316.606 174.135 316.446 174.735 316.126 175.195C315.816 175.655 315.381 175.99 314.821 176.2C314.271 176.41 313.641 176.515 312.931 176.515L312.886 178.06H311.791ZM312.331 181.075C312.081 181.075 311.871 180.995 311.701 180.835C311.541 180.665 311.461 180.46 311.461 180.22C311.461 179.98 311.541 179.78 311.701 179.62C311.871 179.45 312.081 179.365 312.331 179.365C312.581 179.365 312.786 179.45 312.946 179.62C313.106 179.78 313.186 179.98 313.186 180.22C313.186 180.46 313.106 180.665 312.946 180.835C312.786 180.995 312.581 181.075 312.331 181.075ZM19.0001 205V194.5H22.4501C23.2701 194.5 23.9451 194.635 24.4751 194.905C25.0051 195.175 25.3951 195.54 25.6451 196C25.9051 196.46 26.0351 196.98 26.0351 197.56C26.0351 198.13 25.9101 198.645 25.6601 199.105C25.4101 199.565 25.0201 199.935 24.4901 200.215C23.9601 200.485 23.2801 200.62 22.4501 200.62H20.2601V205H19.0001ZM20.2601 199.555H22.4201C23.2601 199.555 23.8551 199.38 24.2051 199.03C24.5651 198.67 24.7451 198.18 24.7451 197.56C24.7451 196.93 24.5651 196.44 24.2051 196.09C23.8551 195.73 23.2601 195.55 22.4201 195.55H20.2601V199.555ZM27.6117 205V194.2H28.8717V205H27.6117ZM34.2819 205.18C33.5719 205.18 32.9419 205.02 32.3919 204.7C31.8419 204.37 31.4069 203.915 31.0869 203.335C30.7769 202.755 30.6219 202.07 30.6219 201.28C30.6219 200.5 30.7769 199.82 31.0869 199.24C31.3969 198.65 31.8269 198.195 32.3769 197.875C32.9369 197.545 33.5819 197.38 34.3119 197.38C35.0319 197.38 35.6519 197.545 36.1719 197.875C36.7019 198.195 37.1069 198.62 37.3869 199.15C37.6669 199.68 37.8069 200.25 37.8069 200.86C37.8069 200.97 37.8019 201.08 37.7919 201.19C37.7919 201.3 37.7919 201.425 37.7919 201.565H31.8669C31.8969 202.135 32.0269 202.61 32.2569 202.99C32.4969 203.36 32.7919 203.64 33.1419 203.83C33.5019 204.02 33.8819 204.115 34.2819 204.115C34.8019 204.115 35.2369 203.995 35.5869 203.755C35.9369 203.515 36.1919 203.19 36.3519 202.78H37.5969C37.3969 203.47 37.0119 204.045 36.4419 204.505C35.8819 204.955 35.1619 205.18 34.2819 205.18ZM34.2819 198.445C33.6819 198.445 33.1469 198.63 32.6769 199C32.2169 199.36 31.9519 199.89 31.8819 200.59H36.5619C36.5319 199.92 36.3019 199.395 35.8719 199.015C35.4419 198.635 34.9119 198.445 34.2819 198.445ZM41.9519 205.18C41.3319 205.18 40.8169 205.075 40.4069 204.865C39.9969 204.655 39.6919 204.375 39.4919 204.025C39.2919 203.675 39.1919 203.295 39.1919 202.885C39.1919 202.125 39.4819 201.54 40.0619 201.13C40.6419 200.72 41.4319 200.515 42.4319 200.515H44.4419V200.425C44.4419 199.775 44.2719 199.285 43.9319 198.955C43.5919 198.615 43.1369 198.445 42.5669 198.445C42.0769 198.445 41.6519 198.57 41.2919 198.82C40.9419 199.06 40.7219 199.415 40.6319 199.885H39.3419C39.3919 199.345 39.5719 198.89 39.8819 198.52C40.2019 198.15 40.5969 197.87 41.0669 197.68C41.5369 197.48 42.0369 197.38 42.5669 197.38C43.6069 197.38 44.3869 197.66 44.9069 198.22C45.4369 198.77 45.7019 199.505 45.7019 200.425V205H44.5769L44.5019 203.665C44.2919 204.085 43.9819 204.445 43.5719 204.745C43.1719 205.035 42.6319 205.18 41.9519 205.18ZM42.1469 204.115C42.6269 204.115 43.0369 203.99 43.3769 203.74C43.7269 203.49 43.9919 203.165 44.1719 202.765C44.3519 202.365 44.4419 201.945 44.4419 201.505V201.49H42.5369C41.7969 201.49 41.2719 201.62 40.9619 201.88C40.6619 202.13 40.5119 202.445 40.5119 202.825C40.5119 203.215 40.6519 203.53 40.9319 203.77C41.2219 204 41.6269 204.115 42.1469 204.115ZM50.4421 205.18C49.5521 205.18 48.8121 204.955 48.2221 204.505C47.6321 204.055 47.2871 203.445 47.1871 202.675H48.4771C48.5571 203.065 48.7621 203.405 49.0921 203.695C49.4321 203.975 49.8871 204.115 50.4571 204.115C50.9871 204.115 51.3771 204.005 51.6271 203.785C51.8771 203.555 52.0021 203.285 52.0021 202.975C52.0021 202.525 51.8371 202.225 51.5071 202.075C51.1871 201.925 50.7321 201.79 50.1421 201.67C49.7421 201.59 49.3421 201.475 48.9421 201.325C48.5421 201.175 48.2071 200.965 47.9371 200.695C47.6671 200.415 47.5321 200.05 47.5321 199.6C47.5321 198.95 47.7721 198.42 48.2521 198.01C48.7421 197.59 49.4021 197.38 50.2321 197.38C51.0221 197.38 51.6671 197.58 52.1671 197.98C52.6771 198.37 52.9721 198.93 53.0521 199.66H51.8071C51.7571 199.28 51.5921 198.985 51.3121 198.775C51.0421 198.555 50.6771 198.445 50.2171 198.445C49.7671 198.445 49.4171 198.54 49.1671 198.73C48.9271 198.92 48.8071 199.17 48.8071 199.48C48.8071 199.78 48.9621 200.015 49.2721 200.185C49.5921 200.355 50.0221 200.5 50.5621 200.62C51.0221 200.72 51.4571 200.845 51.8671 200.995C52.2871 201.135 52.6271 201.35 52.8871 201.64C53.1571 201.92 53.2921 202.33 53.2921 202.87C53.3021 203.54 53.0471 204.095 52.5271 204.535C52.0171 204.965 51.3221 205.18 50.4421 205.18ZM58.4371 205.18C57.7271 205.18 57.0971 205.02 56.5471 204.7C55.9971 204.37 55.5621 203.915 55.2421 203.335C54.9321 202.755 54.7771 202.07 54.7771 201.28C54.7771 200.5 54.9321 199.82 55.2421 199.24C55.5521 198.65 55.9821 198.195 56.5321 197.875C57.0921 197.545 57.7371 197.38 58.4671 197.38C59.1871 197.38 59.8071 197.545 60.3271 197.875C60.8571 198.195 61.2621 198.62 61.5421 199.15C61.8221 199.68 61.9621 200.25 61.9621 200.86C61.9621 200.97 61.9571 201.08 61.9471 201.19C61.9471 201.3 61.9471 201.425 61.9471 201.565H56.0221C56.0521 202.135 56.1821 202.61 56.4121 202.99C56.6521 203.36 56.9471 203.64 57.2971 203.83C57.6571 204.02 58.0371 204.115 58.4371 204.115C58.9571 204.115 59.3921 203.995 59.7421 203.755C60.0921 203.515 60.3471 203.19 60.5071 202.78H61.7521C61.5521 203.47 61.1671 204.045 60.5971 204.505C60.0371 204.955 59.3171 205.18 58.4371 205.18ZM58.4371 198.445C57.8371 198.445 57.3021 198.63 56.8321 199C56.3721 199.36 56.1071 199.89 56.0371 200.59H60.7171C60.6871 199.92 60.4571 199.395 60.0271 199.015C59.5971 198.635 59.0671 198.445 58.4371 198.445ZM67.6019 205V197.56H68.7419L68.8169 198.895C69.0569 198.425 69.4019 198.055 69.8519 197.785C70.3019 197.515 70.8119 197.38 71.3819 197.38C72.2619 197.38 72.9619 197.65 73.4819 198.19C74.0119 198.72 74.2769 199.54 74.2769 200.65V205H73.0169V200.785C73.0169 199.235 72.3769 198.46 71.0969 198.46C70.4569 198.46 69.9219 198.695 69.4919 199.165C69.0719 199.625 68.8619 200.285 68.8619 201.145V205H67.6019ZM79.5759 205.18C78.8759 205.18 78.2459 205.02 77.6859 204.7C77.1259 204.38 76.6809 203.93 76.3509 203.35C76.0309 202.76 75.8709 202.07 75.8709 201.28C75.8709 200.49 76.0359 199.805 76.3659 199.225C76.6959 198.635 77.1409 198.18 77.7009 197.86C78.2709 197.54 78.9059 197.38 79.6059 197.38C80.3059 197.38 80.9359 197.54 81.4959 197.86C82.0559 198.18 82.4959 198.635 82.8159 199.225C83.1459 199.805 83.3109 200.49 83.3109 201.28C83.3109 202.07 83.1459 202.76 82.8159 203.35C82.4859 203.93 82.0359 204.38 81.4659 204.7C80.9059 205.02 80.2759 205.18 79.5759 205.18ZM79.5759 204.1C80.0059 204.1 80.4059 203.995 80.7759 203.785C81.1459 203.575 81.4459 203.26 81.6759 202.84C81.9059 202.42 82.0209 201.9 82.0209 201.28C82.0209 200.66 81.9059 200.14 81.6759 199.72C81.4559 199.3 81.1609 198.985 80.7909 198.775C80.4209 198.565 80.0259 198.46 79.6059 198.46C79.1759 198.46 78.7759 198.565 78.4059 198.775C78.0359 198.985 77.7359 199.3 77.5059 199.72C77.2759 200.14 77.1609 200.66 77.1609 201.28C77.1609 201.9 77.2759 202.42 77.5059 202.84C77.7359 203.26 78.0309 203.575 78.3909 203.785C78.7609 203.995 79.1559 204.1 79.5759 204.1ZM87.7099 205C87.0299 205 86.4949 204.835 86.1049 204.505C85.7149 204.175 85.5199 203.58 85.5199 202.72V198.625H84.2299V197.56H85.5199L85.6849 195.775H86.7799V197.56H88.9699V198.625H86.7799V202.72C86.7799 203.19 86.8749 203.51 87.0649 203.68C87.2549 203.84 87.5899 203.92 88.0699 203.92H88.8499V205H87.7099ZM93.7106 205.18C93.0006 205.18 92.3706 205.02 91.8206 204.7C91.2706 204.37 90.8356 203.915 90.5156 203.335C90.2056 202.755 90.0506 202.07 90.0506 201.28C90.0506 200.5 90.2056 199.82 90.5156 199.24C90.8256 198.65 91.2556 198.195 91.8056 197.875C92.3656 197.545 93.0106 197.38 93.7406 197.38C94.4606 197.38 95.0806 197.545 95.6006 197.875C96.1306 198.195 96.5356 198.62 96.8156 199.15C97.0956 199.68 97.2356 200.25 97.2356 200.86C97.2356 200.97 97.2306 201.08 97.2206 201.19C97.2206 201.3 97.2206 201.425 97.2206 201.565H91.2956C91.3256 202.135 91.4556 202.61 91.6856 202.99C91.9256 203.36 92.2206 203.64 92.5706 203.83C92.9306 204.02 93.3106 204.115 93.7106 204.115C94.2306 204.115 94.6656 203.995 95.0156 203.755C95.3656 203.515 95.6206 203.19 95.7806 202.78H97.0256C96.8256 203.47 96.4406 204.045 95.8706 204.505C95.3106 204.955 94.5906 205.18 93.7106 205.18ZM93.7106 198.445C93.1106 198.445 92.5756 198.63 92.1056 199C91.6456 199.36 91.3806 199.89 91.3106 200.59H95.9906C95.9606 199.92 95.7306 199.395 95.3006 199.015C94.8706 198.635 94.3406 198.445 93.7106 198.445ZM105.815 205C105.135 205 104.6 204.835 104.21 204.505C103.82 204.175 103.625 203.58 103.625 202.72V198.625H102.335V197.56H103.625L103.79 195.775H104.885V197.56H107.075V198.625H104.885V202.72C104.885 203.19 104.98 203.51 105.17 203.68C105.36 203.84 105.695 203.92 106.175 203.92H106.955V205H105.815ZM108.676 205V194.2H109.936V198.835C110.186 198.375 110.541 198.02 111.001 197.77C111.461 197.51 111.961 197.38 112.501 197.38C113.361 197.38 114.051 197.65 114.571 198.19C115.091 198.72 115.351 199.54 115.351 200.65V205H114.106V200.785C114.106 199.235 113.481 198.46 112.231 198.46C111.581 198.46 111.036 198.695 110.596 199.165C110.156 199.625 109.936 200.285 109.936 201.145V205H108.676ZM119.735 205.18C119.115 205.18 118.6 205.075 118.19 204.865C117.78 204.655 117.475 204.375 117.275 204.025C117.075 203.675 116.975 203.295 116.975 202.885C116.975 202.125 117.265 201.54 117.845 201.13C118.425 200.72 119.215 200.515 120.215 200.515H122.225V200.425C122.225 199.775 122.055 199.285 121.715 198.955C121.375 198.615 120.92 198.445 120.35 198.445C119.86 198.445 119.435 198.57 119.075 198.82C118.725 199.06 118.505 199.415 118.415 199.885H117.125C117.175 199.345 117.355 198.89 117.665 198.52C117.985 198.15 118.38 197.87 118.85 197.68C119.32 197.48 119.82 197.38 120.35 197.38C121.39 197.38 122.17 197.66 122.69 198.22C123.22 198.77 123.485 199.505 123.485 200.425V205H122.36L122.285 203.665C122.075 204.085 121.765 204.445 121.355 204.745C120.955 205.035 120.415 205.18 119.735 205.18ZM119.93 204.115C120.41 204.115 120.82 203.99 121.16 203.74C121.51 203.49 121.775 203.165 121.955 202.765C122.135 202.365 122.225 201.945 122.225 201.505V201.49H120.32C119.58 201.49 119.055 201.62 118.745 201.88C118.445 202.13 118.295 202.445 118.295 202.825C118.295 203.215 118.435 203.53 118.715 203.77C119.005 204 119.41 204.115 119.93 204.115ZM128.11 205C127.43 205 126.895 204.835 126.505 204.505C126.115 204.175 125.92 203.58 125.92 202.72V198.625H124.63V197.56H125.92L126.085 195.775H127.18V197.56H129.37V198.625H127.18V202.72C127.18 203.19 127.275 203.51 127.465 203.68C127.655 203.84 127.99 203.92 128.47 203.92H129.25V205H128.11ZM137.881 205C137.201 205 136.666 204.835 136.276 204.505C135.886 204.175 135.691 203.58 135.691 202.72V198.625H134.401V197.56H135.691L135.856 195.775H136.951V197.56H139.141V198.625H136.951V202.72C136.951 203.19 137.046 203.51 137.236 203.68C137.426 203.84 137.761 203.92 138.241 203.92H139.021V205H137.881ZM140.742 205V194.2H142.002V198.835C142.252 198.375 142.607 198.02 143.067 197.77C143.527 197.51 144.027 197.38 144.567 197.38C145.427 197.38 146.117 197.65 146.637 198.19C147.157 198.72 147.417 199.54 147.417 200.65V205H146.172V200.785C146.172 199.235 145.547 198.46 144.297 198.46C143.647 198.46 143.102 198.695 142.662 199.165C142.222 199.625 142.002 200.285 142.002 201.145V205H140.742ZM152.671 205.18C151.961 205.18 151.331 205.02 150.781 204.7C150.231 204.37 149.796 203.915 149.476 203.335C149.166 202.755 149.011 202.07 149.011 201.28C149.011 200.5 149.166 199.82 149.476 199.24C149.786 198.65 150.216 198.195 150.766 197.875C151.326 197.545 151.971 197.38 152.701 197.38C153.421 197.38 154.041 197.545 154.561 197.875C155.091 198.195 155.496 198.62 155.776 199.15C156.056 199.68 156.196 200.25 156.196 200.86C156.196 200.97 156.191 201.08 156.181 201.19C156.181 201.3 156.181 201.425 156.181 201.565H150.256C150.286 202.135 150.416 202.61 150.646 202.99C150.886 203.36 151.181 203.64 151.531 203.83C151.891 204.02 152.271 204.115 152.671 204.115C153.191 204.115 153.626 203.995 153.976 203.755C154.326 203.515 154.581 203.19 154.741 202.78H155.986C155.786 203.47 155.401 204.045 154.831 204.505C154.271 204.955 153.551 205.18 152.671 205.18ZM152.671 198.445C152.071 198.445 151.536 198.63 151.066 199C150.606 199.36 150.341 199.89 150.271 200.59H154.951C154.921 199.92 154.691 199.395 154.261 199.015C153.831 198.635 153.301 198.445 152.671 198.445ZM165.81 205.18C165.2 205.18 164.655 205.055 164.175 204.805C163.705 204.555 163.345 204.205 163.095 203.755L162.975 205H161.835V194.2H163.095V198.79C163.335 198.43 163.675 198.105 164.115 197.815C164.565 197.525 165.135 197.38 165.825 197.38C166.565 197.38 167.21 197.55 167.76 197.89C168.31 198.23 168.735 198.695 169.035 199.285C169.345 199.875 169.5 200.545 169.5 201.295C169.5 202.045 169.345 202.715 169.035 203.305C168.735 203.885 168.305 204.345 167.745 204.685C167.195 205.015 166.55 205.18 165.81 205.18ZM165.675 204.085C166.175 204.085 166.615 203.97 166.995 203.74C167.375 203.5 167.675 203.17 167.895 202.75C168.115 202.33 168.225 201.84 168.225 201.28C168.225 200.72 168.115 200.23 167.895 199.81C167.675 199.39 167.375 199.065 166.995 198.835C166.615 198.595 166.175 198.475 165.675 198.475C165.175 198.475 164.735 198.595 164.355 198.835C163.975 199.065 163.675 199.39 163.455 199.81C163.235 200.23 163.125 200.72 163.125 201.28C163.125 201.84 163.235 202.33 163.455 202.75C163.675 203.17 163.975 203.5 164.355 203.74C164.735 203.97 165.175 204.085 165.675 204.085ZM174.644 205.18C173.944 205.18 173.314 205.02 172.754 204.7C172.194 204.38 171.749 203.93 171.419 203.35C171.099 202.76 170.939 202.07 170.939 201.28C170.939 200.49 171.104 199.805 171.434 199.225C171.764 198.635 172.209 198.18 172.769 197.86C173.339 197.54 173.974 197.38 174.674 197.38C175.374 197.38 176.004 197.54 176.564 197.86C177.124 198.18 177.564 198.635 177.884 199.225C178.214 199.805 178.379 200.49 178.379 201.28C178.379 202.07 178.214 202.76 177.884 203.35C177.554 203.93 177.104 204.38 176.534 204.7C175.974 205.02 175.344 205.18 174.644 205.18ZM174.644 204.1C175.074 204.1 175.474 203.995 175.844 203.785C176.214 203.575 176.514 203.26 176.744 202.84C176.974 202.42 177.089 201.9 177.089 201.28C177.089 200.66 176.974 200.14 176.744 199.72C176.524 199.3 176.229 198.985 175.859 198.775C175.489 198.565 175.094 198.46 174.674 198.46C174.244 198.46 173.844 198.565 173.474 198.775C173.104 198.985 172.804 199.3 172.574 199.72C172.344 200.14 172.229 200.66 172.229 201.28C172.229 201.9 172.344 202.42 172.574 202.84C172.804 203.26 173.099 203.575 173.459 203.785C173.829 203.995 174.224 204.1 174.644 204.1ZM183.521 205.18C182.821 205.18 182.191 205.02 181.631 204.7C181.071 204.38 180.626 203.93 180.296 203.35C179.976 202.76 179.816 202.07 179.816 201.28C179.816 200.49 179.981 199.805 180.311 199.225C180.641 198.635 181.086 198.18 181.646 197.86C182.216 197.54 182.851 197.38 183.551 197.38C184.251 197.38 184.881 197.54 185.441 197.86C186.001 198.18 186.441 198.635 186.761 199.225C187.091 199.805 187.256 200.49 187.256 201.28C187.256 202.07 187.091 202.76 186.761 203.35C186.431 203.93 185.981 204.38 185.411 204.7C184.851 205.02 184.221 205.18 183.521 205.18ZM183.521 204.1C183.951 204.1 184.351 203.995 184.721 203.785C185.091 203.575 185.391 203.26 185.621 202.84C185.851 202.42 185.966 201.9 185.966 201.28C185.966 200.66 185.851 200.14 185.621 199.72C185.401 199.3 185.106 198.985 184.736 198.775C184.366 198.565 183.971 198.46 183.551 198.46C183.121 198.46 182.721 198.565 182.351 198.775C181.981 198.985 181.681 199.3 181.451 199.72C181.221 200.14 181.106 200.66 181.106 201.28C181.106 201.9 181.221 202.42 181.451 202.84C181.681 203.26 181.976 203.575 182.336 203.785C182.706 203.995 183.101 204.1 183.521 204.1ZM189.008 205V194.2H190.268V200.695L193.313 197.56H194.858L191.558 200.92L195.278 205H193.673L190.268 201.145V205H189.008ZM197.332 195.91C197.082 195.91 196.872 195.83 196.702 195.67C196.542 195.5 196.462 195.29 196.462 195.04C196.462 194.8 196.542 194.6 196.702 194.44C196.872 194.28 197.082 194.2 197.332 194.2C197.572 194.2 197.777 194.28 197.947 194.44C198.117 194.6 198.202 194.8 198.202 195.04C198.202 195.29 198.117 195.5 197.947 195.67C197.777 195.83 197.572 195.91 197.332 195.91ZM196.702 205V197.56H197.962V205H196.702ZM200.156 205V197.56H201.296L201.371 198.895C201.611 198.425 201.956 198.055 202.406 197.785C202.856 197.515 203.366 197.38 203.936 197.38C204.816 197.38 205.516 197.65 206.036 198.19C206.566 198.72 206.831 199.54 206.831 200.65V205H205.571V200.785C205.571 199.235 204.931 198.46 203.651 198.46C203.011 198.46 202.476 198.695 202.046 199.165C201.626 199.625 201.416 200.285 201.416 201.145V205H200.156ZM211.68 202.66C211.26 202.66 210.875 202.605 210.525 202.495L209.775 203.2C209.885 203.28 210.02 203.35 210.18 203.41C210.35 203.46 210.59 203.51 210.9 203.56C211.21 203.6 211.645 203.645 212.205 203.695C213.205 203.765 213.92 203.995 214.35 204.385C214.78 204.775 214.995 205.285 214.995 205.915C214.995 206.345 214.875 206.755 214.635 207.145C214.405 207.535 214.045 207.855 213.555 208.105C213.075 208.355 212.455 208.48 211.695 208.48C211.025 208.48 210.43 208.39 209.91 208.21C209.39 208.04 208.985 207.775 208.695 207.415C208.405 207.065 208.26 206.62 208.26 206.08C208.26 205.8 208.335 205.495 208.485 205.165C208.635 204.845 208.915 204.54 209.325 204.25C209.105 204.16 208.915 204.065 208.755 203.965C208.605 203.855 208.465 203.735 208.335 203.605V203.26L209.61 202C209.02 201.5 208.725 200.84 208.725 200.02C208.725 199.53 208.84 199.085 209.07 198.685C209.3 198.285 209.635 197.97 210.075 197.74C210.515 197.5 211.05 197.38 211.68 197.38C212.11 197.38 212.5 197.44 212.85 197.56H215.595V198.505L214.2 198.565C214.49 198.985 214.635 199.47 214.635 200.02C214.635 200.51 214.515 200.955 214.275 201.355C214.045 201.755 213.71 202.075 213.27 202.315C212.84 202.545 212.31 202.66 211.68 202.66ZM211.68 201.625C212.21 201.625 212.63 201.49 212.94 201.22C213.26 200.94 213.42 200.54 213.42 200.02C213.42 199.51 213.26 199.12 212.94 198.85C212.63 198.57 212.21 198.43 211.68 198.43C211.14 198.43 210.71 198.57 210.39 198.85C210.08 199.12 209.925 199.51 209.925 200.02C209.925 200.54 210.08 200.94 210.39 201.22C210.71 201.49 211.14 201.625 211.68 201.625ZM209.49 205.96C209.49 206.46 209.7 206.83 210.12 207.07C210.54 207.32 211.065 207.445 211.695 207.445C212.315 207.445 212.81 207.31 213.18 207.04C213.56 206.77 213.75 206.41 213.75 205.96C213.75 205.64 213.62 205.36 213.36 205.12C213.1 204.89 212.62 204.755 211.92 204.715C211.37 204.675 210.895 204.625 210.495 204.565C210.085 204.785 209.815 205.02 209.685 205.27C209.555 205.53 209.49 205.76 209.49 205.96ZM224.406 205.18C223.696 205.18 223.056 205.02 222.486 204.7C221.926 204.37 221.481 203.915 221.151 203.335C220.831 202.745 220.671 202.06 220.671 201.28C220.671 200.5 220.831 199.82 221.151 199.24C221.481 198.65 221.926 198.195 222.486 197.875C223.056 197.545 223.696 197.38 224.406 197.38C225.286 197.38 226.026 197.61 226.626 198.07C227.236 198.53 227.621 199.145 227.781 199.915H226.491C226.391 199.455 226.146 199.1 225.756 198.85C225.366 198.59 224.911 198.46 224.391 198.46C223.971 198.46 223.576 198.565 223.206 198.775C222.836 198.985 222.536 199.3 222.306 199.72C222.076 200.14 221.961 200.66 221.961 201.28C221.961 201.9 222.076 202.42 222.306 202.84C222.536 203.26 222.836 203.58 223.206 203.8C223.576 204.01 223.971 204.115 224.391 204.115C224.911 204.115 225.366 203.99 225.756 203.74C226.146 203.48 226.391 203.115 226.491 202.645H227.781C227.631 203.395 227.251 204.005 226.641 204.475C226.031 204.945 225.286 205.18 224.406 205.18ZM232.93 205.18C232.23 205.18 231.6 205.02 231.04 204.7C230.48 204.38 230.035 203.93 229.705 203.35C229.385 202.76 229.225 202.07 229.225 201.28C229.225 200.49 229.39 199.805 229.72 199.225C230.05 198.635 230.495 198.18 231.055 197.86C231.625 197.54 232.26 197.38 232.96 197.38C233.66 197.38 234.29 197.54 234.85 197.86C235.41 198.18 235.85 198.635 236.17 199.225C236.5 199.805 236.665 200.49 236.665 201.28C236.665 202.07 236.5 202.76 236.17 203.35C235.84 203.93 235.39 204.38 234.82 204.7C234.26 205.02 233.63 205.18 232.93 205.18ZM232.93 204.1C233.36 204.1 233.76 203.995 234.13 203.785C234.5 203.575 234.8 203.26 235.03 202.84C235.26 202.42 235.375 201.9 235.375 201.28C235.375 200.66 235.26 200.14 235.03 199.72C234.81 199.3 234.515 198.985 234.145 198.775C233.775 198.565 233.38 198.46 232.96 198.46C232.53 198.46 232.13 198.565 231.76 198.775C231.39 198.985 231.09 199.3 230.86 199.72C230.63 200.14 230.515 200.66 230.515 201.28C230.515 201.9 230.63 202.42 230.86 202.84C231.09 203.26 231.385 203.575 231.745 203.785C232.115 203.995 232.51 204.1 232.93 204.1ZM241.267 205.18C240.377 205.18 239.637 204.955 239.047 204.505C238.457 204.055 238.112 203.445 238.012 202.675H239.302C239.382 203.065 239.587 203.405 239.917 203.695C240.257 203.975 240.712 204.115 241.282 204.115C241.812 204.115 242.202 204.005 242.452 203.785C242.702 203.555 242.827 203.285 242.827 202.975C242.827 202.525 242.662 202.225 242.332 202.075C242.012 201.925 241.557 201.79 240.967 201.67C240.567 201.59 240.167 201.475 239.767 201.325C239.367 201.175 239.032 200.965 238.762 200.695C238.492 200.415 238.357 200.05 238.357 199.6C238.357 198.95 238.597 198.42 239.077 198.01C239.567 197.59 240.227 197.38 241.057 197.38C241.847 197.38 242.492 197.58 242.992 197.98C243.502 198.37 243.797 198.93 243.877 199.66H242.632C242.582 199.28 242.417 198.985 242.137 198.775C241.867 198.555 241.502 198.445 241.042 198.445C240.592 198.445 240.242 198.54 239.992 198.73C239.752 198.92 239.632 199.17 239.632 199.48C239.632 199.78 239.787 200.015 240.097 200.185C240.417 200.355 240.847 200.5 241.387 200.62C241.847 200.72 242.282 200.845 242.692 200.995C243.112 201.135 243.452 201.35 243.712 201.64C243.982 201.92 244.117 202.33 244.117 202.87C244.127 203.54 243.872 204.095 243.352 204.535C242.842 204.965 242.147 205.18 241.267 205.18ZM248.52 205C247.84 205 247.305 204.835 246.915 204.505C246.525 204.175 246.33 203.58 246.33 202.72V198.625H245.04V197.56H246.33L246.495 195.775H247.59V197.56H249.78V198.625H247.59V202.72C247.59 203.19 247.685 203.51 247.875 203.68C248.065 203.84 248.4 203.92 248.88 203.92H249.66V205H248.52ZM256.116 195.91C255.866 195.91 255.656 195.83 255.486 195.67C255.326 195.5 255.246 195.29 255.246 195.04C255.246 194.8 255.326 194.6 255.486 194.44C255.656 194.28 255.866 194.2 256.116 194.2C256.356 194.2 256.561 194.28 256.731 194.44C256.901 194.6 256.986 194.8 256.986 195.04C256.986 195.29 256.901 195.5 256.731 195.67C256.561 195.83 256.356 195.91 256.116 195.91ZM255.486 205V197.56H256.746V205H255.486ZM261.79 205.18C260.9 205.18 260.16 204.955 259.57 204.505C258.98 204.055 258.635 203.445 258.535 202.675H259.825C259.905 203.065 260.11 203.405 260.44 203.695C260.78 203.975 261.235 204.115 261.805 204.115C262.335 204.115 262.725 204.005 262.975 203.785C263.225 203.555 263.35 203.285 263.35 202.975C263.35 202.525 263.185 202.225 262.855 202.075C262.535 201.925 262.08 201.79 261.49 201.67C261.09 201.59 260.69 201.475 260.29 201.325C259.89 201.175 259.555 200.965 259.285 200.695C259.015 200.415 258.88 200.05 258.88 199.6C258.88 198.95 259.12 198.42 259.6 198.01C260.09 197.59 260.75 197.38 261.58 197.38C262.37 197.38 263.015 197.58 263.515 197.98C264.025 198.37 264.32 198.93 264.4 199.66H263.155C263.105 199.28 262.94 198.985 262.66 198.775C262.39 198.555 262.025 198.445 261.565 198.445C261.115 198.445 260.765 198.54 260.515 198.73C260.275 198.92 260.155 199.17 260.155 199.48C260.155 199.78 260.31 200.015 260.62 200.185C260.94 200.355 261.37 200.5 261.91 200.62C262.37 200.72 262.805 200.845 263.215 200.995C263.635 201.135 263.975 201.35 264.235 201.64C264.505 201.92 264.64 202.33 264.64 202.87C264.65 203.54 264.395 204.095 263.875 204.535C263.365 204.965 262.67 205.18 261.79 205.18ZM270.41 205V197.56H271.55L271.625 198.895C271.865 198.425 272.21 198.055 272.66 197.785C273.11 197.515 273.62 197.38 274.19 197.38C275.07 197.38 275.77 197.65 276.29 198.19C276.82 198.72 277.085 199.54 277.085 200.65V205H275.825V200.785C275.825 199.235 275.185 198.46 273.905 198.46C273.265 198.46 272.73 198.695 272.3 199.165C271.88 199.625 271.67 200.285 271.67 201.145V205H270.41ZM282.383 205.18C281.683 205.18 281.053 205.02 280.493 204.7C279.933 204.38 279.488 203.93 279.158 203.35C278.838 202.76 278.678 202.07 278.678 201.28C278.678 200.49 278.843 199.805 279.173 199.225C279.503 198.635 279.948 198.18 280.508 197.86C281.078 197.54 281.713 197.38 282.413 197.38C283.113 197.38 283.743 197.54 284.303 197.86C284.863 198.18 285.303 198.635 285.623 199.225C285.953 199.805 286.118 200.49 286.118 201.28C286.118 202.07 285.953 202.76 285.623 203.35C285.293 203.93 284.843 204.38 284.273 204.7C283.713 205.02 283.083 205.18 282.383 205.18ZM282.383 204.1C282.813 204.1 283.213 203.995 283.583 203.785C283.953 203.575 284.253 203.26 284.483 202.84C284.713 202.42 284.828 201.9 284.828 201.28C284.828 200.66 284.713 200.14 284.483 199.72C284.263 199.3 283.968 198.985 283.598 198.775C283.228 198.565 282.833 198.46 282.413 198.46C281.983 198.46 281.583 198.565 281.213 198.775C280.843 198.985 280.543 199.3 280.313 199.72C280.083 200.14 279.968 200.66 279.968 201.28C279.968 201.9 280.083 202.42 280.313 202.84C280.543 203.26 280.838 203.575 281.198 203.785C281.568 203.995 281.963 204.1 282.383 204.1ZM287.87 205V197.56H289.01L289.085 198.895C289.325 198.425 289.67 198.055 290.12 197.785C290.57 197.515 291.08 197.38 291.65 197.38C292.53 197.38 293.23 197.65 293.75 198.19C294.28 198.72 294.545 199.54 294.545 200.65V205H293.285V200.785C293.285 199.235 292.645 198.46 291.365 198.46C290.725 198.46 290.19 198.695 289.76 199.165C289.34 199.625 289.13 200.285 289.13 201.145V205H287.87ZM296.304 201.175V200.11H302.244V201.175H296.304ZM122.724 229V221.56H123.864L123.969 222.985C124.199 222.495 124.549 222.105 125.019 221.815C125.489 221.525 126.069 221.38 126.759 221.38V222.7H126.414C125.974 222.7 125.569 222.78 125.199 222.94C124.829 223.09 124.534 223.35 124.314 223.72C124.094 224.09 123.984 224.6 123.984 225.25V229H122.724ZM131.24 229.18C130.53 229.18 129.9 229.02 129.35 228.7C128.8 228.37 128.365 227.915 128.045 227.335C127.735 226.755 127.58 226.07 127.58 225.28C127.58 224.5 127.735 223.82 128.045 223.24C128.355 222.65 128.785 222.195 129.335 221.875C129.895 221.545 130.54 221.38 131.27 221.38C131.99 221.38 132.61 221.545 133.13 221.875C133.66 222.195 134.065 222.62 134.345 223.15C134.625 223.68 134.765 224.25 134.765 224.86C134.765 224.97 134.76 225.08 134.75 225.19C134.75 225.3 134.75 225.425 134.75 225.565H128.825C128.855 226.135 128.985 226.61 129.215 226.99C129.455 227.36 129.75 227.64 130.1 227.83C130.46 228.02 130.84 228.115 131.24 228.115C131.76 228.115 132.195 227.995 132.545 227.755C132.895 227.515 133.15 227.19 133.31 226.78H134.555C134.355 227.47 133.97 228.045 133.4 228.505C132.84 228.955 132.12 229.18 131.24 229.18ZM131.24 222.445C130.64 222.445 130.105 222.63 129.635 223C129.175 223.36 128.91 223.89 128.84 224.59H133.52C133.49 223.92 133.26 223.395 132.83 223.015C132.4 222.635 131.87 222.445 131.24 222.445ZM136.84 229V222.625H135.715V221.56H136.84V220.27C136.84 219.55 137.02 219.025 137.38 218.695C137.74 218.365 138.265 218.2 138.955 218.2H139.705V219.28H139.15C138.77 219.28 138.5 219.36 138.34 219.52C138.18 219.67 138.1 219.93 138.1 220.3V221.56H139.93V222.625H138.1V229H136.84ZM144.145 229.18C143.265 229.18 142.565 228.915 142.045 228.385C141.525 227.845 141.265 227.02 141.265 225.91V221.56H142.525V225.775C142.525 227.325 143.16 228.1 144.43 228.1C145.08 228.1 145.615 227.87 146.035 227.41C146.465 226.94 146.68 226.275 146.68 225.415V221.56H147.94V229H146.8L146.71 227.665C146.48 228.135 146.135 228.505 145.675 228.775C145.225 229.045 144.715 229.18 144.145 229.18ZM150.014 229V221.56H151.154L151.229 222.895C151.469 222.425 151.814 222.055 152.264 221.785C152.714 221.515 153.224 221.38 153.794 221.38C154.674 221.38 155.374 221.65 155.894 222.19C156.424 222.72 156.689 223.54 156.689 224.65V229H155.429V224.785C155.429 223.235 154.789 222.46 153.509 222.46C152.869 222.46 152.334 222.695 151.904 223.165C151.484 223.625 151.274 224.285 151.274 225.145V229H150.014ZM161.973 229.18C161.233 229.18 160.583 229.01 160.023 228.67C159.473 228.33 159.043 227.865 158.733 227.275C158.433 226.685 158.283 226.015 158.283 225.265C158.283 224.515 158.438 223.85 158.748 223.27C159.058 222.68 159.488 222.22 160.038 221.89C160.588 221.55 161.238 221.38 161.988 221.38C162.598 221.38 163.138 221.505 163.608 221.755C164.078 222.005 164.443 222.355 164.703 222.805V218.2H165.963V229H164.823L164.703 227.77C164.463 228.13 164.118 228.455 163.668 228.745C163.218 229.035 162.653 229.18 161.973 229.18ZM162.108 228.085C162.608 228.085 163.048 227.97 163.428 227.74C163.818 227.5 164.118 227.17 164.328 226.75C164.548 226.33 164.658 225.84 164.658 225.28C164.658 224.72 164.548 224.23 164.328 223.81C164.118 223.39 163.818 223.065 163.428 222.835C163.048 222.595 162.608 222.475 162.108 222.475C161.618 222.475 161.178 222.595 160.788 222.835C160.408 223.065 160.108 223.39 159.888 223.81C159.678 224.23 159.573 224.72 159.573 225.28C159.573 225.84 159.678 226.33 159.888 226.75C160.108 227.17 160.408 227.5 160.788 227.74C161.178 227.97 161.618 228.085 162.108 228.085ZM170.492 229.18C169.872 229.18 169.357 229.075 168.947 228.865C168.537 228.655 168.232 228.375 168.032 228.025C167.832 227.675 167.732 227.295 167.732 226.885C167.732 226.125 168.022 225.54 168.602 225.13C169.182 224.72 169.972 224.515 170.972 224.515H172.982V224.425C172.982 223.775 172.812 223.285 172.472 222.955C172.132 222.615 171.677 222.445 171.107 222.445C170.617 222.445 170.192 222.57 169.832 222.82C169.482 223.06 169.262 223.415 169.172 223.885H167.882C167.932 223.345 168.112 222.89 168.422 222.52C168.742 222.15 169.137 221.87 169.607 221.68C170.077 221.48 170.577 221.38 171.107 221.38C172.147 221.38 172.927 221.66 173.447 222.22C173.977 222.77 174.242 223.505 174.242 224.425V229H173.117L173.042 227.665C172.832 228.085 172.522 228.445 172.112 228.745C171.712 229.035 171.172 229.18 170.492 229.18ZM170.687 228.115C171.167 228.115 171.577 227.99 171.917 227.74C172.267 227.49 172.532 227.165 172.712 226.765C172.892 226.365 172.982 225.945 172.982 225.505V225.49H171.077C170.337 225.49 169.812 225.62 169.502 225.88C169.202 226.13 169.052 226.445 169.052 226.825C169.052 227.215 169.192 227.53 169.472 227.77C169.762 228 170.167 228.115 170.687 228.115ZM180.107 229.18C179.497 229.18 178.952 229.055 178.472 228.805C178.002 228.555 177.642 228.205 177.392 227.755L177.272 229H176.132V218.2H177.392V222.79C177.632 222.43 177.972 222.105 178.412 221.815C178.862 221.525 179.432 221.38 180.122 221.38C180.862 221.38 181.507 221.55 182.057 221.89C182.607 222.23 183.032 222.695 183.332 223.285C183.642 223.875 183.797 224.545 183.797 225.295C183.797 226.045 183.642 226.715 183.332 227.305C183.032 227.885 182.602 228.345 182.042 228.685C181.492 229.015 180.847 229.18 180.107 229.18ZM179.972 228.085C180.472 228.085 180.912 227.97 181.292 227.74C181.672 227.5 181.972 227.17 182.192 226.75C182.412 226.33 182.522 225.84 182.522 225.28C182.522 224.72 182.412 224.23 182.192 223.81C181.972 223.39 181.672 223.065 181.292 222.835C180.912 222.595 180.472 222.475 179.972 222.475C179.472 222.475 179.032 222.595 178.652 222.835C178.272 223.065 177.972 223.39 177.752 223.81C177.532 224.23 177.422 224.72 177.422 225.28C177.422 225.84 177.532 226.33 177.752 226.75C177.972 227.17 178.272 227.5 178.652 227.74C179.032 227.97 179.472 228.085 179.972 228.085ZM185.551 229V218.2H186.811V229H185.551ZM192.221 229.18C191.511 229.18 190.881 229.02 190.331 228.7C189.781 228.37 189.346 227.915 189.026 227.335C188.716 226.755 188.561 226.07 188.561 225.28C188.561 224.5 188.716 223.82 189.026 223.24C189.336 222.65 189.766 222.195 190.316 221.875C190.876 221.545 191.521 221.38 192.251 221.38C192.971 221.38 193.591 221.545 194.111 221.875C194.641 222.195 195.046 222.62 195.326 223.15C195.606 223.68 195.746 224.25 195.746 224.86C195.746 224.97 195.741 225.08 195.731 225.19C195.731 225.3 195.731 225.425 195.731 225.565H189.806C189.836 226.135 189.966 226.61 190.196 226.99C190.436 227.36 190.731 227.64 191.081 227.83C191.441 228.02 191.821 228.115 192.221 228.115C192.741 228.115 193.176 227.995 193.526 227.755C193.876 227.515 194.131 227.19 194.291 226.78H195.536C195.336 227.47 194.951 228.045 194.381 228.505C193.821 228.955 193.101 229.18 192.221 229.18ZM192.221 222.445C191.621 222.445 191.086 222.63 190.616 223C190.156 223.36 189.891 223.89 189.821 224.59H194.501C194.471 223.92 194.241 223.395 193.811 223.015C193.381 222.635 192.851 222.445 192.221 222.445ZM197.851 229.075C197.601 229.075 197.391 228.995 197.221 228.835C197.061 228.665 196.981 228.46 196.981 228.22C196.981 227.98 197.061 227.78 197.221 227.62C197.391 227.45 197.601 227.365 197.851 227.365C198.091 227.365 198.291 227.45 198.451 227.62C198.621 227.78 198.706 227.98 198.706 228.22C198.706 228.46 198.621 228.665 198.451 228.835C198.291 228.995 198.091 229.075 197.851 229.075Z" fill="#4A423B"/>
</svg>
