<svg width="39" height="16" viewBox="0 0 39 16" fill="none" xmlns="http://www.w3.org/2000/svg">
<path fill-rule="evenodd" clip-rule="evenodd" d="M38.5652 7.23588L31.4459 0.316535C31.0115 -0.105512 30.3069 -0.105512 29.8727 0.316535C29.4382 0.739114 29.4382 1.42351 29.8727 1.84556L35.093 6.91921H1.11233C0.498074 6.91921 0 7.40308 0 8.0004C0 8.59717 0.498074 9.08158 1.11233 9.08158H35.093L29.8728 14.1552C29.4383 14.5767 29.4383 15.2617 29.8728 15.6837C30.09 15.8945 30.3747 15.9999 30.6594 15.9999C30.9441 15.9999 31.2288 15.8945 31.446 15.6837L38.5652 8.76437C38.9997 8.34288 38.9997 7.65793 38.5652 7.23588Z" fill="#C39D63"/>
</svg>
