<svg width="20" height="20" viewBox="0 0 20 20" fill="none" xmlns="http://www.w3.org/2000/svg">
<g id="vuesax/linear/category-2">
<g id="category-2">
<path id="Vector" d="M14.1665 8.33268H15.8332C17.4998 8.33268 18.3332 7.49935 18.3332 5.83268V4.16602C18.3332 2.49935 17.4998 1.66602 15.8332 1.66602H14.1665C12.4998 1.66602 11.6665 2.49935 11.6665 4.16602V5.83268C11.6665 7.49935 12.4998 8.33268 14.1665 8.33268Z" stroke="#4A423B" stroke-width="1.5" stroke-miterlimit="10" stroke-linecap="round" stroke-linejoin="round"/>
<path id="Vector_2" d="M4.1665 18.3327H5.83317C7.49984 18.3327 8.33317 17.4993 8.33317 15.8327V14.166C8.33317 12.4993 7.49984 11.666 5.83317 11.666H4.1665C2.49984 11.666 1.6665 12.4993 1.6665 14.166V15.8327C1.6665 17.4993 2.49984 18.3327 4.1665 18.3327Z" stroke="#4A423B" stroke-width="1.5" stroke-miterlimit="10" stroke-linecap="round" stroke-linejoin="round"/>
<path id="Vector_3" d="M4.99984 8.33268C6.84079 8.33268 8.33317 6.8403 8.33317 4.99935C8.33317 3.1584 6.84079 1.66602 4.99984 1.66602C3.15889 1.66602 1.6665 3.1584 1.6665 4.99935C1.6665 6.8403 3.15889 8.33268 4.99984 8.33268Z" stroke="#4A423B" stroke-width="1.5" stroke-miterlimit="10" stroke-linecap="round" stroke-linejoin="round"/>
<path id="Vector_4" d="M14.9998 18.3327C16.8408 18.3327 18.3332 16.8403 18.3332 14.9993C18.3332 13.1584 16.8408 11.666 14.9998 11.666C13.1589 11.666 11.6665 13.1584 11.6665 14.9993C11.6665 16.8403 13.1589 18.3327 14.9998 18.3327Z" stroke="#4A423B" stroke-width="1.5" stroke-miterlimit="10" stroke-linecap="round" stroke-linejoin="round"/>
</g>
</g>
</svg>
