<svg width="20" height="20" viewBox="0 0 20 20" fill="none" xmlns="http://www.w3.org/2000/svg">
<path d="M18.3299 14.3359C18.3299 15.0859 18.1216 15.7942 17.7468 16.3942C17.0553 17.5526 15.7891 18.3359 14.3312 18.3359C12.8734 18.3359 11.5988 17.5526 10.9157 16.3942C10.5491 15.7942 10.3325 15.0859 10.3325 14.3359C10.3325 12.1276 12.1236 10.3359 14.3312 10.3359C16.5388 10.3359 18.3299 12.1276 18.3299 14.3359Z" stroke="#444237" stroke-width="1.5" stroke-miterlimit="10" stroke-linecap="round" stroke-linejoin="round"/>
<path d="M12.7729 14.3388L13.756 15.3221L15.8886 13.3555" stroke="#444237" stroke-width="1.5" stroke-linecap="round" stroke-linejoin="round"/>
<path d="M18.3297 7.24429C18.3297 8.88596 17.9048 10.3359 17.2384 11.5943C16.5053 10.8193 15.4723 10.336 14.331 10.336C12.1234 10.336 10.3323 12.1276 10.3323 14.336C10.3323 15.361 10.7238 16.2943 11.357 17.0026C11.0487 17.1443 10.7655 17.261 10.5156 17.3443C10.2323 17.4443 9.76581 17.4443 9.48257 17.3443C7.0667 16.5193 1.66846 13.0776 1.66846 7.24429C1.66846 4.66929 3.74278 2.58594 6.30028 2.58594C7.80812 2.58594 9.15768 3.31931 9.99907 4.44431C10.8405 3.31931 12.19 2.58594 13.6979 2.58594C16.2554 2.58594 18.3297 4.66929 18.3297 7.24429Z" stroke="#444237" stroke-width="1.5" stroke-linecap="round" stroke-linejoin="round"/>
</svg>
