<svg width="40" height="16" viewBox="0 0 40 16" fill="none" xmlns="http://www.w3.org/2000/svg">
<path fill-rule="evenodd" clip-rule="evenodd" d="M39.3347 7.23588L32.2154 0.316535C31.781 -0.105512 31.0764 -0.105512 30.6422 0.316535C30.2077 0.739114 30.2077 1.42351 30.6422 1.84556L35.8625 6.91921H1.88186C1.26761 6.91921 0.769531 7.40308 0.769531 8.0004C0.769531 8.59717 1.26761 9.08158 1.88186 9.08158H35.8625L30.6423 14.1552C30.2078 14.5767 30.2078 15.2617 30.6423 15.6837C30.8595 15.8945 31.1443 15.9999 31.429 15.9999C31.7136 15.9999 31.9983 15.8945 32.2155 15.6837L39.3347 8.76437C39.7692 8.34288 39.7692 7.65793 39.3347 7.23588Z" fill="#C39D63"/>
</svg>
